<?xml version="1.0" encoding="UTF-8"?>
<svg width="672px" height="230px" viewBox="0 0 672 230" version="1.1" xmlns="http://www.w3.org/2000/svg" xmlns:xlink="http://www.w3.org/1999/xlink">
    <!-- Generator: Sketch 46.2 (44496) - http://www.bohemiancoding.com/sketch -->
    <title>banner</title>
    <desc>Created with Sketch.</desc>
    <defs></defs>
    <g id="Page-1" stroke="none" stroke-width="1" fill="none" fill-rule="evenodd">
        <g id="banner">
            <g id="Artboard-4" transform="translate(32.000000, 8.000000)">
                <path d="M56.808,93.7752809 L63.192,93.7752809 L64.8,95.3862921 L62.64,98.5842697 L87.168,124.600899 C82.368,134.795955 75.504,141.865169 67.2,151.483146 L62.4,210.152809 C62.4,211.480775 61.3254834,212.557303 60,212.557303 C58.6745166,212.557303 57.6,211.480775 57.6,210.152809 L52.8,151.483146 C45.6,143.067416 38.64,135.228764 33.6,124.16809 L57.6,98.5842697 L55.344,95.1217978 L56.808,93.7752809 Z" id="Shape" fill="#FFFBF5" fill-rule="nonzero"></path>
                <path d="M114.12,26.0406742 L119.208,31.258427 L94.296,56.0968539 C94.128,52.7786517 93.912,49.6047191 93.624,46.4788764 L114.12,26.0406742 Z" id="Shape" fill="#FCB514" fill-rule="nonzero"></path>
                <polygon id="Shape" fill="#E5960A" fill-rule="nonzero" points="97.2 189.955056 97.2 201.35236 68.616 197.673483 70.296 183.006067"></polygon>
                <path d="M63.192,77.0640449 L93.168,47.0319101 L93.624,46.5750562 C93.912,49.6047191 94.128,52.7786517 94.296,56.1930337 L68.28,82.161573 L63.192,77.0640449 Z" id="Shape" fill="#FCB514" fill-rule="nonzero"></path>
                <polygon id="Shape" fill="#FFFBF5" fill-rule="nonzero" points="93.024 45.6853933 93.168 47.0319101 63.192 77.0640449 56.808 77.0640449 26.688 46.8876404 26.832 45.6853933"></polygon>
                <path d="M91.584,111.905169 L119.208,139.580899 L114.12,144.678427 L90.456,120.970112 C90.72,120.344944 90.96,119.74382 91.2,119.094607 L89.88,117.820225 C90.504,115.920674 91.2,113.973034 91.584,111.905169 Z" id="Shape" fill="#FCB514" fill-rule="nonzero"></path>
                <path d="M89.88,117.820225 L91.2,119.142697 C90.96,119.79191 90.72,120.393034 90.456,121.018202 L89.208,119.767865 C89.448,119.094607 89.664,118.445393 89.88,117.820225 Z" id="Shape" fill="#FCB514" fill-rule="nonzero"></path>
                <path d="M89.184,119.69573 L64.8,95.2660674 L65.832,93.6550562 L89.832,117.7 C89.616,118.373258 89.4,119.022472 89.16,119.64764 L89.184,119.69573 Z" id="Shape" fill="#FCB514" fill-rule="nonzero"></path>
                <path d="M89.208,119.719775 L90.456,120.970112 C89.76,122.653258 89.016,124.240225 88.272,125.779101 L87.168,124.600899 C87.888,123.062022 88.584,121.426966 89.208,119.719775 Z" id="Shape" fill="#EAE5DF" fill-rule="nonzero"></path>
                <path d="M52.8,26.4494382 C55.2929176,23.6676968 57.5942218,20.7194033 59.688,17.6249438 L52.8,26.4494382 Z M43.2,26.4494382 C45.6929176,23.6676968 47.9942218,20.7194033 50.088,17.6249438 L43.2,26.4494382 Z M92.928,40.8764045 L26.832,40.8764045 C27.5466873,32.6138543 29.5048404,24.5071596 32.64,16.8314607 L86.976,16.8314607 C90.2117239,24.4879844 92.2516169,32.5979564 93.024,40.8764045 L92.928,40.8764045 Z" id="Shape" fill="#E5E5E5" fill-rule="nonzero"></path>
                <path d="M84.24,16.8314607 L35.28,16.8314607 C40.584,8.70426966 48.456,4.80898876 60,4.80898876 C71.544,4.80898876 78.936,8.87258427 84.24,16.8314607 Z" id="Shape" fill="#FFFBF5" fill-rule="nonzero"></path>
                <polygon id="Shape" fill="#D88500" fill-rule="nonzero" points="68.616 197.673483 97.2 201.35236 97.2 201.977528 63.816 197.673483 65.64 181.80382 70.296 183.006067"></polygon>
                <path d="M94.584,63.0217978 L70.584,87.0667416 L65.496,81.9692135 L68.184,82.2577528 L94.296,56.0968539 C94.424,58.3410487 94.52,60.6493633 94.584,63.0217978 Z" id="Shape" fill="#EAE5DF" fill-rule="nonzero"></path>
                <path d="M68.28,88.5575281 L91.56,111.881124 L91.56,111.881124 C91.056,113.948989 90.48,115.896629 89.856,117.74809 L65.856,93.7031461 L64.824,95.3141573 L63.192,93.7752809 L68.28,88.5575281 Z" id="Shape" fill="#FCB514" fill-rule="nonzero"></path>
                <path d="M64.8,95.2660674 L89.184,119.69573 L89.184,119.69573 C88.56,121.402921 87.864,123.037978 87.144,124.504719 L62.64,98.5842697 L64.8,95.2660674 Z" id="Shape" fill="#EAE5DF" fill-rule="nonzero"></path>
                <ellipse id="Oval" fill="#FFFBF5" fill-rule="nonzero" cx="62.4" cy="90.1685393" rx="2.4" ry="2.40449438"></ellipse>
                <ellipse id="Oval" fill="#000000" fill-rule="nonzero" cx="60" cy="85.3595506" rx="2.4" ry="2.40449438"></ellipse>
                <path d="M52.8,26.4494382 L59.688,17.6249438 C57.5942218,20.7194033 55.2929176,23.6676968 52.8,26.4494382 L52.8,26.4494382 Z" id="Shape" fill="#FFFFFF" fill-rule="nonzero"></path>
                <path d="M57.6,98.5842697 L33.6,124.12 C32.88,122.508989 32.16,120.849888 31.512,119.094607 L55.512,95.0496629 L57.6,98.5842697 Z" id="Shape" fill="#EAE5DF" fill-rule="nonzero"></path>
                <path d="M62.4,92.5730337 C63.7254834,92.5730337 64.8,91.4965049 64.8,90.1685393 C64.8,88.8405737 63.7254834,87.7640449 62.4,87.7640449 C61.0745166,87.7640449 60,88.8405737 60,90.1685393 C60,91.4965049 61.0745166,92.5730337 62.4,92.5730337 Z M63.192,93.6550562 L56.808,93.6550562 L51.72,88.5575281 L51.72,82.161573 L56.808,77.0640449 L63.192,77.0640449 L68.28,82.161573 L65.592,81.8730337 L70.68,86.9705618 L94.68,62.925618 C94.824,67.7346067 94.896,72.7359551 94.896,78.0498876 C95.1497926,89.358551 94.0703241,100.657699 91.68,111.712809 L91.68,111.712809 L68.4,88.3892135 L63.192,93.6550562 Z M57.6,85.3595506 C57.6,86.6875161 58.6745166,87.7640449 60,87.7640449 C61.3254834,87.7640449 62.4,86.6875161 62.4,85.3595506 C62.4,84.031585 61.3254834,82.9550562 60,82.9550562 C58.6745166,82.9550562 57.6,84.031585 57.6,85.3595506 Z" id="Shape" fill="#FFFBF5" fill-rule="nonzero"></path>
                <polygon id="Shape" fill="#D88500" fill-rule="nonzero" points="56.184 197.673483 22.8 201.977528 22.8 201.35236 51.384 197.673483 49.704 183.006067 54.36 181.80382"></polygon>
                <polygon id="Shape" fill="#FCB514" fill-rule="nonzero" points="54.408 93.7752809 55.344 95.2420225 31.344 119.286966 30.696 117.531685"></polygon>
                <path d="M54.408,93.7752809 L30.792,117.339326 C30.144,115.439775 29.52,113.444045 28.968,111.352135 L51.72,88.5575281 L56.808,93.7752809 L55.344,95.2420225 L54.408,93.7752809 Z" id="Shape" fill="#FCB514" fill-rule="nonzero"></path>
                <path d="M51.72,79.7570787 L51.72,82.161573 L25.656,56.048764 L25.656,56.048764 C25.656,55.2793258 25.656,54.5339326 25.8,53.7885393 L51.72,79.7570787 Z" id="Shape" fill="#FCB514" fill-rule="nonzero"></path>
                <polygon id="Shape" fill="#E5960A" fill-rule="nonzero" points="49.704 183.006067 51.384 197.673483 22.8 201.35236 22.8 189.955056"></polygon>
                <path d="M43.2,26.4494382 L50.088,17.6249438 C47.9942218,20.7194033 45.6929176,23.6676968 43.2,26.4494382 Z" id="Shape" fill="#FFFFFF" fill-rule="nonzero"></path>
                <path d="M60,4.80898876 C48.456,4.80898876 40.584,8.70426966 35.28,16.8314607 L32.64,16.8314607 C37.848,5.41011236 46.368,0 60,0 C73.632,0 81.744,5.6505618 86.976,16.8314607 L84.24,16.8314607 C78.936,8.87258427 71.208,4.80898876 60,4.80898876 Z" id="Shape" fill="#EAE5DF" fill-rule="nonzero"></path>
                <path d="M33.6,124.12 L32.04,125.779101 C31.272,124.192135 30.504,122.557079 29.784,120.825843 L31.512,119.094607 C32.088,120.849888 32.808,122.629213 33.6,124.12 Z" id="Shape" fill="#EAE5DF" fill-rule="nonzero"></path>
                <polygon id="Shape" fill="#FCB514" fill-rule="nonzero" points="30.792 117.339326 31.44 119.094607 29.712 120.825843 29.04 119.094607"></polygon>
                <path d="M30.792,117.339326 L29.04,119.094607 L29.712,120.825843 L5.88,144.678427 L0.792,139.580899 L28.968,111.352135 C29.52,113.444045 30.144,115.41573 30.792,117.339326 Z" id="Shape" fill="#FCB514" fill-rule="nonzero"></path>
                <path d="M51.72,88.5575281 L28.968,111.352135 C26.2625264,100.497149 24.9956353,89.3324803 25.2,78.1460674 C25.2,72.8080899 25.2,67.7586517 25.392,62.9977528 L49.392,87.0426966 L49.392,88.6296629 L51.792,86.2251685 L51.72,88.5575281 Z" id="Shape" fill="#FFFBF5" fill-rule="nonzero"></path>
                <path d="M26.688,46.8876404 L56.808,77.0640449 L51.72,82.161573 L51.72,79.7570787 L25.776,53.7644944 C25.776,51.2397753 26.088,48.787191 26.28,46.5510112 L26.688,46.8876404 Z" id="Shape" fill="#FCB514" fill-rule="nonzero"></path>
                <path d="M93.024,45.6853933 L26.832,45.6853933 L26.688,46.8876404 L26.4,46.4788764 C26.544,44.531236 26.736,42.6797753 26.952,40.8764045 L93.024,40.8764045 C93.24,42.7038202 93.456,44.6033708 93.624,46.5750562 L93.168,47.0319101 L93.024,45.6853933 Z" id="Shape" fill="#EAE5DF" fill-rule="nonzero"></path>
                <path d="M25.536,55.9285393 L0.792,31.258427 L5.88,26.1608989 L26.28,46.5991011 C26.088,49.0035955 25.896,51.4080899 25.776,53.8125843 L25.656,53.6923596 L25.656,53.6923596 C25.584,54.365618 25.56,55.1350562 25.536,55.9285393 Z" id="Shape" fill="#FCB514" fill-rule="nonzero"></path>
                <path d="M49.32,86.9705618 L25.32,62.925618 C25.32,60.5211236 25.464,58.1166292 25.56,55.9766292 L25.56,55.9766292 L51.72,82.161573 L51.72,86.1530337 L49.32,88.5575281 L49.32,86.9705618 Z" id="Shape" fill="#EAE5DF" fill-rule="nonzero"></path>
                <path d="M25.632,56.048764 C25.632,58.2849438 25.44,60.5932584 25.392,62.9977528 L25.392,62.9977528 C25.392,60.5932584 25.464,58.2608989 25.608,56.0006742 L25.608,56.0006742 L25.632,56.048764 Z" id="Shape" fill="#EAE5DF" fill-rule="nonzero"></path>
                <path d="M25.536,55.9285393 C25.536,55.1350562 25.536,54.365618 25.536,53.5240449 L25.536,53.5240449 L25.656,53.6442697 C25.656,54.3896629 25.656,55.1350562 25.512,55.9044944 L25.536,55.9285393 Z" id="Shape" fill="#FCB514" fill-rule="nonzero"></path>
                <polygon id="Shape" stroke="#000000" stroke-width="4.8" stroke-linecap="round" stroke-linejoin="round" points="49.704 183.006067 22.8 189.955056 22.8 201.35236 22.8 201.977528 56.184 197.673483 54.36 181.80382"></polygon>
                <polygon id="Shape" stroke="#000000" stroke-width="4.8" stroke-linecap="round" stroke-linejoin="round" points="97.2 201.35236 97.2 189.955056 70.296 183.006067 65.64 181.80382 63.816 197.673483 97.2 201.977528"></polygon>
                <path d="M86.976,16.8314607 C81.744,5.6505618 73.296,0 60,0 C46.704,0 37.848,5.41011236 32.64,16.8314607" id="Shape" stroke="#000000" stroke-width="4.8" stroke-linecap="round" stroke-linejoin="round"></path>
                <path d="M93.024,40.8764045 C92.2516169,32.5979564 90.2117239,24.4879844 86.976,16.8314607 L32.64,16.8314607 C29.5048404,24.5071596 27.5466873,32.6138543 26.832,40.8764045" id="Shape" stroke="#000000" stroke-width="4.8" stroke-linecap="round" stroke-linejoin="round"></path>
                <path d="M93.6,46.5750562 C93.432,44.6033708 93.216,42.7038202 93,40.8764045 L26.832,40.8764045 C26.616,42.6797753 26.424,44.531236 26.28,46.4788764" id="Shape" stroke="#000000" stroke-width="4.8" stroke-linecap="round" stroke-linejoin="round"></path>
                <path d="M91.584,111.905169 C93.9743241,100.850059 95.0537926,89.5509105 94.8,78.2422472 C94.8,72.9283146 94.8,67.9029213 94.584,63.1179775 C94.584,60.7295131 94.488,58.4211985 94.296,56.1930337" id="Shape" stroke="#000000" stroke-width="4.8" stroke-linecap="round" stroke-linejoin="round"></path>
                <path d="M31.44,119.094607 C32.088,120.849888 32.808,122.508989 33.528,124.12 C38.64,135.180674 45.528,143.019326 52.728,151.435056 L57.528,210.104719 C57.528,211.432685 58.6025166,212.509213 59.928,212.509213 C61.2534834,212.509213 62.328,211.432685 62.328,210.104719 L67.2,151.483146 C75.504,141.865169 82.368,134.844045 87.168,124.648989 C87.888,123.110112 88.584,121.475056 89.208,119.84" id="Shape" stroke="#000000" stroke-width="4.8" stroke-linecap="round" stroke-linejoin="round"></path>
                <path d="M25.632,56.048764 C25.632,58.2849438 25.44,60.5932584 25.392,62.9977528 C25.248,67.8067416 25.2,72.8080899 25.2,78.1460674 C24.9956353,89.3324803 26.2625264,100.497149 28.968,111.352135" id="Shape" stroke="#000000" stroke-width="4.8" stroke-linecap="round" stroke-linejoin="round"></path>
                <path d="M59.784,17.528764 C57.6629367,20.6592575 55.3294278,23.639852 52.8,26.4494382 L52.8,26.4494382" id="Shape" stroke="#000000" stroke-width="4.8" stroke-linecap="round" stroke-linejoin="round"></path>
                <path d="M52.8,26.4494382 L52.824,26.4253933" id="Shape" stroke="#000000" stroke-width="4.8" stroke-linecap="round" stroke-linejoin="round"></path>
                <path d="M50.184,17.528764 C48.0629367,20.6592575 45.7294278,23.639852 43.2,26.4494382 L43.2,26.4494382" id="Shape" stroke="#000000" stroke-width="4.8" stroke-linecap="round" stroke-linejoin="round"></path>
                <path d="M43.2,26.4494382 L43.224,26.4253933" id="Shape" stroke="#000000" stroke-width="4.8" stroke-linecap="round" stroke-linejoin="round"></path>
                <polygon id="Shape" stroke="#000000" stroke-width="4.8" stroke-linecap="round" stroke-linejoin="round" points="94.296 56.0968539 119.208 31.1382022 114.12 26.0406742 93.624 46.5750562 93.168 47.0319101 63.192 77.0640449 68.28 82.161573"></polygon>
                <polygon id="Shape" stroke="#000000" stroke-width="4.8" stroke-linecap="round" stroke-linejoin="round" points="26.28 46.4788764 5.88 26.0406742 0.792 31.1382022 25.536 55.9285393 25.632 56.0247191 25.632 56.048764 25.656 56.048764 51.72 82.161573 56.808 77.0640449 26.688 46.8876404"></polygon>
                <polygon id="Shape" stroke="#000000" stroke-width="4.8" stroke-linecap="round" stroke-linejoin="round" points="91.584 111.905169 91.56 111.881124 68.28 88.5575281 63.192 93.6550562 64.8 95.2660674 89.184 119.69573 89.208 119.719775 90.456 120.970112 114.12 144.678427 119.208 139.580899"></polygon>
                <polygon id="Shape" stroke="#000000" stroke-width="4.8" stroke-linecap="round" stroke-linejoin="round" points="51.72 88.5575281 28.968 111.352135 0.792 139.580899 5.88 144.678427 29.712 120.825843 31.44 119.094607 55.344 95.1217978 56.808 93.6550562"></polygon>
            </g>
            <g id="Artboard-6" transform="translate(521.000000, 10.000000)">
                <polygon id="Shape" fill="#E5960A" fill-rule="nonzero" points="81.7096774 176.232955 79.3064516 187.022727 69.6935484 187.022727 67.2903226 176.232955"></polygon>
                <polygon id="Shape" fill="#B2B2B2" fill-rule="nonzero" points="149 133.073864 149 142.496932 93.7258065 103.102273 88.9193548 103.102273 88.9193548 73.1306818 96.1290323 65.9375 105.741935 101.903409"></polygon>
                <polygon id="Shape" fill="#A5A29D" fill-rule="nonzero" points="93.7258065 70.7329545 88.9193548 73.1306818 88.9193548 103.102273 93.7258065 103.102273"></polygon>
                <polygon id="Shape" fill="#FCB514" fill-rule="nonzero" points="102.81 159.161136 88.9193548 151.056818 88.9193548 182.826705 122.564516 187.022727 122.564516 181.028409 122.564516 170.694205"></polygon>
                <polygon id="Shape" fill="#EAA00C" fill-rule="nonzero" points="93.7258065 182.826705 93.7258065 153.862159 88.9193548 151.056818 88.9193548 182.826705 122.564516 187.022727 122.564516 186.423295"></polygon>
                <polygon id="Shape" fill="#FFFBF5" fill-rule="nonzero" points="88.9193548 73.1306818 88.9193548 103.102273 60.0806452 103.102273 60.0806452 73.1306818 62.7482258 52.75 86.2517742 52.75"></polygon>
                <polygon id="Shape" fill="#EAE5DF" fill-rule="nonzero" points="86.2517742 52.75 81.4453226 52.75 84.1129032 73.1306818 84.1129032 103.102273 88.9193548 103.102273 88.9193548 73.1306818"></polygon>
                <polygon id="Shape" fill="#E5E5E5" fill-rule="nonzero" points="83.7043548 33.2325 86.2517742 52.75 62.7482258 52.75 67.2903226 17.9829545 67.795 16.7840909 81.205 16.7840909 81.7096774 17.9829545"></polygon>
                <polygon id="Shape" fill="#D8D8D8" fill-rule="nonzero" points="76.4466129 17.7911364 78.8498387 32.9927273 81.9259677 52.4382955 69.933871 52.75 86.2517742 52.75 83.7043548 33.2325 81.7096774 17.9829545 81.205 16.7840909 75.99 16.7840909"></polygon>
                <polygon id="Shape" fill="#D8D8D8" fill-rule="nonzero" points="69.4532258 16.7840909 67.795 16.7840909 67.7709677 16.8320455"></polygon>
                <polygon id="Shape" fill="#FFFBF5" fill-rule="nonzero" points="74.5 1.19886364 81.205 16.7840909 67.795 16.7840909"></polygon>
                <polygon id="Shape" fill="#FFFBF5" fill-rule="nonzero" points="102.81 159.161136 149 152.255682 149 142.496932 93.7258065 103.102273 88.9193548 103.102273 60.0806452 103.102273 55.2741935 103.102273 0 142.496932 0 152.255682 46.19 159.161136 60.0806452 151.056818 60.0806452 182.826705 26.4354839 187.022727 26.4354839 181.028409 19.2258065 188.221591 19.2258065 206.204545 60.0806452 209.801136 65.6080645 184.001591 67.2903226 176.232955 81.7096774 176.232955 83.3919355 184.001591 88.9193548 209.801136 129.774194 206.204545 129.774194 188.221591 122.564516 181.028409 122.564516 187.022727 88.9193548 182.826705 88.9193548 151.056818"></polygon>
                <polygon id="Shape" fill="#FFFBF5" fill-rule="nonzero" points="46.19 159.161136 55.2741935 153.862159 55.2741935 151.056818 42.368871 158.585682"></polygon>
                <polygon id="Shape" fill="#FFFBF5" fill-rule="nonzero" points="26.4354839 181.028409 21.6290323 185.823864 21.6290323 187.022727 26.4354839 186.423295"></polygon>
                <polygon id="Shape" fill="#FFFBF5" fill-rule="nonzero" points="117.758065 186.423295 88.9193548 182.826705 88.9193548 153.862159 84.1129032 151.056818 84.1129032 182.826705 117.758065 187.022727"></polygon>
                <polygon id="Shape" fill="#EAE5DF" fill-rule="nonzero" points="93.7258065 103.102273 88.9193548 103.102273 144.193548 142.496932 144.193548 152.255682 101.824677 158.585682 102.81 159.161136 149 152.255682 149 142.496932"></polygon>
                <polygon id="Shape" fill="#EAE5DF" fill-rule="nonzero" points="60.0806452 182.826705 26.4354839 187.022727 26.4354839 191.818182 60.0806452 187.622159"></polygon>
                <polygon id="Shape" fill="#EAE5DF" fill-rule="nonzero" points="122.564516 191.818182 122.564516 187.022727 88.9193548 182.826705 88.9193548 187.622159"></polygon>
                <polygon id="Shape" fill="#EAE5DF" fill-rule="nonzero" points="93.7258065 103.102273 88.9193548 103.102273 93.7258065 107.897727 149 147.292386 149 142.496932"></polygon>
                <polygon id="Shape" fill="#B2B2B2" fill-rule="nonzero" points="60.0806452 73.1306818 60.0806452 103.102273 55.2741935 103.102273 0 142.496932 0 133.073864 43.2580645 101.903409 52.8709677 65.9375"></polygon>
                <polygon id="Shape" fill="#A5A29D" fill-rule="nonzero" points="52.8709677 65.9375 51.8616129 69.7259091 55.2741935 73.1306818 55.2741935 103.102273 60.0806452 103.102273 60.0806452 73.1306818"></polygon>
                <polygon id="Shape" fill="#FCB514" fill-rule="nonzero" points="46.19 159.161136 26.4354839 170.694205 26.4354839 181.028409 26.4354839 187.022727 60.0806452 182.826705 60.0806452 151.056818"></polygon>
                <polygon id="Shape" fill="#EAA00C" fill-rule="nonzero" points="55.2741935 153.862159 55.2741935 182.826705 26.4354839 186.423295 26.4354839 187.022727 60.0806452 182.826705 60.0806452 151.056818"></polygon>
                <polyline id="Shape" stroke="#000000" stroke-width="4.8" stroke-linecap="round" stroke-linejoin="round" points="102.81 159.161136 149 152.255682 149 142.496932"></polyline>
                <polyline id="Shape" stroke="#000000" stroke-width="4.8" stroke-linecap="round" stroke-linejoin="round" points="81.7096774 176.232955 83.3919355 184.001591 88.9193548 209.801136 129.774194 206.204545 129.774194 188.221591 122.564516 181.028409"></polyline>
                <polyline id="Shape" stroke="#000000" stroke-width="4.8" stroke-linecap="round" stroke-linejoin="round" points="26.4354839 181.028409 19.2258065 188.221591 19.2258065 206.204545 60.0806452 209.801136 65.6080645 184.001591 67.2903226 176.232955"></polyline>
                <polyline id="Shape" stroke="#000000" stroke-width="4.8" stroke-linecap="round" stroke-linejoin="round" points="0 142.496932 0 152.255682 46.19 159.161136"></polyline>
                <polyline id="Shape" stroke="#000000" stroke-width="4.8" stroke-linecap="round" stroke-linejoin="round" points="81.205 16.7840909 74.5 1.19886364 67.795 16.7840909"></polyline>
                <polyline id="Shape" stroke="#000000" stroke-width="4.8" stroke-linecap="round" stroke-linejoin="round" points="86.2517742 52.75 83.7043548 33.2325 81.7096774 17.9829545 81.205 16.7840909 67.795 16.7840909 67.2903226 17.9829545 62.7482258 52.75"></polyline>
                <polyline id="Shape" stroke="#000000" stroke-width="4.8" stroke-linecap="round" stroke-linejoin="round" points="60.0806452 73.1306818 52.8709677 65.9375 43.2580645 101.903409 0 133.073864 0 142.496932 55.2741935 103.102273 60.0806452 103.102273"></polyline>
                <polyline id="Shape" stroke="#000000" stroke-width="4.8" stroke-linecap="round" stroke-linejoin="round" points="88.9193548 73.1306818 86.2517742 52.75 62.7482258 52.75 60.0806452 73.1306818 60.0806452 103.102273 88.9193548 103.102273"></polyline>
                <polygon id="Shape" stroke="#000000" stroke-width="4.8" stroke-linecap="round" stroke-linejoin="round" points="149 142.496932 149 133.073864 105.741935 101.903409 96.1290323 65.9375 88.9193548 73.1306818 88.9193548 103.102273 93.7258065 103.102273"></polygon>
                <polygon id="Shape" stroke="#000000" stroke-width="4.8" stroke-linecap="round" stroke-linejoin="round" points="26.4354839 181.028409 26.4354839 187.022727 60.0806452 182.826705 60.0806452 151.056818 46.19 159.161136 26.4354839 170.694205"></polygon>
                <polygon id="Shape" stroke="#000000" stroke-width="4.8" stroke-linecap="round" stroke-linejoin="round" points="88.9193548 182.826705 122.564516 187.022727 122.564516 181.028409 122.564516 170.694205 102.81 159.161136 88.9193548 151.056818"></polygon>
                <polygon id="Shape" stroke="#000000" stroke-width="4.8" stroke-linecap="round" stroke-linejoin="round" points="81.7096774 176.232955 79.3064516 187.022727 69.6935484 187.022727 67.2903226 176.232955"></polygon>
                <path d="M81.301129,23.6415909 L74.5,31.1704545" id="Shape" stroke="#000000" stroke-width="4.8" stroke-linecap="round" stroke-linejoin="round"></path>
                <path d="M83.7043548,33.2325 L74.5,43.1590909" id="Shape" stroke="#000000" stroke-width="4.8" stroke-linecap="round" stroke-linejoin="round"></path>
            </g>
            <g id="Artboard-2" transform="translate(226.000000, 25.000000)">
                <path d="M219.798913,97.2 L219.798913,116.4 L130.918478,121.2 L123.711957,147.6 L133.320652,148.68 L133.320652,178.8 L86.4782609,178.8 L86.4782609,148.8 L97.2880435,147.6 L90.0815217,121.2 L1.20108696,116.4 L1.20108696,97.2 L33.9907609,90.624 L47.6351087,87.888 L73.7227174,82.632 C74.8422624,89.6941524 77.9880948,96.2802494 82.778913,101.592 C84.8862403,103.996258 87.310559,106.103506 89.9854348,107.856 L91.4267391,108.744 C91.8831522,109.032 92.363587,109.32 92.8440217,109.56 C93.8048913,110.064 94.7897826,110.544 95.7746739,110.976 C96.2791304,111.216 96.783587,111.408 97.3120652,111.6 C97.8405435,111.792 98.7293478,112.104 99.45,112.32 C100.170652,112.536 100.530978,112.656 101.083478,112.8 L101.299674,112.8 C101.852174,112.944 102.404674,113.088 102.981196,113.184 L104.254348,113.424 L105.311304,113.592 L105.455435,113.592 C105.980361,113.682489 106.509506,113.74657 107.04087,113.784 C107.59337,113.784 108.169891,113.784 108.746413,113.784 L110.475978,113.784 L112.205543,113.784 C112.782065,113.784 113.358587,113.784 113.935109,113.784 C114.394401,113.754629 114.85159,113.698534 115.304348,113.616 C115.723735,113.585221 116.140874,113.529118 116.553478,113.448 L117.970761,113.184 C118.523261,113.184 119.075761,112.968 119.604239,112.824 C120.565109,112.584 121.525978,112.296 122.462826,111.96 L123.687935,111.528 C124.216413,111.336 124.72087,111.144 125.225326,110.904 C127.718786,109.829472 130.087022,108.485467 132.287717,106.896 L133.584891,105.912 C134.853168,104.900416 136.056622,103.810271 137.188152,102.648 C137.5725,102.264 137.932826,101.88 138.26913,101.472 C143.065067,96.1319044 146.195909,89.5088673 147.277283,82.416 L173.34087,87.696 L173.34087,87.84 L186.985217,90.576 L186.985217,90.576 L219.798913,97.2 Z" id="Shape" fill="#FFFBF5" fill-rule="nonzero"></path>
                <path d="M219.798913,97.2 L219.798913,116.4 L130.918478,121.2 L123.711957,147.6 L133.320652,148.68 L133.320652,178.8 L86.4782609,178.8 L86.4782609,148.8 L97.2880435,147.6 L90.0815217,121.2 L1.20108696,116.4 L1.20108696,97.2 L33.9907609,90.624 L47.6351087,87.888 L73.7227174,82.632 C74.8422624,89.6941524 77.9880948,96.2802494 82.778913,101.592 C84.8862403,103.996258 87.310559,106.103506 89.9854348,107.856 L91.4267391,108.744 C91.8831522,109.032 92.363587,109.32 92.8440217,109.56 C93.8048913,110.064 94.7897826,110.544 95.7746739,110.976 C96.2791304,111.216 96.783587,111.408 97.3120652,111.6 C97.8405435,111.792 98.7293478,112.104 99.45,112.32 C100.170652,112.536 100.530978,112.656 101.083478,112.8 L101.299674,112.8 C101.852174,112.944 102.404674,113.088 102.981196,113.184 L104.254348,113.424 L105.311304,113.592 L105.455435,113.592 C105.980361,113.682489 106.509506,113.74657 107.04087,113.784 C107.59337,113.784 108.169891,113.784 108.746413,113.784 L110.475978,113.784 L112.205543,113.784 C112.782065,113.784 113.358587,113.784 113.935109,113.784 C114.394401,113.754629 114.85159,113.698534 115.304348,113.616 C115.723735,113.585221 116.140874,113.529118 116.553478,113.448 L117.970761,113.184 C118.523261,113.184 119.075761,112.968 119.604239,112.824 C120.565109,112.584 121.525978,112.296 122.462826,111.96 L123.687935,111.528 C124.216413,111.336 124.72087,111.144 125.225326,110.904 C127.718786,109.829472 130.087022,108.485467 132.287717,106.896 L133.584891,105.912 C134.853168,104.900416 136.056622,103.810271 137.188152,102.648 C137.5725,102.264 137.932826,101.88 138.26913,101.472 C143.065067,96.1319044 146.195909,89.5088673 147.277283,82.416 L173.34087,87.696 L173.34087,87.84 L186.985217,90.576 L186.985217,90.576 L219.798913,97.2 Z" id="Shape" fill="#FFFBF5" fill-rule="nonzero"></path>
                <path d="M147.301304,82.464 C146.219931,89.5568673 143.089089,96.1799044 138.293152,101.52 C137.956848,101.928 137.596522,102.312 137.212174,102.696 C136.080688,103.858317 134.877231,104.948464 133.608913,105.96 L132.311739,106.944 C130.111043,108.533467 127.742808,109.877472 125.249348,110.952 C124.744891,111.192 124.240435,111.384 123.711957,111.576 C123.311411,111.741256 122.902482,111.885454 122.486848,112.008 C121.55,112.344 120.58913,112.632 119.628261,112.872 C119.099783,113.016 118.547283,113.136 117.994783,113.232 L116.5775,113.496 C116.164896,113.577118 115.747757,113.633221 115.32837,113.664 C114.875612,113.746534 114.418423,113.802629 113.95913,113.832 C113.382609,113.832 112.806087,113.832 112.229565,113.832 L110.5,113.832 L108.770435,113.832 C108.193913,113.832 107.617391,113.832 107.064891,113.832 C106.533528,113.79457 106.004383,113.730489 105.479457,113.64 C105.432341,113.653344 105.382441,113.653344 105.335326,113.64 L104.27837,113.472 L103.005217,113.232 C102.428696,113.232 101.876196,112.992 101.323696,112.848 L101.1075,112.848 C100.555,112.704 100.0025,112.56 99.4740217,112.368 C98.9455435,112.176 98.0327174,111.912 97.336087,111.648 C96.6394565,111.384 96.3031522,111.264 95.7986957,111.024 C94.8138043,110.592 93.828913,110.112 92.8680435,109.608 C92.3876087,109.368 91.9071739,109.08 91.4507609,108.792 L90.0094565,107.904 C87.3347602,106.15127 84.9104717,104.044048 82.8029348,101.64 C78.0121166,96.3282494 74.8662841,89.7421524 73.7467391,82.68 L73.7467391,89.88 C74.8662841,96.9421524 78.0121166,103.528249 82.8029348,108.84 C84.9104717,111.244048 87.3347602,113.35127 90.0094565,115.104 L91.4507609,115.992 C91.9071739,116.28 92.3876087,116.568 92.8680435,116.808 C93.828913,117.312 94.8138043,117.792 95.7986957,118.224 C96.3031522,118.464 96.8076087,118.656 97.336087,118.848 C97.8645652,119.04 98.7533696,119.352 99.4740217,119.568 C100.194674,119.784 100.555,119.904 101.1075,120.048 L101.323696,120.048 C101.876196,120.192 102.428696,120.336 103.005217,120.432 L104.27837,120.672 L105.335326,120.84 C105.382441,120.853344 105.432341,120.853344 105.479457,120.84 C106.004383,120.930489 106.533528,120.99457 107.064891,121.032 C107.617391,121.032 108.193913,121.032 108.770435,121.032 L110.5,121.032 L112.229565,121.032 C112.806087,121.032 113.382609,121.032 113.95913,121.032 C114.418423,121.002629 114.875612,120.946534 115.32837,120.864 C115.747757,120.833221 116.164896,120.777118 116.5775,120.696 L117.994783,120.432 C118.547283,120.432 119.099783,120.216 119.628261,120.072 C120.58913,119.832 121.55,119.544 122.486848,119.208 C122.902482,119.085454 123.311411,118.941256 123.711957,118.776 C124.240435,118.584 124.744891,118.392 125.249348,118.152 C127.742808,117.077472 130.111043,115.733467 132.311739,114.144 L133.608913,113.16 C134.877231,112.148464 136.080688,111.058317 137.212174,109.896 C137.596522,109.512 137.956848,109.128 138.293152,108.72 C143.089089,103.379904 146.219931,96.7568673 147.301304,89.664 L147.301304,82.464 Z" id="Shape" fill="#EAE5DF" fill-rule="nonzero"></path>
                <path d="M184.607065,67.2 C193.735326,67.2 200.581522,67.368 200.581522,68.4 C200.581522,69.432 193.9275,69.6 184.967391,69.6 C184.967391,68.76 184.727174,67.968 184.607065,67.2 Z" id="Shape" fill="#FFFFFF" fill-rule="nonzero"></path>
                <polygon id="Shape" fill="#FFFFFF" fill-rule="nonzero" points="187.009239 90.528 187.009239 90.528 173.364891 87.792 173.364891 87.648"></polygon>
                <path d="M187.009239,90.528 L173.364891,87.744 C173.749239,80.4 174.349783,74.424 175.022391,69.576 L184.967391,69.576 C185.832174,75.144 186.576848,82.08 187.009239,90.528 Z" id="Shape" fill="#E5960A" fill-rule="nonzero"></path>
                <path d="M173.653152,83.016 C173.653152,84.528 173.436957,86.088 173.364891,87.816 L187.009239,90.6 C187.009239,88.92 186.817065,87.312 186.720978,85.8 L173.653152,83.016 Z" id="Shape" fill="#D88500" fill-rule="nonzero"></path>
                <path d="M184.967391,69.6 L175.022391,69.6 C175.022391,68.784 175.262609,67.992 175.358696,67.2 L184.607065,67.2 C184.727174,67.968 184.967391,68.76 184.967391,69.6 Z" id="Shape" fill="#FFFFFF" fill-rule="nonzero"></path>
                <path d="M184.607065,67.2 L175.358696,67.2 C177.472609,53.976 180.163043,50.4 180.163043,50.4 C182.361023,55.7858669 183.854681,61.4324286 184.607065,67.2 Z" id="Shape" fill="#FFFFFF" fill-rule="nonzero"></path>
                <path d="M175.358696,67.2 C175.358696,67.944 175.1425,68.736 175.022391,69.6 C166.230435,69.6 159.744565,69.432 159.744565,68.424 C159.744565,67.416 166.398587,67.2 175.358696,67.2 Z" id="Shape" fill="#FFFFFF" fill-rule="nonzero"></path>
                <polygon id="Shape" fill="#B2B2B2" fill-rule="nonzero" points="166.951087 152.4 169.353261 159.168 166.951087 178.8 153.73913 178.8 153.73913 150.936"></polygon>
                <polygon id="Shape" fill="#A5A29D" fill-rule="nonzero" points="153.73913 150.936 153.73913 178.8 158.543478 178.8 158.543478 151.464"></polygon>
                <polygon id="Shape" fill="#E5960A" fill-rule="nonzero" points="153.73913 150.936 153.73913 178.8 133.416739 178.8 133.416739 148.68"></polygon>
                <polygon id="Shape" fill="#D88500" fill-rule="nonzero" points="133.416739 148.68 133.416739 178.8 138.221087 178.8 138.221087 149.208"></polygon>
                <path d="M147.733696,76.8 C147.735792,78.6883438 147.591228,80.5740035 147.301304,82.44 L147.301304,82.44 C146.218018,89.5299872 143.106418,96.1559488 138.341196,101.52 C138.004891,101.928 137.620543,102.312 137.260217,102.696 C136.128688,103.858271 134.925233,104.948416 133.656957,105.96 L132.359783,106.944 C130.159087,108.533467 127.790851,109.877472 125.297391,110.952 L123.76,111.576 L122.534891,112.008 C121.598043,112.344 120.637174,112.632 119.676304,112.872 C119.147826,113.016 118.595326,113.136 118.042826,113.232 L116.625543,113.496 C116.212939,113.577118 115.7958,113.633221 115.376413,113.664 C114.923214,113.743613 114.466187,113.799688 114.007174,113.832 C113.430652,113.832 112.85413,113.832 112.277609,113.832 L110.548043,113.832 L108.818478,113.832 C108.241957,113.832 107.665435,113.832 107.112935,113.832 C106.560435,113.832 106.055978,113.832 105.5275,113.64 L105.38337,113.64 L104.326413,113.472 L103.053261,113.232 C102.476739,113.232 101.924239,112.992 101.371739,112.848 L101.155543,112.848 C100.603043,112.704 100.050543,112.56 99.5220652,112.368 C98.993587,112.176 98.0807609,111.912 97.3841304,111.648 L95.8467391,111.024 C94.8618478,110.592 93.8769565,110.112 92.916087,109.608 L91.4988043,108.792 L90.0575,107.904 C87.4039634,106.123517 84.9830983,104.01927 82.8509783,101.64 C78.0879335,96.3155711 74.9605725,89.7332261 73.8428261,82.68 L73.8428261,82.68 C73.4890792,80.7391825 73.2962508,78.772508 73.2663043,76.8 C73.2663043,56.2550073 89.9363977,39.6 110.5,39.6 C111.422303,39.5915384 112.344412,39.6315938 113.2625,39.72 L114.631739,39.84 C115.304348,39.84 115.976957,40.008 116.625543,40.128 C117.27413,40.248 117.946739,40.368 118.619348,40.512 L120.541087,40.992 C122.440108,41.5395211 124.295051,42.2294812 126.090109,43.056 L126.090109,43.056 C139.266861,49.1325186 147.712858,62.3004709 147.733696,76.8 Z M115.304348,76.8 C115.304348,74.1490332 113.153368,72 110.5,72 C107.846632,72 105.695652,74.1490332 105.695652,76.8 C105.695652,79.4509668 107.846632,81.6 110.5,81.6 C113.153368,81.6 115.304348,79.4509668 115.304348,76.8 Z" id="Shape" fill="#FCB514" fill-rule="nonzero"></path>
                <path d="M126.090109,43.008 L126.090109,43.008 C124.295051,42.1814812 122.440108,41.4915211 120.541087,40.944 L118.619348,40.464 C117.946739,40.32 117.298152,40.176 116.625543,40.08 C115.952935,39.984 115.304348,39.864 114.631739,39.792 L113.2625,39.792 C112.342297,39.7438762 111.420203,39.7438762 110.5,39.792 C109.25087,39.792 108.017754,39.856 106.800652,39.984 L107.425217,39.984 C108.097826,39.984 108.770435,40.152 109.419022,40.272 C110.067609,40.392 110.740217,40.512 111.412826,40.656 L113.334565,41.136 C115.233586,41.6835211 117.08853,42.3734812 118.883587,43.2 L118.883587,43.2 C132.013198,49.2545502 140.450383,62.3526294 140.527174,76.8 C140.529271,78.6883438 140.384706,80.5740035 140.094783,82.44 L140.094783,82.44 C139.033714,89.5723496 135.920767,96.2428712 131.134674,101.64 C130.79837,102.048 130.414022,102.432 130.053696,102.816 C128.92221,103.978317 127.718752,105.068464 126.450435,106.08 L125.153261,107.064 C122.952565,108.653467 120.58433,109.997472 118.09087,111.072 L116.553478,111.696 C116.152932,111.861256 115.744003,112.005454 115.32837,112.128 C114.391522,112.464 113.430652,112.752 112.469783,112.992 C111.941304,113.136 111.388804,113.256 110.836304,113.352 L109.419022,113.616 C109.006417,113.697118 108.589278,113.753221 108.169891,113.784 L106.944783,113.928 L107.112935,113.928 C107.665435,113.928 108.241957,113.928 108.818478,113.928 L110.548043,113.928 L112.277609,113.928 C112.85413,113.928 113.430652,113.928 114.007174,113.928 C114.466187,113.895688 114.923214,113.839613 115.376413,113.76 C115.7958,113.729221 116.212939,113.673118 116.625543,113.592 L118.042826,113.328 C118.595326,113.328 119.147826,113.112 119.676304,112.968 C120.637174,112.728 121.598043,112.44 122.534891,112.104 C122.950525,111.981454 123.359454,111.837256 123.76,111.672 L125.297391,111.048 C127.790851,109.973472 130.159087,108.629467 132.359783,107.04 L133.656957,106.056 C134.925274,105.044464 136.128731,103.954317 137.260217,102.792 C137.620543,102.408 138.004891,102.024 138.341196,101.616 C143.127288,96.2188712 146.240236,89.5483496 147.301304,82.416 L147.301304,82.416 C147.589992,80.5579202 147.734552,78.6803323 147.733696,76.8 C147.731577,62.2830978 139.282629,49.0918081 126.090109,43.008 L126.090109,43.008 Z" id="Shape" fill="#EAA00C" fill-rule="nonzero"></path>
                <path d="M112.902174,72.672 C113.62971,72.2405924 114.458368,72.0087779 115.304348,72 C117.957716,72 120.108696,74.1490332 120.108696,76.8 C120.108696,79.4509668 117.957716,81.6 115.304348,81.6 C114.458368,81.5912221 113.62971,81.3594076 112.902174,80.928 C114.360709,80.0633393 115.254892,78.4944363 115.254892,76.8 C115.254892,75.1055637 114.360709,73.5366607 112.902174,72.672 Z" id="Shape" fill="#EAA00C" fill-rule="nonzero"></path>
                <path d="M147.301304,82.44 L147.301304,82.44 C146.219931,89.5328673 143.089089,96.1559044 138.293152,101.496 C143.058374,96.1319488 146.169974,89.5059872 147.253261,82.416 L147.301304,82.44 Z" id="Shape" fill="#FFFFFF" fill-rule="nonzero"></path>
                <path d="M137.212174,102.696 C137.5725,102.312 137.956848,101.928 138.293152,101.52 C137.956848,101.928 137.596522,102.312 137.212174,102.696 Z" id="Shape" fill="#FFFFFF" fill-rule="nonzero"></path>
                <path d="M132.311739,106.944 L133.608913,105.96 L132.311739,106.944 Z" id="Shape" fill="#FFFFFF" fill-rule="nonzero"></path>
                <path d="M123.711957,111.576 L125.249348,110.952 C124.744891,111.192 124.240435,111.384 123.711957,111.576 Z" id="Shape" fill="#FFFFFF" fill-rule="nonzero"></path>
                <path d="M122.51087,112.008 L123.735978,111.576 L122.51087,112.008 Z" id="Shape" fill="#FFFFFF" fill-rule="nonzero"></path>
                <path d="M111.701087,1.2 C121.309783,1.2 124.889022,26.856 126.11413,43.008 C124.322243,42.1867527 122.466447,41.5125284 120.565109,40.992 C119.934248,40.7954007 119.292613,40.6351372 118.64337,40.512 C117.325384,40.225988 115.994726,40.0017429 114.655761,39.84 C114.201751,39.7762047 113.744715,39.7361501 113.286522,39.72 C112.360462,39.6307485 111.430312,39.5906921 110.5,39.6 C105.552779,39.5789037 100.651641,40.550083 96.0869565,42.456 C98.0327174,26.52 102.236522,1.2 111.701087,1.2 Z" id="Shape" fill="#FFFBF5" fill-rule="nonzero"></path>
                <path d="M120.541087,36.192 C119.910212,35.9954515 119.26858,35.8351887 118.619348,35.712 C117.301362,35.425988 115.970705,35.2017429 114.631739,35.04 C114.175634,35.0163119 113.718605,35.0163119 113.2625,35.04 C112.342297,34.9918762 111.420203,34.9918762 110.5,35.04 C105.809515,35.0436347 101.162623,35.9395916 96.8076087,37.68 C96.5673913,39.432 96.3752174,41.112 96.1830435,42.696 C100.747728,40.790083 105.648866,39.8189037 110.596087,39.84 C111.51629,39.7918762 112.438384,39.7918762 113.358587,39.84 C113.814692,39.8163119 114.271721,39.8163119 114.727826,39.84 C116.066792,40.0017429 117.397449,40.225988 118.715435,40.512 C119.364667,40.6351887 120.006299,40.7954515 120.637174,40.992 C122.53848,41.5126295 124.394268,42.1868509 126.186196,43.008 C126.186196,41.424 125.921957,39.768 125.753804,38.04 C124.065669,37.2927784 122.323065,36.6749946 120.541087,36.192 L120.541087,36.192 Z" id="Shape" fill="#EAE5DF" fill-rule="nonzero"></path>
                <path d="M113.95913,113.832 C114.418144,113.799688 114.875171,113.743613 115.32837,113.664 C114.875612,113.746534 114.418423,113.802629 113.95913,113.832 L113.95913,113.832 Z" id="Shape" fill="#FFFFFF" fill-rule="nonzero"></path>
                <path d="M112.229565,113.952 C112.806087,113.952 113.382609,113.952 113.95913,113.952 C113.382609,113.904 112.902174,113.928 112.229565,113.952 Z" id="Shape" fill="#FFFFFF" fill-rule="nonzero"></path>
                <path d="M107.064891,113.832 C107.617391,113.832 108.193913,113.832 108.770435,113.832 C108.097826,113.928 107.617391,113.904 107.064891,113.832 Z" id="Shape" fill="#FFFFFF" fill-rule="nonzero"></path>
                <path d="M105.479457,113.64 C106.007935,113.64 106.536413,113.784 107.064891,113.832 C106.533528,113.79457 106.004383,113.730489 105.479457,113.64 L105.479457,113.64 Z" id="Shape" fill="#FFFFFF" fill-rule="nonzero"></path>
                <path d="M104.27837,113.472 L105.335326,113.64 L104.27837,113.472 Z" id="Shape" fill="#FFFFFF" fill-rule="nonzero"></path>
                <path d="M95.7986957,110.976 L97.336087,111.6 C96.8076087,111.408 96.3031522,111.216 95.7986957,110.976 Z" id="Shape" fill="#FFFFFF" fill-rule="nonzero"></path>
                <path d="M91.4507609,108.744 L92.8680435,109.56 C92.3876087,109.32 91.9071739,109.032 91.4507609,108.744 Z" id="Shape" fill="#FFFFFF" fill-rule="nonzero"></path>
                <path d="M82.778913,101.592 C84.9110331,103.97127 87.3318982,106.075517 89.9854348,107.856 C87.310559,106.103506 84.8862403,103.996258 82.778913,101.592 Z" id="Shape" fill="#FFFFFF" fill-rule="nonzero"></path>
                <polygon id="Shape" fill="#E5960A" fill-rule="nonzero" points="86.4782609 148.8 86.4782609 178.8 66.1558696 178.8 66.1558696 151.056"></polygon>
                <polygon id="Shape" fill="#D88500" fill-rule="nonzero" points="81.673913 149.328 81.673913 178.8 86.4782609 178.8 86.4782609 148.8"></polygon>
                <path d="M73.7707609,82.632 C74.8885073,89.6852261 78.0158683,96.2675711 82.778913,101.592 C77.9880948,96.2802494 74.8422624,89.6941524 73.7227174,82.632 L73.7707609,82.632 Z" id="Shape" fill="#FFFFFF" fill-rule="nonzero"></path>
                <polygon id="Shape" fill="#B2B2B2" fill-rule="nonzero" points="66.1558696 151.056 66.1558696 178.8 54.048913 178.8 51.6467391 159.168 54.048913 152.4"></polygon>
                <polygon id="Shape" fill="#A5A29D" fill-rule="nonzero" points="61.3515217 151.584 61.3515217 178.8 66.1558696 178.8 66.1558696 151.056"></polygon>
                <path d="M45.6413043,67.2 C54.601413,67.2 61.2554348,67.368 61.2554348,68.4 C61.2554348,69.432 54.7695652,69.576 45.9776087,69.576 C45.8575,68.736 45.6413043,67.944 45.6413043,67.2 Z" id="Shape" fill="#FFFFFF" fill-rule="nonzero"></path>
                <path d="M47.6351087,87.888 L33.9907609,90.624 C34.315919,83.5860709 34.9974068,76.5690945 36.0326087,69.6 L46.0016304,69.6 C46.6742391,74.4 47.2507609,80.472 47.6351087,87.888 Z" id="Shape" fill="#E5960A" fill-rule="nonzero"></path>
                <path d="M34.2790217,85.776 C34.2790217,87.336 34.0628261,88.944 33.9907609,90.576 L47.6351087,87.84 C47.6351087,86.184 47.4429348,84.624 47.3468478,83.04 L34.2790217,85.776 Z" id="Shape" fill="#D88500" fill-rule="nonzero"></path>
                <path d="M45.9776087,69.6 L36.0326087,69.6 C36.1527174,68.784 36.2728261,67.992 36.4169565,67.2 L45.6413043,67.2 C45.6413043,67.944 45.8575,68.736 45.9776087,69.6 Z" id="Shape" fill="#FFFFFF" fill-rule="nonzero"></path>
                <path d="M45.6413043,67.2 L36.3929348,67.2 C37.1455821,61.4324802 38.6392306,55.7859518 40.8369565,50.4 C40.8369565,50.4 43.5273913,54 45.6413043,67.2 Z" id="Shape" fill="#FFFFFF" fill-rule="nonzero"></path>
                <path d="M36.3929348,67.2 C36.2488043,67.944 36.1286957,68.736 36.008587,69.6 C27.0725,69.6 20.4184783,69.456 20.4184783,68.424 C20.4184783,67.392 27.2646739,67.2 36.3929348,67.2 Z" id="Shape" fill="#FFFFFF" fill-rule="nonzero"></path>
                <path d="M113.2625,39.72 L114.631739,39.84 C115.304348,39.84 115.976957,40.008 116.625543,40.128 C117.27413,40.248 117.946739,40.368 118.619348,40.512 L120.541087,40.992 C122.440108,41.5395211 124.295051,42.2294812 126.090109,43.056 L126.090109,43.056 C124.889022,26.904 121.285761,1.248 111.677065,1.248 C102.06837,1.248 98.0327174,26.52 96.0869565,42.456" id="Shape" stroke="#000000" stroke-width="4.8" stroke-linecap="round" stroke-linejoin="round"></path>
                <path d="M73.7227174,82.632 C73.4118462,80.7036646 73.2592006,78.7531751 73.2663043,76.8 C73.2663043,56.2550073 89.9363977,39.6 110.5,39.6 C111.422303,39.5915384 112.344412,39.6315938 113.2625,39.72 C113.720693,39.7361501 114.177729,39.7762047 114.631739,39.84 C115.970705,40.0017429 117.301362,40.225988 118.619348,40.512 C119.268591,40.6351372 119.910226,40.7954007 120.541087,40.992 C122.442425,41.5125284 124.298222,42.1867527 126.090109,43.008 C139.282629,49.0918081 147.731577,62.2830978 147.733696,76.8 C147.735792,78.6883438 147.591228,80.5740035 147.301304,82.44" id="Shape" stroke="#000000" stroke-width="4.8" stroke-linecap="round" stroke-linejoin="round"></path>
                <path d="M101.1075,112.8 C100.555,112.656 100.0025,112.512 99.4740217,112.32" id="Shape" stroke="#000000" stroke-width="4.8" stroke-linecap="round" stroke-linejoin="round"></path>
                <path d="M104.27837,113.472 L103.005217,113.232 C102.428696,113.232 101.876196,112.992 101.323696,112.848" id="Shape" stroke="#000000" stroke-width="4.8" stroke-linecap="round" stroke-linejoin="round"></path>
                <path d="M119.628261,112.8 C119.099783,112.944 118.547283,113.064 117.994783,113.16 L116.5775,113.424" id="Shape" stroke="#000000" stroke-width="4.8" stroke-linecap="round" stroke-linejoin="round"></path>
                <polyline id="Shape" stroke="#000000" stroke-width="4.8" stroke-linecap="round" stroke-linejoin="round" points="153.73913 178.8 166.951087 178.8 169.353261 159.168 166.951087 152.4 153.73913 150.936"></polyline>
                <polyline id="Shape" stroke="#000000" stroke-width="4.8" stroke-linecap="round" stroke-linejoin="round" points="133.416739 178.8 153.73913 178.8 153.73913 150.936 133.416739 148.68"></polyline>
                <polyline id="Shape" stroke="#000000" stroke-width="4.8" stroke-linecap="round" stroke-linejoin="round" points="66.1558696 151.056 54.048913 152.4 51.6467391 159.168 54.048913 178.8 66.1558696 178.8"></polyline>
                <polyline id="Shape" stroke="#000000" stroke-width="4.8" stroke-linecap="round" stroke-linejoin="round" points="86.4782609 148.8 66.1558696 151.056 66.1558696 178.8 86.4782609 178.8"></polyline>
                <polyline id="Shape" stroke="#000000" stroke-width="4.8" stroke-linecap="round" stroke-linejoin="round" points="33.9907609 90.624 1.20108696 97.2 1.20108696 116.4 90.0815217 121.2 97.2880435 147.6 86.4782609 148.8 86.4782609 178.8 133.416739 178.8 133.416739 148.68 123.711957 147.6 130.918478 121.2 219.798913 116.4 219.798913 97.2 187.009239 90.528"></polyline>
                <path d="M173.364891,87.744 L147.301304,82.464 L147.301304,82.464 C146.218018,89.5539872 143.106418,96.1799488 138.341196,101.544 C138.004891,101.952 137.620543,102.336 137.260217,102.72 C136.128688,103.882271 134.925233,104.972416 133.656957,105.984 L132.359783,106.968 C130.159087,108.557467 127.790851,109.901472 125.297391,110.976 L123.76,111.6 L122.534891,112.032 C121.598043,112.368 120.637174,112.656 119.676304,112.896 C119.147826,113.04 118.595326,113.16 118.042826,113.256 L116.625543,113.52 C116.212939,113.601118 115.7958,113.657221 115.376413,113.688 C114.923214,113.767613 114.466187,113.823688 114.007174,113.856 C113.430652,113.856 112.85413,113.856 112.277609,113.856 L110.548043,113.856 L108.818478,113.856 C108.241957,113.856 107.665435,113.856 107.112935,113.856 C106.560435,113.856 106.055978,113.856 105.5275,113.664 L105.38337,113.664 L104.326413,113.496 L103.053261,113.256 C102.476739,113.256 101.924239,113.016 101.371739,112.872 L101.155543,112.872 C100.603043,112.728 100.050543,112.584 99.5220652,112.392 C98.993587,112.2 98.0807609,111.936 97.3841304,111.672 L95.8467391,111.048 C94.8618478,110.616 93.8769565,110.136 92.916087,109.632 L91.4988043,108.816 L90.0575,107.928 C87.4039634,106.147517 84.9830983,104.04327 82.8509783,101.664 C78.0879335,96.3395711 74.9605725,89.7572261 73.8428261,82.704 L73.8428261,82.704 L47.6351087,87.888" id="Shape" stroke="#000000" stroke-width="4.8" stroke-linecap="round" stroke-linejoin="round"></path>
                <path d="M36.0326087,69.6 C35.0046408,76.5774503 34.3311688,83.6024553 34.0147826,90.648 L47.6591304,87.912 C47.2747826,80.496 46.6982609,74.472 46.0016304,69.6" id="Shape" stroke="#000000" stroke-width="4.8" stroke-linecap="round" stroke-linejoin="round"></path>
                <path d="M45.6413043,67.2 C43.5273913,54 40.8369565,50.4 40.8369565,50.4 C38.6392306,55.7859518 37.1455821,61.4324802 36.3929348,67.2" id="Shape" stroke="#000000" stroke-width="4.8" stroke-linecap="round" stroke-linejoin="round"></path>
                <path d="M45.6413043,67.2 C54.601413,67.2 61.2554348,67.368 61.2554348,68.4 C61.2554348,69.432 54.7695652,69.576 45.9776087,69.576 L36.0326087,69.576 C27.0965217,69.576 20.4425,69.432 20.4425,68.4 C20.4425,67.368 27.2646739,67.2 36.3929348,67.2 L45.6413043,67.2 Z" id="Shape" stroke="#000000" stroke-width="4.8" stroke-linecap="round" stroke-linejoin="round"></path>
                <path d="M184.967391,69.6 C185.808152,75.144 186.552826,82.08 186.985217,90.528 L186.985217,90.528 L173.34087,87.792 L173.34087,87.648 C173.725217,80.304 174.325761,74.328 174.99837,69.48" id="Shape" stroke="#000000" stroke-width="4.8" stroke-linecap="round" stroke-linejoin="round"></path>
                <path d="M175.358696,67.2 C177.472609,53.976 180.163043,50.4 180.163043,50.4 C182.361023,55.7858669 183.854681,61.4324286 184.607065,67.2" id="Shape" stroke="#000000" stroke-width="4.8" stroke-linecap="round" stroke-linejoin="round"></path>
                <path d="M175.358696,67.2 C166.398587,67.2 159.744565,67.344 159.744565,68.376 C159.744565,69.408 166.230435,69.552 175.022391,69.552 L184.967391,69.552 C193.903478,69.552 200.5575,69.384 200.5575,68.352 C200.5575,67.32 193.735326,67.2 184.607065,67.2 L175.358696,67.2 Z" id="Shape" stroke="#000000" stroke-width="4.8" stroke-linecap="round" stroke-linejoin="round"></path>
                <ellipse id="Oval" stroke="#000000" stroke-width="4.8" stroke-linecap="round" stroke-linejoin="round" cx="110.5" cy="76.8" rx="4.80434783" ry="4.8"></ellipse>
            </g>
        </g>
    </g>
</svg>