<svg id="Layer_1" data-name="Layer 1" xmlns="http://www.w3.org/2000/svg" viewBox="0 0 100 100"><defs><style>.cls-1{fill:none;stroke:#fff;stroke-linecap:round;stroke-miterlimit:10;}.cls-2{fill:#262626;}.cls-3{fill:#fff;}</style></defs><title>movie-board</title><rect x="21.52" y="41.15" width="65.74" height="40.96"/><line class="cls-1" x1="32.33" y1="58.64" x2="44.45" y2="58.64"/><line class="cls-1" x1="49.41" y1="58.64" x2="76.73" y2="58.64"/><line class="cls-1" x1="32.33" y1="67.52" x2="76.73" y2="67.52"/><line class="cls-1" x1="43.36" y1="67.52" x2="43.36" y2="75.26"/><line class="cls-1" x1="65.39" y1="67.52" x2="65.39" y2="75.26"/><polygon class="cls-2" points="87.26 40.15 87.26 48.73 79.83 48.73 74.32 40.15 87.26 40.15"/><polygon class="cls-3" points="74.32 40.15 79.83 48.73 64.83 48.73 59.32 40.15 74.32 40.15"/><polygon class="cls-2" points="59.32 40.15 64.83 48.73 49.83 48.73 44.32 40.15 59.32 40.15"/><polygon class="cls-3" points="44.32 40.15 49.83 48.73 34.83 48.73 29.32 40.15 44.32 40.15"/><polygon class="cls-2" points="29.32 40.15 34.83 48.73 21.52 48.73 21.52 40.15 29.32 40.15"/><polygon class="cls-2" points="85.9 26.48 84.12 18.09 76.85 19.63 73.24 29.17 85.9 26.48"/><polygon class="cls-3" points="73.24 29.17 76.85 19.63 62.18 22.75 58.57 32.29 73.24 29.17"/><polygon class="cls-2" points="58.57 32.29 62.18 22.75 47.5 25.87 43.9 35.41 58.57 32.29"/><polygon class="cls-3" points="43.9 35.41 47.5 25.87 32.83 28.99 29.23 38.52 43.9 35.41"/><polygon class="cls-2" points="29.23 38.52 32.83 28.99 19.81 31.75 21.6 40.15 29.23 38.52"/></svg>