<svg id="Layer_1" data-name="Layer 1" xmlns="http://www.w3.org/2000/svg" viewBox="0 0 98 98"><defs><style>.cls-1{fill:#ffb3c3;}.cls-2,.cls-3{fill:none;}.cls-3{stroke:#d20f18;stroke-linecap:round;stroke-linejoin:round;}.cls-4{font-size:10px;fill:#d20f18;font-family:Quicksand-Medium, Quicksand;}</style></defs><title>cinema</title><path class="cls-1" d="M51,75.05V89.33h-.09V75.05H40V89.33H20.11V64.78h59V89.33H61.86V75.05Z"/><path class="cls-2" d="M89.22,38.42V89.33H79.13V38.42C79.13,30.45,89.22,30.58,89.22,38.42Z"/><polygon class="cls-2" points="79.13 51.5 79.13 64.78 20.11 64.78 20.11 51.5 30.65 51.5 35.74 51.5 40.83 51.5 46.68 51.5 52.66 51.5 58.5 51.5 63.59 51.5 68.68 51.5 79.13 51.5"/><rect class="cls-1" x="68.68" y="42.63" width="10.45" height="8.87"/><path class="cls-2" d="M68.68,42.63V51.5H63.59V38.76a1,1,0,0,1,1-1h3.09a1,1,0,0,1,1,1Z"/><path class="cls-1" d="M63.59,37.76V51.5H58.5V33.07h4.09a1,1,0,0,1,1,1Z"/><rect class="cls-2" x="50.98" y="75.05" width="10.88" height="14.28"/><path class="cls-2" d="M52.66,24.61V51.5H58.5V33.07C58.5,25.31,52.66,24.61,52.66,24.61Z"/><path class="cls-1" d="M52.66,24.61V51.5h-6V8.09a3,3,0,0,1,3-3h0a3,3,0,0,1,3,3Z"/><rect class="cls-2" x="40" y="75.05" width="10.89" height="14.28"/><path class="cls-2" d="M40.83,33.07V51.5h5.85V24.61S40.83,25.31,40.83,33.07Z"/><path class="cls-1" d="M40.83,33.07V51.5H35.74V34.07a1,1,0,0,1,1-1Z"/><path class="cls-2" d="M35.74,38.76V51.5H30.65V38.76a1,1,0,0,1,1-1h3.09A1,1,0,0,1,35.74,38.76Z"/><rect class="cls-1" x="20.11" y="42.63" width="10.54" height="8.87"/><path class="cls-2" d="M20.11,64.78V89.33H10V38.42c0-8,10.09-7.84,10.09,0V64.78Z"/><line class="cls-3" x1="89.22" y1="89.33" x2="98" y2="89.33"/><line class="cls-3" x1="61.86" y1="89.33" x2="79.13" y2="89.33"/><line class="cls-3" x1="50.89" y1="89.33" x2="50.98" y2="89.33"/><line class="cls-3" x1="20.11" y1="89.33" x2="40" y2="89.33"/><line class="cls-3" y1="89.33" x2="10.02" y2="89.33"/><path class="cls-3" d="M20.11,42.63V38.42c0-7.84-10.09-8-10.09,0V89.33H20.11V64.78"/><path class="cls-3" d="M79.13,64.78V89.33H89.22V38.42c0-7.84-10.09-8-10.09,0v4.21"/><polyline class="cls-3" points="79.13 51.5 79.13 64.78 20.11 64.78 20.11 51.5"/><line class="cls-3" x1="52.66" y1="51.5" x2="58.5" y2="51.5"/><line class="cls-3" x1="40.83" y1="51.5" x2="46.68" y2="51.5"/><rect class="cls-3" x="40" y="75.05" width="10.89" height="14.28"/><rect class="cls-3" x="50.98" y="75.05" width="10.88" height="14.28"/><polyline class="cls-3" points="30.65 51.5 20.11 51.5 20.11 42.63 30.65 42.63"/><polyline class="cls-3" points="68.68 42.63 79.13 42.63 79.13 51.5 68.68 51.5"/><path class="cls-3" d="M35.74,51.5H30.65V38.76a1,1,0,0,1,1-1h4.09"/><path class="cls-3" d="M40.83,51.5H35.74V34.07a1,1,0,0,1,1-1h4.09Z"/><path class="cls-3" d="M63.59,51.5h5.09V38.76a1,1,0,0,0-1-1H63.59"/><path class="cls-3" d="M58.5,51.5h5.09V34.07a1,1,0,0,0-1-1H58.5Z"/><path class="cls-3" d="M52.66,24.61V8.09a3,3,0,0,0-3-3h0a3,3,0,0,0-3,3V51.5h6Z"/><path class="cls-3" d="M40.83,33.07c0-7.76,5.85-8.46,5.85-8.46"/><path class="cls-3" d="M58.5,33.07c0-7.76-5.84-8.46-5.84-8.46"/><text class="cls-4" transform="translate(30.65 62.19)">CINEMA</text></svg>