<svg id="Layer_1" data-name="Layer 1" xmlns="http://www.w3.org/2000/svg" viewBox="0 0 98 98"><defs><style>.cls-1{fill:#ffb3c3;}.cls-1,.cls-2,.cls-3{stroke:#d20f18;stroke-linecap:round;stroke-linejoin:round;}.cls-2{fill:none;}.cls-3{fill:#fff;}.cls-4{font-size:10px;fill:#d20f18;font-family:Quicksand-Medium, Quicksand;}</style></defs><title>movie</title><rect class="cls-1" x="19.48" y="20.51" width="59.04" height="44.3" rx="1" ry="1"/><path class="cls-2" d="M27.17,77.32c0-8.87,12.6-8.74,12.6,0"/><path class="cls-2" d="M19.87,85.75c0-8.87,12.6-8.74,12.6,0"/><path class="cls-2" d="M43.29,77.32c0-8.87,12.6-8.74,12.6,0"/><path class="cls-2" d="M58.4,77.32c0-8.87,12.6-8.74,12.6,0"/><path class="cls-2" d="M35.3,85.75c0-8.87,12.6-8.74,12.6,0"/><path class="cls-2" d="M50.41,85.75c0-8.87,12.6-8.74,12.6,0"/><path class="cls-2" d="M65.53,85.75c0-8.87,12.6-8.74,12.6,0"/><rect class="cls-3" x="29.71" y="47.91" width="38.58" height="11.29"/><text class="cls-4" transform="translate(31.88 57.06)">G</text><line class="cls-1" x1="40.95" y1="47.91" x2="40.95" y2="58.57"/><line class="cls-3" x1="40.95" y1="51.82" x2="68.29" y2="51.82"/><line class="cls-3" x1="28.92" y1="28.87" x2="69.08" y2="28.87"/><line class="cls-3" x1="28.92" y1="37.23" x2="69.08" y2="37.23"/><line class="cls-3" x1="30.77" y1="32.84" x2="67.23" y2="32.84"/><line class="cls-3" x1="39.49" y1="44.46" x2="59.68" y2="44.46"/></svg>