<svg id="Layer_1" data-name="Layer 1" xmlns="http://www.w3.org/2000/svg" viewBox="0 0 50 50"><defs><style>.cls-1{fill:none;stroke:#d20f18;stroke-miterlimit:10;stroke-width:2px;}</style></defs><title>movie-roll</title><rect class="cls-1" x="5" y="1" width="40" height="48" rx="1" ry="1"/><line class="cls-1" x1="14" y1="1" x2="14" y2="49"/><line class="cls-1" x1="36" y1="1" x2="36" y2="49"/><line class="cls-1" x1="36" y1="33" x2="14" y2="33"/><line class="cls-1" x1="36" y1="17" x2="14" y2="17"/><line class="cls-1" x1="5" y1="17" x2="13" y2="17"/><line class="cls-1" x1="5" y1="9" x2="13" y2="9"/><line class="cls-1" x1="5" y1="25" x2="13" y2="25"/><line class="cls-1" x1="5" y1="33" x2="13" y2="33"/><line class="cls-1" x1="5" y1="41" x2="13" y2="41"/><line class="cls-1" x1="36" y1="17" x2="44" y2="17"/><line class="cls-1" x1="36" y1="9" x2="44" y2="9"/><line class="cls-1" x1="36" y1="25" x2="44" y2="25"/><line class="cls-1" x1="36" y1="33" x2="44" y2="33"/><line class="cls-1" x1="36" y1="41" x2="44" y2="41"/></svg>