<svg id="Layer_1" data-name="Layer 1" xmlns="http://www.w3.org/2000/svg" viewBox="0 0 100 100"><defs><style>.cls-1{fill:#fde96c;}.cls-2{fill:#f7e06b;}.cls-3{fill:#fff;}.cls-4{fill:#d20f18;}.cls-5{fill:#bf0a17;}.cls-6{fill:#e5e5e5;}</style></defs><title>popcorn_1</title><path class="cls-1" d="M62.23,41.84h-.07a4.7,4.7,0,0,0,.07-.75,4.15,4.15,0,0,0-4-4.32,3.65,3.65,0,0,0-1.85.52A4,4,0,0,0,52.59,34,3.74,3.74,0,0,0,50,35,3.74,3.74,0,0,0,47.43,34a4.08,4.08,0,0,0-3.9,3.71,3.61,3.61,0,0,0-.95-.14,4.15,4.15,0,0,0-4,4.32,4.69,4.69,0,0,0,.06.68,4.21,4.21,0,0,0-3.34,4.26,4.15,4.15,0,0,0,4,4.32,3.82,3.82,0,0,0,3.06-1.61,3.72,3.72,0,0,0,6.22.14,3.62,3.62,0,0,0,.9.12,3.71,3.71,0,0,0,2.35-.87,3.92,3.92,0,0,0,3.5,2.36c1.38,0,1.78.87,2.48-.3.2-.11,1.23.44,1.41.3.73.95,1.79-.76,3-.76a4.34,4.34,0,0,0,0-8.65Z"/><path class="cls-2" d="M64.5,49.71c-.19-2.74-4.25-3.38-5.26-1.27a.25.25,0,0,1-.45,0,2.85,2.85,0,0,0-5,0,.25.25,0,0,1-.46,0,2.85,2.85,0,0,0-5,0,.25.25,0,0,1-.46,0,2.84,2.84,0,0,0-5.07.09.24.24,0,0,1-.44.06c-1.11-2-5.48-1.88-5.24,1.82.64.48,1.42-.23,2.26-.23,1.24,0,2.51,4.7,3.23,3.72.72,1.06,1.86-1.45,3.16-1.45s2.4,1.37,3.12.39c.29.07.36,2,.67,2,.88,0,1.68-1,2.34-1.51.66,1.4,2-3,3.5-3,1.38,0,1.78.87,2.48-.3.2-.11,1.23.44,1.41.3.73.95,1.79-.76,3-.76C63,49.49,63.88,50.16,64.5,49.71Z"/><path class="cls-2" d="M66.51,81.58a2,2,0,0,0-1,.26,2.06,2.06,0,0,0-4.12,0,2.06,2.06,0,1,0,1.52,3.44,2,2,0,0,0,2.77.24,2.06,2.06,0,1,0,.81-4Z"/><path class="cls-3" d="M57,85.72H53.52V50.52c0-3.6,5.49-3.5,5.49,0Z"/><path class="cls-3" d="M48,85.72H44.54l-2-35.2c0-3.6,5.49-3.5,5.49,0Z"/><path class="cls-4" d="M44.54,85.72H41a1,1,0,0,1-1-.92L37.05,50.52c0-3.6,5.49-3.5,5.49,0Z"/><path class="cls-4" d="M53.52,85.72H48V50.52c0-3.6,5.49-3.5,5.49,0Z"/><path class="cls-4" d="M60.58,85.72H57l2-35.2c0-3.6,5.49-3.5,5.49,0L61.58,84.81A1,1,0,0,1,60.58,85.72Z"/><path class="cls-5" d="M57.14,83.51,57,85.72h3.57a1,1,0,0,0,1-.92l.11-1.3Z"/><polygon class="cls-6" points="53.52 83.51 53.52 85.72 57.01 85.72 57.14 83.51 53.52 83.51"/><rect class="cls-5" x="48.03" y="83.51" width="5.49" height="2.21"/><polygon class="cls-6" points="44.42 83.51 44.54 85.72 48.03 85.72 48.03 83.51 44.42 83.51"/><path class="cls-5" d="M40,84.81a1,1,0,0,0,1,.92h3.57l-.13-2.21H39.86Z"/><path class="cls-1" d="M40.51,82.44h0a1.68,1.68,0,0,0-3-1.28,1.68,1.68,0,0,0-2.74,1.27h0A1.69,1.69,0,1,0,35,85.79a1.69,1.69,0,0,0,2.33.46,1.68,1.68,0,0,0,2.41-.61,1.67,1.67,0,0,0,.74.18,1.69,1.69,0,0,0,0-3.38Z"/></svg>