<svg id="Layer_1" data-name="Layer 1" xmlns="http://www.w3.org/2000/svg" viewBox="0 0 100 100"><defs><style>.cls-1{fill:#333;}.cls-2{fill:#ccc;}.cls-3{fill:none;stroke:#bfbfbf;stroke-linecap:round;stroke-linejoin:round;}</style></defs><title>movie-reel_1</title><path class="cls-1" d="M50,28.35A21.65,21.65,0,1,0,71.65,50,21.65,21.65,0,0,0,50,28.35Zm0,29.52A7.87,7.87,0,1,1,57.87,50,7.87,7.87,0,0,1,50,57.87Z"/><path class="cls-2" d="M50,14.94A35.06,35.06,0,1,0,85.06,50,35.06,35.06,0,0,0,50,14.94Zm0,3.56a9.16,9.16,0,1,1-9.16,9.16A9.16,9.16,0,0,1,50,18.5ZM20,40.27a9.16,9.16,0,1,1,5.88,11.54A9.16,9.16,0,0,1,20,40.27ZM44.28,73.46a9.16,9.16,0,1,1-2-12.8A9.16,9.16,0,0,1,44.28,73.46ZM50,53.94a4.51,4.51,0,1,1,4.51-4.51A4.51,4.51,0,0,1,50,53.94ZM68.52,75.49a9.16,9.16,0,1,1,2-12.8A9.16,9.16,0,0,1,68.52,75.49Zm5.56-23.68A9.16,9.16,0,1,1,80,40.27,9.16,9.16,0,0,1,74.08,51.81Z"/><line class="cls-3" x1="57.54" y1="39.08" x2="68.95" y2="25"/><line class="cls-3" x1="42.39" y1="38.8" x2="31.74" y2="24.14"/><line class="cls-3" x1="37.44" y1="54.22" x2="19.93" y2="58.9"/><line class="cls-3" x1="50.03" y1="62.59" x2="49.97" y2="80.71"/><line class="cls-3" x1="62.03" y1="53.91" x2="79.26" y2="59.54"/></svg>