<svg id="Layer_1" data-name="Layer 1" xmlns="http://www.w3.org/2000/svg" viewBox="0 0 100 100"><defs><style>.cls-1{fill:#333;}.cls-2{fill:#191919;}.cls-3{fill:#d20f18;}.cls-4{fill:#bf0a17;}.cls-5{fill:#eaeaea;}.cls-6{fill:#fff;}</style></defs><title>soda</title><path class="cls-1" d="M62.28,19.13a.51.51,0,0,0-.44-.08l-11.5,3.37a.5.5,0,0,0-.36.48V37.82a.5.5,0,0,0,.5.5H51a.5.5,0,0,0,.5-.5V23.66l10.64-3.22a.5.5,0,0,0,.36-.48v-.43A.5.5,0,0,0,62.28,19.13Z"/><path class="cls-2" d="M50,31.62v6.2a.5.5,0,0,0,.5.5H51a.5.5,0,0,0,.5-.5v-6.2Z"/><path class="cls-3" d="M63.27,34.63a.5.5,0,0,0-.36-.15H38.12a.5.5,0,0,0-.5.52l2,47.89a.5.5,0,0,0,.5.48h20.8a.5.5,0,0,0,.5-.48l2-47.89A.51.51,0,0,0,63.27,34.63Z"/><path class="cls-4" d="M63.41,35a.5.5,0,0,0-.5-.52H38.12a.5.5,0,0,0-.5.52l.15,3.58h25.5Z"/><rect class="cls-5" x="36.31" y="33.53" width="28.34" height="1.92" rx="0.96" ry="0.96"/><path class="cls-5" d="M39.55,81.2l.07,1.68a.5.5,0,0,0,.5.48h20.8a.5.5,0,0,0,.5-.48l.07-1.68Z"/><polygon class="cls-6" points="62.7 52.02 62.86 48.29 38.78 62.84 38.93 66.39 62.7 52.02"/></svg>