<svg id="Layer_1" data-name="Layer 1" xmlns="http://www.w3.org/2000/svg" viewBox="0 0 50 50"><defs><style>.cls-1{fill:none;stroke:#d20f18;stroke-miterlimit:10;stroke-width:2px;}</style></defs><title>theater-chair</title><path class="cls-1" d="M1,41H49a0,0,0,0,1,0,0v7a1,1,0,0,1-1,1H2a1,1,0,0,1-1-1V41A0,0,0,0,1,1,41Z"/><line class="cls-1" x1="9" y1="33" x2="41" y2="33"/><path class="cls-1" d="M33,1H17A8,8,0,0,0,9,9V41H41V9A8,8,0,0,0,33,1Z"/><path class="cls-1" d="M41,25h7a1,1,0,0,1,1,1V41a0,0,0,0,1,0,0H41a0,0,0,0,1,0,0V25A0,0,0,0,1,41,25Z"/><path class="cls-1" d="M1,25H9a0,0,0,0,1,0,0V40a1,1,0,0,1-1,1H1a0,0,0,0,1,0,0V25A0,0,0,0,1,1,25Z" transform="translate(10 66) rotate(-180)"/></svg>