<svg id="Layer_1" data-name="Layer 1" xmlns="http://www.w3.org/2000/svg" viewBox="0 0 100 100"><defs><style>.cls-1{fill:#fde96c;}.cls-2{fill:#f2d961;}.cls-3{fill:#ccb13e;}.cls-4{fill:#bfa536;}</style></defs><title>ticket_1</title><path class="cls-1" d="M85.15,38.95a3.41,3.41,0,0,1-3.3-3.5.5.5,0,0,0-.5-.5H14.83a.5.5,0,0,0-.5.5,3.41,3.41,0,0,1-3.3,3.5.5.5,0,0,0-.5.5v26a.5.5,0,0,0,.5.5,3.41,3.41,0,0,1,3.3,3.5.5.5,0,0,0,.5.5H81.35a.5.5,0,0,0,.5-.5,3.41,3.41,0,0,1,3.3-3.5.5.5,0,0,0,.5-.5v-26A.5.5,0,0,0,85.15,38.95Z"/><path class="cls-2" d="M10.53,52.39v13a.5.5,0,0,0,.5.5,3.41,3.41,0,0,1,3.3,3.5.5.5,0,0,0,.5.5H81.35a.5.5,0,0,0,.5-.5,3.41,3.41,0,0,1,3.3-3.5.5.5,0,0,0,.5-.5v-13Z"/><rect class="cls-2" x="16.81" y="52.39" width="62.81" height="11.91"/><path class="cls-3" d="M79.63,64.8H16.81a.5.5,0,0,1-.5-.5V40.48a.5.5,0,0,1,.5-.5H79.63a.5.5,0,0,1,.5.5V64.3A.5.5,0,0,1,79.63,64.8Zm-62.31-1H79.13V41H17.31Z"/><path class="cls-3" d="M40.91,49.81a.46.46,0,0,1-.14.34.44.44,0,0,1-.31.13.42.42,0,0,1-.26-.09A.58.58,0,0,1,40,50l-.42-1H37.22l-.42,1a.49.49,0,0,1-.17.24.42.42,0,0,1-.25.08.38.38,0,0,1-.42-.42.55.55,0,0,1,0-.15l2-4.78a.53.53,0,0,1,.19-.25.42.42,0,0,1,.29-.07.47.47,0,0,1,.27.08.48.48,0,0,1,.18.24l2,4.69A.55.55,0,0,1,40.91,49.81Zm-3.3-1.74h1.6L38.4,46.2Z"/><path class="cls-3" d="M45.28,45a2.36,2.36,0,0,1,.82,1,3.69,3.69,0,0,1,0,2.84,2.36,2.36,0,0,1-.82,1,2.22,2.22,0,0,1-1.29.37H42.07a.48.48,0,0,1-.49-.49V45.13a.48.48,0,0,1,.49-.49H44A2.22,2.22,0,0,1,45.28,45ZM45,48.79a2.69,2.69,0,0,0,0-2.7,1.22,1.22,0,0,0-1.08-.53H42.59v3.76h1.32A1.22,1.22,0,0,0,45,48.79Z"/><path class="cls-3" d="M52.51,44.78a.46.46,0,0,1,.15.35v4.63a.47.47,0,0,1-.5.49.5.5,0,0,1-.36-.14.47.47,0,0,1-.14-.35V46.53l-1.32,2a.67.67,0,0,1-.18.16.37.37,0,0,1-.22.05.35.35,0,0,1-.21-.05.68.68,0,0,1-.18-.16l-1.32-2.09v3.3a.49.49,0,0,1-.13.35.44.44,0,0,1-.34.14.43.43,0,0,1-.33-.14.5.5,0,0,1-.13-.35V45.12a.46.46,0,0,1,.15-.34.49.49,0,0,1,.36-.14.53.53,0,0,1,.24.06.46.46,0,0,1,.18.16L50,47.53l1.79-2.68a.48.48,0,0,1,.17-.16.44.44,0,0,1,.22-.06A.49.49,0,0,1,52.51,44.78Z"/><path class="cls-3" d="M54.71,50.1a.51.51,0,0,1-.35.14A.48.48,0,0,1,54,50.1a.47.47,0,0,1-.14-.35V45.13a.47.47,0,0,1,.14-.35.5.5,0,0,1,.37-.14.47.47,0,0,1,.34.14.47.47,0,0,1,.14.35v4.62A.46.46,0,0,1,54.71,50.1Z"/><path class="cls-3" d="M60.09,44.77a.44.44,0,0,1,.14.34.43.43,0,0,1-.14.33.51.51,0,0,1-.35.12H58.48v4.19a.46.46,0,0,1-.15.35.54.54,0,0,1-.38.14.51.51,0,0,1-.37-.14.47.47,0,0,1-.14-.35V45.56H56.19a.49.49,0,0,1-.35-.13.44.44,0,0,1-.14-.34.43.43,0,0,1,.14-.33.49.49,0,0,1,.35-.13h3.55A.49.49,0,0,1,60.09,44.77Z"/><path class="cls-4" d="M45.31,58.5a2.71,2.71,0,0,1-1,1,2.73,2.73,0,0,1-2.79,0,2.67,2.67,0,0,1-1-1,3.21,3.21,0,0,1,0-2.9,2.67,2.67,0,0,1,1-1,2.73,2.73,0,0,1,2.79,0,2.7,2.7,0,0,1,1,1,3.17,3.17,0,0,1,0,2.9Zm-.9-2.42a1.75,1.75,0,0,0-.6-.69,1.6,1.6,0,0,0-1.73,0,1.68,1.68,0,0,0-.59.69,2.35,2.35,0,0,0,0,2,1.68,1.68,0,0,0,.59.69,1.6,1.6,0,0,0,1.73,0,1.75,1.75,0,0,0,.6-.69,2.3,2.3,0,0,0,0-1.94Z"/><path class="cls-4" d="M51.14,54.37a.45.45,0,0,1,.12.32v4.66a.48.48,0,0,1-.49.49.67.67,0,0,1-.22,0,.31.31,0,0,1-.16-.1L47.46,56V59.4a.44.44,0,0,1-.12.32.43.43,0,0,1-.32.13.41.41,0,0,1-.31-.13.45.45,0,0,1-.12-.32V54.73a.48.48,0,0,1,.49-.49.61.61,0,0,1,.24,0,.38.38,0,0,1,.17.13l2.91,3.71V54.69a.44.44,0,0,1,.12-.32.42.42,0,0,1,.32-.13A.41.41,0,0,1,51.14,54.37Z"/><path class="cls-4" d="M56,59.06a.45.45,0,0,1,.14.32.43.43,0,0,1-.14.33.5.5,0,0,1-.35.13H52.95a.48.48,0,0,1-.49-.49V54.73a.48.48,0,0,1,.49-.49h2.68a.49.49,0,0,1,.35.13.45.45,0,0,1,.14.34A.42.42,0,0,1,56,55a.51.51,0,0,1-.35.12H53.46v1.36h1.81a.49.49,0,0,1,.35.13.45.45,0,0,1,.14.34.42.42,0,0,1-.14.32.5.5,0,0,1-.35.12H53.46v1.48h2.17A.48.48,0,0,1,56,59.06Z"/><rect class="cls-3" x="26.05" y="40.48" width="1" height="23.82"/><rect class="cls-3" x="70.16" y="40.48" width="1" height="23.82"/><path class="cls-4" d="M79.13,52.39V63.8H17.31V52.39h-1V64.3a.5.5,0,0,0,.5.5H79.63a.5.5,0,0,0,.5-.5V52.39Z"/><rect class="cls-4" x="26.05" y="52.39" width="1" height="11.91"/><rect class="cls-4" x="70.16" y="52.39" width="1" height="11.91"/></svg>