<svg id="Layer_1" data-name="Layer 1" xmlns="http://www.w3.org/2000/svg" viewBox="0 0 98 98"><defs><style>.cls-1,.cls-2{fill:none;}.cls-1,.cls-2,.cls-3,.cls-4{stroke:#d20f18;stroke-linecap:round;stroke-linejoin:round;}.cls-2{stroke-dasharray:0.99 2.97;}.cls-3{fill:#ffb3c3;}.cls-4{fill:#fff;}</style></defs><title>ticket</title><path class="cls-1" d="M90.5,39.62V27.5a1,1,0,0,0-1-1h-78a1,1,0,0,0-1,1V39.62a1,1,0,0,0,.89,1c10.64,1,10.47,19.66,0,20.66a1,1,0,0,0-.89,1V73.5a1,1,0,0,0,1,1h78a1,1,0,0,0,1-1V62.25a1,1,0,0,0-.89-1c-10.47-1-10.64-19.67,0-20.66A1,1,0,0,0,90.5,39.62Z"/><line class="cls-1" x1="71.49" y1="28.73" x2="71.49" y2="29.23"/><line class="cls-2" x1="71.49" y1="32.2" x2="71.49" y2="70.36"/><line class="cls-1" x1="71.49" y1="71.85" x2="71.49" y2="72.35"/><rect class="cls-3" x="24.57" y="33.25" width="40" height="34.58"/><polygon class="cls-4" points="44.57 36.19 49.22 45.61 59.62 47.12 52.09 54.45 53.87 64.81 44.57 59.92 35.27 64.81 37.05 54.45 29.52 47.12 39.92 45.61 44.57 36.19"/></svg>