<?xml version="1.0" encoding="UTF-8"?>
<svg width="195px" height="132px" viewBox="0 0 195 132" version="1.1" xmlns="http://www.w3.org/2000/svg" xmlns:xlink="http://www.w3.org/1999/xlink">
    <!-- Generator: Sketch 46.2 (44496) - http://www.bohemiancoding.com/sketch -->
    <title>Group 2</title>
    <desc>Created with Sketch.</desc>
    <defs></defs>
    <g id="comps" stroke="none" stroke-width="1" fill="none" fill-rule="evenodd">
        <g id="login-main" transform="translate(-85.000000, -185.000000)">
            <g id="Group-2" transform="translate(85.000000, 185.000000)">
                <path d="M-1.42108547e-14,126 C-5.92943587e-15,133 195,134 195,128 C195,122 -1.42108547e-14,119 -1.42108547e-14,126 Z" id="Path-2" fill="#D9D9D9"></path>
                <g id="movie-board" transform="translate(55.000000, 0.000000)">
                    <rect id="Rectangle-path" fill="#000000" fill-rule="nonzero" x="3.65217391" y="33.4784615" width="95.2753623" height="59.2344615"></rect>
                    <path d="M19.3188406,58.7716923 L36.884058,58.7716923" id="Shape" stroke="#FFFFFF" stroke-width="1.44" stroke-linecap="round"></path>
                    <path d="M44.0724638,58.7716923 L83.6666667,58.7716923" id="Shape" stroke="#FFFFFF" stroke-width="1.44" stroke-linecap="round"></path>
                    <path d="M19.3188406,71.6135385 L83.6666667,71.6135385" id="Shape" stroke="#FFFFFF" stroke-width="1.44" stroke-linecap="round"></path>
                    <path d="M35.3043478,71.6135385 L35.3043478,82.8067692" id="Shape" stroke="#FFFFFF" stroke-width="1.44" stroke-linecap="round"></path>
                    <path d="M67.2318841,71.6135385 L67.2318841,82.8067692" id="Shape" stroke="#FFFFFF" stroke-width="1.44" stroke-linecap="round"></path>
                    <polygon id="Shape" fill="#262626" fill-rule="nonzero" points="98.9275362 32.0323077 98.9275362 44.4403077 88.1594203 44.4403077 80.173913 32.0323077"></polygon>
                    <polygon id="Shape" fill="#FFFFFF" fill-rule="nonzero" points="80.173913 32.0323077 88.1594203 44.4403077 66.4202899 44.4403077 58.4347826 32.0323077"></polygon>
                    <polygon id="Shape" fill="#262626" fill-rule="nonzero" points="58.4347826 32.0323077 66.4202899 44.4403077 44.6811594 44.4403077 36.6956522 32.0323077"></polygon>
                    <polygon id="Shape" fill="#FFFFFF" fill-rule="nonzero" points="36.6956522 32.0323077 44.6811594 44.4403077 22.942029 44.4403077 14.9565217 32.0323077"></polygon>
                    <polygon id="Shape" fill="#262626" fill-rule="nonzero" points="14.9565217 32.0323077 22.942029 44.4403077 3.65217391 44.4403077 3.65217391 32.0323077"></polygon>
                    <polygon id="Shape" fill="#262626" fill-rule="nonzero" points="96.9565217 12.2633846 94.3768116 0.130153846 83.8405797 2.35723077 78.6086957 16.1535385"></polygon>
                    <polygon id="Shape" fill="#FFFFFF" fill-rule="nonzero" points="78.6086957 16.1535385 83.8405797 2.35723077 62.5797101 6.86923077 57.3478261 20.6655385"></polygon>
                    <polygon id="Shape" fill="#262626" fill-rule="nonzero" points="57.3478261 20.6655385 62.5797101 6.86923077 41.3043478 11.3812308 36.0869565 25.1775385"></polygon>
                    <polygon id="Shape" fill="#FFFFFF" fill-rule="nonzero" points="36.0869565 25.1775385 41.3043478 11.3812308 20.0434783 15.8932308 14.826087 29.6750769"></polygon>
                    <polygon id="Shape" fill="#262626" fill-rule="nonzero" points="14.826087 29.6750769 20.0434783 15.8932308 1.17391304 19.8846154 3.76811594 32.0323077"></polygon>
                </g>
                <g id="soda" transform="translate(141.000000, 12.000000)" fill-rule="nonzero">
                    <path d="M48.0289655,0.234 C47.797719,0.0666381991 47.5010886,0.0135194767 47.2248276,0.09 L26.2075862,6.156 C25.8177011,6.268 25.5496552,6.62 25.5496552,7.02 L25.5496552,33.876 C25.5496552,34.3730563 25.9587743,34.776 26.4634483,34.776 L27.4137931,34.776 C27.9184671,34.776 28.3275862,34.3730563 28.3275862,33.876 L28.3275862,8.388 L47.7731034,2.592 C48.1629885,2.48 48.4310345,2.128 48.4310345,1.728 L48.4310345,0.954 C48.4225659,0.664230266 48.2729001,0.396218244 48.0289655,0.234 Z" id="Shape" fill="#333333"></path>
                    <path d="M25.5862069,22.716 L25.5862069,33.876 C25.5862069,34.3730563 25.995326,34.776 26.5,34.776 L27.4137931,34.776 C27.9184671,34.776 28.3275862,34.3730563 28.3275862,33.876 L28.3275862,22.716 L25.5862069,22.716 Z" id="Shape" fill="#191919"></path>
                    <path d="M49.8382759,28.134 C49.6651136,27.9599975 49.4277213,27.862577 49.1803448,27.864 L3.87448276,27.864 C3.62566178,27.8638039 3.38751918,27.9635507 3.21505914,28.1402019 C3.04259909,28.316853 2.95073673,28.5551309 2.96068966,28.8 L6.61586207,115.002 C6.63549142,115.484944 7.03891763,115.866387 7.52965517,115.866 L45.5434483,115.866 C46.0341858,115.866387 46.437612,115.484944 46.4572414,115.002 L50.1124138,28.8 C50.1167246,28.5505328 50.0177514,28.3100838 49.8382759,28.134 Z" id="Shape" fill="#D20F18"></path>
                    <path d="M50.0941379,28.8 C50.1040909,28.5551309 50.0122285,28.316853 49.8397684,28.1402019 C49.6673084,27.9635507 49.4291658,27.8638039 49.1803448,27.864 L3.87448276,27.864 C3.62566178,27.8638039 3.38751918,27.9635507 3.21505914,28.1402019 C3.04259909,28.316853 2.95073673,28.5551309 2.96068966,28.8 L3.23482759,35.244 L49.8382759,35.244 L50.0941379,28.8 Z" id="Shape" fill="#BF0A17"></path>
                    <rect id="Rectangle-path" fill="#EAEAEA" x="0.566551724" y="26.154" width="51.7937931" height="3.456" rx="1.728"></rect>
                    <path d="M6.48793103,111.96 L6.61586207,114.984 C6.63549142,115.466944 7.03891763,115.848387 7.52965517,115.848 L45.5434483,115.848 C46.0341858,115.848387 46.437612,115.466944 46.4572414,114.984 L46.5851724,111.96 L6.48793103,111.96 Z" id="Shape" fill="#EAEAEA"></path>
                    <polygon id="Shape" fill="#FFFFFF" points="48.7965517 59.436 49.0889655 52.722 5.08068966 78.912 5.35482759 85.302"></polygon>
                </g>
                <g id="movie-reel_1" transform="translate(36.000000, 42.000000)">
                    <path d="M43,17.1402778 C28.7180698,17.1402778 17.1402778,28.7180698 17.1402778,43 C17.1402778,57.2819302 28.7180698,68.8597222 43,68.8597222 C57.2819302,68.8597222 68.8597222,57.2819302 68.8597222,43 C68.8597222,36.1415752 66.1352236,29.5640537 61.2855849,24.7144151 C56.4359463,19.8647764 49.8584248,17.1402778 43,17.1402778 L43,17.1402778 Z M43,52.4002778 C37.8083699,52.4002778 33.5997222,48.1916301 33.5997222,43 C33.5997222,37.8083699 37.8083699,33.5997222 43,33.5997222 C48.1916301,33.5997222 52.4002778,37.8083699 52.4002778,43 C52.4002778,45.4931087 51.4098942,47.8841061 49.6470002,49.6470002 C47.8841061,51.4098942 45.4931087,52.4002778 43,52.4002778 L43,52.4002778 Z" id="Shape" fill="#333333" fill-rule="nonzero"></path>
                    <path d="M43,1.12277778 C19.8718488,1.12277778 1.12277778,19.8718488 1.12277778,43 C1.12277778,66.1281512 19.8718488,84.8772222 43,84.8772222 C66.1281512,84.8772222 84.8772222,66.1281512 84.8772222,43 C84.8772222,31.8934701 80.4651704,21.2418348 72.6116678,13.3883322 C64.7581652,5.53482959 54.1065299,1.12277778 43,1.12277778 L43,1.12277778 Z M43,5.375 C49.0426088,5.375 53.9411111,10.2735023 53.9411111,16.3161111 C53.9411111,22.3587199 49.0426088,27.2572222 43,27.2572222 C36.9573912,27.2572222 32.0588889,22.3587199 32.0588889,16.3161111 C32.0588889,10.2735023 36.9573912,5.375 43,5.375 Z M7.16666667,31.3780556 C8.53342892,27.1687365 12.3014348,24.1973578 16.7134096,23.8496733 C21.1253845,23.5019888 25.3123061,25.8464817 27.3215313,29.789757 C29.3307566,33.7330323 28.7665303,38.4983873 25.8919893,41.8634163 C23.0174482,45.2284453 18.3987877,46.530342 14.19,45.1619444 C8.44506925,43.2941027 5.30105715,37.1237116 7.16666667,31.3780556 L7.16666667,31.3780556 Z M36.1677778,71.0216667 C32.605572,75.9023283 25.7613667,76.9713343 20.8805013,73.4094077 C15.999636,69.8474812 14.9302384,63.003337 18.4918857,58.1222679 C22.053533,53.2411988 28.897616,52.1714097 33.7788889,55.7327778 C36.1233164,57.443268 37.6921348,60.0151088 38.1401502,62.8824071 C38.5881655,65.7497054 37.8786703,68.6775327 36.1677778,71.0216667 L36.1677778,71.0216667 Z M43,47.7061111 C40.8211844,47.7061111 38.8569089,46.3936242 38.0231123,44.3806611 C37.1893156,42.3676979 37.6501997,40.050677 39.1908551,38.5100217 C40.7315104,36.9693664 43.0485312,36.5084823 45.0614944,37.342279 C47.0744576,38.1760756 48.3869444,40.140351 48.3869444,42.3191667 C48.3869444,45.2942939 45.9751273,47.7061111 43,47.7061111 Z M65.1211111,73.4463889 C60.2398382,77.0077569 53.3957553,75.9379679 49.834108,71.0568988 C46.2724607,66.1758296 47.3418582,59.3316855 52.2227236,55.7697589 C57.1035889,52.2078324 63.9477943,53.2768384 67.51,58.1575 C69.2208925,60.501634 69.9303877,63.4294613 69.4823724,66.2967596 C69.034357,69.1640579 67.4655387,71.7358987 65.1211111,73.4463889 L65.1211111,73.4463889 Z M71.7622222,45.1619444 C66.0112883,47.0053571 59.8543418,43.8405672 58.0062827,38.0911247 C56.1582236,32.3416823 59.3180373,26.1821804 65.0659846,24.3294761 C70.8139318,22.4767717 76.9759849,25.6316073 78.8333333,31.3780556 C79.7271868,34.1435478 79.4839931,37.1510439 78.1574093,39.736986 C76.8308255,42.3229281 74.5298732,44.2747976 71.7622222,45.1619444 L71.7622222,45.1619444 Z" id="Shape" fill="#CCCCCC" fill-rule="nonzero"></path>
                    <path d="M52.0061111,29.9566667 L65.6347222,13.1388889" id="Shape" stroke="#BFBFBF" stroke-width="1.2" stroke-linecap="round" stroke-linejoin="round"></path>
                    <path d="M33.9102778,29.6222222 L21.1894444,12.1116667" id="Shape" stroke="#BFBFBF" stroke-width="1.2" stroke-linecap="round" stroke-linejoin="round"></path>
                    <path d="M27.9977778,48.0405556 L7.08305556,53.6305556" id="Shape" stroke="#BFBFBF" stroke-width="1.2" stroke-linecap="round" stroke-linejoin="round"></path>
                    <path d="M43.0358333,58.0380556 L42.9641667,79.6813889" id="Shape" stroke="#BFBFBF" stroke-width="1.2" stroke-linecap="round" stroke-linejoin="round"></path>
                    <path d="M57.3691667,47.6702778 L77.9494444,54.395" id="Shape" stroke="#BFBFBF" stroke-width="1.2" stroke-linecap="round" stroke-linejoin="round"></path>
                </g>
                <g id="popcorn_1" transform="translate(9.000000, 32.000000)" fill-rule="nonzero">
                    <path d="M52.7763889,14.2007547 L52.65,14.2007547 C52.7282916,13.7520461 52.770557,13.2977573 52.7763889,12.8422642 C52.8593735,10.8421471 52.1436682,8.89144077 50.787925,7.42256284 C49.4321818,5.95368491 47.5484016,5.0879827 45.5541667,5.01735849 C44.376864,5.02636557 43.2234613,5.35160043 42.2138889,5.95924528 C41.6133391,2.60579016 38.7648393,0.125186461 35.3708333,-2.89341034e-15 C33.6381121,-0.0205143579 31.963839,0.627987239 30.6944444,1.81132075 C29.4341415,0.63663018 27.7744475,-0.0112271827 26.0541667,-2.89341034e-15 C22.3580316,0.148696323 19.3449873,3.02410337 19.0125,6.72 C18.4545483,6.55922165 17.8776869,6.47393905 17.2972222,6.46641509 C15.3029873,6.5370393 13.4192071,7.40274151 12.0634639,8.87161944 C10.7077207,10.3404974 9.99201535,12.2912037 10.075,14.2913208 C10.0812392,14.7039816 10.1174462,15.1156378 10.1833333,15.5230189 C6.57277512,16.2858892 4.02974445,19.539752 4.15277778,23.2392453 C4.06979312,25.2393623 4.78549847,27.1900687 6.14124169,28.6589466 C7.49698492,30.1278245 9.38076503,30.9935267 11.375,31.0641509 C13.5748971,31.031733 15.6273847,29.9483813 16.9,28.1479245 C18.0984937,30.0745729 20.1837966,31.2659508 22.4470187,31.3170541 C24.7102408,31.3681574 26.8468653,30.2721103 28.1305556,28.4015094 C28.6609823,28.5420922 29.2069423,28.6151194 29.7555556,28.6188679 C31.3092865,28.6031638 32.8092507,28.0460848 33.9986111,27.0430189 C35.0951592,29.5812365 37.5613565,31.2494679 40.3180556,31.3177358 C42.8097222,31.3177358 43.5319444,32.8935849 44.7958333,30.7743396 C45.1569444,30.5750943 47.0166667,31.5713208 47.3416667,31.3177358 C48.6597222,33.0384906 50.5736111,29.9411321 52.7583333,29.9411321 C56.8196485,29.6015107 59.9435047,26.1955833 59.9435047,22.1071698 C59.9435047,18.0187563 56.8196485,14.6128289 52.7583333,14.2732075 L52.7763889,14.2007547 Z" id="Shape" fill="#FDE96C"></path>
                    <path d="M56.875,28.4558491 C56.5319444,23.4928302 49.2013889,22.3335849 47.3777778,26.1554717 C47.3023568,26.3116937 47.1445553,26.4109178 46.9715278,26.4109178 C46.7985002,26.4109178 46.6406987,26.3116937 46.5652778,26.1554717 C45.6624333,24.5007439 43.9317745,23.4718066 42.0513889,23.4718066 C40.1710033,23.4718066 38.4403445,24.5007439 37.5375,26.1554717 C37.4665921,26.3224543 37.3031474,26.4308294 37.1222222,26.4308294 C36.9412971,26.4308294 36.7778523,26.3224543 36.7069444,26.1554717 C35.8040999,24.5007439 34.0734411,23.4718066 32.1930556,23.4718066 C30.31267,23.4718066 28.5820112,24.5007439 27.6791667,26.1554717 C27.6082588,26.3224543 27.4448141,26.4308294 27.2638889,26.4308294 C27.0829637,26.4308294 26.919519,26.3224543 26.8486111,26.1554717 C25.9460948,24.4379832 24.1565613,23.3765634 22.2215225,23.4110229 C20.2864837,23.4454824 18.5356294,24.5699499 17.6944444,26.3184906 C17.6502992,26.4891937 17.5077269,26.6162271 17.333546,26.6400549 C17.159365,26.6638827 16.9880935,26.5797828 16.9,26.4271698 C14.8958333,22.8045283 7.00555556,23.0218868 7.43888889,29.7237736 C8.59444444,30.5932075 10.0027778,29.3071698 11.5194444,29.3071698 C13.7583333,29.3071698 16.0513889,37.8203774 17.3513889,36.045283 C18.6513889,37.965283 20.7097222,33.4188679 23.0569444,33.4188679 C25.4041667,33.4188679 27.3902778,35.9003774 28.6902778,34.125283 C29.2138889,34.2520755 29.3402778,37.7479245 29.9,37.7479245 C31.4888889,37.7479245 32.9333333,35.9366038 34.125,35.0128302 C35.3166667,37.5486792 37.7361111,29.5788679 40.4444444,29.5788679 C42.9361111,29.5788679 43.6583333,31.154717 44.9222222,29.0354717 C45.2833333,28.8362264 47.1430556,29.8324528 47.4680556,29.5788679 C48.7861111,31.2996226 50.7,28.2022642 52.8847222,28.2022642 C54.1666667,28.0573585 55.7555556,29.2709434 56.875,28.4558491 Z" id="Shape" fill="#F7E06B"></path>
                    <path d="M60.5041667,86.1826415 C59.8715853,86.1782587 59.2489549,86.3406595 58.6986111,86.6535849 C58.6986111,84.5928334 57.0333591,82.9222642 54.9791667,82.9222642 C52.9249742,82.9222642 51.2597222,84.5928334 51.2597222,86.6535849 C49.5505022,86.6457398 48.0559663,87.8075277 47.6368255,89.4698689 C47.2176847,91.1322101 47.9818441,92.8671455 49.4892203,93.6755169 C50.9965966,94.4838883 52.8591253,94.1575856 54.0041667,92.8845283 C55.2818628,94.358348 57.4942183,94.5506443 59.0055556,93.3192453 C60.3751366,93.8008884 61.8988873,93.4393894 62.9083373,92.3933382 C63.9177872,91.3472869 64.2285501,89.8077554 63.704294,88.450137 C63.1800379,87.0925186 61.9165236,86.1647962 60.4680556,86.0739623 L60.5041667,86.1826415 Z" id="Shape" fill="#F7E06B"></path>
                    <path d="M43.3333333,93.6815094 L37.05,93.6815094 L37.05,29.9230189 C37.05,23.4022642 46.9625,23.5833962 46.9625,29.9230189 L43.3333333,93.6815094 Z" id="Shape" fill="#FFFFFF"></path>
                    <path d="M27.0833333,93.6815094 L20.8361111,93.6815094 L17.225,29.9230189 C17.225,23.4022642 27.1375,23.5833962 27.1375,29.9230189 L27.0833333,93.6815094 Z" id="Shape" fill="#FFFFFF"></path>
                    <path d="M20.8361111,93.6815094 L14.4444444,93.6815094 C13.501053,93.6845424 12.7143557,92.9584699 12.6388889,92.0150943 L7.3125,29.9230189 C7.3125,23.4022642 17.225,23.5833962 17.225,29.9230189 L20.8361111,93.6815094 Z" id="Shape" fill="#D20F18"></path>
                    <path d="M37.05,93.6815094 L27.0833333,93.6815094 L27.0833333,29.9230189 C27.0833333,23.4022642 36.9958333,23.5833962 36.9958333,29.9230189 L37.05,93.6815094 Z" id="Shape" fill="#D20F18"></path>
                    <path d="M49.7972222,93.6815094 L43.3333333,93.6815094 L46.9444444,29.9230189 C46.9444444,23.4022642 56.8569444,23.5833962 56.8569444,29.9230189 L51.6027778,92.0332075 C51.518453,92.9694136 50.7342427,93.6853236 49.7972222,93.6815094 Z" id="Shape" fill="#D20F18"></path>
                    <path d="M43.5861111,89.6784906 L43.3333333,93.6815094 L49.7791667,93.6815094 C50.7225581,93.6845424 51.5092554,92.9584699 51.5847222,92.0150943 L51.7833333,89.6603774 L43.5861111,89.6784906 Z" id="Shape" fill="#BF0A17"></path>
                    <polygon id="Shape" fill="#E5E5E5" points="37.05 89.6784906 37.05 93.6815094 43.3513889 93.6815094 43.5861111 89.6784906"></polygon>
                    <rect id="Rectangle-path" fill="#BF0A17" x="27.1375" y="89.6784906" width="9.9125" height="4.00301887"></rect>
                    <polygon id="Shape" fill="#E5E5E5" points="20.6194444 89.6784906 20.8361111 93.6815094 27.1375 93.6815094 27.1375 89.6784906"></polygon>
                    <path d="M12.6388889,92.0332075 C12.7143557,92.9765831 13.501053,93.7026556 14.4444444,93.6996226 L20.8902778,93.6996226 L20.6555556,89.6966038 L12.3861111,89.6966038 L12.6388889,92.0332075 Z" id="Shape" fill="#BF0A17"></path>
                    <path d="M13.5597222,87.7403774 L13.5597222,87.7403774 C13.7829365,86.3593038 13.0386635,85.0035055 11.7558891,84.4544408 C10.4731146,83.9053761 8.98243655,84.3045505 8.14305556,85.4218868 C7.24345907,84.6875603 6.00521925,84.5321007 4.95297727,85.021376 C3.90073529,85.5106513 3.21869385,86.5590103 3.19583333,87.7222642 L3.19583333,87.7222642 C2.04398538,87.7032831 0.979667111,88.3366905 0.444112759,89.3598949 C-0.0914415941,90.3830993 -0.00692892789,91.6216613 0.662614356,92.5621105 C1.33215764,93.5025597 2.47258556,93.9845651 3.61111111,93.8083019 C4.54975485,95.1943211 6.42477478,95.5656787 7.81805556,94.6415094 C8.53049639,95.1148809 9.40892225,95.2648272 10.2373318,95.0544773 C11.0657414,94.8441273 11.7672808,94.2929958 12.1694444,93.5366038 C12.5838388,93.7470686 13.0410981,93.8586489 13.5055556,93.8626415 C15.190791,93.8626414 16.5569442,92.4921259 16.5569442,90.8015094 C16.5569442,89.110893 15.190791,87.7403775 13.5055556,87.7403774 L13.5597222,87.7403774 Z" id="Shape" fill="#FDE96C"></path>
                </g>
                <g id="ticket_1" transform="translate(87.000000, 92.000000)" fill-rule="nonzero">
                    <path d="M75.15,4.95 C73.2743143,4.8901424 71.799515,3.32596142 71.85,1.45 C71.85,1.17385763 71.6261424,0.95 71.35,0.95 L4.83,0.95 C4.55385763,0.95 4.33,1.17385763 4.33,1.45 C4.38048496,3.32596142 2.90568575,4.8901424 1.03,4.95 C0.753857625,4.95 0.53,5.17385763 0.53,5.45 L0.53,31.45 C0.53,31.7261424 0.753857625,31.95 1.03,31.95 C2.90568575,32.0098576 4.38048496,33.5740386 4.33,35.45 C4.33,35.7261424 4.55385763,35.95 4.83,35.95 L71.35,35.95 C71.6261424,35.95 71.85,35.7261424 71.85,35.45 C71.799515,33.5740386 73.2743143,32.0098576 75.15,31.95 C75.4261424,31.95 75.65,31.7261424 75.65,31.45 L75.65,5.45 C75.65,5.17385763 75.4261424,4.95 75.15,4.95 Z" id="Shape" fill="#FDE96C"></path>
                    <path d="M0.53,18.39 L0.53,31.39 C0.53,31.6661424 0.753857625,31.89 1.03,31.89 C2.90568575,31.9498576 4.38048496,33.5140386 4.33,35.39 C4.33,35.6661424 4.55385763,35.89 4.83,35.89 L71.35,35.89 C71.6261424,35.89 71.85,35.6661424 71.85,35.39 C71.799515,33.5140386 73.2743143,31.9498576 75.15,31.89 C75.4261424,31.89 75.65,31.6661424 75.65,31.39 L75.65,18.39 L0.53,18.39 Z" id="Shape" fill="#F2D961"></path>
                    <rect id="Rectangle-path" fill="#F2D961" x="6.81" y="18.39" width="62.81" height="11.91"></rect>
                    <path d="M69.63,30.8 L6.81,30.8 C6.53385763,30.8 6.31,30.5761424 6.31,30.3 L6.31,6.48 C6.31,6.20385763 6.53385763,5.98 6.81,5.98 L69.63,5.98 C69.9061424,5.98 70.13,6.20385763 70.13,6.48 L70.13,30.3 C70.13,30.5761424 69.9061424,30.8 69.63,30.8 Z M7.32,29.8 L69.13,29.8 L69.13,7 L7.31,7 L7.32,29.8 Z" id="Shape" fill="#CCB13E"></path>
                    <path d="M30.91,15.81 C30.9126279,15.9378676 30.8619029,16.0610569 30.77,16.15 C30.6879447,16.2326539 30.5764662,16.2794029 30.46,16.28 C30.3656866,16.2800432 30.2741034,16.2483413 30.2,16.19 C30.1190229,16.1436733 30.0504158,16.0784965 30,16 L29.58,15 L27.22,15 L26.8,16 C26.7692455,16.0955202 26.7099051,16.1792948 26.63,16.24 C26.5573538,16.2926911 26.4697401,16.3207274 26.38,16.32 C26.2651398,16.3328871 26.150658,16.2927981 26.06893,16.21107 C25.9872019,16.129342 25.9471129,16.0148602 25.96,15.9 C25.9531498,15.8502346 25.9531498,15.7997654 25.96,15.75 L27.96,10.97 C27.9966266,10.8693877 28.0628679,10.7822281 28.15,10.72 C28.2348434,10.6619646 28.3380243,10.6370589 28.44,10.65 C28.5360612,10.6484442 28.6302918,10.6763644 28.71,10.73 C28.7941011,10.7887137 28.8571832,10.8728232 28.89,10.97 L30.89,15.66 C30.9035462,15.7088396 30.9102766,15.7593173 30.91,15.81 Z M27.61,14.07 L29.21,14.07 L28.4,12.2 L27.61,14.07 Z" id="Shape" fill="#CCB13E"></path>
                    <path d="M35.28,11 C35.6411117,11.2504809 35.9251085,11.5968185 36.1,12 C36.478889,12.9087555 36.478889,13.9312445 36.1,14.84 C35.9251085,15.2431815 35.6411117,15.5895191 35.28,15.84 C34.8984678,16.093462 34.4478738,16.2227022 33.99,16.21 L32.07,16.21 C31.939219,16.2127542 31.812979,16.1620143 31.7204823,16.0695177 C31.6279857,15.977021 31.5772458,15.850781 31.58,15.72 L31.58,11.13 C31.5772458,10.999219 31.6279857,10.872979 31.7204823,10.7804823 C31.812979,10.6879857 31.939219,10.6372458 32.07,10.64 L34,10.64 C34.4534265,10.6264053 34.9001351,10.7520421 35.28,11 L35.28,11 Z M35,14.79 C35.4843808,13.9551735 35.4843808,12.9248265 35,12.09 C34.7581869,11.7357782 34.3481342,11.5345486 33.92,11.56 L32.59,11.56 L32.59,15.32 L33.91,15.32 C34.3416007,15.349069 34.7563228,15.1474151 35,14.79 Z" id="Shape" fill="#CCB13E"></path>
                    <path d="M42.51,10.78 C42.6082081,10.8695233 42.6629025,10.9971436 42.66,11.13 L42.66,15.76 C42.665966,15.8934639 42.6148521,16.0231602 42.5194353,16.1166687 C42.4240185,16.2101772 42.2933161,16.2586608 42.16,16.25 C42.0260913,16.2534404 41.8964019,16.2030056 41.8,16.11 C41.7065421,16.017978 41.655787,15.8910903 41.66,15.76 L41.66,12.53 L40.34,14.53 C40.2901565,14.5937676 40.2291715,14.6479765 40.16,14.69 C40.0936601,14.7291632 40.0167503,14.7466427 39.94,14.74 C39.8664803,14.7458759 39.7929834,14.7283766 39.73,14.69 C39.6609583,14.647801 39.6000025,14.5936181 39.55,14.53 L38.23,12.44 L38.23,15.74 C38.2345545,15.8692511 38.187825,15.9950613 38.1,16.09 C38.0125325,16.1840544 37.8883348,16.2351946 37.76,16.23 C37.6348652,16.2335949 37.5143764,16.1824784 37.43,16.09 C37.3430992,15.9944959 37.2965146,15.8690761 37.3,15.74 L37.3,11.12 C37.2999586,10.9906148 37.3544088,10.8671944 37.45,10.78 C37.5457685,10.6860091 37.6758926,10.6354052 37.81,10.64 C37.8936129,10.6407879 37.9758531,10.6613479 38.05,10.7 C38.1231443,10.7364018 38.1852737,10.7916279 38.23,10.86 L40,13.53 L41.79,10.85 C41.832636,10.7834892 41.8910296,10.7285305 41.96,10.69 C42.0267865,10.6510144 42.1026682,10.6303194 42.18,10.63 C42.3051302,10.635978 42.4232187,10.6896546 42.51,10.78 L42.51,10.78 Z" id="Shape" fill="#CCB13E"></path>
                    <path d="M44.71,16.1 C44.6154942,16.1896529 44.4902648,16.2397447 44.36,16.24 C44.2256896,16.2458059 44.0951,16.195021 44,16.1 C43.9065421,16.007978 43.855787,15.8810903 43.86,15.75 L43.86,11.13 C43.855787,10.9989097 43.9065421,10.872022 44,10.78 C44.0988424,10.6844522 44.2326648,10.6338167 44.37,10.64 C44.4976426,10.6385588 44.620381,10.6890981 44.71,10.78 C44.8034579,10.872022 44.854213,10.9989097 44.85,11.13 L44.85,15.75 C44.855474,15.8813091 44.8045219,16.0086892 44.71,16.1 L44.71,16.1 Z" id="Shape" fill="#CCB13E"></path>
                    <path d="M50.09,10.77 C50.1840544,10.8574675 50.2351946,10.9816652 50.23,11.11 C50.2335949,11.2351348 50.1824784,11.3556236 50.09,11.44 C49.992468,11.5224021 49.8675748,11.5652226 49.74,11.56 L48.48,11.56 L48.48,15.75 C48.4829025,15.8828564 48.4282081,16.0104767 48.33,16.1 C48.2262906,16.1941945 48.0900319,16.244395 47.95,16.24 C47.8128536,16.2450166 47.6794732,16.1945483 47.58,16.1 C47.4865421,16.007978 47.435787,15.8810903 47.44,15.75 L47.44,11.56 L46.19,11.56 C46.0607489,11.5645545 45.9349387,11.517825 45.84,11.43 C45.7459456,11.3425325 45.6948054,11.2183348 45.7,11.09 C45.6964051,10.9648652 45.7475216,10.8443764 45.84,10.76 C45.9349387,10.672175 46.0607489,10.6254455 46.19,10.63 L49.74,10.63 C49.8706677,10.6281278 49.9966698,10.6785286 50.09,10.77 Z" id="Shape" fill="#CCB13E"></path>
                    <path d="M35.31,24.5 C35.0710499,24.9159661 34.7259661,25.2610499 34.31,25.5 C33.450222,26.0111024 32.379778,26.0111024 31.52,25.5 C31.1028432,25.2626085 30.7573915,24.9171568 30.52,24.5 C30.0584581,23.588425 30.0584581,22.511575 30.52,21.6 C30.7573915,21.1828432 31.1028432,20.8373915 31.52,20.6 C32.379778,20.0888976 33.450222,20.0888976 34.31,20.6 C34.7262605,20.8385653 35.0714347,21.1837395 35.31,21.6 C35.7780854,22.5100019 35.7780854,23.5899981 35.31,24.5 L35.31,24.5 Z M34.41,22.08 C34.2746844,21.8008906 34.0676157,21.5627616 33.81,21.39 C33.2830481,21.0513626 32.6069519,21.0513626 32.08,21.39 C31.8237377,21.5614963 31.6196175,21.8002131 31.49,22.08 C31.192156,22.7134 31.192156,23.4466 31.49,24.08 C31.6196175,24.3597869 31.8237377,24.5985037 32.08,24.77 C32.6069519,25.1086374 33.2830481,25.1086374 33.81,24.77 C34.0676157,24.5972384 34.2746844,24.3591094 34.41,24.08 C34.6960672,23.4649704 34.6960672,22.7550296 34.41,22.14 L34.41,22.08 Z" id="Shape" fill="#BFA536"></path>
                    <path d="M41.14,20.37 C41.2205246,20.456736 41.2636373,20.5717033 41.26,20.69 L41.26,25.35 C41.2627542,25.480781 41.2120143,25.607021 41.1195177,25.6995177 C41.027021,25.7920143 40.900781,25.8427542 40.77,25.84 C40.6971676,25.852122 40.6228324,25.852122 40.55,25.84 C40.4875717,25.8241012 40.4316473,25.7891484 40.39,25.74 L37.46,22 L37.46,25.4 C37.4647517,25.5184785 37.4214837,25.6338598 37.34,25.72 C37.2561898,25.8061518 37.1401475,25.8532939 37.02,25.85 C36.9028356,25.8529665 36.7900028,25.8056496 36.71,25.72 C36.6294754,25.633264 36.5863627,25.5182967 36.59,25.4 L36.59,20.73 C36.5872458,20.599219 36.6379857,20.472979 36.7304823,20.3804823 C36.822979,20.2879857 36.949219,20.2372458 37.08,20.24 C37.1592107,20.224107 37.2407893,20.224107 37.32,20.24 C37.3879507,20.2661521 37.4469578,20.3112752 37.49,20.37 L40.4,24.08 L40.4,20.69 C40.3952483,20.5715215 40.4385163,20.4561402 40.52,20.37 C40.6030884,20.2827822 40.7196263,20.2354387 40.84,20.24 C40.9536997,20.2398613 41.0623515,20.2869437 41.14,20.37 L41.14,20.37 Z" id="Shape" fill="#BFA536"></path>
                    <path d="M46,25.06 C46.0878485,25.1434661 46.1383221,25.2588343 46.14,25.38 C46.1435949,25.5051348 46.0924784,25.6256236 46,25.71 C45.9044959,25.7969008 45.7790761,25.8434854 45.65,25.84 L42.95,25.84 C42.819219,25.8427542 42.692979,25.7920143 42.6004823,25.6995177 C42.5079857,25.607021 42.4572458,25.480781 42.46,25.35 L42.46,20.73 C42.4572458,20.599219 42.5079857,20.472979 42.6004823,20.3804823 C42.692979,20.2879857 42.819219,20.2372458 42.95,20.24 L45.63,20.24 C45.7592511,20.2354455 45.8850613,20.282175 45.98,20.37 C46.0729524,20.4582272 46.1238772,20.5819017 46.12,20.71 C46.1189771,20.8185414 46.0759714,20.9224718 46,21 C45.902468,21.0824021 45.7775748,21.1252226 45.65,21.12 L43.46,21.12 L43.46,22.48 L45.27,22.48 C45.3992511,22.4754455 45.5250613,22.522175 45.62,22.61 C45.7129524,22.6982272 45.7638772,22.8219017 45.76,22.95 C45.7620034,23.0719332 45.7109106,23.1887167 45.62,23.27 C45.5229699,23.3532832 45.397719,23.3962263 45.27,23.39 L43.46,23.39 L43.46,24.87 L45.63,24.87 C45.7757936,24.8738337 45.9119363,24.9437448 46,25.06 L46,25.06 Z" id="Shape" fill="#BFA536"></path>
                    <rect id="Rectangle-path" fill="#CCB13E" x="16.05" y="6.48" width="1" height="23.82"></rect>
                    <rect id="Rectangle-path" fill="#CCB13E" x="60.16" y="6.48" width="1" height="23.82"></rect>
                    <path d="M69.13,18.39 L69.13,29.8 L7.31,29.8 L7.31,18.39 L6.31,18.39 L6.31,30.3 C6.31,30.5761424 6.53385763,30.8 6.81,30.8 L69.63,30.8 C69.9061424,30.8 70.13,30.5761424 70.13,30.3 L70.13,18.39 L69.13,18.39 Z" id="Shape" fill="#BFA536"></path>
                    <rect id="Rectangle-path" fill="#BFA536" x="16.05" y="18.39" width="1" height="11.91"></rect>
                    <rect id="Rectangle-path" fill="#BFA536" x="60.16" y="18.39" width="1" height="11.91"></rect>
                </g>
            </g>
        </g>
    </g>
</svg>