<svg id="Layer_1" data-name="Layer 1" xmlns="http://www.w3.org/2000/svg" viewBox="0 0 100 100"><defs><style>.cls-1{fill:none;stroke:#000;stroke-linecap:round;stroke-linejoin:round;stroke-width:4px;}</style></defs><title>Artboard 5</title><ellipse class="cls-1" cx="50.25" cy="50.25" rx="7.62" ry="7.54"/><line class="cls-1" x1="23.58" y1="27.63" x2="44.33" y2="45.27"/><path class="cls-1" d="M50.25,42.71V5L23.58,27.62V50.25H42.63A7.58,7.58,0,0,1,50.25,42.71Z"/><line class="cls-1" x1="27.62" y1="76.92" x2="45.27" y2="56.17"/><path class="cls-1" d="M42.71,50.25H5L27.62,76.92H50.25V57.87A7.58,7.58,0,0,1,42.71,50.25Z"/><line class="cls-1" x1="76.92" y1="72.88" x2="56.17" y2="55.23"/><path class="cls-1" d="M50.25,57.79V95.5L76.92,72.88V50.25H57.87A7.58,7.58,0,0,1,50.25,57.79Z"/><line class="cls-1" x1="72.88" y1="23.58" x2="55.23" y2="44.33"/><path class="cls-1" d="M57.79,50.25H95.5L72.88,23.58H50.25V42.63A7.58,7.58,0,0,1,57.79,50.25Z"/></svg>