<svg xmlns="http://www.w3.org/2000/svg" viewBox="0 0 99.5 99.5"><defs><style>.cls-1{fill:none;stroke:#000;stroke-linecap:round;stroke-linejoin:round;stroke-width:4px;}</style></defs><title>logo</title><g id="Layer_2" data-name="Layer 2"><g id="Layer_1-2" data-name="Layer 1"><ellipse class="cls-1" cx="49.75" cy="49.75" rx="8.04" ry="7.96"/><line class="cls-1" x1="21.6" y1="25.88" x2="43.5" y2="44.5"/><path class="cls-1" d="M49.75,41.79V2L21.6,25.88V49.75H41.71A8,8,0,0,1,49.75,41.79Z"/><line class="cls-1" x1="25.87" y1="77.9" x2="44.5" y2="56"/><path class="cls-1" d="M41.79,49.75H2L25.87,77.9H49.75V57.79A8,8,0,0,1,41.79,49.75Z"/><line class="cls-1" x1="77.9" y1="73.63" x2="56" y2="55"/><path class="cls-1" d="M49.75,57.71V97.5L77.9,73.63V49.75H57.79A8,8,0,0,1,49.75,57.71Z"/><line class="cls-1" x1="73.63" y1="21.6" x2="55" y2="43.5"/><path class="cls-1" d="M57.71,49.75H97.5L73.63,21.6H49.75V41.71A8,8,0,0,1,57.71,49.75Z"/></g></g></svg>