<svg id="Layer_1" data-name="Layer 1" xmlns="http://www.w3.org/2000/svg" viewBox="0 0 100 100"><defs><style>.cls-1{fill:none;stroke:#000;stroke-linecap:round;stroke-linejoin:round;stroke-width:4px;}</style></defs><title>brainstorm</title><path class="cls-1" d="M74,31A24,24,0,1,0,31.36,46.11C33.52,50.19,37,54.84,37,58V68H64V57c0-1,6.49-13.5,6.49-13.5A23.85,23.85,0,0,0,74,31Z"/><path class="cls-1" d="M44.41,15a24,24,0,0,0-11.67,15.1"/><path class="cls-1" d="M39.5,68V82.67a4,4,0,0,0,.8,2.4l2.5,3.33A4,4,0,0,0,46,90h8.13a4,4,0,0,0,3.07-1.44l2.87-3.45A4,4,0,0,0,61,82.55V68Z"/><line class="cls-1" x1="45" y1="75" x2="56" y2="75"/><line class="cls-1" x1="45" y1="81" x2="56" y2="81"/></svg>