<?xml version="1.0" encoding="UTF-8"?>
<svg width="140px" height="140px" viewBox="0 0 140 140" version="1.1" xmlns="http://www.w3.org/2000/svg" xmlns:xlink="http://www.w3.org/1999/xlink">
    <!-- Generator: Sketch 48.2 (47327) - http://www.bohemiancoding.com/sketch -->
    <title>funnel-3</title>
    <desc>Created with Sketch.</desc>
    <defs></defs>
    <g id="front-page" stroke="none" stroke-width="1" fill="none" fill-rule="evenodd" transform="translate(-968.000000, -1660.000000)">
        <g id="funnel-3" transform="translate(968.000000, 1660.000000)">
            <rect id="Rectangle" fill="#FFFCF7" x="0" y="0" width="140" height="140"></rect>
            <g id="Group-11" transform="translate(40.000000, 38.000000)">
                <g id="funnel" fill-rule="nonzero">
                    <g id="Shape">
                        <path d="M1.51898734,-1.81053991e-15 L59.043038,-1.81053991e-15 C59.3379251,-0.000466264338 59.6064348,0.165076415 59.7317619,0.424614822 C59.8570889,0.684153228 59.8165765,0.990767687 59.6278481,1.21107692 L35.5822785,29.3243077 L35.5822785,42.7790769 C35.5830125,43.0674986 35.4109779,43.3299403 35.1417722,43.4510769 L26.0278481,47.4683077 C25.7930925,47.5709132 25.5208651,47.5509349 25.304609,47.4152304 C25.088353,47.2795259 24.9574986,47.0465632 24.956962,46.7963077 L24.956962,29.3243077 L0.934177215,1.21107692 C0.745448796,0.990767687 0.704936397,0.684153228 0.830263439,0.424614822 C0.955590481,0.165076415 1.22410019,-0.000466264338 1.51898734,-1.81053991e-15 Z" fill="#F9A826"></path>
                        <path d="M59.043038,7.37870941e-16 L30.2810127,-9.82386523e-07 L30.2810127,45.6 L35.1417722,43.4510769 C35.4109779,43.3299403 35.5830125,43.0674986 35.5822785,42.7790769 L35.5822785,29.3243077 L59.6278481,1.21107692 C59.8165765,0.990767687 59.8570889,0.684153228 59.7317619,0.424614822 C59.6064348,0.165076415 59.3379251,-0.000466264338 59.043038,7.37870941e-16 Z" fill="#EF9C22"></path>
                        <path d="M59.043038,-1.53685658e-17 L1.51898734,-1.53685658e-17 C1.22410019,-0.000466264338 0.955590481,0.165076415 0.830263439,0.424614822 C0.704936397,0.684153228 0.745448796,0.990767687 0.934177215,1.21107692 L1.79240506,2.21538462 L58.7544304,2.21538462 L59.6126582,1.21107692 C59.7997093,0.992821041 59.8414019,0.689583966 59.7198822,0.431219372 C59.5983625,0.172854778 59.3351807,0.00518094976 59.043038,-1.53685658e-17 Z" fill="#FFD199"></path>
                        <polygon fill="#FFE7CC" points="58.7696203 2.21538462 1.79240506 2.21538462 2.42278481 2.95384615 58.1392405 2.95384615"></polygon>
                    </g>
                </g>
                <circle id="Oval-3" fill="#3C94C6" cx="30" cy="74" r="8"></circle>
            </g>
        </g>
    </g>
</svg>