<?xml version="1.0" encoding="UTF-8"?>
<svg width="140px" height="140px" viewBox="0 0 140 140" version="1.1" xmlns="http://www.w3.org/2000/svg" xmlns:xlink="http://www.w3.org/1999/xlink">
    <!-- Generator: Sketch 48.2 (47327) - http://www.bohemiancoding.com/sketch -->
    <title>funnel-1</title>
    <desc>Created with Sketch.</desc>
    <defs></defs>
    <g id="front-page" stroke="none" stroke-width="1" fill="none" fill-rule="evenodd" transform="translate(-332.000000, -1660.000000)">
        <g id="funnel-1" transform="translate(332.000000, 1660.000000)">
            <rect id="Rectangle" fill="#FFFCF7" x="0" y="0" width="140" height="140"></rect>
            <g id="funnel" transform="translate(27.000000, 41.000000)" fill-rule="nonzero">
                <g id="Shape">
                    <path d="M1.17721519,-2.60265124e-15 L83.6283544,-2.60265124e-15 C84.051026,-0.000670254986 84.4358899,0.237297347 84.6155254,0.610383806 C84.7951608,0.983470265 84.737093,1.42422855 84.4665823,1.74092308 L50.0012658,42.1536923 L50.0012658,61.4949231 C50.0023179,61.9095292 49.755735,62.2867892 49.3698734,62.4609231 L36.3065823,68.2356923 C35.9700993,68.3831877 35.5799066,68.3544689 35.2699396,68.1593937 C34.9599726,67.9643185 34.7724146,67.6294346 34.7716456,67.2696923 L34.7716456,42.1536923 L0.338987342,1.74092308 C0.0684766075,1.42422855 0.0104088359,0.983470265 0.190044263,0.610383806 C0.369679689,0.237297347 0.7545436,-0.000670254986 1.17721519,-2.60265124e-15 Z" fill="#F9A826"></path>
                    <path d="M83.6283544,1.0606896e-15 L42.4027848,-1.41218063e-06 L42.4027848,65.55 L49.3698734,62.4609231 C49.755735,62.2867892 50.0023179,61.9095292 50.0012658,61.4949231 L50.0012658,42.1536923 L84.4665823,1.74092308 C84.737093,1.42422855 84.7951608,0.983470265 84.6155254,0.610383806 C84.4358899,0.237297347 84.051026,-0.000670254986 83.6283544,1.0606896e-15 Z" fill="#EF9C22"></path>
                    <path d="M83.6283544,-2.20921016e-17 L1.17721519,-2.20921016e-17 C0.7545436,-0.000670254986 0.369679689,0.237297347 0.190044263,0.610383806 C0.0104088359,0.983470265 0.0684766075,1.42422855 0.338987342,1.74092308 L1.56911392,3.18461538 L83.2146835,3.18461538 L84.4448101,1.74092308 C84.7129167,1.42718025 84.772676,0.991276952 84.5984978,0.619877847 C84.4243195,0.248478743 84.0470924,0.00744761527 83.6283544,-2.20921016e-17 Z" fill="#FFD199"></path>
                    <polygon fill="#FFE7CC" points="83.2364557 3.18461538 1.56911392 3.18461538 2.47265823 4.24615385 82.3329114 4.24615385"></polygon>
                </g>
            </g>
        </g>
    </g>
</svg>