<svg xmlns="http://www.w3.org/2000/svg" viewBox="0 0 437.42 371.34"><defs><style>.cls-1{fill:#d2d7d8;}.cls-2{fill:#e4ecef;}.cls-3{fill:#dce3e5;}</style></defs><title>grey-boxes</title><g id="Layer_2" data-name="Layer 2"><g id="Layer_1-2" data-name="Layer 1"><path class="cls-1" d="M97.74,69.82,77.67,47.92A7.52,7.52,0,0,1,83.9,35.36l19.88,1.84L102.88,20a7.51,7.51,0,0,1,12.33-6.15l17,14.28L144,4.2a7.51,7.51,0,0,1,13.92,1.1l6.84,22.23,14-9.14a7.51,7.51,0,0,1,11.43,8L187.73,37.2l18.51-3.81A7.52,7.52,0,0,1,213.16,46l-23,23.85Z"/><rect class="cls-2" x="22.07" y="90.16" width="246.83" height="87.35"/><rect class="cls-3" x="17.69" y="55.69" width="255.59" height="52.01"/><rect class="cls-1" x="130.95" y="55.69" width="29.06" height="121.83"/><rect class="cls-2" x="7.49" y="210.09" width="422.44" height="161.25"/><rect class="cls-3" y="177.52" width="437.42" height="52.01"/><rect class="cls-1" x="204.18" y="177.52" width="29.06" height="193.82"/></g></g></svg>