<?xml version="1.0" encoding="UTF-8"?>
<svg width="315px" height="186px" viewBox="0 0 315 186" version="1.1" xmlns="http://www.w3.org/2000/svg" xmlns:xlink="http://www.w3.org/1999/xlink">
    <!-- Generator: Sketch 48.2 (47327) - http://www.bohemiancoding.com/sketch -->
    <title>Group 12</title>
    <desc>Created with Sketch.</desc>
    <defs></defs>
    <g id="front-page" stroke="none" stroke-width="1" fill="none" fill-rule="evenodd" transform="translate(-794.000000, -2544.000000)" opacity="0.5">
        <g id="Group-8" transform="translate(300.000000, 2157.000000)">
            <g id="Group-12" transform="translate(494.000000, 387.000000)">
                <path d="M0,185 L315,185" id="Path-2" stroke="#B3B3B3"></path>
                <g id="grey-box" transform="translate(147.000000, 0.000000)" fill-rule="nonzero">
                    <path d="M4.5,34.86 L130.5,34.86 L130.5,181.86 C130.5,183.516854 129.156854,184.86 127.5,184.86 L7.5,184.86 C5.84314575,184.86 4.5,183.516854 4.5,181.86 L4.5,34.86 Z" id="Shape" fill="#E4ECEF"></path>
                    <circle id="Oval" fill="#DCE3E5" cx="30" cy="68.37" r="10.5"></circle>
                    <circle id="Oval" fill="#DCE3E5" cx="103.17" cy="93.51" r="10.5"></circle>
                    <circle id="Oval" fill="#DCE3E5" cx="57" cy="125.37" r="10.5"></circle>
                    <circle id="Oval" fill="#DCE3E5" cx="111" cy="158.37" r="10.5"></circle>
                    <circle id="Oval" fill="#DCE3E5" cx="22.86" cy="165.99" r="10.5"></circle>
                    <path d="M49.73,27.87 L41.72,19.14 C40.8849702,18.2252451 40.6979375,16.8913634 41.2491838,15.7822291 C41.8004302,14.6730948 42.9766208,14.0167433 44.21,14.13 L52.13,15 L51.77,8.13 C51.706991,6.93805464 52.3565795,5.82215113 53.4241763,5.28835269 C54.4917732,4.75455426 55.7742491,4.90442562 56.69,5.67 L63.5,11.37 L68.21,1.68 C68.7568705,0.583378904 69.9157299,-0.0704006027 71.1371379,0.0286324812 C72.3585459,0.127665565 73.396942,0.959600918 73.76,2.13 L76.49,11.13 L82.07,7.5 C83.0944869,6.8135687 84.4346759,6.82399611 85.4483578,7.52628549 C86.4620396,8.22857487 86.9426961,9.47964832 86.66,10.68 L85.67,15 L93.05,13.47 C94.3455018,13.1950424 95.6680268,13.8020973 96.3041357,14.9636876 C96.9402447,16.1252778 96.7394212,17.5665474 95.81,18.51 L86.63,27.87 L49.73,27.87 Z" id="Shape" fill="#D2D7D8"></path>
                    <path d="M3,21.87 L132,21.87 C133.656854,21.87 135,23.2131458 135,24.87 L135,48.87 L0,48.87 L0,24.87 C-2.02906125e-16,23.2131458 1.34314575,21.87 3,21.87 Z" id="Shape" fill="#DCE3E5"></path>
                    <rect id="Rectangle-path" fill="#D2D7D8" x="61.5" y="21.87" width="15" height="162.99"></rect>
                </g>
            </g>
        </g>
    </g>
</svg>