<?xml version="1.0" encoding="UTF-8"?>
<svg width="388px" height="395px" viewBox="0 0 388 395" version="1.1" xmlns="http://www.w3.org/2000/svg" xmlns:xlink="http://www.w3.org/1999/xlink">
    <!-- Generator: Sketch 48.2 (47327) - http://www.bohemiancoding.com/sketch -->
    <title>people</title>
    <desc>Created with Sketch.</desc>
    <defs></defs>
    <g id="link-created" stroke="none" stroke-width="1" fill="none" fill-rule="evenodd" transform="translate(-752.000000, -150.000000)">
        <g id="people" transform="translate(752.000000, 150.000000)" fill-rule="nonzero">
            <path d="M109.468,0 C-52.864,0 51.68,262.49691 77.42,300.452128 C99.82,333.476849 370.22,397.633333 386.708,337.078673 C403.196,276.524012 211.292,0 109.468,0 Z" id="Shape" fill="#CCF4FF"></path>
            <path d="M208.336,74.0614995 L197.856,63.0759372 C195.832841,60.9565327 192.551137,60.670352 190.192,62.4075988 L170.636,76.5267477 L151.2,62.4075988 C148.842645,60.6690857 145.560993,60.9554112 143.54,63.0759372 L133.06,74.0614995 C131.244815,75.9618559 130.928406,78.8437889 132.288,81.0930598 L144.908,101.979635 L170.416,101.979635 L170.74,100.402837 L170.964,101.979635 L196.472,101.979635 L209.092,81.0930598 C210.452966,78.846658 210.143349,75.9669138 208.336,74.0614995 Z" id="Shape" fill="#2D8AB2"></path>
            <rect id="Rectangle-path" fill="#993131" x="110.56" y="113.40542" width="119.74" height="75.3741641"></rect>
            <path d="M106.12,92.8470111 L234.74,92.8470111 C235.181828,92.8470111 235.54,93.2053648 235.54,93.6474164 L235.54,122.630091 L105.32,122.630091 L105.32,93.6474164 C105.32,93.2053648 105.678172,92.8470111 106.12,92.8470111 Z" id="Shape" fill="#993131"></path>
            <rect id="Rectangle-path" fill="#3C94C6" x="157.148" y="92.8550152" width="27.656" height="95.9205674"></rect>
            <rect id="Rectangle-path" fill="#8C2A2A" x="110.56" y="122.642097" width="46.588" height="7.90800405"></rect>
            <rect id="Rectangle-path" fill="#8C2A2A" x="185.085247" y="123" width="44.502753" height="7.90800405"></rect>
            <rect id="Rectangle-path" fill="#2D8AB2" x="157.148" y="122.642097" width="27.656" height="7.90800405"></rect>
            <path d="M42.232,98.4098278 C39.132,102.175735 38.76,107.51844 42.232,110.992199 C42.424,111.184296 27.456,114.473961 27.456,114.473961 L25.408,87.8284701 L42.232,98.4098278 Z" id="Shape" fill="#BA7D4A"></path>
            <path d="M46.088,51.0618541 C55.384,47.6561297 59.288,59.0258865 53.108,63.1479737 C47.508,66.8898683 46.088,51.0618541 46.088,51.0618541 Z" id="Shape" fill="#66340A"></path>
            <path d="M51.696,60.0303951 C50.844,74.5497467 54.372,74.4096758 58.832,80.9249747 C59.2419729,81.4551832 59.3060152,82.1756342 58.996,82.7699088 L48.852,100.494883 C48.5448178,101.031472 47.9562115,101.343062 47.34,101.295289 C41.156,100.86307 30.852,96.925076 30.852,96.925076 L14.688,69.1830294 L43.324,53.627153 L51.696,60.0303951 Z" id="Shape" fill="#BF834C"></path>
            <path d="M36,283.447518 C35.08,284.135866 22.68,373.281003 22.68,373.281003 C22.68,382.701773 31.88,389.133029 34.62,388.216565 C37.36,387.300101 30.716,373.281003 30.716,373.281003 C30.716,373.281003 37.836,346.867629 39.216,345.482928 C40.596,344.098227 50.016,312.858409 50.016,312.858409 L50.016,273.798632 L36,283.447518 Z" id="Shape" fill="#BA7D4A"></path>
            <path d="M38.232,275.539514 L59.116,378.66773 C64.972,381.008916 80.104,380.764792 80.104,376.630699 C80.104,374.10542 66.788,372.264488 66.788,372.264488 C66.788,372.264488 62.884,333.668946 62.884,330.679433 C62.884,327.689919 61.284,275.539514 61.284,275.539514 L38.232,275.539514 Z" id="Shape" fill="#BF834C"></path>
            <path d="M37.14,112.16079 C16.852,112.16079 19.78,133.839767 19.78,140.871327 C19.78,147.902888 25.408,159.036525 25.408,192.433435 C25.408,210.598632 29.216,224.661753 29.216,241.066059 C29.216,257.470365 25.408,282.687133 25.408,282.687133 C35.592,282.687133 40.864,287.957801 50.232,287.957801 C59.6,287.957801 75.908,284.444022 75.908,284.444022 C68.972,279.169352 71.908,257.490375 71.908,239.913475 C71.908,222.336575 63.108,198.896707 63.108,188.347366 C63.108,177.798024 73.24,112.16079 37.14,112.16079 Z" id="Shape" fill="#3C94C6"></path>
            <path d="M31.044,75.9824721 C29.3,72.3806484 23.516,74.8899189 27.444,85.0430598 C29.236,89.5613475 31.384,90.545846 32.468,90.7419453 C32.5964484,90.7695711 32.7031476,90.8585449 32.7534525,90.9799769 C32.8037575,91.101409 32.7912532,91.2398145 32.72,91.3502533 C29.232,96.5528875 29.636,111.700557 29.636,115.822644 C29.636,121.465502 33.164,129.141388 33.164,142.236018 C33.164,151.716819 26.32,157.843921 22.336,167.744934 C20.708,171.786981 19.404,181.059676 19.404,181.059676 C14.204,181.059676 6.092,161.649848 6.092,153.297619 C6.092,136.369048 10.604,133.207447 10.604,120.793161 C10.604,102.051672 0,90.7699595 0,77.2391084 C0,63.7082573 9.024,53.3109929 16.584,53.3109929 C16.864,53.5951368 21.544,44.6185917 37.14,44.6185917 C46.692,44.6185917 55.8,49.6091185 56.08,56.2564843 C56.296,61.3510638 54.4,60.9548632 52.304,59.2179838 C43.032,72.2805978 31.044,75.9824721 31.044,75.9824721 Z" id="Shape" fill="#66340A"></path>
            <path d="M36.264,105.145238 C29.636,105.145238 25.408,112.729078 25.408,121.745643 C25.408,135.276494 60.44,175.344782 65.56,175.344782 C76.828,175.344782 116.008,169.385765 116.008,169.385765 L125.904,168.485309 C128.307346,168.084286 129.989291,165.888952 129.752,163.462766 C129.528,161.137589 128.812,159.744883 126.48,159.672847 L114.18,161.99002 C105.38,163.642857 74.904,158.244124 71.936,158.052026 C71.7940962,158.042913 71.6676961,157.959111 71.604,157.831915 C68.328,151.276596 45.46,105.145238 36.264,105.145238 Z" id="Shape" fill="#BF834C"></path>
            <path d="M80.104,376.630699 C80.104,374.457599 70.248,372.792756 67.5,372.372543 C64.172,372.372543 60.556,372.568642 57.996,373.13693 L59.116,378.66773 C64.972,380.992908 80.104,380.764792 80.104,376.630699 Z" id="Shape" fill="#993131"></path>
            <path d="M30.756,373.192958 C28.356,373.565147 25.284,373.777254 22.728,373.052888 L22.696,373.281003 C22.696,382.701773 31.896,389.133029 34.636,388.216565 C37.376,387.300101 30.732,373.281003 30.732,373.281003 L30.756,373.192958 Z" id="Shape" fill="#993131"></path>
            <path d="M119.684,160.881459 L120.484,167.712918 C120.484,167.712918 122.728,169.27771 128.288,169.153647 C133.908,169.025583 142.288,168.617376 142.288,161.293668 C142.288,157.827913 130.288,158.988501 130.224,158.280142 C130.16,157.571783 134.184,154.402178 132.852,153.549747 C131.784,152.901418 119.684,160.881459 119.684,160.881459 Z" id="Shape" fill="#BF834C"></path>
            <path d="M247.128,100.682979 C247.459371,100.682979 247.728,100.414213 247.728,100.082675 C247.728,99.7511361 247.459371,99.4823708 247.128,99.4823708 C246.796629,99.4823708 246.528,99.7511361 246.528,100.082675 C246.528,100.414213 246.796629,100.682979 247.128,100.682979 Z" id="Shape" fill="#BF834C"></path>
            <path d="M310.36,93.7154509 C315.248,93.7154509 313.876,108.84311 313.876,108.84311 L334.944,103.748531 C331.244,103.748531 330.256,80.1926039 330.256,80.1926039 L308.656,88.1566363 L310.36,93.7154509 Z" id="Shape" fill="#C68D66"></path>
            <path d="M316.484,40.6765957 L296.736,44.0863222 L292.268,52.8547619 C299.512,52.8547619 294.892,71.3521277 294.124,74.145542 C293.964,74.7298379 293.94,75.1660588 294.388,75.3981763 C296.888,76.6788247 299.444,80.512766 301.524,84.6788754 C301.606711,84.8359931 301.770528,84.9334049 301.948,84.931003 C303.996406,84.9374297 305.987331,84.2537157 307.6,82.9900203 C307.972,82.7178825 308.592,83.4342452 308.288,83.7664134 C306.80465,85.3598615 304.934853,86.5426898 302.86,87.200152 C302.740072,87.2351341 302.641406,87.320792 302.589887,87.4346521 C302.538369,87.5485121 302.53914,87.6792088 302.592,87.7924519 C303.92,90.5938703 306.164,94.2437183 306.792,94.2437183 C314.672,94.2437183 335.48,82.3216819 335.48,82.3216819 L316.484,40.6765957 Z" id="Shape" fill="#CC9266"></path>
            <path d="M290.4,55.6281662 C290.278135,55.7924478 290.063148,55.8575477 289.870684,55.7884469 C289.678221,55.7193462 289.553658,55.5323362 289.564,55.3280142 C290.364,49.0608409 295.272,40.9647416 297.408,39.7921479 C303.808,36.5024823 320.488,33.7650963 326.692,35.2258359 C328.632,35.7741135 339.492,45.6311044 341.044,47.4600304 C344.34,51.658156 346.904,63.7682877 346.712,67.4701621 C346.02,73.0409828 333.268,85.079078 329.716,87.660385 C329.584162,87.7589375 329.410536,87.78167 329.257791,87.7203775 C329.105045,87.659085 328.995237,87.5226181 328.968,87.360233 C328.332,82.1575988 321.804,76.5267477 320.112,75.1540527 C319.877883,74.9598952 319.774029,74.6497262 319.844,74.3536474 C320.5,71.7803445 323.228,60.0624113 318.74,60.0624113 C317.534403,60.0294369 316.384461,60.569812 315.64,61.5191489 C315.455741,61.7377541 315.168913,61.8414011 314.887562,61.7910461 C314.606212,61.740691 314.373085,61.5439843 314.276,61.2750253 C312.808,57.1729483 314.02,51.0578521 306.712,50.1974164 C299.752,49.3529889 292.472,52.9187943 290.4,55.6281662 Z" id="Shape" fill="#99643D"></path>
            <path d="M315.072,384.786829 C315.072,384.786829 303.448,389.245086 303.448,393.323151 C303.448,397.401216 337.424,391.482219 337.424,388.120517 C337.424,384.758815 336.048,375.714235 336.048,375.714235 L315.072,384.786829 Z" id="Shape" fill="#66340A"></path>
            <path d="M302.724,206.504559 C302.168,209.217933 302.944,221.808308 303.924,236.919959 C304.516,246.040578 306.62,289.57462 307.124,298.907345 C308.612,326.973556 315.08,384.798835 315.08,384.798835 C320.212,387.488197 333.296,387.108004 337.444,384.798835 C337.74,384.718794 334.448,322.423252 334.952,309.664792 C335.456,296.906332 342.468,221.808308 342.468,212.263475 C342.468,202.718642 335.02,193.978217 335.02,193.978217 L302.724,206.504559 Z" id="Shape" fill="#48A4CC"></path>
            <path d="M345.24,206.712665 C335.704,212.743718 310.668,207.304965 300.572,210.166413 C300.116,209.790223 301.372,183.352837 301.372,176.589412 C301.372,169.825988 302.708,137.565653 303.82,136.625177 C304.932,135.684701 326.172,98.4698582 326.172,98.4698582 C326.172,98.4698582 330.4,92.522847 333.72,96.6609422 C337.656,101.563425 342.232,123.546555 342.46,140.243009 C342.56,147.706788 341.832,167.18465 342.46,181.063678 C343.172,196.855674 345.24,206.712665 345.24,206.712665 Z" id="Shape" fill="#993131"></path>
            <path d="M327.096,96.6609422 C314.044,96.6609422 293.832,150.944428 292.352,154.966464 C292.2973,155.106112 292.169145,155.203435 292.02,155.218592 C280.708,156.018997 243.832,161.785917 238.996,162.946505 C238.936,162.946505 225.56,162.594326 217.456,163.438754 C214.256,163.76692 214.052,168.345238 217.2,168.969554 L235.44,170.418288 C247.544,172.207194 300.564,170.102128 304.188,169.85 C304.305319,169.839711 304.412144,169.778219 304.48,169.681915 C306.984,165.944022 353.08,96.6609422 327.096,96.6609422 Z" id="Shape" fill="#CC9266"></path>
            <path d="M305.76,121.085309 C313.104,123.846707 325.72,126.916261 328.856,131.694681 C328.952666,131.845372 329.125646,131.92908 329.303733,131.911347 C329.481821,131.893613 329.634916,131.777436 329.7,131.610638 C331.672,125.751672 340.9,97.5493921 330.688,94.2437183 C320.208,90.845998 307.6,116.058764 305.336,120.460993 C305.2,120.753141 305.436,120.965248 305.76,121.085309 Z" id="Shape" fill="#932C2C"></path>
            <path d="M227.868,139.114438 C228.199371,139.114438 228.468,138.845672 228.468,138.514134 C228.468,138.182595 228.199371,137.91383 227.868,137.91383 C227.536629,137.91383 227.268,138.182595 227.268,138.514134 C227.268,138.845672 227.536629,139.114438 227.868,139.114438 Z" id="Shape" fill="#3C94C6"></path>
            <path d="M229.32,163.550811 L230.52,169.185664 C230.52,169.185664 228.276,170.746454 222.716,170.622391 C217.096,170.498328 208.716,169.938045 208.716,165.22766 C208.716,161.761905 220,162.91849 220.084,162.20613 C220.168,161.493769 213.812,159.084549 215.736,157.463728 C216.704,156.671327 229.32,163.550811 229.32,163.550811 Z" id="Shape" fill="#CC9266"></path>
            <path d="M214.58,185.37386 C214.58,187.679027 209.844,191.981206 209.844,191.981206 C212.496,191.981206 214.58,197.908207 214.58,197.908207 C214.58,194.810638 218.98,191.981206 218.98,191.981206 C217.096,191.981206 214.58,185.37386 214.58,185.37386 Z" id="Shape" fill="#F3FDFF"></path>
            <path d="M126.584,199.597062 C126.584,201.902229 121.848,206.200405 121.848,206.200405 C124.5,206.200405 126.584,212.127406 126.584,212.127406 C126.584,209.03384 130.984,206.200405 130.984,206.200405 C129.1,206.200405 126.584,199.597062 126.584,199.597062 Z" id="Shape" fill="#F3FDFF"></path>
            <path d="M226.536,84.1305978 C226.536,86.4357649 221.8,90.7339412 221.8,90.7339412 C224.448,90.7339412 226.536,96.6609422 226.536,96.6609422 C226.536,93.5633739 230.936,90.7339412 230.936,90.7339412 C229.052,90.7339412 226.536,84.1305978 226.536,84.1305978 Z" id="Shape" fill="#F3FDFF"></path>
            <path d="M108.832,132.383029 C108.832,134.688197 104.092,138.986373 104.092,138.986373 C106.744,138.986373 108.832,144.913374 108.832,144.913374 C108.832,141.815805 113.232,138.986373 113.232,138.986373 C111.348,138.986373 108.832,132.383029 108.832,132.383029 Z" id="Shape" fill="#F3FDFF"></path>
            <path d="M136.1,34.8176292 C136.1,37.1227964 131.364,41.4209726 131.364,41.4209726 C134.012,41.4209726 136.1,47.3519757 136.1,47.3519757 C136.1,44.2544073 140.5,41.4209726 140.5,41.4209726 C138.616,41.4049645 136.1,34.8176292 136.1,34.8176292 Z" id="Shape" fill="#F3FDFF"></path>
        </g>
    </g>
</svg>