<?xml version="1.0" encoding="UTF-8"?>
<svg width="378px" height="233px" viewBox="0 0 378 233" version="1.1" xmlns="http://www.w3.org/2000/svg" xmlns:xlink="http://www.w3.org/1999/xlink">
    <!-- Generator: Sketch 48.2 (47327) - http://www.bohemiancoding.com/sketch -->
    <title>Group 3</title>
    <desc>Created with Sketch.</desc>
    <defs></defs>
    <g id="register-group" stroke="none" stroke-width="1" fill="none" fill-rule="evenodd" transform="translate(-762.000000, -280.000000)">
        <g id="Group-3" transform="translate(762.000000, 280.000000)">
            <path d="M0,231.496774 L378,231.496774" id="Path-3" stroke="#B3B3B3" stroke-width="1.5"></path>
            <g id="yellow-gift" transform="translate(178.500000, 0.000000)" fill-rule="nonzero">
                <path d="M5.65,43.6687097 L163.85,43.6687097 L163.85,227.813871 C163.85,229.889393 162.163606,231.571935 160.083333,231.571935 L9.41666667,231.571935 C7.33639411,231.571935 5.65,229.889393 5.65,227.813871 L5.65,43.6687097 Z" id="Shape" fill="#F9A826"></path>
                <ellipse id="Oval" fill="#FFD199" cx="37.6666667" cy="85.6462903" rx="13.1833333" ry="13.1532258"></ellipse>
                <ellipse id="Oval" fill="#FFD199" cx="129.535667" cy="117.138871" rx="13.1833333" ry="13.1532258"></ellipse>
                <ellipse id="Oval" fill="#FFD199" cx="71.5666667" cy="157.049516" rx="13.1833333" ry="13.1532258"></ellipse>
                <ellipse id="Oval" fill="#FFD199" cx="139.366667" cy="198.388226" rx="13.1833333" ry="13.1532258"></ellipse>
                <ellipse id="Oval" fill="#FFD199" cx="28.702" cy="207.93371" rx="13.1833333" ry="13.1532258"></ellipse>
                <rect id="Rectangle-path" fill="#EF910A" x="5.65" y="57.4608065" width="158.2" height="7.51612903"></rect>
                <path d="M59.9276667,34.9124194 L49.8706667,23.9764516 C48.8222403,22.8305489 48.5874104,21.1596111 49.2795308,19.7702117 C49.9716513,18.3808123 51.4484239,17.5586085 52.997,17.7004839 L62.941,18.7903226 L62.489,10.1843548 C62.4098888,8.69121899 63.2254831,7.29333986 64.5659103,6.62465687 C65.9063375,5.95597388 67.5165572,6.14371597 68.6663333,7.10274194 L77.2166667,14.2430645 L83.1303333,2.10451613 C83.8169596,0.730791853 85.271972,-0.0881900023 86.8055176,0.0358675705 C88.3390632,0.159925143 89.6428271,1.20208072 90.0986667,2.66822581 L93.5263333,13.9424194 L100.532333,9.39516129 C101.818633,8.53527692 103.501315,8.54833922 104.774049,9.42808882 C106.046783,10.3078384 106.650274,11.8750433 106.295333,13.3787097 L105.052333,18.7903226 L114.318333,16.8737097 C115.944908,16.5292735 117.605411,17.2897241 118.404082,18.7448344 C119.202752,20.1999448 118.950607,22.0054062 117.783667,23.1872581 L106.257667,34.9124194 L59.9276667,34.9124194 Z" id="Shape" fill="#FFD199"></path>
                <path d="M3.76666667,27.3962903 L165.733333,27.3962903 C167.813606,27.3962903 169.5,29.0788331 169.5,31.1543548 L169.5,61.218871 L0,61.218871 L0,31.1543548 C-2.54759913e-16,29.0788331 1.68639411,27.3962903 3.76666667,27.3962903 Z" id="Shape" fill="#F9A826"></path>
                <rect id="Rectangle-path" fill="#993131" x="79.1" y="27.3962903" width="15.0666667" height="204.175645"></rect>
                <rect id="Rectangle-path" fill="#8E2B2B" x="79.1" y="61.218871" width="15.0666667" height="3.75806452"></rect>
            </g>
            <g id="another-gift" transform="translate(33.000000, 163.851613)" fill-rule="nonzero">
                <path d="M185.625,67.6451613 L9.375,67.6451613 C8.33946609,67.6451613 7.5,66.8038899 7.5,65.766129 L7.5,15.0322581 L187.5,15.0322581 L187.5,65.766129 C187.5,66.8038899 186.660534,67.6451613 185.625,67.6451613 Z" id="Shape" fill="#FFD199"></path>
                <path d="M193.125,0 L1.875,0 C0.839466094,-6.35445258e-17 1.26816328e-16,0.841271397 0,1.87903226 L0,15.0322581 L195,15.0322581 L195,1.87903226 C195,0.841271397 194.160534,6.35445258e-17 193.125,0 Z" id="Shape" fill="#FFD199"></path>
                <polygon id="Shape" fill="#C16C6C" points="97.5 67.6451613 82.5 67.6451613 15 0 30 0"></polygon>
                <rect id="Rectangle-path" fill="#F4C38E" x="7.5" y="14.9946774" width="180" height="3.75806452"></rect>
                <polygon id="Shape" fill="#BF6060" points="33.7125 18.7903226 48.7125 18.7903226 44.9625 15.0322581 30 15.0322581"></polygon>
            </g>
        </g>
    </g>
</svg>