<?xml version="1.0" encoding="UTF-8"?>
<svg width="72px" height="72px" viewBox="0 0 72 72" version="1.1" xmlns="http://www.w3.org/2000/svg" xmlns:xlink="http://www.w3.org/1999/xlink">
    <!-- Generator: Sketch 49 (51002) - http://www.bohemiancoding.com/sketch -->
    <title>food-item/burger</title>
    <desc>Created with Sketch.</desc>
    <defs></defs>
    <g id="food-item/burger" stroke="none" stroke-width="1" fill="none" fill-rule="evenodd">
        <rect id="Rectangle-3" fill="#F2D2C2" x="0" y="0" width="72" height="72"></rect>
        <g id="Group" transform="translate(9.000000, 15.000000)" stroke="#000000" stroke-width="2">
            <path d="M3.4375,15.8421053 L52.7083333,15.8421053 C51.3944444,5.28070175 43.1826389,0 28.0729167,0 C12.9631944,0 4.75138889,5.28070175 3.4375,15.8421053 Z" id="Path-25" fill="#DE7D62" stroke-linejoin="round"></path>
            <path d="M3.89182961,43 L51.1618818,43 C52.3508013,38.4736842 52.3508013,36.2105263 51.1618818,36.2105263 C38.6440133,36.2105263 16.2782207,36.2105263 3.89182961,36.2105263 C2.63129489,36.2105263 2.63129489,38.4736842 3.89182961,43 Z" id="Path-25" fill="#DE7D62" stroke-linejoin="round"></path>
            <rect id="Rectangle-4" fill="#99452E" x="0" y="28.2894737" width="55" height="7.92105263" rx="3.96052632"></rect>
            <rect id="Rectangle-4" fill="#B84949" x="0" y="20.3684211" width="55" height="4.52631579" rx="2.26315789"></rect>
            <rect id="Rectangle-4" fill="#FFF7CC" x="2.29166667" y="15.8421053" width="51.5625" height="4.52631579" rx="2.26315789"></rect>
            <path d="M2.94642857,24.8947368 L52.0535714,24.8947368 C51.4583333,29.4210526 50.2678571,31.6842105 48.4821429,31.6842105 C45.8035714,31.6842105 45.8035714,28.2894737 44.0178571,28.2894737 C42.2321429,28.2894737 42.2321429,31.6842105 39.5535714,31.6842105 C36.875,31.6842105 36.875,28.2894737 35.0892857,28.2894737 C33.3035714,28.2894737 32.4107143,31.6842105 30.625,31.6842105 C28.8392857,31.6842105 27.9464286,28.2894737 26.1607143,28.2894737 C24.375,28.2894737 23.4821429,31.6842105 21.6964286,31.6842105 C19.9107143,31.6842105 19.9107143,28.2894737 17.2321429,28.2894737 C14.5535714,28.2894737 14.5535714,31.6842105 12.7678571,31.6842105 C10.9821429,31.6842105 10.9821429,28.2894737 9.19642857,28.2894737 C7.41071429,28.2894737 7.41071429,31.6842105 5.625,31.6842105 C4.43452381,31.6842105 3.54166667,29.4210526 2.94642857,24.8947368 Z" id="Path-26" fill="#368A47" stroke-linejoin="round"></path>
        </g>
        <g id="Group-2" transform="translate(24.000000, 19.000000)" fill="#000000">
            <ellipse id="Oval" cx="0.946969697" cy="4.6" rx="1" ry="1"></ellipse>
            <ellipse id="Oval" cx="7.76515152" cy="1" rx="1" ry="1"></ellipse>
            <ellipse id="Oval" cx="17.9924242" cy="1" rx="1" ry="1"></ellipse>
            <ellipse id="Oval" cx="23.6742424" cy="4.6" rx="1" ry="1"></ellipse>
            <ellipse id="Oval" cx="12.3106061" cy="3.4" rx="1" ry="1"></ellipse>
        </g>
    </g>
</svg>