<?xml version="1.0" encoding="UTF-8"?>
<svg width="72px" height="72px" viewBox="0 0 72 72" version="1.1" xmlns="http://www.w3.org/2000/svg" xmlns:xlink="http://www.w3.org/1999/xlink">
    <!-- Generator: Sketch 49 (51002) - http://www.bohemiancoding.com/sketch -->
    <title>food-item/fries</title>
    <desc>Created with Sketch.</desc>
    <defs></defs>
    <g id="food-item/fries" stroke="none" stroke-width="1" fill="none" fill-rule="evenodd">
        <rect id="Rectangle-3" fill="#F2D2C2" x="0" y="0" width="72" height="72"></rect>
        <polygon id="Path-28" stroke="#000000" stroke-width="2" fill="#D9C382" stroke-linejoin="round" points="21.75 38 20 25 25.25 25 27 38"></polygon>
        <polygon id="Path-28" stroke="#000000" stroke-width="2" fill="#FFF7CC" stroke-linejoin="round" points="50.25 36 45 36 46.75 26 52 26"></polygon>
        <polygon id="Path-28" stroke="#000000" stroke-width="2" fill="#D9C382" stroke-linejoin="round" points="46 38 40 38 42 18 48 18"></polygon>
        <polygon id="Path-28" stroke="#000000" stroke-width="2" fill="#FFF7CC" stroke-linejoin="round" points="24 36 24 19 30 19 30 36"></polygon>
        <polygon id="Path-28" stroke="#000000" stroke-width="2" fill="#D9C382" stroke-linejoin="round" points="30 36 30 16 36 16 36 36"></polygon>
        <polygon id="Path-28" stroke="#000000" stroke-width="2" fill="#FFF7CC" stroke-linejoin="round" points="36 36 36 14 42 14 42 36"></polygon>
        <polygon id="Path-28" stroke="#000000" stroke-width="2" fill="#D9C382" stroke-linejoin="round" points="33 36 33 21 39 21 39 36"></polygon>
        <polygon id="Path-27" stroke="#000000" stroke-width="2" fill="#DE7D62" stroke-linejoin="round" points="19 36 52 36 47.1707317 63 23.8292683 63"></polygon>
    </g>
</svg>