<?xml version="1.0" encoding="UTF-8"?>
<svg width="72px" height="72px" viewBox="0 0 72 72" version="1.1" xmlns="http://www.w3.org/2000/svg" xmlns:xlink="http://www.w3.org/1999/xlink">
    <!-- Generator: Sketch 49 (51002) - http://www.bohemiancoding.com/sketch -->
    <title>food-item/salad</title>
    <desc>Created with Sketch.</desc>
    <defs>
        <path d="M0,13 C1.33333333,7 2.33333333,4 3,4 C4,4 7,7.5 9,7.5 C11,7.5 12,3 14,3 C16,3 18,9 20,9 C22,9 22,1.80411242e-16 25,0 C28,0 28,9 30,9 C32,9 35,3 37,3 C39,3 40,7.5 41,7.5 C42,7.5 44,3 46,3 C47.3333333,3 49,6.33333333 51,13 L0,13 Z" id="path-1"></path>
        <circle id="path-3" cx="7" cy="14" r="4"></circle>
    </defs>
    <g id="food-item/salad" stroke="none" stroke-width="1" fill="none" fill-rule="evenodd">
        <rect id="Rectangle-3" fill="#ADCCB4" x="0" y="0" width="72" height="72"></rect>
        <polygon id="Path-24" stroke="#000000" stroke-width="2" fill="#DE7D62" stroke-linejoin="round" points="11 31 5 15 9 15 15 31"></polygon>
        <polygon id="Path-24" stroke="#000000" stroke-width="2" fill="#DE7D62" stroke-linejoin="round" transform="translate(63.000000, 23.000000) scale(-1, 1) translate(-63.000000, -23.000000) " points="64 31 58 15 62 15 68 31"></polygon>
        <g id="Oval-+-Oval-+-Oval-Mask" transform="translate(12.000000, 18.000000)">
            <mask id="mask-2" fill="white">
                <use xlink:href="#path-1"></use>
            </mask>
            <g id="Mask">
                <use fill="#368A47" fill-rule="evenodd" xlink:href="#path-1"></use>
                <path stroke="#000000" stroke-width="2" d="M38.9495715,6.5646514 C38.9472668,6.56039311 38.944954,6.55611776 38.9426328,6.55182519 C38.9455378,6.55719745 38.948134,6.56199633 38.9504328,6.56624294 Z M19.8945923,7.9770187 C19.9531128,7.90171 20.0240224,7.7844045 20.1006321,7.62680729 C20.3117369,7.19253464 20.5146955,6.57878785 20.7964821,5.56435614 C20.8543012,5.35620738 21.0968012,4.46520738 21.1614821,4.23235614 C22.1735968,0.58874305 23.0268107,-1 25,-1 C26.9731893,-1 27.8264032,0.58874305 28.8385179,4.23235614 C28.9031988,4.46520738 29.1456988,5.35620738 29.2035179,5.56435614 C29.4853045,6.57878785 29.6882631,7.19253464 29.8993679,7.62680729 C29.9776059,7.78775405 30.0498989,7.9066782 30.1091222,7.98176358 C30.5138071,7.85748325 31.2918409,7.08774099 32.7317787,5.3598156 C34.8998215,2.75816431 35.700106,2 37,2 C38.3704049,2 39.227901,2.92609584 40.2491573,4.76435707 C40.3588466,4.96179782 40.7922686,5.76722736 40.7171392,5.62867378 C40.8673557,5.90587775 40.9744894,6.0944485 41.0719782,6.25031027 C41.1002417,6.21856646 41.1298041,6.18459749 41.1606318,6.14840854 C41.3026548,5.98168591 41.4596985,5.78311843 41.6859411,5.48685508 C41.5528946,5.66104333 42.1809489,4.8349579 42.3356478,4.63605939 C43.7173596,2.85957281 44.7042765,2 46,2 C48.0571286,2 49.7743837,5.43451019 51.9578263,12.7126521 L52.3440307,14 L-1.24661605,14 L-0.97618706,12.7830695 C0.610455141,5.64317964 1.49151502,3 3,3 C3.5220476,3 3.98062816,3.24161771 4.66463481,3.73693288 C4.87919719,3.89230563 5.10583353,4.06646729 5.43019116,4.32253911 C5.51803483,4.39188937 5.6286527,4.47958231 5.83045579,4.6395667 C5.99240915,4.76779189 6.11686474,4.86569988 6.23894061,4.96064778 C6.66232653,5.28994794 7.00729613,5.5437544 7.33247797,5.7605423 C8.07166706,6.25333502 8.6425203,6.5 9,6.5 C9.33346251,6.5 9.76036215,6.05668114 10.6679497,4.6952998 C12.0103621,2.68168114 12.6667958,2 14,2 C15.3593834,2 16.0625849,2.79110171 17.8320503,5.4452998 C18.935972,7.10118238 19.5566885,7.84208298 19.8945923,7.9770187 Z"></path>
            </g>
            <circle id="Oval" stroke="#000000" stroke-width="2" fill="#D96C6C" mask="url(#mask-2)" cx="27" cy="14" r="4"></circle>
            <circle id="Oval" stroke="#000000" stroke-width="2" fill="#D96C6C" mask="url(#mask-2)" cx="39" cy="13" r="3"></circle>
            <mask id="mask-4" fill="white">
                <use xlink:href="#path-3"></use>
            </mask>
            <use id="Oval" stroke="#000000" stroke-width="2" fill="#E6D795" xlink:href="#path-3"></use>
        </g>
        <path d="M8,32 C20,32 50.9909098,32 65,32 C65,52 50.5045451,63 35.5045451,63 C20.5045451,63 8,50 8,32 Z" id="Path-23" stroke="#000000" stroke-width="2" fill="#DE7D62" stroke-linejoin="round"></path>
    </g>
</svg>