<svg xmlns="http://www.w3.org/2000/svg" viewBox="0 0 52 18"><defs><style>.cls-1{fill:#ffd199;}.cls-2{fill:#c16c6c;}.cls-3{fill:#f4c38e;}.cls-4{fill:#bf6060;}</style></defs><title>another-gift</title><g id="Layer_2" data-name="Layer 2"><g id="Layer_1-2" data-name="Layer 1"><path class="cls-1" d="M49.5,18H2.5a.5.5,0,0,1-.5-.5V4H50V17.5A.5.5,0,0,1,49.5,18Z"/><path class="cls-1" d="M51.5,0H.5A.5.5,0,0,0,0,.5V4H52V.5A.5.5,0,0,0,51.5,0Z"/><polygon class="cls-2" points="26 18 22 18 4 0 8 0 26 18"/><rect class="cls-3" x="2" y="3.99" width="48" height="1"/><polygon class="cls-4" points="8.99 5 12.99 5 11.99 4 8 4 8.99 5"/></g></g></svg>