<svg xmlns="http://www.w3.org/2000/svg" viewBox="0 0 52 55.15"><defs><style>.cls-1{fill:#3c94c6;}.cls-2{fill:#b25959;}.cls-3{fill:#993131;}.cls-4{fill:#328bb2;}.cls-5{fill:#912c2c;}</style></defs><title>logo</title><g id="Layer_2" data-name="Layer 2"><g id="Layer_1-2" data-name="Layer 1"><path class="cls-1" d="M1,20.15H51a0,0,0,0,1,0,0v34a1,1,0,0,1-1,1H2a1,1,0,0,1-1-1v-34A0,0,0,0,1,1,20.15Z"/><path class="cls-2" d="M40.71,5.07,36.55.72a2.3,2.3,0,0,0-3-.27l-7.77,5.6L18,.45a2.3,2.3,0,0,0-3,.27L10.83,5.07a2.32,2.32,0,0,0-.31,2.8l5,8.28H25.66l.13-.62.09.62H36l5-8.28A2.32,2.32,0,0,0,40.71,5.07Z"/><path class="cls-1" d="M1,12.15H51a1,1,0,0,1,1,1v7a0,0,0,0,1,0,0H0a0,0,0,0,1,0,0v-7A1,1,0,0,1,1,12.15Z"/><rect class="cls-3" x="22" y="12.15" width="8" height="43"/><rect class="cls-4" x="1" y="20.15" width="50" height="2"/><rect class="cls-5" x="22" y="20.15" width="8" height="2"/></g></g></svg>