<svg xmlns="http://www.w3.org/2000/svg" viewBox="0 0 437.42 371.34"><defs><style>.cls-1{fill:#8c2a2a;}.cls-2{fill:#f9a826;}.cls-3{fill:#993131;}.cls-4{fill:#ffd199;}.cls-5{fill:#cc7171;}.cls-6{fill:#f4c38e;}.cls-7{fill:#bf6060;}.cls-8{fill:#f29f27;}</style></defs><title>colored-yellow</title><g id="Layer_2" data-name="Layer 2"><g id="Layer_1-2" data-name="Layer 1"><path class="cls-1" d="M97.74,69.82,77.67,47.92A7.52,7.52,0,0,1,83.9,35.36l19.88,1.84L102.88,20a7.51,7.51,0,0,1,12.33-6.15l17,14.28L144,4.2a7.51,7.51,0,0,1,13.92,1.1l6.84,22.23,14-9.14a7.51,7.51,0,0,1,11.43,8L187.73,37.2l18.51-3.81A7.52,7.52,0,0,1,213.16,46l-23,23.85Z"/><rect class="cls-2" x="22.07" y="90.16" width="246.83" height="87.35"/><path class="cls-2" d="M18.69,55.69H272.28a1,1,0,0,1,1,1v51a0,0,0,0,1,0,0H17.69a0,0,0,0,1,0,0v-51A1,1,0,0,1,18.69,55.69Z"/><rect class="cls-3" x="130.95" y="55.69" width="29.06" height="121.83"/><path class="cls-4" d="M7.49,210.09H429.93a0,0,0,0,1,0,0V370.34a1,1,0,0,1-1,1H8.49a1,1,0,0,1-1-1V210.09a0,0,0,0,1,0,0Z"/><path class="cls-4" d="M1,177.52H436.42a1,1,0,0,1,1,1v51a0,0,0,0,1,0,0H0a0,0,0,0,1,0,0v-51A1,1,0,0,1,1,177.52Z"/><rect class="cls-5" x="204.18" y="177.52" width="29.06" height="193.82"/><rect class="cls-6" x="7.49" y="229.78" width="422.44" height="16"/><rect class="cls-7" x="204.31" y="229.78" width="28.94" height="16"/><rect class="cls-8" x="22.07" y="108.24" width="108.88" height="16"/><rect class="cls-8" x="160.02" y="108.24" width="108.88" height="16"/><rect class="cls-1" x="130.95" y="108.24" width="29.06" height="16"/></g></g></svg>