<svg xmlns="http://www.w3.org/2000/svg" viewBox="0 0 880.31 542.55"><defs><style>.cls-1{fill:#ffd199;}.cls-2{fill:#7f2626;}.cls-3{fill:#cc7171;}.cls-4{fill:#f4c28c;}.cls-5{fill:#bf6060;}.cls-6{fill:#f4c38e;}.cls-7{fill:#c16c6c;}.cls-8{fill:#f9a826;}.cls-9{fill:#f29f27;}.cls-10{fill:#f7c68f;}.cls-11{fill:#fff;}.cls-12{fill:#ffe7cc;}.cls-13{fill:#2d8ab2;}.cls-14{fill:#993131;}.cls-15{fill:#3c94c6;}.cls-16{fill:#8c2a2a;}</style></defs><title>gifts</title><g id="Layer_2" data-name="Layer 2"><g id="Layer_1-2" data-name="Layer 1"><path class="cls-1" d="M354.34,42.94,342,29.47a4.62,4.62,0,0,1,3.84-7.72l12.22,1.13-.55-10.57a4.62,4.62,0,0,1,7.58-3.79l10.48,8.78L382.8,2.58a4.62,4.62,0,0,1,8.56.68l4.21,13.67,8.61-5.62a4.62,4.62,0,0,1,7,4.9l-1.53,6.67,11.39-2.34a4.62,4.62,0,0,1,4.25,7.73L411.17,42.94Z"/><path class="cls-2" d="M271.18,37.92h225a2,2,0,0,1,2,2V410.79a0,0,0,0,1,0,0h-229a0,0,0,0,1,0,0V39.92A2,2,0,0,1,271.18,37.92Z"/><rect class="cls-1" x="453.52" y="76.19" width="186.45" height="291.36"/><circle class="cls-3" cx="495.17" cy="89.17" r="6.71"/><path class="cls-1" d="M450.24,69.19h193a2,2,0,0,1,2,2v36.94a0,0,0,0,1,0,0h-197a0,0,0,0,1,0,0V71.19A2,2,0,0,1,450.24,69.19Z"/><rect class="cls-4" x="453.46" y="108.13" width="186.45" height="8"/><rect class="cls-3" x="583.26" y="69.19" width="20" height="298.36"/><rect class="cls-5" x="583.26" y="108.13" width="20" height="8"/><rect class="cls-1" x="135.62" y="139.08" width="221.95" height="253.9"/><rect class="cls-6" x="135.62" y="168.16" width="221.95" height="8"/><path class="cls-7" d="M227.72,98.59,214.5,84.73a7.35,7.35,0,0,0-9.67-.84L180.15,101.7,155.64,83.89a7.35,7.35,0,0,0-9.67.84L132.74,98.59a7.33,7.33,0,0,0-1,8.87l15.92,26.35h32.2l.41-2,.28,2h32.19l15.93-26.35A7.35,7.35,0,0,0,227.72,98.59Z"/><path class="cls-1" d="M129.41,124.12h243a2,2,0,0,1,2,2v42a0,0,0,0,1,0,0h-247a0,0,0,0,1,0,0v-42A2,2,0,0,1,129.41,124.12Z"/><polygon class="cls-3" points="315.31 398.87 288.56 398.87 163.12 124.12 189.88 124.12 315.31 398.87"/><polygon class="cls-5" points="186.84 176.15 213.61 176.16 209.91 168.16 183.15 168.16 186.84 176.15"/><path class="cls-3" d="M119.44,304.4,107.1,290.93a4.62,4.62,0,0,1,3.83-7.72l12.23,1.13-.56-10.57a4.62,4.62,0,0,1,7.58-3.78l10.48,8.78L147.9,264a4.63,4.63,0,0,1,8.57.68l4.2,13.67,8.61-5.62a4.63,4.63,0,0,1,7,4.9l-1.53,6.67L186.17,282a4.62,4.62,0,0,1,4.26,7.73L176.27,304.4Z"/><path class="cls-8" d="M30.41,297.41H284.09a0,0,0,0,1,0,0V476.74a0,0,0,0,1,0,0H28.41a0,0,0,0,1,0,0V299.41A2,2,0,0,1,30.41,297.41Z"/><rect class="cls-8" x="598.25" y="137.35" width="175.44" height="310.67"/><polygon class="cls-1" points="598.04 164.48 614.68 137.35 611.41 137.35 598.04 159.15 598.04 164.48"/><polygon class="cls-1" points="598.04 197.11 634.68 137.35 631.41 137.35 598.04 191.77 598.04 197.11"/><polygon class="cls-1" points="598.04 229.73 654.68 137.35 651.41 137.35 598.04 224.4 598.04 229.73"/><polygon class="cls-1" points="598.04 262.35 674.68 137.35 671.41 137.35 598.04 257.02 598.04 262.35"/><polygon class="cls-1" points="598.04 294.98 694.68 137.35 691.41 137.35 598.04 289.64 598.04 294.98"/><polygon class="cls-1" points="598.04 327.6 714.68 137.35 711.41 137.35 598.04 322.27 598.04 327.6"/><polygon class="cls-1" points="598.04 360.22 734.68 137.35 731.41 137.35 598.04 354.89 598.04 360.22"/><polygon class="cls-1" points="598.04 392.85 754.68 137.35 751.41 137.35 598.04 387.51 598.04 392.85"/><polygon class="cls-1" points="598.04 425.47 773.48 139.3 773.48 137.35 771.41 137.35 598.04 420.13 598.04 425.47"/><polygon class="cls-1" points="773.48 166.59 600.95 448.02 604.22 448.02 773.48 171.92 773.48 166.59"/><polygon class="cls-1" points="773.48 199.21 620.95 448.02 624.22 448.02 773.48 204.55 773.48 199.21"/><polygon class="cls-1" points="773.48 231.84 640.95 448.02 644.22 448.02 773.48 237.17 773.48 231.84"/><polygon class="cls-1" points="773.48 264.46 660.95 448.02 664.22 448.02 773.48 269.79 773.48 264.46"/><polygon class="cls-1" points="773.48 297.08 680.95 448.02 684.22 448.02 773.48 302.42 773.48 297.08"/><polygon class="cls-1" points="773.48 329.71 700.95 448.02 704.22 448.02 773.48 335.04 773.48 329.71"/><polygon class="cls-1" points="773.48 362.33 720.95 448.02 724.22 448.02 773.48 367.66 773.48 362.33"/><polygon class="cls-1" points="773.48 394.95 740.95 448.02 744.22 448.02 773.48 400.29 773.48 394.95"/><polygon class="cls-1" points="773.48 427.58 760.95 448.02 764.22 448.02 773.48 432.91 773.48 427.58"/><path class="cls-1" d="M656.4,141.87,644.06,128.4a4.62,4.62,0,0,1,3.83-7.72l12.22,1.13-.55-10.57a4.62,4.62,0,0,1,7.58-3.79l10.48,8.78,7.24-14.72a4.62,4.62,0,0,1,8.56.68l4.21,13.67,8.61-5.62a4.62,4.62,0,0,1,7,4.9l-1.52,6.67,11.38-2.34a4.62,4.62,0,0,1,4.25,7.73l-14.15,14.67Z"/><path class="cls-8" d="M594.41,132.24H777.12a2,2,0,0,1,2,2v42a0,0,0,0,1,0,0H592.41a0,0,0,0,1,0,0v-42A2,2,0,0,1,594.41,132.24Z"/><rect class="cls-9" x="598.25" y="176.28" width="175.44" height="8"/><polygon class="cls-10" points="605.91 184.28 610.81 176.28 607.54 176.28 602.64 184.28 605.91 184.28"/><polygon class="cls-10" points="625.91 184.28 630.81 176.28 627.54 176.28 622.64 184.28 625.91 184.28"/><polygon class="cls-10" points="645.91 184.28 650.81 176.28 647.54 176.28 642.64 184.28 645.91 184.28"/><polygon class="cls-10" points="665.91 184.28 670.81 176.28 667.54 176.28 662.64 184.28 665.91 184.28"/><polygon class="cls-10" points="685.91 184.28 690.81 176.28 687.54 176.28 682.64 184.28 685.91 184.28"/><polygon class="cls-10" points="705.91 184.28 710.81 176.28 707.54 176.28 702.64 184.28 705.91 184.28"/><polygon class="cls-10" points="725.91 184.28 730.81 176.28 727.54 176.28 722.64 184.28 725.91 184.28"/><polygon class="cls-10" points="745.91 184.28 750.81 176.28 747.54 176.28 742.64 184.28 745.91 184.28"/><polygon class="cls-10" points="765.91 184.28 770.81 176.28 767.54 176.28 762.64 184.28 765.91 184.28"/><path class="cls-2" d="M2,413.37H312.5a0,0,0,0,1,0,0V537.66a0,0,0,0,1,0,0H2a2,2,0,0,1-2-2V415.37A2,2,0,0,1,2,413.37Z"/><circle class="cls-11" cx="17.96" cy="443.83" r="3.79"/><circle class="cls-11" cx="47.96" cy="433.83" r="3.79"/><circle class="cls-11" cx="44.17" cy="490.04" r="3.79"/><circle class="cls-11" cx="70.22" cy="455.04" r="3.79"/><circle class="cls-11" cx="17.96" cy="513.83" r="3.79"/><circle class="cls-11" cx="67.96" cy="523.83" r="3.79"/><circle class="cls-11" cx="97.96" cy="497.61" r="3.79"/><circle class="cls-11" cx="97.96" cy="433.83" r="3.79"/><circle class="cls-11" cx="139.96" cy="457.83" r="3.79"/><circle class="cls-11" cx="137.96" cy="513.83" r="3.79"/><circle class="cls-11" cx="195.53" cy="493.83" r="3.79"/><circle class="cls-11" cx="184.17" cy="433.83" r="3.79"/><circle class="cls-11" cx="216.96" cy="425.83" r="3.79"/><circle class="cls-11" cx="244.17" cy="453.83" r="3.79"/><circle class="cls-11" cx="184.17" cy="527.61" r="3.79"/><circle class="cls-11" cx="247.96" cy="493.83" r="3.79"/><rect class="cls-1" y="469.89" width="312.5" height="11.85"/><rect class="cls-1" x="64.1" y="413.37" width="12.23" height="124.29"/><path class="cls-2" d="M555.38,299.18H878.31a2,2,0,0,1,2,2V474.61a2,2,0,0,1-2,2H555.38a0,0,0,0,1,0,0V299.18A0,0,0,0,1,555.38,299.18Z"/><rect class="cls-11" x="780.8" y="315.5" width="82.49" height="48.93"/><rect class="cls-8" x="611.49" y="390.43" width="205.25" height="142.36"/><rect class="cls-1" x="611.49" y="453.04" width="205.25" height="19.85"/><rect class="cls-1" x="704.11" y="390.43" width="20" height="142.36"/><path class="cls-12" d="M728.52,463.81l9-8.27a5,5,0,0,0,.31-7.07l-7.35-8a5,5,0,0,0-7.07-.31l-9.7,8.89-9.3-9.3a5,5,0,0,0-7.07,0l-7.69,7.69a5,5,0,0,0,0,7.07l8.65,8.66-8.72,8a5,5,0,0,0-.32,7.07l7.35,8a5,5,0,0,0,7.07.31l9.39-8.61,9,9a5,5,0,0,0,7.07,0l7.7-7.69a5,5,0,0,0,0-7.07Z"/><circle class="cls-1" cx="713.58" cy="462.4" r="5.74"/><path class="cls-13" d="M560.25,192.69l-32-33.5a17.75,17.75,0,0,0-23.38-2l-59.67,43.05L386,157.16a17.75,17.75,0,0,0-23.38,2l-32,33.5a17.77,17.77,0,0,0-2.36,21.45l38.51,63.7h77.83l1-4.81.67,4.81H524.1l38.5-63.7A17.78,17.78,0,0,0,560.25,192.69Z"/><rect class="cls-14" x="261.91" y="312.68" width="365.36" height="229.87"/><path class="cls-14" d="M247.93,250H641.26a2,2,0,0,1,2,2v88.84a0,0,0,0,1,0,0H245.93a0,0,0,0,1,0,0V252A2,2,0,0,1,247.93,250Z"/><rect class="cls-15" x="404.07" y="250.01" width="84.39" height="292.54"/><rect class="cls-16" x="261.91" y="340.85" width="142.16" height="8"/><rect class="cls-16" x="488.46" y="340.85" width="138.82" height="8"/><rect class="cls-13" x="404.07" y="340.85" width="84.39" height="8"/></g></g></svg>