<svg xmlns="http://www.w3.org/2000/svg" viewBox="0 0 45 61.62"><defs><style>.cls-1{fill:#e4ecef;}.cls-2{fill:#dce3e5;}.cls-3{fill:#d2d7d8;}</style></defs><title>grey-box</title><g id="Layer_2" data-name="Layer 2"><g id="Layer_1-2" data-name="Layer 1"><path class="cls-1" d="M1.5,11.62h42a0,0,0,0,1,0,0v49a1,1,0,0,1-1,1H2.5a1,1,0,0,1-1-1v-49A0,0,0,0,1,1.5,11.62Z"/><circle class="cls-2" cx="10" cy="22.79" r="3.5"/><circle class="cls-2" cx="34.39" cy="31.17" r="3.5"/><circle class="cls-2" cx="19" cy="41.79" r="3.5"/><circle class="cls-2" cx="37" cy="52.79" r="3.5"/><circle class="cls-2" cx="7.62" cy="55.33" r="3.5"/><path class="cls-3" d="M15.91,9.29,13.24,6.38a1,1,0,0,1,.83-1.67L16.71,5l-.12-2.29a1,1,0,0,1,1.64-.82l2.27,1.9L22.07.56a1,1,0,0,1,1.85.15l.91,3,1.86-1.21a1,1,0,0,1,1.53,1.06L27.89,5l2.46-.51a1,1,0,0,1,.92,1.68L28.21,9.29Z"/><path class="cls-2" d="M1,7.29H44a1,1,0,0,1,1,1v8a0,0,0,0,1,0,0H0a0,0,0,0,1,0,0v-8a1,1,0,0,1,1-1Z"/><rect class="cls-3" x="20.5" y="7.29" width="5" height="54.33"/></g></g></svg>