<svg xmlns="http://www.w3.org/2000/svg" viewBox="0 0 969.27 986.26"><defs><style>.cls-1{fill:#ccf4ff;}.cls-2{fill:#2d8ab2;}.cls-3{fill:#993131;}.cls-4{fill:#3c94c6;}.cls-5{fill:#8c2a2a;}.cls-6{fill:#ba7d4a;}.cls-7{fill:#66340a;}.cls-8{fill:#bf834c;}.cls-9{fill:#c68d66;}.cls-10{fill:#cc9266;}.cls-11{fill:#99643d;}.cls-12{fill:#48a4cc;}.cls-13{fill:#932c2c;}.cls-14{fill:#f3fdff;}</style></defs><title>people</title><g id="Layer_2" data-name="Layer 2"><g id="Layer_1-2" data-name="Layer 1"><path class="cls-1" d="M273.67,0C-132.16,0,129.2,655.91,193.55,750.75c56,82.52,732,242.83,773.22,91.52S528.23,0,273.67,0Z"/><path class="cls-2" d="M520.84,185.06l-26.2-27.45a14.56,14.56,0,0,0-19.16-1.67l-48.89,35.28L378,155.94a14.54,14.54,0,0,0-19.15,1.67l-26.2,27.45a14.54,14.54,0,0,0-1.93,17.57l31.55,52.19h63.77l.81-3.94.56,3.94h63.77l31.55-52.19A14.56,14.56,0,0,0,520.84,185.06Z"/><rect class="cls-3" x="276.4" y="283.37" width="299.35" height="188.34"/><path class="cls-3" d="M265.3,232H586.85a2,2,0,0,1,2,2v72.42a0,0,0,0,1,0,0H263.3a0,0,0,0,1,0,0V234A2,2,0,0,1,265.3,232Z"/><rect class="cls-4" x="392.87" y="232.02" width="69.14" height="239.68"/><rect class="cls-5" x="276.4" y="306.45" width="299.35" height="19.76"/><rect class="cls-2" x="392.87" y="306.45" width="69.14" height="19.76"/><path class="cls-6" d="M105.58,245.9c-7.75,9.41-8.68,22.76,0,31.44.48.48-36.94,8.7-36.94,8.7l-5.12-66.58Z"/><path class="cls-7" d="M115.22,127.59c23.24-8.51,33,19.9,17.55,30.2C118.77,167.14,115.22,127.59,115.22,127.59Z"/><path class="cls-8" d="M129.24,150c-2.13,36.28,6.69,35.93,17.84,52.21a4.29,4.29,0,0,1,.41,4.61l-25.36,44.29a4,4,0,0,1-3.78,2c-15.46-1.08-41.22-10.92-41.22-10.92L36.72,172.87,108.31,134Z"/><path class="cls-6" d="M90,708.26c-2.3,1.72-33.3,224.47-33.3,224.47,0,23.54,23,39.61,29.85,37.32s-9.76-37.32-9.76-37.32,17.8-66,21.25-69.46,27-81.52,27-81.52v-97.6Z"/><path class="cls-8" d="M95.58,688.5l52.21,257.69c14.64,5.85,52.47,5.24,52.47-5.09,0-6.31-33.29-10.91-33.29-10.91s-9.76-96.44-9.76-103.91-4-137.78-4-137.78Z"/><path class="cls-4" d="M92.85,280.26c-50.72,0-43.4,54.17-43.4,71.74s14.07,45.39,14.07,128.84c0,45.39,9.52,80.53,9.52,121.52s-9.52,104-9.52,104c25.46,0,38.64,13.17,62.06,13.17s64.19-8.78,64.19-8.78c-17.34-13.18-10-67.35-10-111.27s-22-102.49-22-128.85S183.1,280.26,92.85,280.26Z"/><path class="cls-7" d="M77.61,189.86c-4.36-9-18.82-2.73-9,22.64,4.48,11.29,9.85,13.75,12.56,14.24a1,1,0,0,1,.63,1.52c-8.72,13-7.71,50.85-7.71,61.15,0,14.1,8.82,33.28,8.82,66,0,23.69-17.11,39-27.07,63.74-4.07,10.1-7.33,33.27-7.33,33.27-13,0-33.28-48.5-33.28-69.37,0-42.3,11.28-50.2,11.28-81.22C26.51,255,0,226.81,0,193s22.56-59.79,41.46-59.79c.7.71,12.4-21.72,51.39-21.72,23.88,0,46.65,12.47,47.35,29.08.54,12.73-4.2,11.74-9.44,7.4C107.58,180.61,77.61,189.86,77.61,189.86Z"/><path class="cls-8" d="M90.66,262.73c-16.57,0-27.14,18.95-27.14,41.48,0,33.81,87.58,133.93,100.38,133.93,28.17,0,126.12-14.89,126.12-14.89L314.76,421a11.58,11.58,0,0,0,9.62-12.55h0c-.56-5.81-2.35-9.29-8.18-9.47l-30.75,5.79c-22,4.13-98.19-9.36-105.61-9.84a1,1,0,0,1-.83-.55C170.82,378,113.65,262.73,90.66,262.73Z"/><path class="cls-3" d="M200.26,941.1c0-5.43-24.64-9.59-31.51-10.64-8.32,0-17.36.49-23.76,1.91l2.8,13.82C162.43,952,200.26,951.43,200.26,941.1Z"/><path class="cls-3" d="M76.89,932.51c-6,.93-13.68,1.46-20.07-.35l-.08.57c0,23.54,23,39.61,29.85,37.32s-9.76-37.32-9.76-37.32Z"/><path class="cls-8" d="M299.21,402l2,17.07s5.61,3.91,19.51,3.6c14.05-.32,35-1.34,35-19.64,0-8.66-30-5.76-30.16-7.53s9.9-9.69,6.57-11.82C329.46,382.06,299.21,402,299.21,402Z"/><path class="cls-8" d="M617.82,251.58a1.5,1.5,0,0,0,0-3,1.5,1.5,0,0,0,0,3Z"/><path class="cls-9" d="M775.9,234.17c12.22,0,8.79,37.8,8.79,37.8l52.67-12.73c-9.25,0-11.72-58.86-11.72-58.86l-54,19.9Z"/><path class="cls-10" d="M791.21,101.64l-49.37,8.52-11.17,21.91c18.11,0,6.56,46.22,4.64,53.2-.4,1.46-.46,2.55.66,3.13,6.25,3.2,12.64,12.78,17.84,23.19a1.18,1.18,0,0,0,1.06.63A22.8,22.8,0,0,0,769,207.37c.93-.68,2.48,1.11,1.72,1.94a31.57,31.57,0,0,1-13.57,8.58,1.07,1.07,0,0,0-.67,1.48c3.32,7,8.93,16.12,10.5,16.12,19.7,0,71.72-29.79,71.72-29.79Z"/><path class="cls-11" d="M726,139a1.16,1.16,0,0,1-2.09-.75c2-15.66,14.27-35.89,19.61-38.82,16-8.22,57.7-15.06,73.21-11.41,4.85,1.37,32,26,35.88,30.57,8.24,10.49,14.65,40.75,14.17,50-1.73,13.92-33.61,44-42.49,50.45a1.18,1.18,0,0,1-1.87-.75c-1.59-13-17.91-27.07-22.14-30.5a2,2,0,0,1-.67-2c1.64-6.43,8.46-35.71-2.76-35.71a9.52,9.52,0,0,0-7.75,3.64,2,2,0,0,1-3.41-.61c-3.67-10.25-.64-25.53-18.91-27.68C749.38,123.32,731.18,132.23,726,139Z"/><path class="cls-7" d="M787.68,961.48s-29.06,11.14-29.06,21.33,84.94-4.6,84.94-13-3.44-31-3.44-31Z"/><path class="cls-12" d="M756.81,516c-1.39,6.78.55,38.24,3,76,1.48,22.79,6.74,131.57,8,154.89,3.72,70.13,19.89,214.62,19.89,214.62,12.83,6.72,45.54,5.77,55.91,0,.74-.2-7.49-155.86-6.23-187.74s18.79-219.53,18.79-243.38-18.62-45.69-18.62-45.69Z"/><path class="cls-3" d="M863.1,516.52c-23.84,15.07-86.43,1.48-111.67,8.63-1.14-.94,2-67,2-83.9s3.34-97.51,6.12-99.86,55.88-95.34,55.88-95.34,10.57-14.86,18.87-4.52c9.84,12.25,21.28,67.18,21.85,108.9.25,18.65-1.57,67.32,0,102C857.93,491.89,863.1,516.52,863.1,516.52Z"/><path class="cls-10" d="M817.74,241.53c-32.63,0-83.16,135.64-86.86,145.69a1,1,0,0,1-.83.63c-28.28,2-120.47,16.41-132.56,19.31-.15,0-33.59-.88-53.85,1.23-8,.82-8.51,12.26-.64,13.82l45.6,3.62c30.26,4.47,162.81-.79,171.87-1.42a1,1,0,0,0,.73-.42C767.46,414.65,882.7,241.53,817.74,241.53Z"/><path class="cls-13" d="M764.4,302.56c18.36,6.9,49.9,14.57,57.74,26.51a1.19,1.19,0,0,0,2.11-.21c4.93-14.64,28-85.11,2.47-93.37C800.52,227,769,290,763.34,301,763,301.73,763.59,302.26,764.4,302.56Z"/><path class="cls-4" d="M569.67,347.61a1.5,1.5,0,0,0,0-3,1.5,1.5,0,0,0,0,3Z"/><path class="cls-10" d="M573.3,408.67l3,14.08s-5.61,3.9-19.51,3.59c-14.05-.31-35-1.71-35-13.48,0-8.66,28.21-5.77,28.42-7.55s-15.68-7.8-10.87-11.85C541.76,391.48,573.3,408.67,573.3,408.67Z"/><path class="cls-14" d="M536.45,463.2c0,5.76-11.84,16.51-11.84,16.51,6.63,0,11.84,14.81,11.84,14.81,0-7.74,11-14.81,11-14.81C542.74,479.71,536.45,463.2,536.45,463.2Z"/><path class="cls-14" d="M316.46,498.74c0,5.76-11.84,16.5-11.84,16.5,6.63,0,11.84,14.81,11.84,14.81,0-7.73,11-14.81,11-14.81C322.75,515.24,316.46,498.74,316.46,498.74Z"/><path class="cls-14" d="M566.34,210.22c0,5.76-11.84,16.5-11.84,16.5,6.62,0,11.84,14.81,11.84,14.81,0-7.74,11-14.81,11-14.81C572.63,226.72,566.34,210.22,566.34,210.22Z"/><path class="cls-14" d="M272.08,330.79c0,5.76-11.85,16.5-11.85,16.5,6.63,0,11.85,14.81,11.85,14.81,0-7.74,11-14.81,11-14.81C278.37,347.29,272.08,330.79,272.08,330.79Z"/><path class="cls-14" d="M340.25,87c0,5.76-11.84,16.5-11.84,16.5,6.62,0,11.84,14.82,11.84,14.82,0-7.74,11-14.82,11-14.82C346.54,103.46,340.25,87,340.25,87Z"/></g></g></svg>