<svg xmlns="http://www.w3.org/2000/svg" viewBox="0 0 74 27.32"><defs><style>.cls-1{fill:#cc7171;}.cls-2{fill:#ffe7cc;}.cls-3{fill:#b25959;}</style></defs><title>pink</title><g id="Layer_2" data-name="Layer 2"><g id="Layer_1-2" data-name="Layer 1"><path class="cls-1" d="M1,8.32H73a0,0,0,0,1,0,0v18.5a.5.5,0,0,1-.5.5H1.5a.5.5,0,0,1-.5-.5V8.32A0,0,0,0,1,1,8.32Z"/><path class="cls-2" d="M43.62,2.25,41.78.32A1,1,0,0,0,40.43.2L37,2.68,33.57.2a1,1,0,0,0-1.35.12L30.38,2.25a1,1,0,0,0-.14,1.24l2.22,3.67H37L37,6.88l0,.28h4.49l2.22-3.67A1,1,0,0,0,43.62,2.25Z"/><path class="cls-1" d="M.5,5.82h73a.5.5,0,0,1,.5.5v3.5a0,0,0,0,1,0,0H0a0,0,0,0,1,0,0V6.32A.5.5,0,0,1,.5,5.82Z"/><rect class="cls-3" x="1" y="9.85" width="72" height="1"/></g></g></svg>