<svg xmlns="http://www.w3.org/2000/svg" viewBox="0 0 54 56.38"><defs><style>.cls-1{fill:#993131;}.cls-2{fill:#c16c6c;}.cls-3{fill:#ffd199;}.cls-4{fill:#f9a826;}.cls-5{fill:#f29e22;}.cls-6{fill:#7f2626;}</style></defs><title>red-gift_1</title><g id="Layer_2" data-name="Layer 2"><g id="Layer_1-2" data-name="Layer 1"><path class="cls-1" d="M1,16.38H53a0,0,0,0,1,0,0v39.5a.5.5,0,0,1-.5.5H1.5a.5.5,0,0,1-.5-.5V16.38A0,0,0,0,1,1,16.38Z"/><circle class="cls-2" cx="6.5" cy="21.88" r="3"/><circle class="cls-2" cx="30.5" cy="36.88" r="3"/><circle class="cls-2" cx="10.5" cy="46.88" r="3"/><circle class="cls-2" cx="40.5" cy="16.88" r="3"/><circle class="cls-2" cx="48.5" cy="51.88" r="3"/><path class="cls-3" d="M20.65,9.29,18,6.38a1,1,0,0,1,.83-1.67L21.45,5l-.12-2.29A1,1,0,0,1,23,1.84l2.27,1.9L26.8.56a1,1,0,0,1,1.86.15l.91,3,1.86-1.21A1,1,0,0,1,33,3.51L32.62,5l2.47-.51A1,1,0,0,1,36,6.12L32.94,9.29Z"/><path class="cls-1" d="M.5,8.38h53a.5.5,0,0,1,.5.5v7.5a0,0,0,0,1,0,0H0a0,0,0,0,1,0,0V8.88A.5.5,0,0,1,.5,8.38Z"/><rect class="cls-4" x="25" y="8.38" width="4" height="48"/><rect class="cls-5" x="25" y="16.38" width="4" height="1.03"/><rect class="cls-6" x="1" y="16.41" width="24" height="1"/><rect class="cls-6" x="29" y="16.41" width="24" height="1"/></g></g></svg>