<svg id="Layer_1" data-name="Layer 1" xmlns="http://www.w3.org/2000/svg" viewBox="0 0 100 100"><defs><style>.cls-1{fill:#b2b2b2;}.cls-2{fill:#a5a29d;}.cls-3{fill:#fffbf5;}.cls-4{fill:#eae5df;}.cls-5{fill:#fff;}.cls-6{fill:#e5960a;}.cls-7{fill:#d88500;}.cls-8{fill:#fcb514;}.cls-9{fill:#eaa00c;}.cls-10{fill:#e5e5e5;}.cls-11{fill:none;stroke:#000;stroke-linecap:round;stroke-linejoin:round;stroke-width:2px;}</style></defs><title>Artboard 3</title><polygon class="cls-1" points="95 55.22 95 59.5 58 62.5 58 58 95 55.22"/><polygon class="cls-2" points="58 58 58 60 95 57.22 95 55.22 58 58"/><path class="cls-3" d="M95,49.5v5.72L58,58V71.5l3,.82V85.5H39V72.32l3-.82V58L5,55.22V49.5l37-11c0-2.5,0-4.73.11-6.73,0-.26,0-.51,0-.77H57.86c0,.37,0,.72,0,1.1.06,1.92.09,4,.09,6.4Z"/><path class="cls-4" d="M58,38.5c0-2.36,0-4.48-.09-6.4,0-.38,0-.73,0-1.1H42.15c0,.26,0,.51,0,.77C42,33.77,42,36,42,38.5c0,0,0-2.73.11-4.73,0-.26,0-.51,0-.77H57.86c0,.37,0,.72,0,1.1C58,36,58,38.5,58,38.5Z"/><path class="cls-5" d="M77,36c3.73,0,6.51.07,6.51.5s-2.7.49-6.36.49Q77.07,36.47,77,36Z"/><path class="cls-6" d="M77.81,44.39l-5.47-1.63c.17-2.22.4-4.14.65-5.77h4.15C77.42,39,77.66,41.4,77.81,44.39Z"/><path class="cls-7" d="M72.51,40.81c-.06.62-.12,1.27-.17,1.95l5.47,1.63c0-.71-.08-1.39-.12-2Z"/><path class="cls-5" d="M77.14,37H73c.05-.34.1-.67.16-1H77Q77.07,36.47,77.14,37Z"/><path class="cls-5" d="M77,36H73.15A27.63,27.63,0,0,1,75,29S76.12,30.49,77,36Z"/><path class="cls-5" d="M73.15,36c-.06.31-.11.64-.16,1-3.72,0-6.49-.06-6.49-.49S69.35,36,73.15,36Z"/><polygon class="cls-8" points="69 74.5 69 85.5 61 85.5 61 72.32 69 74.5"/><polygon class="cls-9" points="61 72.32 61 85.5 63 85.5 63 72.86 61 72.32"/><path class="cls-10" d="M46,28a32.28,32.28,0,0,0,2.9-3.7Zm4,0a32.28,32.28,0,0,0,2.9-3.7Zm7.85,3H42.15a46.21,46.21,0,0,1,.64-6.37c0-.22.08-.42.13-.63H57.09c.07.31.13.62.19.95A50.57,50.57,0,0,1,57.86,31Z"/><path class="cls-3" d="M57.09,24H42.92c1-4.56,3-6.49,7.08-6.47S56.09,19.42,57.09,24Z"/><path class="cls-4" d="M50,19.53c3.4,0,5.38,1.33,6.52,4.47h.57c-1-4.58-3-6.49-7.09-6.47S43.92,19.44,42.92,24h.57C44.63,20.87,46.6,19.51,50,19.53Z"/><path class="cls-5" d="M50,28l2.9-3.7A32.28,32.28,0,0,1,50,28Z"/><path class="cls-5" d="M46,28l2.9-3.7A32.28,32.28,0,0,1,46,28Z"/><polygon class="cls-1" points="42 58 42 62.5 5 59.5 5 55.22 42 58"/><polygon class="cls-2" points="5 55.22 5 57.22 42 60 42 58 5 55.22"/><polygon class="cls-8" points="39 72.32 39 85.5 31 85.5 31 74.5 39 72.32"/><polygon class="cls-9" points="37 72.86 37 85.5 39 85.5 39 72.32 37 72.86"/><path class="cls-5" d="M27,36c3.73,0,6.51.07,6.51.5s-2.7.49-6.36.49Q27.07,36.47,27,36Z"/><path class="cls-6" d="M27.72,42.75l-5.49,1.63c.17-2.93.45-5.37.76-7.39h4.15C27.37,38.59,27.57,40.5,27.72,42.75Z"/><path class="cls-7" d="M22.37,42.34c-.05.65-.1,1.33-.14,2l5.49-1.63c0-.69-.1-1.33-.15-2Z"/><path class="cls-5" d="M27.14,37H23c.05-.34.1-.67.16-1H27Q27.07,36.47,27.14,37Z"/><path class="cls-5" d="M27,36H23.15A27.63,27.63,0,0,1,25,29S26.12,30.49,27,36Z"/><path class="cls-5" d="M23.15,36c-.06.31-.11.64-.16,1-3.72,0-6.49-.06-6.49-.49S19.35,36,23.15,36Z"/><path class="cls-11" d="M27.14,37c.23,1.6.43,3.51.58,5.76"/><path class="cls-11" d="M23.15,36A27.63,27.63,0,0,1,25,29s1.12,1.49,2,7"/><path class="cls-11" d="M22,44.36c.32-2.92.72-5.34,1.13-7.34"/><path class="cls-11" d="M27,36c3.73,0,6.51.07,6.51.5s-2.7.49-6.36.49H23c-3.72,0-6.49-.06-6.49-.49S19.35,36,23.15,36H27Z"/><path class="cls-11" d="M77.14,37c.28,2,.52,4.41.67,7.4"/><path class="cls-11" d="M73.15,36A27.63,27.63,0,0,1,75,29s1.12,1.49,2,7"/><path class="cls-11" d="M72.34,42.76c.17-2.22.4-4.14.65-5.77"/><path class="cls-11" d="M77,36c3.73,0,6.51.07,6.51.5s-2.7.49-6.36.49H73c-3.72,0-6.49-.06-6.49-.49S69.35,36,73.15,36H77Z"/><polyline class="cls-11" points="61 85.5 69 85.5 69 74.5 61 72.32"/><polyline class="cls-11" points="39 72.32 31 74.5 31 85.5 39 85.5"/><path class="cls-11" d="M57.09,24c-1-4.58-3-6.49-7.09-6.47S43.92,19.44,42.92,24"/><polyline class="cls-11" points="42 62.5 42 71.5 39 72.32 39 85.5 61 85.5 61 72.32 58 71.5 58 62.5"/><path class="cls-11" d="M42.15,31c0,.26,0,.51,0,.77C42,33.77,42,36,42,38.5L27.72,42.75l-5.49,1.63L5,49.5v5.72"/><path class="cls-11" d="M95,55.22V49.5L77.81,44.39l-5.47-1.63L58,38.5c0-2.36,0-4.48-.09-6.4,0-.38,0-.73,0-1.1"/><path class="cls-11" d="M57.86,31A50.57,50.57,0,0,0,57.28,25c-.06-.33-.12-.64-.19-.95H42.92c-.05.21-.09.41-.13.63A46.21,46.21,0,0,0,42.15,31Z"/><path class="cls-11" d="M50,28h0"/><path class="cls-11" d="M50,28a32.28,32.28,0,0,0,2.9-3.7Z"/><path class="cls-11" d="M46,28h0"/><path class="cls-11" d="M46,28a32.28,32.28,0,0,0,2.9-3.7Z"/><polygon class="cls-11" points="42 62.5 42 58 5 55.22 5 59.5 42 62.5"/><polygon class="cls-11" points="58 62.5 58 58 95 55.22 95 59.5 58 62.5"/></svg>