<svg id="Layer_1" data-name="Layer 1" xmlns="http://www.w3.org/2000/svg" viewBox="0 0 100 100"><defs><style>.cls-1{fill:#fffbf5;}.cls-2{fill:#fcb514;}.cls-3{fill:#e5960a;}.cls-4{fill:#eae5df;}.cls-5{fill:#e5e5e5;}.cls-6{fill:#d88500;}.cls-7{fill:#fff;}.cls-8{fill:none;stroke:#000;stroke-linecap:round;stroke-linejoin:round;stroke-width:2px;}</style></defs><title>Artboard 4</title><path class="cls-1" d="M48.67,45h2.66l.67.67L51.1,47,61.32,57.82C59.32,62.06,56.46,65,53,69l-2,24.4a1,1,0,0,1-2,0L47,69c-3-3.5-5.9-6.76-8-11.36L49,47l-.94-1.44Z"/><path class="cls-2" d="M72.55,16.83,74.67,19,64.29,29.33c-.07-1.38-.16-2.7-.28-4Z"/><polygon class="cls-3" points="65.5 85 65.5 89.74 53.59 88.21 54.29 82.11 65.5 85"/><path class="cls-2" d="M51.33,38.05,63.82,25.56l.19-.19c.12,1.26.21,2.58.28,4L53.45,40.17Z"/><path class="cls-1" d="M63.76,25l.06.56L51.33,38.05H48.67L36.12,25.5l.06-.5Z"/><path class="cls-2" d="M63.16,52.54,74.67,64.05l-2.12,2.12-9.86-9.86c.11-.26.21-.51.31-.78L62.45,55C62.71,54.21,63,53.4,63.16,52.54Z"/><path class="cls-2" d="M62.45,55l.55.55c-.1.27-.2.52-.31.78l-.52-.52C62.27,55.53,62.36,55.26,62.45,55Z"/><path class="cls-2" d="M62.16,55.78,52,45.62l.43-.67,10,10c-.09.28-.18.55-.28.81Z"/><path class="cls-4" d="M62.17,55.79l.52.52c-.29.7-.6,1.36-.91,2l-.46-.49C61.62,57.18,61.91,56.5,62.17,55.79Z"/><path class="cls-5" d="M47,17a34.31,34.31,0,0,0,2.87-3.67Zm-4,0a34.31,34.31,0,0,0,2.87-3.67Zm20.72,6H36.18A34.2,34.2,0,0,1,38.6,13H61.24A33.69,33.69,0,0,1,63.76,23Z"/><path class="cls-1" d="M60.1,13H39.7C41.91,9.62,45.19,8,50,8S57.89,9.69,60.1,13Z"/><polygon class="cls-6" points="53.59 88.21 65.5 89.74 65.5 90 51.59 88.21 52.35 81.61 54.29 82.11 53.59 88.21"/><path class="cls-4" d="M64.41,32.21l-10,10-2.12-2.12,1.12.12L64.29,29.33Q64.37,30.73,64.41,32.21Z"/><path class="cls-2" d="M53.45,42.83l9.7,9.7h0c-.21.86-.45,1.67-.71,2.44l-10-10-.43.67L51.33,45Z"/><path class="cls-4" d="M52,45.62,62.16,55.78h0c-.26.71-.55,1.39-.85,2L51.1,47Z"/><circle class="cls-1" cx="51" cy="43.5" r="1"/><circle cx="50" cy="41.5" r="1"/><path class="cls-7" d="M47,17l2.87-3.67A34.31,34.31,0,0,1,47,17Z"/><path class="cls-4" d="M49,47,39,57.62c-.3-.67-.6-1.36-.87-2.09l10-10Z"/><path class="cls-1" d="M51,44.5a1,1,0,1,0-1-1A1,1,0,0,0,51,44.5Zm.33.45H48.67l-2.12-2.12V40.17l2.12-2.12h2.66l2.12,2.12-1.12-.12,2.12,2.12,10-10c.06,2,.09,4.08.09,6.29a59.78,59.78,0,0,1-1.34,14h0l-9.7-9.7ZM49,41.5a1,1,0,1,0,1-1A1,1,0,0,0,49,41.5Z"/><polygon class="cls-6" points="48.41 88.21 34.5 90 34.5 89.74 46.41 88.21 45.71 82.11 47.65 81.61 48.41 88.21"/><path class="cls-2" d="M47.67,45l.39.61-10,10-.27-.73Z"/><path class="cls-2" d="M47.67,45,37.83,54.8c-.27-.79-.53-1.62-.76-2.49l9.48-9.48L48.67,45l-.61.61Z"/><path class="cls-2" d="M46.55,39.17v1L35.69,29.31h0c0-.32,0-.63.06-.94Z"/><polygon class="cls-3" points="45.71 82.11 46.41 88.21 34.5 89.74 34.5 85 45.71 82.11"/><path class="cls-7" d="M43,17l2.87-3.67A34.31,34.31,0,0,1,43,17Z"/><path class="cls-4" d="M50,8c-4.81,0-8.09,1.62-10.3,5H38.6C40.77,8.25,44.32,6,50,6s9.06,2.35,11.24,7H60.1C57.89,9.69,54.67,8,50,8Z"/><path class="cls-4" d="M39,57.62l-.65.69c-.32-.66-.64-1.34-.94-2.06l.72-.72C38.37,56.26,38.67,57,39,57.62Z"/><path class="cls-2" d="M37.83,54.8l.27.73-.72.72-.28-.72Z"/><path class="cls-2" d="M37.83,54.8l-.73.73.28.72-9.93,9.92-2.12-2.12L37.07,52.31C37.3,53.18,37.56,54,37.83,54.8Z"/><path class="cls-1" d="M46.55,42.83l-9.48,9.48A53,53,0,0,1,35.5,38.5c0-2.22,0-4.32.08-6.3l10,10v.66l1-1Z"/><path class="cls-2" d="M36.12,25.5,48.67,38.05l-2.12,2.12v-1L35.74,28.36c0-1.05.13-2.07.21-3Z"/><path class="cls-4" d="M63.76,25H36.18l-.06.5L36,25.33c.06-.81.14-1.58.23-2.33H63.76c.09.76.18,1.55.25,2.37l-.19.19Z"/><path class="cls-2" d="M35.64,29.26,25.33,19l2.12-2.12,8.5,8.5c-.08,1-.16,2-.21,3l-.05-.05h0C35.66,28.61,35.65,28.93,35.64,29.26Z"/><path class="cls-4" d="M45.55,42.17l-10-10c0-1,.06-2,.1-2.89h0L46.55,40.17v1.66l-1,1Z"/><path class="cls-4" d="M35.68,29.31c0,.93-.08,1.89-.1,2.89l0,0q0-1.5.09-2.91l0,0Z"/><path class="cls-2" d="M35.64,29.26c0-.33,0-.65,0-1h0l.05.05c0,.31,0,.62-.06.94Z"/><polygon class="cls-8" points="45.71 82.11 34.5 85 34.5 89.74 34.5 90 48.41 88.21 47.65 81.61 45.71 82.11"/><polygon class="cls-8" points="65.5 89.74 65.5 85 54.29 82.11 52.35 81.61 51.59 88.21 65.5 90 65.5 89.74"/><path class="cls-8" d="M61.24,13C59.06,8.35,55.54,6,50,6s-9.23,2.25-11.4,7"/><path class="cls-8" d="M63.76,23a33.69,33.69,0,0,0-2.52-10H38.6a34.2,34.2,0,0,0-2.42,10"/><path class="cls-8" d="M64,25.37c-.07-.82-.16-1.61-.25-2.37H36.18c-.09.75-.17,1.52-.23,2.33"/><path class="cls-8" d="M63.16,52.54a59.78,59.78,0,0,0,1.34-14c0-2.21,0-4.3-.09-6.29q0-1.49-.12-2.88"/><path class="cls-8" d="M38.1,55.53c.27.73.57,1.42.87,2.09,2.13,4.6,5,7.86,8,11.36l2,24.4a1,1,0,0,0,2,0L53,69c3.46-4,6.32-6.92,8.32-11.16.3-.64.59-1.32.85-2"/><path class="cls-8" d="M35.68,29.31c0,.93-.08,1.89-.1,2.89-.06,2-.08,4.08-.08,6.3a53,53,0,0,0,1.57,13.81"/><path class="cls-8" d="M49.91,13.29A34.31,34.31,0,0,1,47,17l0,0"/><line class="cls-8" x1="47" y1="17" x2="47.01" y2="16.99"/><path class="cls-8" d="M45.91,13.29A34.31,34.31,0,0,1,43,17l0,0"/><line class="cls-8" x1="43" y1="17" x2="43.01" y2="16.99"/><polygon class="cls-8" points="64.29 29.33 74.67 18.95 72.55 16.83 64.01 25.37 63.82 25.56 51.33 38.05 53.45 40.17 64.29 29.33"/><polygon class="cls-8" points="35.95 25.33 27.45 16.83 25.33 18.95 35.64 29.26 35.68 29.3 35.68 29.31 35.69 29.31 46.55 40.17 48.67 38.05 36.12 25.5 35.95 25.33"/><polygon class="cls-8" points="63.16 52.54 63.15 52.53 53.45 42.83 51.33 44.95 52 45.62 62.16 55.78 62.17 55.79 62.69 56.31 72.55 66.17 74.67 64.05 63.16 52.54"/><polygon class="cls-8" points="46.55 42.83 37.07 52.31 25.33 64.05 27.45 66.17 37.38 56.25 38.1 55.53 48.06 45.56 48.67 44.95 46.55 42.83"/></svg>