<svg id="Layer_1" data-name="Layer 1" xmlns="http://www.w3.org/2000/svg" viewBox="0 0 100 100"><defs><style>.cls-1{fill:#b2b2b2;}.cls-2{fill:#a5a29d;}.cls-3{fill:#e5960a;}.cls-4{fill:#d88500;}.cls-5{fill:#fcb514;}.cls-6{fill:#eaa00c;}.cls-7{fill:#fffbf5;}.cls-8{fill:#eae5df;}.cls-9{fill:#e5e5e5;}.cls-10{fill:#d8d8d8;}.cls-11{fill:none;stroke:#000;stroke-linecap:round;stroke-linejoin:round;stroke-width:2px;}</style></defs><title>Artboard 5</title><polygon class="cls-1" points="59 87.5 57 92 52 92 50 87.5 59 87.5"/><polygon class="cls-2" points="58.11 89.5 59 87.5 50 87.5 50.89 89.5 58.11 89.5"/><polygon class="cls-1" points="50 87.5 48 92 43 92 41 87.5 50 87.5"/><polygon class="cls-2" points="49.11 89.5 50 87.5 41 87.5 41.89 89.5 49.11 89.5"/><polygon class="cls-1" points="91 51.88 91 66.5 88 66.5 88 57.5 88 50 91 51.88"/><polygon class="cls-3" points="75 78 77 85.5 75 89 59 86.44 59 84 67 84 67 76 66.74 75.69 75 78"/><polygon class="cls-4" points="69 86 69 76.32 66.74 75.69 67 76 67 84 59 84 59 85.44 69 86"/><path class="cls-3" d="M76,53v.36L72,52c.12-3.94,1-9,2-9S76,48.58,76,53Z"/><path class="cls-4" d="M72.13,50c-.05.67-.09,1.33-.11,2l4,1.37V53c0-.54,0-1.09,0-1.65Z"/><path class="cls-3" d="M67,49c0,.43,0,.84,0,1.25l-4-1.37c0-4.36.91-9.88,2-9.88S67,44.58,67,49Z"/><path class="cls-4" d="M67,48.25l-3.9-1.35c0,.67-.06,1.34-.07,2l4,1.37c0-.41,0-.82,0-1.25s0-.75,0-1.13C67,48,67,48.12,67,48.25Z"/><polygon class="cls-5" points="66.74 75.69 59 66.5 59 73.52 59 84 67 84 67 76 66.74 75.69"/><polygon class="cls-6" points="61 68.88 59 66.5 59 73.52 59 84 61 84 61 73.52 61 68.88"/><path class="cls-7" d="M76,53.36,72,52,67,50.25l-4-1.37L59,47.5s-1.76-6.16-5.28-9c-.06-2.11-.13-4.28-.22-6.46h-7c-.09,2.18-.16,4.35-.22,6.46-3.52,2.88-5.28,9-5.28,9l-28,10v9H41v21H59v-21H88v-9Z"/><polygon class="cls-8" points="57 74.52 57 85 57 87.44 57 88.5 59 88.5 59 87.44 59 85 59 74.52 59 67.5 57 67.5 57 74.52"/><path class="cls-8" d="M76,54.36,72,53,67,51.25l-4-1.37L59,48.5s-1.76-6.16-5.28-9c-.06-2.11-.13-4.28-.22-6.46h-2c.09,2.18.16,4.35.22,6.46,3.52,2.88,5.28,9,5.28,9l4,1.38,4,1.37L70,53l4,1.37L86,58.5v9h2v-9Z"/><path class="cls-9" d="M53.5,32h-7c.18-4.53.43-9.06.77-13h5.46C53.07,22.94,53.32,27.47,53.5,32Z"/><path class="cls-10" d="M52.73,19h-2c.34,3.94.59,8.47.77,13h2C53.32,27.47,53.07,22.94,52.73,19Z"/><polygon class="cls-3" points="41 84 41 86.44 25 89 23 85.5 25 78 33.26 75.69 33 76 33 84 41 84"/><polygon class="cls-4" points="33 84 33 76 33.26 75.69 31 76.32 31 86 41 85.44 41 84 33 84"/><polygon class="cls-5" points="33.26 75.69 33 76 33 84 41 84 41 73.52 41 66.5 33.26 75.69"/><polygon class="cls-6" points="39 68.88 39 73.52 39 84 41 84 41 73.52 41 66.5 39 68.88"/><path class="cls-3" d="M37,48.88l-4,1.37c0-.41,0-.82,0-1.25,0-4.42.9-10,2-10S37,44.52,37,48.88Z"/><path class="cls-4" d="M33,48.25c0-.13,0-.26,0-.38,0,.38,0,.76,0,1.13s0,.84,0,1.25l4-1.37c0-.64,0-1.31-.06-2Z"/><path class="cls-3" d="M28,52l-4,1.37c0-.12,0-.24,0-.36,0-4.42.9-10,2-10S27.86,48.05,28,52Z"/><path class="cls-4" d="M24,51.35c0,.56,0,1.11,0,1.65,0,.12,0,.24,0,.36L28,52c0-.63-.06-1.3-.11-2Z"/><polygon class="cls-1" points="13 57.5 13 66.5 10 66.5 10 51.88 13 50 13 57.5"/><polyline class="cls-11" points="41 86.44 25 89 23 85.5 25 78 33.26 75.69"/><polyline class="cls-11" points="66.74 75.69 75 78 77 85.5 75 89 59 86.44"/><path class="cls-11" d="M53.5,32c-.18-4.53-.43-9.06-.77-13"/><path class="cls-11" d="M47.27,19c-.34,3.94-.59,8.47-.77,13"/><line class="cls-11" x1="59" y1="66.5" x2="88" y2="66.5"/><polyline class="cls-11" points="59 87.5 59 86.44 59 84"/><polyline class="cls-11" points="41 84 41 86.44 41 87.5"/><line class="cls-11" x1="13" y1="66.5" x2="41" y2="66.5"/><path class="cls-11" d="M63,48.88,59,47.5s-1.76-6.16-5.28-9c-.06-2.11-.13-4.28-.22-6.46h-7c-.09,2.18-.16,4.35-.22,6.46-3.52,2.88-5.28,9-5.28,9l-28,10"/><line class="cls-11" x1="72.02" y1="51.99" x2="66.97" y2="50.25"/><line class="cls-11" x1="88" y1="57.5" x2="76" y2="53.36"/><path class="cls-11" d="M76,53.36V53c0-4.42-.9-10-2-10s-1.86,5-2,9Z"/><path class="cls-11" d="M67,50.25c0-.41,0-.82,0-1.25,0-4.42-.9-10-2-10s-2,5.52-2,9.88Z"/><path class="cls-11" d="M24.12,53.4c0-.12,0-.24,0-.36-.1-4.42.68-10,1.78-10s2,5,2.18,8.94Z"/><path class="cls-11" d="M33,50.25c0-.41,0-.82,0-1.25,0-4.42.9-10,2-10s2,5.52,2,9.88Z"/><path class="cls-7" d="M52.47,19.11,47,18.88C47.9,12,49,7,50.25,7S52.18,12.17,52.47,19.11Z"/><path class="cls-7" d="M52.73,19H47.27C47.86,12.07,48.73,7,50,7S52.14,12.07,52.73,19Z"/><path class="cls-8" d="M50,7c-.37,0-.7.43-1,1.2.75,1.89,1.31,5.87,1.73,10.8h2C52.14,12.07,51.27,7,50,7Z"/><path class="cls-11" d="M52.73,19C52.14,12.08,51.27,7,50,7s-2.14,5.08-2.73,12Z"/><line class="cls-11" x1="52.83" y1="20.86" x2="50" y2="24"/><line class="cls-11" x1="52.83" y1="24.86" x2="50" y2="28"/><polygon class="cls-11" points="13 57.5 13 50 10 51.88 10 66.5 13 66.5 13 57.5"/><polygon class="cls-11" points="88 57.5 88 50 91 51.88 91 66.5 88 66.5 88 57.5"/><polygon class="cls-11" points="50 87.5 48 92 43 92 41 87.5 50 87.5"/><polygon class="cls-11" points="59 87.5 57 92 52 92 50 87.5 59 87.5"/><polygon class="cls-11" points="33.26 75.69 33 76 33 84 41 84 41 73.52 41 66.5 33.26 75.69"/><polygon class="cls-11" points="66.74 75.69 67 76 67 84 59 84 59 73.52 59 66.5 66.74 75.69"/></svg>