<svg id="Layer_1" data-name="Layer 1" xmlns="http://www.w3.org/2000/svg" viewBox="0 0 100 100"><defs><style>.cls-1{fill:#e5e5e5;}.cls-2{fill:#f5d376;}.cls-3{fill:#eeb211;}.cls-4{fill:#d8d8d8;}.cls-5{fill:#eac468;}.cls-6{fill:#e5a413;}</style></defs><title>another-lock</title><path class="cls-1" d="M24.22,57C24.22,18.8,35.94,9.77,51,9.84,69.17,9.93,80.08,26,80.08,57c-.84.68-7.73,0-7.73,0C71.78,36.22,68.16,16.41,52,16.41S32,36.07,32,57.34C31.68,58,24.22,57,24.22,57Z"/><rect class="cls-2" x="19.73" y="47.92" width="64.83" height="45.58" rx="2" ry="2"/><path class="cls-3" d="M53.06,69.29V63.86a1.54,1.54,0,0,0-1.54-1.54h0A1.54,1.54,0,0,0,50,63.86v5.43a5,5,0,1,0,3.09,0Z"/><path class="cls-3" d="M53.06,69.29V63.86a1.54,1.54,0,0,0-1.54-1.54h0A1.54,1.54,0,0,0,50,63.86v5.43a5,5,0,1,0,3.09,0Z"/><path class="cls-4" d="M52.15,9.88v6.53c16,.12,19.64,19.87,20.2,40.63,0,0,6.89.68,7.73,0C80.08,26.72,69.64,10.65,52.15,9.88Z"/><path class="cls-5" d="M82.57,47.92h-31V93.49h31a2,2,0,0,0,2-2V49.92A2,2,0,0,0,82.57,47.92Z"/><path class="cls-6" d="M53.06,69.29V63.86a1.54,1.54,0,0,0-1.54-1.54h0V79.1a5,5,0,0,0,1.54-9.81Z"/></svg>