<svg id="Layer_1" data-name="Layer 1" xmlns="http://www.w3.org/2000/svg" viewBox="0 0 100 100"><defs><style>.cls-1{fill:#e5e5e5;}.cls-2{fill:gray;}.cls-2,.cls-4{stroke:gray;}.cls-2,.cls-3,.cls-4,.cls-5{stroke-linejoin:round;}.cls-2,.cls-3,.cls-5{stroke-width:0.5px;}.cls-3{fill:#f5d376;stroke:#f5d376;stroke-linecap:round;}.cls-4{fill:none;stroke-width:2px;}.cls-5{stroke:#000;}</style></defs><title>bike</title><path class="cls-1" d="M20,74.83a19,19,0,1,1,19-19A19,19,0,0,1,20,74.83Z"/><path d="M20,37.77a18,18,0,1,1-18,18,18.05,18.05,0,0,1,18-18m0-2a20,20,0,1,0,20,20,20,20,0,0,0-20-20Z"/><path class="cls-1" d="M80,74.83a19,19,0,1,1,19-19A19.05,19.05,0,0,1,80,74.83Z"/><path d="M80,37.77a18,18,0,1,1-18,18,18.05,18.05,0,0,1,18-18m0-2a20,20,0,1,0,20,20,20,20,0,0,0-20-20Z"/><circle class="cls-2" cx="20.03" cy="55.8" r="2.28"/><circle class="cls-2" cx="79.97" cy="55.8" r="2.28"/><path class="cls-3" d="M69,26.81H67.55L68.17,28,36,29.91l-.7-1.67L34,28.7l.74,1.89L19.8,55.31A1.09,1.09,0,0,0,20.63,57l25,2.77L69.55,32s8.61,21,9.81,24.12c.39,1,1.6.65,1.09-.72C78.08,49,69,26.81,69,26.81ZM21.25,55.61,35.47,32.88l9.19,24.94ZM46,57.41l-9.43-26.1,31.91-2,.62,1.54Z"/><circle class="cls-4" cx="45.76" cy="59.36" r="5.22"/><polygon class="cls-3" points="45.16 59.36 48.67 67.98 50 67.98 46.31 57.82 45.16 59.36"/><polygon class="cls-2" points="67.55 26.81 72.47 23.38 73.39 24.23 69.06 27.33 67.55 26.81"/><polygon class="cls-2" points="71.73 23.89 68.85 23.38 68.85 22.21 73.39 22.92 73.39 24.23 71.73 23.89"/><rect class="cls-5" x="67.94" y="21.89" width="1.12" height="1.91"/><rect class="cls-5" x="64.11" y="22.21" width="4.74" height="1.17"/><polygon class="cls-2" points="33.95 28.7 31.77 22.79 33.39 22.79 35.33 28.24 33.95 28.7"/><polygon class="cls-5" points="28.12 23.89 28.12 21.24 35.42 21.84 36.97 21.84 36.97 23.34 35.47 23.34 28.12 23.89"/><rect class="cls-5" x="45.97" y="67.47" width="8.05" height="2.08"/></svg>