<svg id="Layer_1" data-name="Layer 1" xmlns="http://www.w3.org/2000/svg" viewBox="0 0 100 100"><defs><style>.cls-1,.cls-4{fill:#f5d376;}.cls-1{stroke:#f5d376;stroke-linecap:round;}.cls-1,.cls-2,.cls-3,.cls-5{stroke-linejoin:round;}.cls-1,.cls-2,.cls-3{stroke-width:0.5px;}.cls-2{stroke:#000;}.cls-3{fill:gray;stroke:gray;}.cls-5{fill:#e5e5e5;stroke:#e5e5e5;}.cls-6{fill:#eeb211;}</style></defs><title>front-bike</title><polygon class="cls-1" points="62.04 54.97 62.04 72.13 39.77 72.13 39.14 72.13 38.87 72.13 38.87 91.21 39.77 91.21 39.77 74.05 62.04 74.05 62.94 74.05 62.94 72.13 62.94 54.97 62.04 54.97"/><path class="cls-2" d="M49.65,47.09a1.37,1.37,0,0,0-1.2.64,8.15,8.15,0,0,0-.54,3.75V95.72a6.49,6.49,0,0,0,.65,2.5,1.42,1.42,0,0,0,1.32.86H51.7a1.4,1.4,0,0,0,1.09-.48,5.25,5.25,0,0,0,.77-3V51.84a8.51,8.51,0,0,0-.8-4,1.46,1.46,0,0,0-1.26-.71Z"/><path class="cls-3" d="M45.87,76.33V46.58c0-5.58,10.34-5.85,10.34,0,.12.18,0,29.75,0,29.75h2.52V46.58c0-9.8-15.75-9.2-15.75,0V76.33Z"/><path class="cls-1" d="M30.6,1.2c4.81,0,8.54,18.27,10.94,18.27h5.17v2.05H41.54c-5.17,0-7-17.31-10.94-17.31Z"/><path class="cls-1" d="M69.67,1.2c-4.81,0-8.53,18.27-10.94,18.27H53.56v2.05h5.17c5.17,0,7-17.31,10.94-17.31Z"/><path class="cls-4" d="M53.56,18.51H46.71a.36.36,0,0,0-.36.36V22.6a.36.36,0,0,0,.36.36h2l.59,23.63a.36.36,0,0,0,.36.35H51.5a.36.36,0,0,0,.36-.36V23h1.7a.36.36,0,0,0,.36-.36V18.87A.36.36,0,0,0,53.56,18.51Z"/><rect class="cls-5" x="69.67" y="0.92" width="11.06" height="3.45"/><rect class="cls-5" x="19.54" y="0.92" width="11.06" height="3.45"/><path class="cls-6" d="M53.56,18.51H46.71a.36.36,0,0,0-.36.36V22.6a.36.36,0,0,0,.36.36h2V23h3.16V23h1.7a.36.36,0,0,0,.36-.36V18.87A.36.36,0,0,0,53.56,18.51Z"/><rect class="cls-2" x="32.34" y="90.07" width="7.81" height="2.28"/><rect class="cls-2" x="61.71" y="53.82" width="7.81" height="2.28"/></svg>