<svg id="Layer_1" data-name="Layer 1" xmlns="http://www.w3.org/2000/svg" viewBox="0 0 100 100"><defs><style>.cls-1{fill:none;stroke:gray;stroke-width:2px;}.cls-1,.cls-2{stroke-linecap:round;}.cls-1,.cls-2,.cls-4{stroke-linejoin:round;}.cls-2{fill:#335170;stroke:#335170;}.cls-3{fill:#40617f;}.cls-4{stroke:#000;}</style></defs><title>helmet</title><line class="cls-1" x1="73.19" y1="96.11" x2="73.19" y2="39.91"/><line class="cls-1" x1="27.07" y1="59.41" x2="73.19" y2="68.01"/><path class="cls-2" d="M70.92,40.15c.09,3.93,5.27,3,5.27-.81l17.19-2.06V26.67c0-25-86.76-40.79-86.76,15.19,0,0,4.43,9.53,7.67,18.76H27.87l5-16.08Z"/><path class="cls-3" d="M73.68,22.64a.51.51,0,0,1-.2,0,58.17,58.17,0,0,0-18.63-4.31.51.51,0,0,1-.38-.2.5.5,0,0,1-.09-.41l1.37-6a.51.51,0,0,1,.43-.39A23.9,23.9,0,0,1,59,11.1a34.82,34.82,0,0,1,16.3,4.59.5.5,0,0,1,.23.54l-1.37,6a.5.5,0,0,1-.26.34A.59.59,0,0,1,73.68,22.64Z"/><path class="cls-3" d="M59,11.6a34.7,34.7,0,0,1,16,4.52l-1.37,6a58.46,58.46,0,0,0-18.81-4.35l1.37-6A23.67,23.67,0,0,1,59,11.6m0-1h0a22.77,22.77,0,0,0-2.89.18,1,1,0,0,0-.86.77l-1.37,6a1,1,0,0,0,.94,1.22,57.78,57.78,0,0,1,18.45,4.26,1,1,0,0,0,.4.09,1,1,0,0,0,1-.78l1.37-6a1,1,0,0,0-.46-1.08A35.4,35.4,0,0,0,59,10.6Z"/><rect class="cls-4" x="67.78" y="65.04" width="8.4" height="4.7"/></svg>