<svg id="Layer_1" data-name="Layer 1" xmlns="http://www.w3.org/2000/svg" viewBox="0 0 100 100"><defs><style>.cls-1{fill:#4c4c4c;stroke:#4c4c4c;}.cls-1,.cls-5,.cls-6,.cls-7{stroke-linejoin:round;}.cls-1,.cls-5,.cls-7{stroke-width:0.5px;}.cls-2{fill:gray;}.cls-3{fill:#e5e5e5;}.cls-4{fill:#545454;}.cls-5{fill:#f5d376;stroke:#f5d376;stroke-linecap:round;}.cls-6{fill:none;stroke:gray;stroke-width:3px;}.cls-7{stroke:#000;}.cls-8{fill:#f9e2af;}.cls-9{fill:#f2daaa;}.cls-10{fill:#335170;}.cls-11{fill:#385875;}.cls-12{fill:#dbdbdb;}</style></defs><title>person-riding</title><ellipse class="cls-1" cx="49.49" cy="86.01" rx="47.11" ry="1.76"/><rect class="cls-2" x="5.21" y="53.75" width="59.67" height="0.71"/><path class="cls-2" d="M64.62,54v.21H5.46V54H64.62m.5-.5H5v1.21H65.12V53.5Z"/><rect class="cls-2" x="5.21" y="53.75" width="59.67" height="0.71" transform="translate(-28 40.62) rotate(-45)"/><path class="cls-2" d="M55.88,33.11l.15.15L14.2,75.1,14.05,75,55.88,33.11m0-.7L13.34,75l.86.86L56.74,33.26l-.86-.85Z"/><rect class="cls-2" x="34.68" y="24.27" width="0.71" height="59.67"/><path class="cls-2" d="M35.14,24.52V83.69h-.21V24.52h.21m.5-.5H34.43V84.19h1.21V24Z"/><rect class="cls-2" x="34.68" y="24.27" width="0.71" height="59.67" transform="translate(-27.99 40.59) rotate(-44.97)"/><path class="cls-2" d="M14.2,33.11,56,75l-.15.15L14.05,33.26l.15-.15m0-.7-.86.85L55.88,75.81l.86-.86L14.2,32.41Z"/><path class="cls-3" d="M35,27.45A26.66,26.66,0,1,1,8.38,54.11,26.69,26.69,0,0,1,35,27.45m0-6A32.66,32.66,0,1,0,67.7,54.11,32.66,32.66,0,0,0,35,21.45Z"/><path d="M35,24.45A29.66,29.66,0,1,1,5.38,54.11,29.69,29.69,0,0,1,35,24.45m0-3A32.66,32.66,0,1,0,67.7,54.11,32.66,32.66,0,0,0,35,21.45Z"/><path class="cls-4" d="M35,58.45a4.35,4.35,0,1,1,4.34-4.34A4.34,4.34,0,0,1,35,58.45Z"/><path class="cls-4" d="M35,50.26a3.85,3.85,0,1,1-3.84,3.85A3.85,3.85,0,0,1,35,50.26m0-1a4.85,4.85,0,1,0,4.84,4.85A4.84,4.84,0,0,0,35,49.26Z"/><path class="cls-5" d="M63.56,21.2,35,54.11a2,2,0,0,0,1.4,3.3l40.19,2.12.1-3L37.89,55l26.77-30.4Z"/><circle class="cls-6" cx="77.37" cy="56.74" r="7.69"/><polygon class="cls-5" points="78.9 59.62 74.47 70.32 71.84 70.32 76.76 56.96 78.9 59.62"/><rect class="cls-7" x="66.84" y="69.87" width="10.7" height="2.78" transform="translate(26.87 -19.49) rotate(18.83)"/><polygon class="cls-5" points="60.33 14.73 76.86 62.26 78.83 59.53 63.77 14.73 60.33 14.73"/><polygon class="cls-5" points="76.76 56.96 100 23.96 100 28.64 78.83 59.53 76.76 56.96"/><polygon class="cls-5" points="64.16 21.45 100 21.45 100 23.96 65.26 23.96 64.16 21.45"/><path class="cls-8" d="M69.05,15.12,82.64,26.77,68.92,61.49,77.6,67l18.49-37.6a5,5,0,0,0-.68-5.45L85.05,13.27Z"/><polygon class="cls-9" points="84.06 27.3 82.44 27.3 68.92 61.49 70.75 62.65 84.06 27.3"/><path class="cls-9" d="M79.83,24.37l2.81,2.4-2.93,7.42c7.53,0,10.76-.7,15.75-3.53l.63-1.27a5,5,0,0,0-.68-5.45l-4.62-4.76Z"/><path class="cls-3" d="M80.76,66.36,80,65.8a5.32,5.32,0,0,0-3.14-1.12,2.69,2.69,0,0,1-2.13-.91c-1.64-1.82-4.48-5-4.48-5a.5.5,0,0,0-.55-.14,6.81,6.81,0,0,0-4.12,6.58c0,1.8.73,3.15,1.83,3.53l6.48,2.21c6.5,2.24,9.89,3.41,11.66,3.41a1.59,1.59,0,0,0,1.57-.75C88,72,84.77,69.36,80.76,66.36Z"/><path class="cls-10" d="M98.07,25.43c-1.5-3-13.2-16.27-13.65-16.75A.53.53,0,0,0,84,8.52l-28,1.5a.5.5,0,0,0-.31.87c6.57,6.09,23,22.23,24.61,22.23h.06l.86-.13c8.31-1.24,13.8-2.05,16.78-7.08A.51.51,0,0,0,98.07,25.43Z"/><path class="cls-11" d="M84.42,8.68A.53.53,0,0,0,84,8.52l-1.7.09,14.29,19.2a11.24,11.24,0,0,0,1.43-1.9.51.51,0,0,0,0-.48C96.57,22.45,84.87,9.16,84.42,8.68Z"/><path class="cls-12" d="M85.56,74.32A1.9,1.9,0,0,0,86.77,74,183,183,0,0,1,66,67.14a2.57,2.57,0,0,0,1.46,1.56l6.48,2.21C80.4,73.15,83.79,74.32,85.56,74.32Z"/></svg>