<svg id="Layer_1" data-name="Layer 1" xmlns="http://www.w3.org/2000/svg" viewBox="0 0 100 100"><defs><style>.cls-1{fill:#eeb211;}.cls-2{fill:#e5a20c;}.cls-3{fill:#fff;}.cls-4{fill:#efefef;}</style></defs><title>pin-half</title><path class="cls-1" d="M75.18,55.89A30.88,30.88,0,0,0,80,39.38a30,30,0,1,0-60,0,30.88,30.88,0,0,0,4.82,16.51c5.44,8.65,20.82,27,24.42,31.22a1,1,0,0,0,1.52,0C54.36,82.85,69.74,64.54,75.18,55.89Z"/><path class="cls-2" d="M50.76,87.11c3.6-4.26,19-22.57,24.42-31.22A30.88,30.88,0,0,0,80,39.38,30.19,30.19,0,0,0,50,9V87.46A1,1,0,0,0,50.76,87.11Z"/><circle class="cls-3" cx="50" cy="38.62" r="12.74"/><path class="cls-4" d="M62.74,38.62A12.74,12.74,0,0,0,50,25.88V51.36A12.74,12.74,0,0,0,62.74,38.62Z"/></svg>