<svg id="Layer_1" data-name="Layer 1" xmlns="http://www.w3.org/2000/svg" viewBox="0 0 100 100"><defs><style>.cls-1{fill:#eeb211;stroke:#eeb211;}.cls-1,.cls-2{stroke-miterlimit:10;}.cls-1,.cls-2,.cls-3{stroke-width:2px;}.cls-2,.cls-3{fill:none;stroke:#fff;}.cls-3{stroke-linecap:round;stroke-linejoin:round;}</style></defs><title>pin-bike</title><path class="cls-1" d="M75.18,55.89A30.88,30.88,0,0,0,80,39.38a30,30,0,1,0-60,0,30.88,30.88,0,0,0,4.82,16.51c5.44,8.65,20.82,27,24.42,31.22a1,1,0,0,0,1.52,0C54.36,82.85,69.74,64.54,75.18,55.89Z"/><circle class="cls-2" cx="37.57" cy="43" r="6.7"/><circle class="cls-2" cx="62.43" cy="43" r="6.7"/><polyline class="cls-3" points="37.57 43 45.82 31.01 55.73 31.01 62.43 43"/><polyline class="cls-3" points="44.27 26.45 50 43 57.95 26.45"/></svg>