<svg id="Layer_1" data-name="Layer 1" xmlns="http://www.w3.org/2000/svg" viewBox="0 0 100 100"><defs><style>.cls-1{fill:none;stroke:#eeb211;stroke-miterlimit:10;stroke-width:2px;}.cls-2{fill:#eeb211;}.cls-3{font-size:30px;fill:#fff;font-family:Helvetica-Bold, Helvetica;font-weight:700;}</style></defs><title>pin</title><path class="cls-1" d="M75.18,55.89A30.88,30.88,0,0,0,80,39.38a30,30,0,1,0-60,0,30.88,30.88,0,0,0,4.82,16.51c5.44,8.65,20.82,27,24.42,31.22a1,1,0,0,0,1.52,0C54.36,82.85,69.74,64.54,75.18,55.89Z"/><path class="cls-2" d="M72.66,54.8A28.49,28.49,0,0,0,77,39.73C77,24.42,64.91,12,50,12S23,24.42,23,39.73A28.49,28.49,0,0,0,27.34,54.8c4.85,7.83,18.51,24.33,21.89,28.38a1,1,0,0,0,1.54,0C54.15,79.13,67.81,62.63,72.66,54.8Z"/><text class="cls-3" transform="translate(32.81 49.8)">15</text></svg>