<svg id="Layer_1" data-name="Layer 1" xmlns="http://www.w3.org/2000/svg" viewBox="0 0 100 100"><defs><style>.cls-1,.cls-3,.cls-4{fill:none;stroke-linejoin:round;}.cls-1,.cls-4{stroke:gray;}.cls-1{stroke-width:3px;}.cls-2{fill:#e5e5e5;}.cls-3{stroke:#eeb211;}.cls-3,.cls-4{stroke-linecap:round;stroke-width:2px;}</style></defs><title>timer</title><circle class="cls-1" cx="49.36" cy="50.64" r="45"/><circle class="cls-2" cx="49.36" cy="50.64" r="40.5"/><polyline class="cls-3" points="49.36 31.48 49.36 50.64 68.53 50.64"/><line class="cls-4" x1="49.36" y1="20.41" x2="49.36" y2="15.68"/><line class="cls-4" x1="34.25" y1="24.46" x2="31.88" y2="20.36"/><line class="cls-4" x1="23.18" y1="35.53" x2="19.08" y2="33.16"/><line class="cls-4" x1="19.13" y1="50.64" x2="14.4" y2="50.64"/><line class="cls-4" x1="23.18" y1="65.75" x2="19.08" y2="68.12"/><line class="cls-4" x1="34.25" y1="76.82" x2="31.88" y2="80.92"/><line class="cls-4" x1="49.36" y1="80.87" x2="49.36" y2="85.6"/><line class="cls-4" x1="64.47" y1="76.82" x2="66.84" y2="80.92"/><line class="cls-4" x1="75.54" y1="65.75" x2="79.64" y2="68.12"/><line class="cls-4" x1="79.59" y1="50.64" x2="84.32" y2="50.64"/><line class="cls-4" x1="75.54" y1="35.53" x2="79.64" y2="33.16"/><line class="cls-4" x1="64.47" y1="24.46" x2="66.84" y2="20.36"/></svg>