<svg xmlns="http://www.w3.org/2000/svg" xmlns:xlink="http://www.w3.org/1999/xlink" viewBox="0 0 249.22 257.31"><defs><style>.cls-1{fill:none;}.cls-2{fill:#e5e5e5;opacity:0.01;}.cls-3{clip-path:url(#clip-path);}.cls-4{fill:#4c7ba5;}.cls-5{fill:#4c7ba4;}.cls-6{fill:#4c7aa4;}.cls-7{fill:#4b7aa4;}.cls-8{fill:#4b7aa3;}.cls-9{fill:#4b79a3;}.cls-10{fill:#4b79a2;}.cls-11{fill:#4b78a2;}.cls-12{fill:#4a78a2;}.cls-13{fill:#4a78a1;}.cls-14{fill:#4a77a1;}.cls-15{fill:#4a77a0;}.cls-16{fill:#4977a0;}.cls-17{fill:#49779f;}.cls-18{fill:#49769f;}.cls-19{fill:#49769e;}.cls-20{fill:#49759e;}.cls-21{fill:#48759d;}.cls-22{fill:#48749d;}.cls-23{fill:#48749c;}.cls-24{fill:#48739b;}.cls-25{fill:#47739b;}.cls-26{fill:#47739a;}.cls-27{fill:#47729a;}.cls-28{fill:#477299;}.cls-29{fill:#467299;}.cls-30{fill:#467199;}.cls-31{fill:#467198;}.cls-32{fill:#467098;}.cls-33{fill:#467097;}.cls-34{fill:#457097;}.cls-35{fill:#456f96;}.cls-36{fill:#456f95;}.cls-37{fill:#456e95;}.cls-38{fill:#446e95;}.cls-39{fill:#446e94;}.cls-40{fill:#446d94;}.cls-41{fill:#446d93;}.cls-42{fill:#436d93;}.cls-43{fill:#436c93;}.cls-44{fill:#436c92;}.cls-45{fill:#436b91;}.cls-46{fill:#426b91;}.cls-47{fill:#426b90;}.cls-48{fill:#426a90;}.cls-49{fill:#426a8f;}.cls-50{fill:#42698f;}.cls-51{fill:#41698f;}.cls-52{fill:#41698e;}.cls-53{fill:#41688e;}.cls-54{fill:#41688d;}.cls-55{fill:#40688d;}.cls-56{fill:#40688c;}.cls-57{fill:#40678c;}.cls-58{fill:#40678b;}.cls-59{fill:#40668b;}.cls-60{fill:#3f668a;}.cls-61{fill:#3f658a;}.cls-62{fill:#3f6589;}.cls-63{fill:#3f6489;}.cls-64{fill:#3f6488;}.cls-65{fill:#3e6488;}.cls-66{fill:#3e6487;}.cls-67{fill:#3e6387;}.cls-68{fill:#3e6386;}.cls-69{fill:#3d6386;}.cls-70{fill:#3d6286;}.cls-71{fill:#3d6285;}.cls-72{fill:#3d6185;}.cls-73{fill:#3d6184;}.cls-74{fill:#3c6184;}.cls-75{fill:#3c6083;}.cls-76{fill:#3c6082;}.cls-77{fill:#3c5f82;}.cls-78{fill:#3b5f82;}.cls-79{fill:#3b5f81;}.cls-80{fill:#3b5e81;}.cls-81{fill:#3b5e80;}.cls-82{fill:#3a5e80;}.cls-83{fill:#3a5d80;}.cls-84{fill:#3a5d7f;}.cls-85{fill:#3a5c7e;}.cls-86{fill:#395c7e;}.cls-87{fill:#395c7d;}.cls-88{fill:#395b7d;}.cls-89{fill:#395b7c;}.cls-90{fill:#395a7c;}.cls-91{fill:#385a7c;}.cls-92{fill:#385a7b;}.cls-93{fill:#38597b;}.cls-94{fill:#38597a;}.cls-95{fill:#37597a;}.cls-96{fill:#375879;}.cls-97{fill:#375878;}.cls-98{fill:#375778;}.cls-99{fill:#365777;}.cls-100{fill:#365677;}.cls-101{fill:#365676;}.cls-102{fill:#365576;}.cls-103{fill:#365575;}.cls-104{fill:#355575;}.cls-105{fill:#355574;}.cls-106{fill:#355474;}.cls-107{fill:#355473;}.cls-108{fill:#345473;}.cls-109{fill:#345373;}.cls-110{fill:#345372;}.cls-111{fill:#345272;}.cls-112{fill:#345271;}.cls-113{fill:#335271;}.cls-114{fill:#335171;}.cls-115{fill:#335170;}</style><clipPath id="clip-path"><path class="cls-1" d="M120,23.51a105,105,0,1,1-105,105,105.12,105.12,0,0,1,105-105m0-15a120,120,0,1,0,120,120,120,120,0,0,0-120-120Z"/></clipPath></defs><title>timer-ring</title><g id="Layer_2" data-name="Layer 2"><g id="Layer_1-2" data-name="Layer 1"><path class="cls-2" d="M120,23.51a105,105,0,1,1-105,105,105.12,105.12,0,0,1,105-105m0-15a120,120,0,1,0,120,120,120,120,0,0,0-120-120Z"/><g class="cls-3"><path class="cls-4" d="M160.24,40a97.41,97.41,0,0,0-32.12-8.34L130.65,0a129,129,0,0,1,42.77,11.1Z"/><path class="cls-4" d="M160.93,40.29a96.74,96.74,0,0,0-32.06-8.57L131.65.1a128.58,128.58,0,0,1,42.68,11.42Z"/><path class="cls-4" d="M161.61,40.63A98,98,0,0,0,146,34.82c-1.35-.34-2.68-.75-4-1l-4.08-.86-4.12-.65c-1.37-.23-2.76-.31-4.14-.48l3-31.59c1.84.21,3.68.34,5.51.63l5.48.87,5.44,1.14c1.81.39,3.58.92,5.38,1.37A129.07,129.07,0,0,1,175.23,12Z"/><path class="cls-4" d="M162.28,41a94.59,94.59,0,0,0-31.91-9.08L133.64.31A126.36,126.36,0,0,1,176.13,12.4Z"/><path class="cls-4" d="M163,41.3a96.28,96.28,0,0,0-15.5-6.09A98.66,98.66,0,0,0,131.12,32L134.64.42a130.44,130.44,0,0,1,21.75,4.33A129.22,129.22,0,0,1,177,12.84Z"/><path class="cls-5" d="M163.64,41.63A95,95,0,0,0,131.87,32L135.63.52a127,127,0,0,1,42.3,12.77Z"/><path class="cls-6" d="M164.31,42a96.3,96.3,0,0,0-31.69-9.84l4-31.49a128.53,128.53,0,0,1,42.2,13.1Z"/><path class="cls-6" d="M165,42.29a97.69,97.69,0,0,0-31.62-10.08L137.62.76a129.31,129.31,0,0,1,42.11,13.42Z"/><path class="cls-6" d="M165.65,42.66a95.89,95.89,0,0,0-31.54-10.33L138.62.91a127.78,127.78,0,0,1,42,13.75Z"/><path class="cls-6" d="M166.31,43a94.94,94.94,0,0,0-31.45-10.58l4.75-31.38a126.47,126.47,0,0,1,41.87,14.08Z"/><path class="cls-6" d="M167,43.4a98.69,98.69,0,0,0-15.21-6.82,96.4,96.4,0,0,0-16.16-4l5-31.34a127.75,127.75,0,0,1,21.52,5.35,129.69,129.69,0,0,1,20.24,9.06Z"/><path class="cls-7" d="M167.63,43.76a94.92,94.92,0,0,0-31.28-11.07l5.24-31.31a126.65,126.65,0,0,1,41.64,14.74Z"/><path class="cls-7" d="M168.29,44.13a96.06,96.06,0,0,0-31.2-11.33l5.49-31.26a127.9,127.9,0,0,1,41.53,15.07Z"/><path class="cls-7" d="M169,44.49a97.94,97.94,0,0,0-31.11-11.57L143.57,1.7A129.51,129.51,0,0,1,185,17.1Z"/><path class="cls-7" d="M169.6,44.88a96.84,96.84,0,0,0-31-11.81l6-31.17a128.46,128.46,0,0,1,41.29,15.72Z"/><path class="cls-8" d="M170.24,45.28a98.36,98.36,0,0,0-15-7.38c-1.31-.47-2.59-1-3.91-1.44l-4-1.27-4-1.07c-1.34-.36-2.71-.58-4.07-.89l6.23-31.12a126.9,126.9,0,0,1,41.15,16Z"/><path class="cls-8" d="M170.88,45.68A99.31,99.31,0,0,0,156,38.16a93.47,93.47,0,0,0-15.95-4.77l6.47-31.08a125.73,125.73,0,0,1,21.24,6.38,130.07,130.07,0,0,1,19.79,10Z"/><path class="cls-8" d="M171.52,46.08a95.68,95.68,0,0,0-14.82-7.64,98.8,98.8,0,0,0-15.91-4.9l6.71-31a129.91,129.91,0,0,1,21.2,6.54A127.27,127.27,0,0,1,188.4,19.2Z"/><path class="cls-9" d="M172.16,46.48a95.68,95.68,0,0,0-30.64-12.79l7-31a127.29,127.29,0,0,1,40.77,17Z"/><path class="cls-9" d="M172.81,46.88a97.31,97.31,0,0,0-30.55-13l7.2-30.91A129.17,129.17,0,0,1,190.1,20.26Z"/><path class="cls-9" d="M173.44,47.29A97.4,97.4,0,0,0,143,34l7.45-30.85a129,129,0,0,1,40.49,17.64Z"/><path class="cls-9" d="M174.06,47.72a96.07,96.07,0,0,0-30.34-13.51l7.69-30.79a127.75,127.75,0,0,1,40.35,18Z"/><path class="cls-9" d="M174.68,48.15a95.2,95.2,0,0,0-30.23-13.74l7.93-30.73a127.09,127.09,0,0,1,40.21,18.26Z"/><path class="cls-9" d="M175.3,48.58a94.62,94.62,0,0,0-30.12-14l8.17-30.67a126,126,0,0,1,40.06,18.58Z"/><path class="cls-10" d="M175.92,49a95.7,95.7,0,0,0-30-14.22l8.41-30.6a127.54,127.54,0,0,1,39.91,18.89Z"/><path class="cls-10" d="M176.55,49.44A97.3,97.3,0,0,0,146.63,35l8.66-30.53a128.81,128.81,0,0,1,39.77,19.2Z"/><path class="cls-10" d="M177.16,49.88a98.09,98.09,0,0,0-29.8-14.7l8.9-30.47a130.26,130.26,0,0,1,39.61,19.52Z"/><path class="cls-10" d="M177.76,50.34a96.5,96.5,0,0,0-29.68-14.93L157.22,5a128.86,128.86,0,0,1,39.45,19.83Z"/><path class="cls-10" d="M178.36,50.8A95.39,95.39,0,0,0,148.8,35.64l9.38-30.32a127.21,127.21,0,0,1,39.28,20.13Z"/><path class="cls-10" d="M179,51.25a99,99,0,0,0-14.06-9,96.17,96.17,0,0,0-15.39-6.38l9.62-30.25a128.13,128.13,0,0,1,20.48,8.5,131.16,131.16,0,0,1,18.65,11.93Z"/><path class="cls-11" d="M179.57,51.71A95.79,95.79,0,0,0,150.23,36.1l9.86-30.17a127.51,127.51,0,0,1,39,20.73Z"/><path class="cls-12" d="M180.17,52.17A97.15,97.15,0,0,0,151,36.32L161,6.23a128.82,128.82,0,0,1,38.81,21Z"/><path class="cls-12" d="M180.77,52.63a98.88,98.88,0,0,0-29.1-16.08L162,6.54a130.46,130.46,0,0,1,38.64,21.34Z"/><path class="cls-12" d="M181.35,53.12a97.71,97.71,0,0,0-29-16.31L163,6.88a129.54,129.54,0,0,1,38.46,21.64Z"/><path class="cls-13" d="M181.92,53.61a96.21,96.21,0,0,0-28.84-16.54L163.89,7.23a127.76,127.76,0,0,1,38.28,21.94Z"/><path class="cls-13" d="M182.5,54.1a99.71,99.71,0,0,0-13.63-9.66,96,96,0,0,0-15.08-7.1l11-29.76a126.86,126.86,0,0,1,20,9.46,130.6,130.6,0,0,1,18.07,12.77Z"/><path class="cls-13" d="M183.08,54.58a96.28,96.28,0,0,0-28.59-17L165.77,7.93a128.05,128.05,0,0,1,37.94,22.52Z"/><path class="cls-13" d="M183.66,55.07a97,97,0,0,0-28.46-17.2L166.7,8.28A129.12,129.12,0,0,1,204.47,31.1Z"/><path class="cls-13" d="M184.24,55.55a99.05,99.05,0,0,0-28.33-17.42L167.64,8.64a130.26,130.26,0,0,1,37.59,23.11Z"/><path class="cls-13" d="M184.8,56.07a98.48,98.48,0,0,0-28.19-17.66l12-29.4A130.43,130.43,0,0,1,206,32.42Z"/><path class="cls-13" d="M185.35,56.58a97,97,0,0,0-28-17.87l12.2-29.3A129,129,0,0,1,206.71,33.1Z"/><path class="cls-13" d="M185.91,57.1A96.32,96.32,0,0,0,158,39L170.42,9.8a128.24,128.24,0,0,1,37,24Z"/><path class="cls-14" d="M186.46,57.61a96.9,96.9,0,0,0-13.1-10.37,98.54,98.54,0,0,0-14.68-7.93L171.34,10.2a127.87,127.87,0,0,1,36.84,24.26Z"/><path class="cls-15" d="M187,58.12a97.28,97.28,0,0,0-27.65-18.51l12.89-29a129.13,129.13,0,0,1,36.65,24.54Z"/><path class="cls-15" d="M187.58,58.64A99.13,99.13,0,0,0,160.07,39.9L173.18,11a130.74,130.74,0,0,1,36.46,24.82Z"/><path class="cls-15" d="M188.11,59.17a99.34,99.34,0,0,0-27.35-19L174.1,11.4a131.41,131.41,0,0,1,36.25,25.12Z"/><path class="cls-15" d="M188.64,59.71a97.62,97.62,0,0,0-27.21-19.17L175,11.84a129.82,129.82,0,0,1,36.05,25.39Z"/><path class="cls-15" d="M189.17,60.25a96.84,96.84,0,0,0-27.06-19.38L175.9,12.29A128.43,128.43,0,0,1,211.75,38Z"/><path class="cls-15" d="M189.7,60.79a96.12,96.12,0,0,0-26.91-19.58l14-28.48a129.42,129.42,0,0,1,19,11.43,130.87,130.87,0,0,1,16.68,14.5Z"/><path class="cls-15" d="M190.24,61.33a97.51,97.51,0,0,0-26.78-19.79L177.7,13.17a129.09,129.09,0,0,1,35.45,26.21Z"/><path class="cls-15" d="M190.77,61.87a99.14,99.14,0,0,0-26.63-20L178.6,13.62a130.64,130.64,0,0,1,35.25,26.47Z"/><path class="cls-16" d="M191.28,62.43a99.81,99.81,0,0,0-26.46-20.22L179.5,14.06a131.76,131.76,0,0,1,35,26.76Z"/><path class="cls-17" d="M191.79,63a98.63,98.63,0,0,0-26.31-20.42l14.9-28a130.5,130.5,0,0,1,34.82,27Z"/><path class="cls-17" d="M192.29,63.56a97.32,97.32,0,0,0-26.15-20.63L181.25,15a129.2,129.2,0,0,1,34.62,27.29Z"/><path class="cls-18" d="M192.8,64.12a100.15,100.15,0,0,0-12.11-11.55A99,99,0,0,0,166.8,43.3l15.33-27.79A130.8,130.8,0,0,1,200.54,27.8a132.64,132.64,0,0,1,16,15.26Z"/><path class="cls-18" d="M193.3,64.69a97.31,97.31,0,0,0-25.84-21L183,16A129.13,129.13,0,0,1,217.2,43.8Z"/><path class="cls-18" d="M193.81,65.25A99.12,99.12,0,0,0,168.12,44l15.76-27.55a130.76,130.76,0,0,1,34,28.07Z"/><path class="cls-18" d="M194.3,65.82A99.91,99.91,0,0,0,168.78,44.4l16-27.43A132.06,132.06,0,0,1,218.52,45.3Z"/><path class="cls-18" d="M194.78,66.41a99.48,99.48,0,0,0-25.35-21.63l16.19-27.3a131,131,0,0,1,33.53,28.6Z"/><path class="cls-18" d="M195.26,67a98.07,98.07,0,0,0-25.19-21.82L186.47,18a129.25,129.25,0,0,1,33.31,28.85Z"/><path class="cls-18" d="M195.73,67.59a100.18,100.18,0,0,0-11.56-12.1,97.77,97.77,0,0,0-13.46-9.91l16.62-27a130.51,130.51,0,0,1,17.81,13.12,133.21,133.21,0,0,1,15.27,16Z"/><path class="cls-18" d="M196.21,68.18A97.5,97.5,0,0,0,171.35,46l16.83-26.92A129.67,129.67,0,0,1,221,48.41Z"/><path class="cls-19" d="M196.69,68.76A99,99,0,0,0,172,46.38l17-26.79a130.63,130.63,0,0,1,32.64,29.6Z"/><path class="cls-19" d="M197.16,69.35a100.53,100.53,0,0,0-24.52-22.58l17.24-26.65A132.15,132.15,0,0,1,222.29,50Z"/><path class="cls-19" d="M197.61,70a100,100,0,0,0-24.33-22.78l17.44-26.52a131.82,131.82,0,0,1,32.17,30.11Z"/><path class="cls-19" d="M198.06,70.58a98.4,98.4,0,0,0-24.16-23l17.65-26.38a130.12,130.12,0,0,1,31.93,30.35Z"/><path class="cls-20" d="M198.51,71.19a101.61,101.61,0,0,0-11-12.62,98.51,98.51,0,0,0-13-10.53L192.37,21.8a128.5,128.5,0,0,1,17.18,13.93,133.75,133.75,0,0,1,14.53,16.65Z"/><path class="cls-20" d="M199,71.79a98.07,98.07,0,0,0-23.82-23.32l18.06-26.1a129.4,129.4,0,0,1,31.47,30.82Z"/><path class="cls-20" d="M199.41,72.4a98.83,98.83,0,0,0-23.65-23.5l18.26-26A130.7,130.7,0,0,1,225.26,54Z"/><path class="cls-20" d="M199.86,73a100.51,100.51,0,0,0-23.47-23.68L194.84,23.5a132,132,0,0,1,31,31.3Z"/><path class="cls-20" d="M200.28,73.64A100.52,100.52,0,0,0,177,49.76l18.65-25.68a132,132,0,0,1,30.75,31.55Z"/><path class="cls-21" d="M200.69,74.27a98.6,98.6,0,0,0-23.08-24l18.85-25.54A130.63,130.63,0,0,1,227,56.46Z"/><path class="cls-21" d="M201.11,74.9a97.86,97.86,0,0,0-22.9-24.22l19-25.39a129.66,129.66,0,0,1,30.26,32Z"/><path class="cls-21" d="M201.53,75.53a97.81,97.81,0,0,0-10.31-13.18,100.59,100.59,0,0,0-12.41-11.21L198.05,25.9a132.46,132.46,0,0,1,16.4,14.82,128.66,128.66,0,0,1,13.62,17.41Z"/><path class="cls-21" d="M202,76.16a98.75,98.75,0,0,0-22.54-24.57L198.85,26.5A130.37,130.37,0,0,1,228.63,59Z"/><path class="cls-21" d="M202.37,76.79A100,100,0,0,0,180,52.05l19.63-24.94a132,132,0,0,1,29.54,32.68Z"/><path class="cls-21" d="M202.77,77.44a101,101,0,0,0-22.15-24.93l19.82-24.79A132.63,132.63,0,0,1,229.7,60.64Z"/><path class="cls-21" d="M203.16,78.09a99.43,99.43,0,0,0-22-25.1l20-24.63a131.09,131.09,0,0,1,29,33.14Z"/><path class="cls-22" d="M203.54,78.74a97.88,97.88,0,0,0-21.77-25.26L202,29a129.89,129.89,0,0,1,28.75,33.36Z"/><path class="cls-22" d="M203.93,79.39a98.55,98.55,0,0,0-9.69-13.64A100.21,100.21,0,0,0,182.35,54l20.39-24.33a128.77,128.77,0,0,1,28.51,33.58Z"/><path class="cls-22" d="M204.32,80a98.11,98.11,0,0,0-21.39-25.58l20.58-24.17a130.16,130.16,0,0,1,28.25,33.79Z"/><path class="cls-23" d="M204.71,80.68a99.87,99.87,0,0,0-21.2-25.74l20.76-24a131.58,131.58,0,0,1,28,34Z"/><path class="cls-23" d="M205.08,81.34a100.54,100.54,0,0,0-21-25.91L205,31.58a132.38,132.38,0,0,1,27.72,34.23Z"/><path class="cls-23" d="M205.44,82a99.88,99.88,0,0,0-20.78-26.08l21.12-23.68a131.15,131.15,0,0,1,27.46,34.44Z"/><path class="cls-23" d="M205.8,82.68a98.13,98.13,0,0,0-20.59-26.23l21.31-23.53a130.13,130.13,0,0,1,27.19,34.65Z"/><path class="cls-23" d="M206.15,83.34A96.43,96.43,0,0,0,185.76,57L207.25,33.6a133.23,133.23,0,0,1,15,16.26,131.89,131.89,0,0,1,12,18.59Z"/><path class="cls-23" d="M206.51,84a98.06,98.06,0,0,0-20.19-26.53L208,34.28a130,130,0,0,1,26.68,35.06Z"/><path class="cls-23" d="M206.87,84.68a99.49,99.49,0,0,0-20-26.69l21.84-23a131.31,131.31,0,0,1,26.41,35.26Z"/><path class="cls-23" d="M207.22,85.35A100.76,100.76,0,0,0,187.43,58.5l22-22.86a132.26,132.26,0,0,1,26.13,35.47Z"/><path class="cls-23" d="M207.54,86A99.75,99.75,0,0,0,188,59l22.19-22.69A131.7,131.7,0,0,1,236,72Z"/><path class="cls-24" d="M207.86,86.72a98.12,98.12,0,0,0-19.35-27.15l22.36-22.52a130,130,0,0,1,25.58,35.87Z"/><path class="cls-25" d="M208.19,87.4A96.94,96.94,0,0,0,189,60.11l22.53-22.35a128.87,128.87,0,0,1,25.31,36.06Z"/><path class="cls-25" d="M208.51,88.08a98,98,0,0,0-18.94-27.43l22.7-22.17a129.76,129.76,0,0,1,25,36.24Z"/><path class="cls-25" d="M208.84,88.76A99.13,99.13,0,0,0,190.1,61.19l22.87-22a131,131,0,0,1,24.77,36.44Z"/><path class="cls-25" d="M209.16,89.45a100.19,100.19,0,0,0-18.53-27.72l23-21.83a132.14,132.14,0,0,1,24.49,36.64Z"/><path class="cls-25" d="M209.45,90.14a99.9,99.9,0,0,0-18.3-27.86l23.21-21.65a131.51,131.51,0,0,1,24.19,36.83Z"/><path class="cls-25" d="M209.74,90.84a98.24,98.24,0,0,0-18.08-28L215,41.37a129.74,129.74,0,0,1,23.9,37Z"/><path class="cls-25" d="M210,91.54a100.29,100.29,0,0,0-7.71-14.83,97.85,97.85,0,0,0-10.16-13.3L215.7,42.12a130.81,130.81,0,0,1,13.41,17.56,132.41,132.41,0,0,1,10.21,19.63Z"/><path class="cls-25" d="M210.32,92.24A97.34,97.34,0,0,0,192.67,64l23.69-21.12a129.41,129.41,0,0,1,23.35,37.37Z"/><path class="cls-25" d="M210.61,92.93a98.35,98.35,0,0,0-17.44-28.39L217,43.61a130.17,130.17,0,0,1,23.06,37.55Z"/><path class="cls-26" d="M210.91,93.63A100.2,100.2,0,0,0,193.68,65.1l24-20.75a131.61,131.61,0,0,1,22.78,37.73Z"/><path class="cls-26" d="M211.17,94.34a100.12,100.12,0,0,0-17-28.67L218.36,45.1A131.92,131.92,0,0,1,240.82,83Z"/><path class="cls-27" d="M211.42,95.05a98.12,98.12,0,0,0-16.76-28.79L219,45.88A129.66,129.66,0,0,1,241.16,84Z"/><path class="cls-27" d="M211.68,95.76a97,97,0,0,0-16.55-28.91l24.49-20.2a129.09,129.09,0,0,1,21.89,38.26Z"/><path class="cls-27" d="M211.93,96.47A95.43,95.43,0,0,0,205,81.26a100,100,0,0,0-9.43-13.82l24.64-20A131.84,131.84,0,0,1,232.7,65.69a128.35,128.35,0,0,1,9.15,20.16Z"/><path class="cls-27" d="M212.19,97.18A97.85,97.85,0,0,0,196.09,68l24.79-19.81a129.5,129.5,0,0,1,21.31,38.58Z"/><path class="cls-27" d="M212.45,97.89a99.28,99.28,0,0,0-15.89-29.28L221.51,49a131.25,131.25,0,0,1,21,38.76Z"/><path class="cls-27" d="M212.68,98.6A99.69,99.69,0,0,0,197,69.2l25.1-19.44a131.52,131.52,0,0,1,20.7,38.93Z"/><path class="cls-27" d="M212.9,99.32a98,98,0,0,0-15.41-29.51l25.25-19.25a129.8,129.8,0,0,1,20.39,39.09Z"/><path class="cls-28" d="M213.13,100.05a97.15,97.15,0,0,0-15.19-29.63l25.39-19.05a128.81,128.81,0,0,1,20.1,39.24Z"/><path class="cls-28" d="M213.35,100.77a97.34,97.34,0,0,0-6.18-15.51A100.07,100.07,0,0,0,198.39,71l25.53-18.86A132.57,132.57,0,0,1,235.53,71a128.88,128.88,0,0,1,8.19,20.57Z"/><path class="cls-29" d="M213.57,101.49a97,97,0,0,0-14.73-29.85L224.52,53A128.93,128.93,0,0,1,244,92.52Z"/><path class="cls-29" d="M213.79,102.21a98.52,98.52,0,0,0-14.5-30l25.82-18.47a130.6,130.6,0,0,1,19.2,39.7Z"/><path class="cls-29" d="M214,102.93a99.57,99.57,0,0,0-14.26-30.08l26-18.26a131.35,131.35,0,0,1,18.89,39.86Z"/><path class="cls-30" d="M214.18,103.66a98.16,98.16,0,0,0-14-30.18l26.09-18.07a130,130,0,0,1,18.58,40Z"/><path class="cls-30" d="M214.37,104.4a96.93,96.93,0,0,0-13.78-30.29l26.23-17.86a128.39,128.39,0,0,1,18.26,40.14Z"/><path class="cls-30" d="M214.55,105.13a96.63,96.63,0,0,0-5.43-15.77A99.85,99.85,0,0,0,201,74.74l26.37-17.66a126.73,126.73,0,0,1,18,40.28Z"/><path class="cls-30" d="M214.74,105.86a96.48,96.48,0,0,0-13.32-30.49l26.51-17.46a128.21,128.21,0,0,1,17.65,40.43Z"/><path class="cls-30" d="M214.93,106.59A97.66,97.66,0,0,0,201.84,76l26.64-17.26a129.4,129.4,0,0,1,17.34,40.57Z"/><path class="cls-31" d="M215.11,107.32a99.2,99.2,0,0,0-12.84-30.69l26.76-17a130.84,130.84,0,0,1,17,40.7Z"/><path class="cls-31" d="M215.26,108.06a98.27,98.27,0,0,0-12.59-30.79l26.9-16.85a130,130,0,0,1,16.7,40.84Z"/><path class="cls-31" d="M215.41,108.8a96.73,96.73,0,0,0-12.35-30.88l27-16.64a128.15,128.15,0,0,1,16.39,41Z"/><path class="cls-31" d="M215.56,109.53a99.28,99.28,0,0,0-4.69-16,97.46,97.46,0,0,0-7.43-15L230.6,62.14a126.95,126.95,0,0,1,16.06,41.09Z"/><path class="cls-31" d="M215.71,110.27a96,96,0,0,0-11.88-31L231.11,63a127.56,127.56,0,0,1,15.75,41.22Z"/><path class="cls-31" d="M215.86,111a96.83,96.83,0,0,0-11.64-31.14l27.41-16a128.84,128.84,0,0,1,15.43,41.35Z"/><path class="cls-31" d="M216,111.75a98.6,98.6,0,0,0-11.4-31.23l27.53-15.81a130.35,130.35,0,0,1,15.12,41.47Z"/><path class="cls-32" d="M216.13,112.49A98.11,98.11,0,0,0,205,81.17l27.65-15.59a130.13,130.13,0,0,1,14.78,41.59Z"/><path class="cls-32" d="M216.24,113.24a96.4,96.4,0,0,0-10.89-31.4l27.76-15.38a128.13,128.13,0,0,1,14.46,41.71Z"/><path class="cls-33" d="M216.35,114a98.23,98.23,0,0,0-3.93-16.19,96.56,96.56,0,0,0-6.72-15.28l27.89-15.17a126.92,126.92,0,0,1,14.13,41.82Z"/><path class="cls-33" d="M216.46,114.73a94.11,94.11,0,0,0-3.8-16.22,98.92,98.92,0,0,0-6.6-15.34l28-15a131.58,131.58,0,0,1,8.74,20.35,125.55,125.55,0,0,1,5.07,21.58Z"/><path class="cls-33" d="M216.57,115.47c-.22-1.37-.38-2.75-.64-4.11l-.83-4.09-1-4c-.34-1.35-.8-2.66-1.19-4a100.19,100.19,0,0,0-6.46-15.39l28.11-14.73a130.86,130.86,0,0,1,8.56,20.41c.54,1.77,1.13,3.53,1.6,5.32l1.36,5.38,1.1,5.44c.35,1.82.58,3.66.87,5.48Z"/><path class="cls-34" d="M216.69,116.22a97.6,97.6,0,0,0-9.91-31.72L235,70a129.26,129.26,0,0,1,13.17,42.15Z"/><path class="cls-34" d="M216.79,117a98.42,98.42,0,0,0-9.66-31.79l28.34-14.29a129.84,129.84,0,0,1,12.82,42.25Z"/><path class="cls-34" d="M216.86,117.71a96.61,96.61,0,0,0-9.4-31.85L235.9,71.78a128.17,128.17,0,0,1,12.5,42.35Z"/><path class="cls-34" d="M216.93,118.46a95.24,95.24,0,0,0-9.15-31.92l28.55-13.86a127.23,127.23,0,0,1,12.17,42.45Z"/><path class="cls-34" d="M217,119.21a94.29,94.29,0,0,0-8.91-32l28.67-13.63a130.24,130.24,0,0,1,7.78,20.73,127.13,127.13,0,0,1,4,21.81Z"/><path class="cls-34" d="M217.08,120a95.39,95.39,0,0,0-8.65-32.06L237.2,74.49a127.23,127.23,0,0,1,11.49,42.64Z"/><path class="cls-34" d="M217.16,120.71a96.56,96.56,0,0,0-8.41-32.12L237.62,75.4a128.3,128.3,0,0,1,11.17,42.73Z"/><path class="cls-35" d="M217.23,121.46a98,98,0,0,0-8.15-32.19l29-13a130.22,130.22,0,0,1,10.84,42.83Z"/><path class="cls-35" d="M217.27,122.22A96.73,96.73,0,0,0,209.37,90l29.07-12.74a128.44,128.44,0,0,1,10.5,42.91Z"/><path class="cls-35" d="M217.3,123a95,95,0,0,0-7.64-32.31l29.17-12.51a126.82,126.82,0,0,1,10.16,43Z"/><path class="cls-35" d="M217.34,123.72A93.8,93.8,0,0,0,210,91.36l29.27-12.29A125.24,125.24,0,0,1,249,122.13Z"/><path class="cls-35" d="M217.37,124.47a94.83,94.83,0,0,0-7.12-32.42L239.61,80a126.88,126.88,0,0,1,9.48,43.15Z"/><path class="cls-35" d="M217.41,125.23a91,91,0,0,0-2-16.53,98.77,98.77,0,0,0-4.85-16L240,80.92a127.6,127.6,0,0,1,9.14,43.22Z"/><path class="cls-35" d="M217.45,126a97.31,97.31,0,0,0-6.62-32.53l29.55-11.61a129.47,129.47,0,0,1,8.8,43.3Z"/><path class="cls-35" d="M217.47,126.73a97,97,0,0,0-6.37-32.58l29.63-11.37a128.6,128.6,0,0,1,8.47,43.36Z"/><path class="cls-35" d="M217.46,127.49a95.36,95.36,0,0,0-6.11-32.63l29.73-11.14a127.5,127.5,0,0,1,8.12,43.43Z"/><path class="cls-36" d="M217.46,128.24A98.19,98.19,0,0,0,216,111.65a96.58,96.58,0,0,0-4.38-16.08l29.81-10.91a128.68,128.68,0,0,1,5.81,21.4,129.86,129.86,0,0,1,2,22.09Z"/><path class="cls-36" d="M217.45,129a93.16,93.16,0,0,0-1.34-16.59,97.84,97.84,0,0,0-4.24-16.12l29.89-10.67a130.6,130.6,0,0,1,5.64,21.44,125,125,0,0,1,1.79,22.1Z"/><path class="cls-36" d="M217.45,129.75c0-1.39.06-2.78,0-4.17l-.2-4.17-.42-4.14c-.14-1.38-.4-2.75-.59-4.13A98,98,0,0,0,212.13,97l30-10.44A129.89,129.89,0,0,1,247.55,108c.26,1.83.59,3.66.78,5.5l.55,5.52.27,5.55c.1,1.85,0,3.7,0,5.55Z"/><path class="cls-37" d="M217.45,130.5a96.52,96.52,0,0,0-5.07-32.8l30.06-10.21a128.83,128.83,0,0,1,6.75,43.67Z"/><path class="cls-38" d="M217.45,131.26a97.57,97.57,0,0,0-4.82-32.84l30.13-10a129.22,129.22,0,0,1,6.42,43.72Z"/><path class="cls-38" d="M217.41,132a95.9,95.9,0,0,0-4.56-32.87l30.21-9.74a127.56,127.56,0,0,1,6.07,43.76Z"/><path class="cls-38" d="M217.37,132.76a99.46,99.46,0,0,0-.7-16.64,93.54,93.54,0,0,0-3.6-16.26l30.28-9.5a124.94,124.94,0,0,1,4.8,21.65,131.31,131.31,0,0,1,.93,22.16Z"/><path class="cls-38" d="M217.32,133.52a96.43,96.43,0,0,0-.54-16.65,98.44,98.44,0,0,0-3.49-16.29l30.36-9.26A130.33,130.33,0,0,1,248.28,113a128.35,128.35,0,0,1,.74,22.17Z"/><path class="cls-38" d="M217.28,134.27a94.71,94.71,0,0,0-3.77-33l30.43-9a126.82,126.82,0,0,1,5,43.9Z"/><path class="cls-39" d="M217.24,135a90.79,90.79,0,0,0-.32-16.65A97.8,97.8,0,0,0,213.74,102l30.49-8.79a127.66,127.66,0,0,1,4.68,43.94Z"/><path class="cls-39" d="M217.21,135.78a97.43,97.43,0,0,0-3.26-33l30.57-8.55a129.29,129.29,0,0,1,4.34,44Z"/><path class="cls-39" d="M217.15,136.53a96.71,96.71,0,0,0-3-33.06l30.63-8.3a128.28,128.28,0,0,1,4,44Z"/><path class="cls-39" d="M217.07,137.28a95.43,95.43,0,0,0-2.75-33.07L245,96.14a127.14,127.14,0,0,1,3.66,44Z"/><path class="cls-39" d="M217,138a99.69,99.69,0,0,0,.23-16.66,98.13,98.13,0,0,0-2.71-16.43l30.76-7.83a128.5,128.5,0,0,1,3.6,21.89,131.16,131.16,0,0,1-.3,22.16Z"/><path class="cls-39" d="M216.91,138.78a94.83,94.83,0,0,0-2.22-33.11l30.82-7.59A128.84,128.84,0,0,1,248.93,120a125.2,125.2,0,0,1-.46,22.16Z"/><path class="cls-40" d="M216.83,139.53c.12-1.39.34-2.76.4-4.15l.22-4.17V127c0-1.4-.12-2.78-.16-4.17a98.4,98.4,0,0,0-2.42-16.47l30.88-7.34A128.87,128.87,0,0,1,249,121c.07,1.85.22,3.7.22,5.55l0,5.55-.29,5.54c-.09,1.84-.36,3.68-.53,5.52Z"/><path class="cls-40" d="M216.75,140.28a97,97,0,0,0-1.68-33.15L246,100a128.64,128.64,0,0,1,2.25,44.12Z"/><path class="cls-40" d="M216.67,141a97.22,97.22,0,0,0-1.45-33.16l31-6.86a128.69,128.69,0,0,1,1.93,44.14Z"/><path class="cls-40" d="M216.56,141.78a96.07,96.07,0,0,0-1.19-33.18l31-6.61A127.72,127.72,0,0,1,248,146.14Z"/><path class="cls-41" d="M216.44,142.52a100.65,100.65,0,0,0,1-16.64,94.85,94.85,0,0,0-1.92-16.54L246.61,103a125.54,125.54,0,0,1,2.56,22,132,132,0,0,1-1.33,22.12Z"/><path class="cls-41" d="M216.32,143.27a97.6,97.6,0,0,0,1.15-16.64,100.12,100.12,0,0,0-1.8-16.55L246.81,104a126,126,0,0,1,.88,44.16Z"/><path class="cls-41" d="M216.2,144a95.37,95.37,0,0,0-.38-33.19L247,104.94a127.56,127.56,0,0,1,.52,44.18Z"/><path class="cls-41" d="M216.09,144.76a92.59,92.59,0,0,0,1.37-16.62A98,98,0,0,0,216,111.56l31.24-5.63a130.91,130.91,0,0,1,2,22.09,123,123,0,0,1-1.83,22.09Z"/><path class="cls-41" d="M216,145.5a97.66,97.66,0,0,0,.13-33.2l31.28-5.38a129.28,129.28,0,0,1-.17,44.18Z"/><path class="cls-42" d="M215.84,146.24a100.35,100.35,0,0,0,1.61-16.59,90.4,90.4,0,0,0-1.24-16.6l31.32-5.14A122.31,122.31,0,0,1,249.19,130,132.72,132.72,0,0,1,247,152.08Z"/><path class="cls-42" d="M215.68,147a95.88,95.88,0,0,0,.64-33.19l31.36-4.89a127.26,127.26,0,0,1-.85,44.17Z"/><path class="cls-43" d="M215.53,147.72a100.16,100.16,0,0,0,1.92-16.56,97.15,97.15,0,0,0-1-16.62l31.4-4.65A130.26,130.26,0,0,1,249.18,132a131.49,131.49,0,0,1-2.55,22Z"/><path class="cls-43" d="M215.37,148.45a93.72,93.72,0,0,0,2-16.54,98.32,98.32,0,0,0-.87-16.63L248,110.89A130.18,130.18,0,0,1,249.13,133a125.29,125.29,0,0,1-2.71,22Z"/><path class="cls-44" d="M215.21,149.19c.27-1.36.63-2.71.82-4.09l.65-4.12.44-4.15c.14-1.38.16-2.78.25-4.17a98.5,98.5,0,0,0-.71-16.64l31.47-4.14a130.29,130.29,0,0,1,1,22.16c-.11,1.84-.16,3.69-.34,5.53l-.59,5.52-.85,5.48c-.27,1.83-.73,3.63-1.09,5.44Z"/><path class="cls-44" d="M215.06,149.93a92.78,92.78,0,0,0,2.27-16.51,97.48,97.48,0,0,0-.56-16.65l31.5-3.9A130.39,130.39,0,0,1,249,135a124.38,124.38,0,0,1-3,22Z"/><path class="cls-44" d="M214.91,150.67a99.57,99.57,0,0,0,2.38-16.5,91.71,91.71,0,0,0-.45-16.65l31.53-3.65A123.52,123.52,0,0,1,249,136,130.25,130.25,0,0,1,245.79,158Z"/><path class="cls-44" d="M214.72,151.4a96.48,96.48,0,0,0,2.19-33.13l31.56-3.4A128.23,128.23,0,0,1,245.55,159Z"/><path class="cls-44" d="M214.52,152.12a99.07,99.07,0,0,0,2.69-16.44A95.55,95.55,0,0,0,217,119l31.58-3.15a126.3,126.3,0,0,1,.29,22.17,130.84,130.84,0,0,1-3.57,21.88Z"/><path class="cls-44" d="M214.33,152.85a97.89,97.89,0,0,0,2.83-16.42,99.65,99.65,0,0,0-.1-16.66l31.61-2.9a131.31,131.31,0,0,1,.12,22.17A128.51,128.51,0,0,1,245,160.89Z"/><path class="cls-44" d="M214.14,153.58a96,96,0,0,0,3-33.06l31.63-2.65a127.94,127.94,0,0,1-4,44Z"/><path class="cls-44" d="M214,154.31A92,92,0,0,0,217,137.93a99.68,99.68,0,0,0,.21-16.66l31.65-2.4a130.13,130.13,0,0,1-.28,22.16,122.42,122.42,0,0,1-4.06,21.8Z"/><path class="cls-44" d="M213.76,155a95.71,95.71,0,0,0,3.16-16.36,94.63,94.63,0,0,0,.34-16.66l31.67-2.15a129.68,129.68,0,0,1-4.67,43.93Z"/><path class="cls-44" d="M213.55,155.76a99.47,99.47,0,0,0,3.29-16.33c.12-1.38.35-2.76.39-4.15l.22-4.17v-4.17c0-1.39-.12-2.78-.17-4.17l31.69-1.9c.07,1.85.21,3.7.22,5.55l0,5.55-.29,5.54c-.07,1.85-.34,3.68-.52,5.52A130,130,0,0,1,244,164.76Z"/><path class="cls-45" d="M213.31,156.48a95.91,95.91,0,0,0,4-32.95L249,121.87a127.36,127.36,0,0,1-5.34,43.85Z"/><path class="cls-45" d="M213.08,157.2a94.3,94.3,0,0,0,4.28-32.92l31.71-1.4a125.73,125.73,0,0,1-5.7,43.8Z"/><path class="cls-45" d="M212.85,157.91a93.81,93.81,0,0,0,3.72-16.23A99.75,99.75,0,0,0,217.4,125l31.72-1.15A133.07,133.07,0,0,1,248,146a125.9,125.9,0,0,1-5,21.62Z"/><path class="cls-45" d="M212.63,158.63a96.3,96.3,0,0,0,4.81-32.85l31.73-.9A133.2,133.2,0,0,1,247.86,147c-.3,1.82-.54,3.66-.9,5.47l-1.15,5.43-1.41,5.37c-.47,1.8-1.09,3.54-1.64,5.31Z"/><path class="cls-45" d="M212.4,159.35a97.71,97.71,0,0,0,5.07-32.81l31.73-.66A131,131,0,0,1,247.71,148a125,125,0,0,1-5.25,21.55Z"/><path class="cls-45" d="M212.17,160.07a98.74,98.74,0,0,0,4.05-16.16,92.48,92.48,0,0,0,1.24-16.62l31.74-.4a124,124,0,0,1-1.65,22.1,129.76,129.76,0,0,1-5.41,21.51Z"/><path class="cls-46" d="M211.9,160.77a98.35,98.35,0,0,0,4.2-16.11c.2-1.38.47-2.74.62-4.12l.44-4.16.24-4.17c0-.69.06-1.39,0-2.08V128l31.74-.15v2.78c0,.92,0,1.85-.08,2.77-.1,1.84-.18,3.69-.31,5.54l-.58,5.51c-.21,1.84-.55,3.66-.83,5.49a129.5,129.5,0,0,1-5.6,21.46Z"/><path class="cls-46" d="M211.63,161.48A98.49,98.49,0,0,0,216,145.4a96.19,96.19,0,0,0,1.47-16.6l31.74.09a126.76,126.76,0,0,1-2,22.08,129,129,0,0,1-5.79,21.41Z"/><path class="cls-46" d="M211.37,162.18a96.8,96.8,0,0,0,4.49-16,100.45,100.45,0,0,0,1.59-16.6l31.74.35A131.86,131.86,0,0,1,247.06,152a128.73,128.73,0,0,1-6,21.36Z"/><path class="cls-47" d="M211.1,162.89a95.5,95.5,0,0,0,6.35-32.58l31.74.59a127.51,127.51,0,0,1-8.45,43.36Z"/><path class="cls-47" d="M210.84,163.59a96.51,96.51,0,0,0,6.61-32.53l31.73.84a128.58,128.58,0,0,1-8.8,43.3Z"/><path class="cls-47" d="M210.58,164.3a97.48,97.48,0,0,0,6.84-32.49l31.72,1.1A129.19,129.19,0,0,1,240,176.14Z"/><path class="cls-48" d="M210.29,165a98.41,98.41,0,0,0,4.94-15.89,91.14,91.14,0,0,0,2.15-16.53l31.71,1.34a122.49,122.49,0,0,1-2.85,22,129.48,129.48,0,0,1-6.6,21.17Z"/><path class="cls-48" d="M210,165.68a95,95,0,0,0,7.36-32.36l31.7,1.59a126.65,126.65,0,0,1-9.8,43.07Z"/><path class="cls-48" d="M209.68,166.38a93.45,93.45,0,0,0,7.61-32.31L249,135.91a125.75,125.75,0,0,1-10.13,43Z"/><path class="cls-48" d="M209.38,167.07a92.73,92.73,0,0,0,5.36-15.77,99.44,99.44,0,0,0,2.51-16.47l31.68,2.08a132.13,132.13,0,0,1-3.35,21.91,125.27,125.27,0,0,1-7.13,21Z"/><path class="cls-48" d="M209.09,167.76a96.07,96.07,0,0,0,8.13-32.18l31.65,2.33a127.71,127.71,0,0,1-10.82,42.84Z"/><path class="cls-48" d="M208.79,168.45a97.41,97.41,0,0,0,8.38-32.12l31.63,2.58a129.05,129.05,0,0,1-11.15,42.76Z"/><path class="cls-48" d="M208.47,169.14a96.81,96.81,0,0,0,8.62-32.06l31.61,2.83a128.29,128.29,0,0,1-11.47,42.67Z"/><path class="cls-49" d="M208.14,169.81a98.54,98.54,0,0,0,5.83-15.6c.34-1.34.74-2.67,1-4l.86-4.08.66-4.12c.24-1.37.31-2.76.48-4.14l31.59,3.06a126.93,126.93,0,0,1-11.82,42.58Z"/><path class="cls-49" d="M207.8,170.49a98.62,98.62,0,0,0,6-15.55,93.5,93.5,0,0,0,3.15-16.35l31.56,3.31a126.34,126.34,0,0,1-4.19,21.78,131,131,0,0,1-8,20.7Z"/><path class="cls-49" d="M207.47,171.16a95.89,95.89,0,0,0,6.11-15.49,98.8,98.8,0,0,0,3.27-16.33l31.54,3.56A131,131,0,0,1,244,164.64a128,128,0,0,1-8.12,20.64Z"/><path class="cls-49" d="M207.14,171.84a95.41,95.41,0,0,0,9.63-31.75l31.51,3.81a127,127,0,0,1-12.83,42.28Z"/><path class="cls-49" d="M206.8,172.52a96.8,96.8,0,0,0,9.89-31.68l31.48,4A128.37,128.37,0,0,1,235,187.07Z"/><path class="cls-50" d="M206.46,173.19a97.09,97.09,0,0,0,10.13-31.61L248,145.89A129.49,129.49,0,0,1,234.56,188Z"/><path class="cls-50" d="M206.1,173.85a99.37,99.37,0,0,0,6.56-15.31,90.93,90.93,0,0,0,3.81-16.21l31.41,4.55a122.48,122.48,0,0,1-5.08,21.59,130,130,0,0,1-8.73,20.38Z"/><path class="cls-51" d="M205.73,174.51a94.8,94.8,0,0,0,10.62-31.44l31.38,4.8a126.62,126.62,0,0,1-14.14,41.85Z"/><path class="cls-51" d="M205.36,175.17a93.54,93.54,0,0,0,10.87-31.35l31.34,5A125.09,125.09,0,0,1,233.1,190.6Z"/><path class="cls-52" d="M205,175.83a95.11,95.11,0,0,0,11.12-31.27l31.29,5.29a126.71,126.71,0,0,1-14.8,41.63Z"/><path class="cls-52" d="M204.63,176.49A96.18,96.18,0,0,0,216,145.31l31.25,5.53a127.91,127.91,0,0,1-15.13,41.51Z"/><path class="cls-52" d="M204.27,177.15a98,98,0,0,0,11.61-31.1l31.21,5.78a130,130,0,0,1-15.45,41.4Z"/><path class="cls-52" d="M203.87,177.79a96.53,96.53,0,0,0,11.85-31l31.17,6a128.15,128.15,0,0,1-15.78,41.27Z"/><path class="cls-52" d="M203.47,178.43a95.17,95.17,0,0,0,12.1-30.9l31.11,6.26a126.9,126.9,0,0,1-16.1,41.14Z"/><path class="cls-52" d="M203.07,179.08a98.38,98.38,0,0,0,7.54-14.87,94.47,94.47,0,0,0,4.8-16l31.06,6.52a127,127,0,0,1-6.4,21.24,130.84,130.84,0,0,1-10,19.76Z"/><path class="cls-52" d="M202.67,179.72a94.43,94.43,0,0,0,7.65-14.82,96.24,96.24,0,0,0,4.93-15.9l31,6.76a129.52,129.52,0,0,1-6.58,21.18,125.52,125.52,0,0,1-10.16,19.69Z"/><path class="cls-52" d="M202.27,180.36a95.76,95.76,0,0,0,12.83-30.62l31,7A127.85,127.85,0,0,1,229,197.48Z"/><path class="cls-53" d="M201.88,181A97.94,97.94,0,0,0,215,150.48l30.9,7.24a129.38,129.38,0,0,1-17.38,40.61Z"/><path class="cls-53" d="M201.45,181.63a97.35,97.35,0,0,0,13.32-30.42l30.84,7.49a129,129,0,0,1-17.7,40.47Z"/><path class="cls-54" d="M201,182.25a97.5,97.5,0,0,0,8.1-14.58c.54-1.28,1.14-2.54,1.63-3.84l1.47-3.9,1.26-4c.41-1.33.72-2.69,1.09-4l30.79,7.73c-.49,1.78-.92,3.59-1.46,5.36l-1.69,5.29-2,5.2c-.65,1.73-1.44,3.4-2.16,5.11A129.75,129.75,0,0,1,227.34,200Z"/><path class="cls-54" d="M200.59,182.87a94.9,94.9,0,0,0,13.79-30.21l30.72,8a124.89,124.89,0,0,1-7.4,20.91,131.55,131.55,0,0,1-10.92,19.27Z"/><path class="cls-54" d="M200.17,183.5a94.53,94.53,0,0,0,14-30.11l30.65,8.22a126.36,126.36,0,0,1-18.63,40Z"/><path class="cls-54" d="M199.74,184.12a96.09,96.09,0,0,0,14.26-30l30.59,8.46a127.65,127.65,0,0,1-19,39.88Z"/><path class="cls-54" d="M199.31,184.74a97.45,97.45,0,0,0,14.49-29.89l30.53,8.7a129.59,129.59,0,0,1-19.26,39.74Z"/><path class="cls-54" d="M198.87,185.35a98.21,98.21,0,0,0,14.74-29.78l30.45,9a129.91,129.91,0,0,1-19.58,39.58Z"/><path class="cls-54" d="M198.4,186a96.17,96.17,0,0,0,15-29.66l30.39,9.18a128.42,128.42,0,0,1-19.89,39.42Z"/><path class="cls-54" d="M198,186.55A95.59,95.59,0,0,0,213.14,157l30.31,9.42a127.35,127.35,0,0,1-20.18,39.26Z"/><path class="cls-55" d="M197.49,187.16a100.14,100.14,0,0,0,9-14,97.86,97.86,0,0,0,6.4-15.38l30.24,9.66a129,129,0,0,1-8.53,20.46,130.37,130.37,0,0,1-12,18.64Z"/><path class="cls-56" d="M197,187.76a96.25,96.25,0,0,0,15.66-29.32l30.15,9.9a127.62,127.62,0,0,1-20.79,38.94Z"/><path class="cls-57" d="M196.57,188.36a97.6,97.6,0,0,0,15.89-29.2l30.08,10.14a129.59,129.59,0,0,1-21.09,38.78Z"/><path class="cls-57" d="M196.1,189a98.92,98.92,0,0,0,16.13-29.08l30,10.37a130.67,130.67,0,0,1-21.4,38.61Z"/><path class="cls-57" d="M195.62,189.53A97.64,97.64,0,0,0,212,160.59l29.91,10.61a129.09,129.09,0,0,1-21.7,38.43Z"/><path class="cls-57" d="M195.13,190.11a96.07,96.07,0,0,0,16.57-28.82l29.83,10.85a128,128,0,0,1-22,38.26Z"/><path class="cls-57" d="M194.64,190.69a99.68,99.68,0,0,0,9.67-13.62A97.37,97.37,0,0,0,211.44,162l29.74,11.08a128.65,128.65,0,0,1-9.48,20,131.21,131.21,0,0,1-12.8,18Z"/><path class="cls-57" d="M194.15,191.27a96.09,96.09,0,0,0,17-28.57L240.83,174a128,128,0,0,1-22.58,37.91Z"/><path class="cls-57" d="M193.67,191.85a97.38,97.38,0,0,0,17.24-28.44L240.47,175a129.25,129.25,0,0,1-22.86,37.73Z"/><path class="cls-57" d="M193.18,192.43a99.33,99.33,0,0,0,17.47-28.31l29.47,11.77A130.92,130.92,0,0,1,217,213.45Z"/><path class="cls-57" d="M192.66,193a98.24,98.24,0,0,0,17.7-28.17l29.38,12a130.13,130.13,0,0,1-23.46,37.37Z"/><path class="cls-58" d="M192.15,193.54a99.63,99.63,0,0,0,10.17-13.26c.72-1.19,1.5-2.36,2.19-3.57l2-3.65,1.84-3.74c.61-1.25,1.11-2.55,1.68-3.82l29.29,12.25c-.75,1.69-1.44,3.41-2.24,5.07l-2.46,5L232,192.65c-.92,1.6-1.93,3.15-2.89,4.72a131.15,131.15,0,0,1-13.47,17.55Z"/><path class="cls-58" d="M191.63,194.09a100.59,100.59,0,0,0,10.3-13.17,95.25,95.25,0,0,0,7.83-14.72L239,178.67a127.12,127.12,0,0,1-10.41,19.55,132.87,132.87,0,0,1-13.62,17.44Z"/><path class="cls-58" d="M191.12,194.65a96.36,96.36,0,0,0,18.34-27.76l29.09,12.7a128.43,128.43,0,0,1-24.31,36.8Z"/><path class="cls-59" d="M190.61,195.2a97.27,97.27,0,0,0,18.55-27.62l29,12.93a129,129,0,0,1-24.59,36.61Z"/><path class="cls-59" d="M190.09,195.76a99.39,99.39,0,0,0,18.78-27.49l28.88,13.16a131,131,0,0,1-24.87,36.42Z"/><path class="cls-59" d="M189.55,196.29a99.16,99.16,0,0,0,19-27.33l28.78,13.38a130.85,130.85,0,0,1-25.17,36.22Z"/><path class="cls-59" d="M189,196.82a97.55,97.55,0,0,0,19.21-27.18l28.68,13.6a129.29,129.29,0,0,1-25.44,36Z"/><path class="cls-59" d="M188.47,197.35a96.74,96.74,0,0,0,19.42-27l28.57,13.83A128.57,128.57,0,0,1,210.75,220Z"/><path class="cls-59" d="M187.93,197.88a97.48,97.48,0,0,0,11-12.6A98.49,98.49,0,0,0,207.55,171L236,185a127.77,127.77,0,0,1-26,35.62Z"/><path class="cls-60" d="M187.39,198.41a97.46,97.46,0,0,0,19.83-26.74l28.35,14.27a129.29,129.29,0,0,1-26.25,35.42Z"/><path class="cls-60" d="M186.85,199a99.4,99.4,0,0,0,20-26.61l28.23,14.5a130.88,130.88,0,0,1-26.52,35.22Z"/><path class="cls-60" d="M186.3,199.46A100.28,100.28,0,0,0,206.56,173l28.12,14.72a131.59,131.59,0,0,1-26.81,35Z"/><path class="cls-60" d="M185.73,200a98.28,98.28,0,0,0,20.46-26.28l28,14.94a130.22,130.22,0,0,1-27.08,34.79Z"/><path class="cls-60" d="M185.16,200.46a97.14,97.14,0,0,0,20.66-26.12l27.89,15.16a129.12,129.12,0,0,1-27.33,34.57Z"/><path class="cls-60" d="M184.6,201a96.43,96.43,0,0,0,20.86-26l27.77,15.37a128.22,128.22,0,0,1-27.6,34.37Z"/><path class="cls-61" d="M184,201.47a97.87,97.87,0,0,0,21.05-25.81l27.65,15.59a129.33,129.33,0,0,1-27.85,34.15Z"/><path class="cls-61" d="M183.47,202a99.06,99.06,0,0,0,21.25-25.66l27.53,15.8a130.89,130.89,0,0,1-28.11,33.95Z"/><path class="cls-61" d="M182.89,202.47A100.17,100.17,0,0,0,204.36,177l27.4,16a131.9,131.9,0,0,1-28.38,33.72Z"/><path class="cls-62" d="M182.31,203A99.46,99.46,0,0,0,204,177.63l27.28,16.23a130.84,130.84,0,0,1-28.65,33.49Z"/><path class="cls-62" d="M181.72,203.42a97.68,97.68,0,0,0,21.85-25.15l27.15,16.44A129.42,129.42,0,0,1,201.83,228Z"/><path class="cls-62" d="M181.13,203.9a96.43,96.43,0,0,0,22-25l27,16.65A130.62,130.62,0,0,1,217,213.36a132.47,132.47,0,0,1-16,15.25Z"/><path class="cls-62" d="M180.54,204.38a97.66,97.66,0,0,0,22.23-24.83l26.89,16.86a129.67,129.67,0,0,1-29.38,32.83Z"/><path class="cls-62" d="M180,204.86a99.25,99.25,0,0,0,22.43-24.67l26.76,17.07a131.22,131.22,0,0,1-29.64,32.61Z"/><path class="cls-62" d="M179.36,205.33A100.56,100.56,0,0,0,202,180.84l26.63,17.27a132,132,0,0,1-29.9,32.37Z"/><path class="cls-62" d="M178.75,205.77a99.66,99.66,0,0,0,22.82-24.3L228.06,199a131.45,131.45,0,0,1-30.15,32.13Z"/><path class="cls-62" d="M178.14,206.22a98.23,98.23,0,0,0,23-24.13l26.35,17.69a129.93,129.93,0,0,1-30.39,31.89Z"/><path class="cls-62" d="M177.53,206.67a101.44,101.44,0,0,0,12.63-11,99.54,99.54,0,0,0,10.55-13l26.21,17.89A129.9,129.9,0,0,1,213,217.76a132.24,132.24,0,0,1-16.67,14.51Z"/><path class="cls-63" d="M176.92,207.12a97.93,97.93,0,0,0,23.36-23.79l26.08,18.1a129.8,129.8,0,0,1-30.87,31.43Z"/><path class="cls-64" d="M176.31,207.57A99.2,99.2,0,0,0,199.85,184l25.94,18.29a131.07,131.07,0,0,1-31.1,31.2Z"/><path class="cls-65" d="M175.7,208a100.74,100.74,0,0,0,23.72-23.44l25.8,18.49a132.36,132.36,0,0,1-31.34,31Z"/><path class="cls-65" d="M175.07,208.43A99.91,99.91,0,0,0,199,185.2l25.66,18.69a131.81,131.81,0,0,1-31.6,30.7Z"/><path class="cls-65" d="M174.44,208.85a98.42,98.42,0,0,0,24.08-23L224,204.69a130.46,130.46,0,0,1-31.82,30.46Z"/><path class="cls-65" d="M173.8,209.27a100.31,100.31,0,0,0,13.12-10.39,97.61,97.61,0,0,0,11.14-12.48l25.37,19.08A129.59,129.59,0,0,1,208.7,222a132.37,132.37,0,0,1-17.32,13.73Z"/><path class="cls-65" d="M173.17,209.69A98.11,98.11,0,0,0,197.61,187l25.21,19.28a129.62,129.62,0,0,1-32.27,30Z"/><path class="cls-65" d="M172.55,210.11a99.13,99.13,0,0,0,24.6-22.51l25.06,19.48a130.71,130.71,0,0,1-32.5,29.73Z"/><path class="cls-65" d="M171.92,210.53a100.43,100.43,0,0,0,24.77-22.33l24.91,19.67a132.36,132.36,0,0,1-32.72,29.49Z"/><path class="cls-65" d="M171.27,210.92a100.74,100.74,0,0,0,25-22.11L221,208.66a132.31,132.31,0,0,1-33,29.22Z"/><path class="cls-66" d="M170.62,211.31a98.82,98.82,0,0,0,25.12-21.93l24.61,20.05a130.68,130.68,0,0,1-33.18,29Z"/><path class="cls-66" d="M170,211.7A97.86,97.86,0,0,0,195.25,190l24.46,20.24a129.92,129.92,0,0,1-33.4,28.71Z"/><path class="cls-67" d="M169.32,212.09A98.57,98.57,0,0,0,183,202.41a100.21,100.21,0,0,0,11.8-11.87L219.06,211a131,131,0,0,1-15.58,15.67,129.26,129.26,0,0,1-18,12.79Z"/><path class="cls-67" d="M168.67,212.48a98.85,98.85,0,0,0,25.61-21.36l24.14,20.61a130.29,130.29,0,0,1-33.83,28.2Z"/><path class="cls-67" d="M168,212.87a100.27,100.27,0,0,0,25.77-21.17l24,20.79a132.14,132.14,0,0,1-34,28Z"/><path class="cls-67" d="M167.36,213.23a100.74,100.74,0,0,0,25.95-20.95l23.82,21a132.54,132.54,0,0,1-34.27,27.67Z"/><path class="cls-67" d="M166.69,213.59a99.54,99.54,0,0,0,26.11-20.75L216.46,214A131,131,0,0,1,182,241.4Z"/><path class="cls-67" d="M166,213.94a98,98,0,0,0,26.26-20.55l23.5,21.34a129.76,129.76,0,0,1-34.69,27.15Z"/><path class="cls-67" d="M165.36,214.3a99,99,0,0,0,14.08-9A102.48,102.48,0,0,0,191.77,194l23.33,21.52a133.16,133.16,0,0,1-16.28,14.94,131.07,131.07,0,0,1-18.61,11.94Z"/><path class="cls-67" d="M164.69,214.66a98.29,98.29,0,0,0,26.56-20.16l23.17,21.7a130.21,130.21,0,0,1-35.09,26.62Z"/><path class="cls-68" d="M164,215a99.85,99.85,0,0,0,26.71-20l23,21.87a131.74,131.74,0,0,1-35.29,26.36Z"/><path class="cls-68" d="M163.35,215.36a101,101,0,0,0,26.88-19.74l22.83,22a132.06,132.06,0,0,1-35.51,26.08Z"/><path class="cls-69" d="M162.67,215.68a99.32,99.32,0,0,0,27-19.53l22.67,22.23a131.5,131.5,0,0,1-35.71,25.8Z"/><path class="cls-69" d="M162,216a97.76,97.76,0,0,0,27.17-19.32l22.49,22.4a129.93,129.93,0,0,1-35.9,25.53Z"/><path class="cls-70" d="M161.3,216.33a96.67,96.67,0,0,0,27.31-19.12l22.32,22.57A128.77,128.77,0,0,1,174.84,245Z"/><path class="cls-70" d="M160.62,216.65a97.76,97.76,0,0,0,27.45-18.91l22.15,22.74a129.72,129.72,0,0,1-36.28,25Z"/><path class="cls-70" d="M159.94,217a99.46,99.46,0,0,0,27.59-18.7l22,22.9A130.86,130.86,0,0,1,173,245.89Z"/><path class="cls-70" d="M159.25,217.29A100.27,100.27,0,0,0,187,198.81l21.8,23.07a132.09,132.09,0,0,1-36.67,24.43Z"/><path class="cls-70" d="M158.55,217.58a99.52,99.52,0,0,0,27.89-18.25l21.62,23.24A131.47,131.47,0,0,1,171.2,246.7Z"/><path class="cls-71" d="M157.86,217.87a98.11,98.11,0,0,0,28-18l21.44,23.4a129.43,129.43,0,0,1-37,23.85Z"/><path class="cls-71" d="M157.16,218.17a96.58,96.58,0,0,0,28.15-17.84l21.26,23.57a128.17,128.17,0,0,1-37.22,23.57Z"/><path class="cls-71" d="M156.46,218.46a97.66,97.66,0,0,0,28.29-17.62l21.08,23.73a129.64,129.64,0,0,1-37.41,23.29Z"/><path class="cls-71" d="M155.77,218.75a98.49,98.49,0,0,0,28.41-17.41l20.9,23.89a130.31,130.31,0,0,1-37.58,23Z"/><path class="cls-71" d="M155.07,219a100.31,100.31,0,0,0,28.55-17.19l20.71,24.05a131.81,131.81,0,0,1-37.76,22.72Z"/><path class="cls-71" d="M154.36,219.29a99.62,99.62,0,0,0,28.69-16.94l20.53,24.2a131.6,131.6,0,0,1-38,22.42Z"/><path class="cls-71" d="M153.65,219.55a98,98,0,0,0,28.81-16.73l20.34,24.36a129.43,129.43,0,0,1-38.11,22.13Z"/><path class="cls-72" d="M152.94,219.81a100.51,100.51,0,0,0,15.17-7,98.29,98.29,0,0,0,13.76-9.52L202,227.82a128.62,128.62,0,0,1-38.29,21.83Z"/><path class="cls-72" d="M152.23,220.06a97.12,97.12,0,0,0,29.05-16.28l20,24.67A128.86,128.86,0,0,1,162.8,250Z"/><path class="cls-72" d="M151.52,220.32a97.84,97.84,0,0,0,29.17-16.07l19.79,24.83a130,130,0,0,1-38.62,21.25Z"/><path class="cls-73" d="M150.81,220.58a99.63,99.63,0,0,0,29.3-15.85l19.59,25a131.47,131.47,0,0,1-38.78,21Z"/><path class="cls-73" d="M150.09,220.81a99.74,99.74,0,0,0,29.43-15.6l19.4,25.12A131.17,131.17,0,0,1,160,251Z"/><path class="cls-73" d="M149.37,221a98.07,98.07,0,0,0,29.54-15.37l19.21,25.26A129.63,129.63,0,0,1,159,251.27Z"/><path class="cls-74" d="M148.65,221.25a97,97,0,0,0,29.65-15.14l19,25.41a128.58,128.58,0,0,1-39.27,20Z"/><path class="cls-74" d="M147.93,221.47a96.64,96.64,0,0,0,15.51-6.15,100.21,100.21,0,0,0,14.25-8.77l18.82,25.56a133.15,133.15,0,0,1-18.84,11.58,128.53,128.53,0,0,1-20.58,8.17Z"/><path class="cls-74" d="M147.21,221.69A97.41,97.41,0,0,0,177.08,207l18.62,25.7a128.85,128.85,0,0,1-39.57,19.45Z"/><path class="cls-74" d="M146.48,221.92a99.07,99.07,0,0,0,30-14.47l18.42,25.85a130.43,130.43,0,0,1-39.72,19.14Z"/><path class="cls-74" d="M145.76,222.12a99.44,99.44,0,0,0,30.1-14.22l18.23,26a131.09,131.09,0,0,1-39.89,18.82Z"/><path class="cls-74" d="M145,222.3a97.63,97.63,0,0,0,30.2-14l18,26.13a129.55,129.55,0,0,1-40,18.51Z"/><path class="cls-75" d="M144.3,222.48a96.53,96.53,0,0,0,30.3-13.74L192.43,235a128.54,128.54,0,0,1-40.17,18.21Z"/><path class="cls-75" d="M143.57,222.67a96.88,96.88,0,0,0,15.77-5.41,99.83,99.83,0,0,0,14.63-8.1l17.63,26.4a133.19,133.19,0,0,1-19.36,10.7,128.9,128.9,0,0,1-21,7.2Z"/><path class="cls-75" d="M142.84,222.86a96.64,96.64,0,0,0,30.5-13.28l17.42,26.53a128.28,128.28,0,0,1-40.45,17.59Z"/><path class="cls-75" d="M142.1,223a97.88,97.88,0,0,0,30.61-13l17.22,26.66A129.73,129.73,0,0,1,149.34,254Z"/><path class="cls-75" d="M141.37,223.22a98.84,98.84,0,0,0,30.71-12.8l17,26.8a131,131,0,0,1-40.74,17Z"/><path class="cls-75" d="M140.63,223.37a98.06,98.06,0,0,0,30.81-12.55l16.81,26.92a129.44,129.44,0,0,1-40.87,16.64Z"/><path class="cls-75" d="M139.89,223.52a96.7,96.7,0,0,0,30.9-12.31l16.6,27a128,128,0,0,1-41,16.32Z"/><path class="cls-75" d="M139.16,223.67a99.59,99.59,0,0,0,16-4.66,101.23,101.23,0,0,0,15-7.41l16.39,27.17a126.22,126.22,0,0,1-41.12,16Z"/><path class="cls-75" d="M138.42,223.82A96.35,96.35,0,0,0,169.49,212l16.18,27.3A127.86,127.86,0,0,1,144.43,255Z"/><path class="cls-75" d="M137.68,224a97.17,97.17,0,0,0,31.16-11.6l16,27.43a128.88,128.88,0,0,1-41.36,15.38Z"/><path class="cls-76" d="M136.94,224.12a98.7,98.7,0,0,0,31.25-11.35L184,240.31a130.34,130.34,0,0,1-41.49,15.06Z"/><path class="cls-76" d="M136.2,224.23a97.82,97.82,0,0,0,31.33-11.09l15.55,27.67a129.56,129.56,0,0,1-41.61,14.72Z"/><path class="cls-77" d="M135.45,224.34a95.91,95.91,0,0,0,31.41-10.85l15.34,27.79a127.84,127.84,0,0,1-41.72,14.4Z"/><path class="cls-77" d="M134.71,224.45a94.69,94.69,0,0,0,31.49-10.6l15.12,27.91a126.92,126.92,0,0,1-41.84,14.07Z"/><path class="cls-78" d="M134,224.56a95.39,95.39,0,0,0,31.57-10.35l14.91,28A127.38,127.38,0,0,1,138.49,256Z"/><path class="cls-78" d="M133.22,224.68a96.5,96.5,0,0,0,31.64-10.11l14.7,28.13a128,128,0,0,1-42.06,13.43Z"/><path class="cls-78" d="M132.47,224.79a97.9,97.9,0,0,0,31.73-9.87l14.47,28.25a129.35,129.35,0,0,1-42.16,13.1Z"/><path class="cls-78" d="M131.72,224.88a98.12,98.12,0,0,0,31.81-9.61l14.26,28.36a129.57,129.57,0,0,1-42.28,12.76Z"/><path class="cls-78" d="M131,225a96.09,96.09,0,0,0,31.87-9.35l14,28.46a127.88,127.88,0,0,1-42.37,12.44Z"/><path class="cls-79" d="M130.22,225a98,98,0,0,0,16.36-3.14,95.71,95.71,0,0,0,15.58-6L176,244.49a127.19,127.19,0,0,1-20.69,7.92,130.88,130.88,0,0,1-21.78,4.19Z"/><path class="cls-79" d="M129.47,225.1a95,95,0,0,0,16.38-3,98.35,98.35,0,0,0,15.63-5.85l13.59,28.69a130.59,130.59,0,0,1-20.74,7.75,126.22,126.22,0,0,1-21.82,4Z"/><path class="cls-79" d="M128.72,225.18a95.67,95.67,0,0,0,32.08-8.61l13.37,28.78a127.1,127.1,0,0,1-42.66,11.44Z"/><path class="cls-79" d="M128,225.25a97,97,0,0,0,32.13-8.35l13.15,28.88a128.57,128.57,0,0,1-42.74,11.11Z"/><path class="cls-80" d="M127.23,225.32a98,98,0,0,0,32.2-8.1l12.93,29A130,130,0,0,1,129.52,257Z"/><path class="cls-80" d="M126.47,225.36a96.6,96.6,0,0,0,32.26-7.85l12.7,29.09A128.1,128.1,0,0,1,128.51,257Z"/><path class="cls-80" d="M125.72,225.39A95.32,95.32,0,0,0,158,217.8L170.51,247a126.68,126.68,0,0,1-43,10.1Z"/><path class="cls-80" d="M125,225.43a94.16,94.16,0,0,0,32.37-7.34l12.25,29.28a130.7,130.7,0,0,1-21.1,6.79,129.21,129.21,0,0,1-22,3Z"/><path class="cls-80" d="M124.21,225.46a94.79,94.79,0,0,0,32.43-7.08l12,29.38a127.09,127.09,0,0,1-43.15,9.42Z"/><path class="cls-80" d="M123.46,225.5A96,96,0,0,0,156,218.67l11.79,29.47a127.93,127.93,0,0,1-43.24,9.08Z"/><path class="cls-81" d="M122.71,225.54A97.91,97.91,0,0,0,155.25,219l11.56,29.56a129.65,129.65,0,0,1-43.31,8.74Z"/><path class="cls-81" d="M122,225.55a96.91,96.91,0,0,0,32.58-6.32l11.33,29.65a128.58,128.58,0,0,1-43.37,8.4Z"/><path class="cls-81" d="M121.2,225.54a95.07,95.07,0,0,0,32.63-6.06l11.1,29.74a127,127,0,0,1-43.44,8.06Z"/><path class="cls-81" d="M120.45,225.54a93.6,93.6,0,0,0,32.67-5.8L164,249.56a125.37,125.37,0,0,1-43.5,7.72Z"/><path class="cls-81" d="M119.69,225.54A94.79,94.79,0,0,0,152.41,220l10.64,29.9a126.73,126.73,0,0,1-43.56,7.38Z"/><path class="cls-82" d="M118.94,225.54c1.39,0,2.78,0,4.17,0l4.16-.2,4.15-.41c1.38-.13,2.75-.4,4.13-.58a98,98,0,0,0,16.15-4.08l10.4,30a130.31,130.31,0,0,1-21.49,5.42c-1.84.26-3.66.59-5.5.78l-5.53.54-5.55.26c-1.84.08-3.7,0-5.55,0Z"/><path class="cls-83" d="M118.19,225.54a96.77,96.77,0,0,0,32.8-5l10.17,30.07a128.83,128.83,0,0,1-43.68,6.69Z"/><path class="cls-83" d="M117.43,225.53a97.41,97.41,0,0,0,32.85-4.78l9.93,30.15a129,129,0,0,1-43.73,6.35Z"/><path class="cls-83" d="M116.68,225.48A95.47,95.47,0,0,0,149.56,221l9.69,30.22a127.12,127.12,0,0,1-43.77,6Z"/><path class="cls-84" d="M115.93,225.44a98.47,98.47,0,0,0,16.64-.66,95.39,95.39,0,0,0,16.26-3.59l9.46,30.3a127,127,0,0,1-21.66,4.76,130.18,130.18,0,0,1-22.15.9Z"/><path class="cls-84" d="M115.17,225.4a95.47,95.47,0,0,0,16.65-.53,98.58,98.58,0,0,0,16.29-3.46l9.22,30.37a129.16,129.16,0,0,1-21.69,4.6,127.23,127.23,0,0,1-22.16.71Z"/><path class="cls-84" d="M114.42,225.36a95,95,0,0,0,33-3.73l9,30.45a126.8,126.8,0,0,1-43.91,5Z"/><path class="cls-84" d="M113.66,225.32a96.27,96.27,0,0,0,33-3.46l8.75,30.51A127.92,127.92,0,0,1,111.47,257Z"/><path class="cls-84" d="M112.91,225.28a97.4,97.4,0,0,0,33-3.21l8.5,30.58a129.23,129.23,0,0,1-44,4.28Z"/><path class="cls-84" d="M112.16,225.21a96,96,0,0,0,33.06-3l8.26,30.65a128.07,128.07,0,0,1-44,3.94Z"/><path class="cls-84" d="M111.41,225.12a94.78,94.78,0,0,0,33.08-2.68l8,30.71a126.17,126.17,0,0,1-44,3.57Z"/><path class="cls-84" d="M110.66,225a96.6,96.6,0,0,0,16.66.29,99.31,99.31,0,0,0,16.43-2.7l7.79,30.77A129.79,129.79,0,0,1,129.65,257a127.23,127.23,0,0,1-22.17-.36Z"/><path class="cls-84" d="M109.91,224.94A93.64,93.64,0,0,0,143,222.81l7.54,30.83a125.54,125.54,0,0,1-44.07,2.86Z"/><path class="cls-85" d="M109.16,224.86a86.72,86.72,0,0,0,16.66.53A98.49,98.49,0,0,0,142.29,223l7.3,30.89a129.93,129.93,0,0,1-22,3.18,116.27,116.27,0,0,1-22.15-.69Z"/><path class="cls-85" d="M108.41,224.77l4.15.49,4.17.23c1.39.09,2.78,0,4.17,0s2.78,0,4.16-.12a97.57,97.57,0,0,0,16.5-2.24l7.06,30.95a129.24,129.24,0,0,1-22,3c-1.85.09-3.7.2-5.55.16s-3.7,0-5.55-.08l-5.53-.3-5.51-.63Z"/><path class="cls-85" d="M107.66,224.69a93.7,93.7,0,0,0,16.65.77,91.79,91.79,0,0,0,16.51-2.13l6.82,31a127.29,127.29,0,0,1-44.14,1.82Z"/><path class="cls-85" d="M106.91,224.6a95.34,95.34,0,0,0,33.18-1.12l6.56,31.05a126.92,126.92,0,0,1-44.14,1.5Z"/><path class="cls-85" d="M106.16,224.52l4.15.47,2.07.25c.7.07,1.39.08,2.09.12,2.78.21,5.56.19,8.34.17a95.8,95.8,0,0,0,16.54-1.9l6.32,31.1a126.57,126.57,0,0,1-22,2.53c-3.7,0-7.4.05-11.09-.22-.92-.06-1.85-.08-2.77-.17l-2.75-.31-5.51-.64Z"/><path class="cls-85" d="M105.41,224.4c1.38.22,2.77.33,4.15.5l2.07.25,1,.12,1,0c1.39.07,2.78.17,4.17.22h4.17a100.08,100.08,0,0,0,16.56-1.77l6.07,31.15a129.53,129.53,0,0,1-22.05,2.35h-5.55c-1.85-.06-3.7-.19-5.54-.28l-1.39-.08-1.37-.15-2.76-.31c-1.83-.23-3.68-.4-5.5-.69Z"/><path class="cls-85" d="M104.67,224.26a95.66,95.66,0,0,0,33.2-.33l5.83,31.2a127.45,127.45,0,0,1-44.16.45Z"/><path class="cls-86" d="M103.93,224.12c.69.12,1.37.27,2,.38l2.08.23,4.15.49c2.77.18,5.55.37,8.34.32a98.06,98.06,0,0,0,16.58-1.46l5.59,31.24a129,129,0,0,1-22.1,2c-3.7.05-7.39-.17-11.08-.44l-5.51-.63-2.75-.32c-.91-.15-1.82-.33-2.73-.49Z"/><path class="cls-86" d="M103.19,224a95.67,95.67,0,0,0,33.2.22l5.34,31.29a127.24,127.24,0,0,1-44.17-.28Z"/><path class="cls-86" d="M102.45,223.84a94.67,94.67,0,0,0,33.19.47l5.09,31.33A126.4,126.4,0,0,1,96.58,255Z"/><path class="cls-87" d="M101.71,223.7l4.1.78L110,225c1.38.16,2.76.36,4.15.39s2.78.2,4.17.19a91.48,91.48,0,0,0,16.62-1.11l4.84,31.37a124.18,124.18,0,0,1-22.13,1.48c-1.85,0-3.69-.17-5.54-.25s-3.68-.31-5.52-.51l-5.5-.65-5.46-1Z"/><path class="cls-87" d="M101,223.56l4.11.77a17.94,17.94,0,0,0,2.06.3l2.08.23c1.38.14,2.76.38,4.15.44l4.17.23a99.27,99.27,0,0,0,16.62-1l4.6,31.41a131.21,131.21,0,0,1-22.14,1.32l-5.54-.3c-1.85-.1-3.68-.38-5.51-.57l-2.76-.32c-.92-.11-1.83-.2-2.74-.39l-5.45-1Z"/><path class="cls-88" d="M100.22,223.43c2.75.46,5.46,1.13,8.24,1.35l4.15.48,4.17.23a99.41,99.41,0,0,0,16.63-.84l4.35,31.44a131.3,131.3,0,0,1-22.15,1.12l-5.54-.31-5.51-.62c-3.69-.33-7.3-1.15-10.94-1.81Z"/><path class="cls-88" d="M99.48,223.29A107.14,107.14,0,0,0,116,225.45a99.45,99.45,0,0,0,16.64-.69l4.1,31.48a131.23,131.23,0,0,1-22.15.91,136.51,136.51,0,0,1-22-2.87Z"/><path class="cls-88" d="M98.74,223.12a98.23,98.23,0,0,0,33.18,1.74l3.85,31.51a130,130,0,0,1-44.11-2.31Z"/><path class="cls-88" d="M98,222.92c1.33.41,2.72.57,4.08.85s2.73.55,4.11.75l4.15.48,2.07.24c.69.07,1.39.08,2.09.12a90.81,90.81,0,0,0,16.65-.43l3.6,31.54a123.49,123.49,0,0,1-22.17.58c-.92-.06-1.84-.09-2.76-.17l-2.76-.31-5.51-.65c-1.82-.27-3.63-.65-5.45-1s-3.65-.62-5.43-1.13Z"/><path class="cls-88" d="M97.29,222.73l2,.53,2,.37,4.1.78c1.38.21,2.77.32,4.15.5s2.76.39,4.15.41a90.88,90.88,0,0,0,16.66-.31l3.35,31.56a122.55,122.55,0,0,1-22.17.42c-1.85-.05-3.67-.35-5.51-.54s-3.68-.39-5.51-.68l-5.45-1-2.72-.52-2.69-.68Z"/><path class="cls-88" d="M96.56,222.54c2.67.8,5.43,1.18,8.16,1.73l1,.19c.34.06.69.08,1,.13l2.08.23c1.38.15,2.76.35,4.15.47a96.55,96.55,0,0,0,16.66-.21l3.1,31.59a128.25,128.25,0,0,1-22.17.26c-1.84-.14-3.67-.39-5.51-.59l-2.75-.33c-.46,0-.92-.1-1.38-.17l-1.36-.25c-3.63-.7-7.29-1.26-10.85-2.28Z"/><path class="cls-88" d="M95.83,222.35c1.35.33,2.68.76,4,1l4.11.77c.68.12,1.36.27,2,.37l2.08.24,4.15.48a99.65,99.65,0,0,0,16.66-.06l2.85,31.61a131.31,131.31,0,0,1-22.17.08l-5.5-.63-2.76-.32c-.91-.14-1.82-.33-2.73-.49l-5.45-1c-1.81-.35-3.58-.88-5.38-1.33Z"/><path class="cls-89" d="M95.09,222.16l4,1.06,4.11.77c2.72.61,5.51.78,8.27,1.14a96.56,96.56,0,0,0,16.66.1l2.6,31.64a130.14,130.14,0,0,1-22.16-.13c-3.67-.45-7.36-.74-11-1.51l-5.45-1-5.37-1.39Z"/><path class="cls-89" d="M94.36,222a98.66,98.66,0,0,0,33.06,3.34L129.78,257a130.49,130.49,0,0,1-43.94-4.41Z"/><path class="cls-89" d="M93.63,221.78c2.71.66,5.36,1.52,8.12,1.93l4.11.77L110,225c1.38.16,2.76.36,4.15.4s2.78.19,4.17.18l4.17,0,4.17-.2,2.1,31.67-5.54.26h-5.55c-1.85,0-3.7-.17-5.54-.25s-3.69-.3-5.52-.51l-5.51-.64-5.45-1c-3.66-.59-7.2-1.67-10.79-2.57Z"/><path class="cls-89" d="M92.9,221.6a100.4,100.4,0,0,0,16.36,3.27,85.84,85.84,0,0,0,16.65.51l1.86,31.69a117.92,117.92,0,0,1-22.15-.67A132,132,0,0,1,83.9,252Z"/><path class="cls-89" d="M92.18,221.37c1.33.43,2.69.71,4,1.08l2,.53,1,.27,1,.18c2.74.47,5.46,1.14,8.24,1.35l4.15.49,4.17.22c1.38.09,2.78,0,4.17,0s2.77-.06,4.16-.12l1.61,31.7c-1.85.08-3.7.2-5.55.16s-3.7,0-5.55-.07l-5.54-.3-5.5-.63c-3.69-.32-7.31-1.14-10.94-1.8l-1.36-.26L91,253.88l-2.68-.69c-1.79-.49-3.59-.89-5.35-1.46Z"/><path class="cls-90" d="M91.47,221.12c1.3.5,2.67.77,4,1.14s2.69.73,4,1l4.1.76,2.05.39c.69.11,1.39.16,2.08.25a91.8,91.8,0,0,0,16.65.75l1.36,31.71a124.07,124.07,0,0,1-22.14-1c-.92-.12-1.84-.21-2.75-.34l-2.73-.51-5.45-1c-1.8-.41-3.58-.91-5.37-1.37s-3.59-.88-5.33-1.51Z"/><path class="cls-90" d="M90.75,220.88l2,.67,2,.52,4,1.06c1.36.32,2.74.52,4.1.79s2.72.59,4.12.69a98.67,98.67,0,0,0,16.65.88l1.1,31.72a130,130,0,0,1-22.13-1.16c-1.84-.16-3.64-.6-5.46-.91s-3.64-.65-5.44-1.07l-5.37-1.39L83.68,252l-2.63-.87Z"/><path class="cls-90" d="M90,220.64c2.61,1,5.34,1.56,8,2.3,1.34.4,2.73.56,4.09.84s2.73.55,4.11.75l4.15.47,2.07.25c.69.05,1.39.08,2.08.12,2.78.2,5.57.18,8.34.16l.86,31.73c-3.7,0-7.4.05-11.09-.21-.92-.06-1.85-.09-2.77-.17l-2.75-.31-5.51-.64c-1.83-.26-3.64-.65-5.46-1s-3.65-.62-5.42-1.14c-3.58-.94-7.19-1.77-10.67-3Z"/><path class="cls-91" d="M89.32,220.4c1.33.42,2.63.93,4,1.3l4,1c.68.18,1.35.37,2,.53l2.06.37,4.1.78c1.38.21,2.77.32,4.15.49s2.76.39,4.15.42,2.78.17,4.17.21h4.17l.61,31.73h-5.55c-1.85,0-3.7-.18-5.54-.28s-3.68-.34-5.52-.53-3.68-.4-5.5-.68l-5.45-1-2.73-.52c-.9-.2-1.79-.45-2.69-.68l-5.36-1.4c-1.78-.49-3.52-1.14-5.28-1.71Z"/><path class="cls-91" d="M88.61,220.16a96.27,96.27,0,0,0,32.79,5.38l.35,31.74a127.91,127.91,0,0,1-43.56-7.14Z"/><path class="cls-92" d="M87.89,219.92l4,1.33a15.3,15.3,0,0,0,2,.59l2,.52,2,.53a20.61,20.61,0,0,0,2,.48l4.11.76c.68.13,1.36.28,2,.38l2.08.23,4.15.49c2.77.18,5.55.36,8.33.31l.11,31.74c-3.7.05-7.39-.17-11.08-.42l-5.51-.63-2.75-.33c-.92-.13-1.82-.32-2.73-.48l-5.45-1c-.92-.15-1.81-.41-2.7-.64l-2.69-.69-2.68-.7c-.9-.23-1.79-.47-2.66-.78l-5.26-1.77Z"/><path class="cls-92" d="M87.17,219.68a98.49,98.49,0,0,0,32.72,5.86l-.14,31.74A130.33,130.33,0,0,1,76.3,249.5Z"/><path class="cls-92" d="M86.46,219.45a100.48,100.48,0,0,0,32.68,6.09l-.4,31.73a131.79,131.79,0,0,1-43.39-8.09Z"/><path class="cls-92" d="M85.76,219.16a99.41,99.41,0,0,0,32.62,6.37l-.64,31.74a131.5,131.5,0,0,1-43.32-8.46Z"/><path class="cls-92" d="M85.06,218.87c1.27.58,2.61,1,3.93,1.42s2.63.9,4,1.32l4,1,2,.54c.68.15,1.37.26,2,.39l4.1.77a20.61,20.61,0,0,0,2.07.29l2.08.23,2.07.25c.69.08,1.38.17,2.08.19l4.17.23-.89,31.72L111.2,257c-.92,0-1.84-.14-2.76-.25l-2.75-.31-2.76-.33c-.92-.11-1.84-.19-2.74-.38l-5.45-1c-.91-.18-1.82-.33-2.72-.53l-2.69-.69L84,252.05c-1.77-.54-3.52-1.15-5.27-1.73s-3.52-1.15-5.21-1.89Z"/><path class="cls-92" d="M84.36,218.58a97,97,0,0,0,32.51,6.91l-1.13,31.72A128.72,128.72,0,0,1,72.56,248Z"/><path class="cls-92" d="M83.67,218.29c2.54,1.16,5.21,1.94,7.84,2.85,1.31.5,2.68.76,4,1.13s2.69.74,4,1a105.74,105.74,0,0,0,16.54,2.14l-1.38,31.71a137.61,137.61,0,0,1-22-2.85c-1.81-.4-3.59-.9-5.38-1.36s-3.59-.88-5.33-1.51c-3.51-1.18-7-2.28-10.42-3.78Z"/><path class="cls-93" d="M83,218c1.29.52,2.56,1.1,3.87,1.57l4,1.33,2,.67,2,.51,4,1.06c1.36.31,2.73.52,4.1.79s2.72.59,4.12.69c2.76.28,5.52.73,8.31.79l-1.64,31.7c-3.69-.11-7.36-.64-11-1.05-1.84-.17-3.65-.59-5.47-.91s-3.64-.65-5.44-1.06l-5.37-1.39L83.74,252l-2.63-.87-5.26-1.77c-1.73-.63-3.42-1.38-5.14-2.07Z"/><path class="cls-93" d="M82.27,217.71a96.31,96.31,0,0,0,32.34,7.66l-1.88,31.68a127.77,127.77,0,0,1-42.94-10.16Z"/><path class="cls-94" d="M81.57,217.42l3.86,1.6,1,.41,1,.33,2,.66c1.32.42,2.62.93,4,1.29l4,1c.67.17,1.34.37,2,.52l2.06.37,4.1.78c1.38.2,2.76.32,4.15.49s2.76.38,4.15.41L111.73,257c-1.85-.06-3.68-.34-5.51-.53s-3.68-.41-5.51-.67l-5.45-1-2.72-.52c-.91-.19-1.8-.45-2.69-.67l-5.37-1.4c-1.78-.48-3.52-1.14-5.27-1.7l-2.63-.89-1.31-.45L74,248.63l-5.12-2.12Z"/><path class="cls-94" d="M80.87,217.14a100,100,0,0,0,32.24,8.15l-2.38,31.65a131.28,131.28,0,0,1-42.79-10.82Z"/><path class="cls-94" d="M80.18,216.85a100.88,100.88,0,0,0,32.17,8.38l-2.62,31.64A132.88,132.88,0,0,1,67,245.73Z"/><path class="cls-94" d="M79.5,216.51a19.15,19.15,0,0,0,1.91.85l1.93.79,1.93.81a19.07,19.07,0,0,0,2,.74c2.65.83,5.24,1.89,8,2.48l4,1.06,4.1.76c2.72.62,5.52.77,8.27,1.14l-2.86,31.61c-3.67-.45-7.37-.72-11-1.5l-5.45-1-5.37-1.39c-3.61-.83-7.07-2.16-10.58-3.31a26,26,0,0,1-2.59-1l-2.56-1.06-2.56-1.06c-.86-.35-1.71-.7-2.53-1.13Z"/><path class="cls-94" d="M78.83,216.17a37.06,37.06,0,0,0,3.81,1.69l3.86,1.6,4,1.32,2,.68c.66.21,1.35.35,2,.54l4,1.05a20.55,20.55,0,0,0,2,.43l2,.38,2,.39a18.38,18.38,0,0,0,2.06.33l4.15.47-3.11,31.59-5.51-.64c-.92-.08-1.83-.26-2.73-.43l-2.73-.5L94,254.55c-.9-.17-1.82-.32-2.71-.58L86,252.58c-.89-.25-1.8-.45-2.68-.73L80.66,251l-5.25-1.77-5.13-2.1c-1.71-.71-3.42-1.4-5.06-2.26Z"/><path class="cls-94" d="M78.15,215.83A95.13,95.13,0,0,0,110.1,225l-3.35,31.56A127,127,0,0,1,64.32,244.4Z"/><path class="cls-94" d="M77.47,215.5l1.87.93.94.47,1,.39,3.86,1.6A41.57,41.57,0,0,0,89,220.3c1.33.44,2.64.91,4,1.32l4,1,2,.53c.68.15,1.37.26,2,.39l4.1.77c1.37.26,2.77.34,4.14.52l-3.6,31.53c-1.83-.23-3.68-.37-5.5-.7l-5.45-1c-.91-.17-1.82-.33-2.72-.53l-2.69-.69L84,252.07c-1.77-.54-3.51-1.15-5.27-1.73s-3.52-1.14-5.21-1.89l-5.12-2.12-1.28-.54-1.24-.61L63.42,244Z"/><path class="cls-94" d="M76.8,215.16c1.25.61,2.48,1.26,3.75,1.84l3.86,1.6,1.93.8,2,.66,4,1.34c1.32.41,2.69.71,4,1.08s2.68.77,4.06,1c2.74.48,5.45,1.13,8.23,1.34l-3.85,31.51c-3.68-.33-7.3-1.13-10.94-1.79-1.82-.29-3.59-.85-5.39-1.29s-3.59-.9-5.35-1.45L77.81,250l-2.62-.9-2.57-1.05-5.12-2.13c-1.67-.77-3.32-1.62-5-2.43Z"/><path class="cls-94" d="M76.12,214.83a95.88,95.88,0,0,0,31.73,9.88l-4.09,31.47a127.4,127.4,0,0,1-42.13-13.12Z"/><path class="cls-95" d="M75.44,214.49C78,215.71,80.4,217,83,218c1.3.51,2.56,1.11,3.87,1.57l4,1.32,2,.67,2,.52,4,1.05c1.35.31,2.73.52,4.1.79s2.72.58,4.11.68l-4.34,31.44c-1.84-.16-3.64-.58-5.47-.9s-3.64-.65-5.44-1.06l-5.37-1.39L83.8,252c-.88-.28-1.75-.58-2.63-.87l-5.26-1.77c-1.74-.62-3.42-1.38-5.14-2.07-3.45-1.33-6.73-3-10-4.68Z"/><path class="cls-96" d="M74.76,214.16a99.8,99.8,0,0,0,31.59,10.38L101.77,256a131.47,131.47,0,0,1-41.93-13.78Z"/><path class="cls-96" d="M74.1,213.81a100.84,100.84,0,0,0,31.51,10.63l-4.83,31.37A132.27,132.27,0,0,1,59,241.7Z"/><path class="cls-96" d="M73.44,213.42l.91.53.93.46,1.88.93,1.87.93a18.12,18.12,0,0,0,1.89.89l3.86,1.59c.65.26,1.28.56,1.94.78l2,.66,4,1.34,4,1.05c2.67.8,5.44,1.15,8.17,1.71l-5.08,31.34c-3.63-.71-7.29-1.25-10.85-2.28l-5.36-1.41-5.26-1.75-2.63-.89c-.87-.3-1.71-.69-2.57-1L68,246.15c-.87-.34-1.68-.77-2.51-1.17L63,243.75l-2.48-1.24-1.24-.62-1.2-.69Z"/><path class="cls-96" d="M72.79,213c.61.34,1.19.73,1.82,1l1.87.92,3.74,1.87,3.86,1.59,1.93.81c.64.28,1.32.45,2,.68l4,1.33a17.14,17.14,0,0,0,2,.58l2,.53,2,.53a17.57,17.57,0,0,0,2,.47l4.1.76L98.8,255.44l-5.45-1c-.91-.15-1.8-.39-2.7-.62L88,253.1l-2.68-.7c-.9-.23-1.79-.46-2.66-.77l-5.26-1.76c-.87-.31-1.76-.57-2.62-.93l-2.56-1.05-5.12-2.13-5-2.46-2.48-1.24c-.83-.41-1.61-.91-2.41-1.36Z"/><path class="cls-96" d="M72.14,212.66l1.8,1.06c.6.36,1.25.63,1.86.95l3.75,1.86c.61.33,1.26.58,1.9.85l1.94.79,1.92.8a17.2,17.2,0,0,0,2,.75c2.65.83,5.24,1.88,8,2.48l4,1.05,4.1.76-5.56,31.25-5.45-1L87,252.85c-3.61-.84-7.07-2.16-10.58-3.31a27,27,0,0,1-2.59-1l-2.56-1.05-2.56-1.07a27.34,27.34,0,0,1-2.53-1.12l-5-2.47c-.82-.42-1.67-.79-2.46-1.27l-2.4-1.39Z"/><path class="cls-96" d="M71.49,212.28a101,101,0,0,0,15.06,7.2,100.76,100.76,0,0,0,16.09,4.39l-5.81,31.21c-1.81-.37-3.64-.63-5.43-1.09L86,252.6c-.89-.25-1.79-.46-2.68-.73L80.72,251l-5.25-1.77a132.56,132.56,0,0,1-20-9.53Z"/><path class="cls-96" d="M70.84,211.9l3.61,2.1,3.74,1.85,1.87.94c.63.29,1.29.53,1.93.81l3.86,1.6c1.29.52,2.63.9,4,1.36l2,.67,1,.33,1,.26c2.71.66,5.37,1.5,8.13,1.91l-6.05,31.16c-3.66-.58-7.21-1.64-10.79-2.55L83.72,252l-1.32-.44-2.63-.87c-1.74-.61-3.52-1.14-5.23-1.83l-5.13-2.11c-.85-.36-1.71-.7-2.55-1.08l-2.48-1.23-5-2.47c-1.61-.9-3.2-1.85-4.8-2.78Z"/><path class="cls-96" d="M70.18,211.52a96.09,96.09,0,0,0,31,12.08l-6.3,31.11a127.81,127.81,0,0,1-41.1-16Z"/><path class="cls-96" d="M69.53,211.14c2.42,1.37,4.77,2.89,7.31,4,1.25.61,2.48,1.27,3.75,1.84l3.86,1.6,1.93.8,2,.66,4,1.33c1.33.41,2.69.71,4,1.08s2.67.77,4,1l-6.53,31.06c-1.83-.29-3.6-.84-5.39-1.28s-3.59-.91-5.36-1.44L77.87,250l-2.62-.89-2.57-1.06L67.56,246c-1.68-.76-3.32-1.62-5-2.43-3.35-1.56-6.49-3.52-9.68-5.37Z"/><path class="cls-97" d="M68.88,210.76a100.14,100.14,0,0,0,30.79,12.56l-6.78,31A132.15,132.15,0,0,1,52,237.66Z"/><path class="cls-97" d="M68.24,210.35a100.62,100.62,0,0,0,30.69,12.82l-7,31a132.35,132.35,0,0,1-40.72-17Z"/><path class="cls-97" d="M67.62,209.92c1.12.84,2.38,1.45,3.56,2.18s2.39,1.45,3.63,2.08L78.55,216c.63.31,1.24.64,1.88.93l1.93.79,3.86,1.6c1.31.47,2.64.89,4,1.34,2.61,1,5.34,1.54,8,2.28l-7.26,30.9c-3.57-1-7.18-1.75-10.66-3-1.75-.6-3.51-1.17-5.25-1.79l-5.12-2.12-2.56-1.06c-.84-.38-1.66-.81-2.49-1.21l-5-2.47c-1.64-.85-3.2-1.83-4.81-2.75s-3.22-1.81-4.72-2.89Z"/><path class="cls-98" d="M67,209.5c.58.39,1.15.8,1.73,1.17l1.81,1.05,3.61,2.11c1.23.64,2.49,1.24,3.74,1.87s2.48,1.28,3.78,1.76l3.86,1.6c.32.13.64.28,1,.4l1,.33,2,.66,2,.66a19.91,19.91,0,0,0,2,.62l4,1.05L90,253.62l-5.36-1.4c-.9-.21-1.77-.53-2.65-.81l-2.63-.88-2.63-.89-1.31-.45c-.43-.15-.86-.34-1.29-.51L69,246.56c-1.72-.67-3.36-1.52-5-2.34s-3.32-1.63-5-2.49L54.22,239l-2.39-1.41c-.78-.49-1.53-1-2.3-1.54Z"/><path class="cls-98" d="M66.37,209.07c2.25,1.66,4.73,2.94,7.12,4.38.3.17.59.36.9.52l.94.46,1.87.93,1.87.93c.62.31,1.24.64,1.89.89l3.87,1.59c.64.26,1.27.57,1.93.78l2,.66,4,1.33,4,1.05L89,253.37,83.64,252l-5.26-1.75-2.63-.89c-.87-.29-1.71-.69-2.57-1l-5.12-2.13c-.87-.33-1.69-.76-2.52-1.16l-2.48-1.23-2.48-1.24-1.24-.62-1.2-.69c-3.18-1.88-6.44-3.63-9.44-5.79Z"/><path class="cls-98" d="M65.74,208.65a102.92,102.92,0,0,0,14.52,8.24A102.81,102.81,0,0,0,96,222.4l-8,30.72a133.49,133.49,0,0,1-20.9-7.33,134.73,134.73,0,0,1-19.26-10.91Z"/><path class="cls-98" d="M65.12,208.22l3.45,2.36,3.61,2.1L74,213.74c.59.36,1.24.63,1.86.95l3.74,1.86a17,17,0,0,0,1.91.84l1.93.8,1.93.8,1,.41c.33.12.66.22,1,.33,2.66.84,5.25,1.88,8,2.48l-8.22,30.66c-3.6-.84-7.07-2.15-10.58-3.3l-1.31-.46-1.28-.52-2.56-1.06-2.56-1.06c-.86-.36-1.72-.7-2.54-1.12l-5-2.47c-.82-.42-1.67-.8-2.47-1.26l-2.39-1.39-4.78-2.81L47,234.31Z"/><path class="cls-98" d="M64.49,207.8,68,210.15a17,17,0,0,0,1.78,1.1l1.8,1.05,1.8,1.06.9.53c.31.17.63.31.94.47l3.74,1.85a39.26,39.26,0,0,0,3.82,1.69c1.29.53,2.57,1.09,3.87,1.59l4,1.33,2,.67c.67.2,1.35.35,2,.53l-8.46,30.59c-.89-.24-1.79-.45-2.67-.72L80.79,251l-5.26-1.77c-1.72-.66-3.42-1.39-5.13-2.09s-3.43-1.39-5.07-2.25l-5-2.46c-.41-.21-.83-.41-1.23-.63l-1.2-.7-2.4-1.39-2.39-1.4c-.79-.47-1.6-.92-2.35-1.46l-4.59-3.11Z"/><path class="cls-98" d="M63.87,207.38c2.33,1.53,4.55,3.22,7,4.54,1.21.7,2.4,1.42,3.61,2.1l3.75,1.86,1.87.93c.63.29,1.28.53,1.92.8l3.86,1.61c1.3.51,2.64.89,4,1.35l2,.67c.33.11.66.24,1,.33l1,.26-8.7,30.53L83.78,252c-.44-.13-.88-.28-1.32-.43l-2.62-.87c-1.75-.61-3.52-1.14-5.24-1.82l-5.13-2.12c-.85-.36-1.71-.7-2.55-1.08l-2.48-1.22-5-2.47c-1.62-.9-3.2-1.85-4.8-2.78-3.24-1.78-6.22-4-9.29-6Z"/><path class="cls-98" d="M63.24,207a101.17,101.17,0,0,0,29.85,14.69L84.15,252.1a132.84,132.84,0,0,1-39.59-19.48Z"/><path class="cls-99" d="M62.64,206.5a100.33,100.33,0,0,0,29.73,14.93l-9.18,30.39A132.27,132.27,0,0,1,43.76,232Z"/><path class="cls-99" d="M62.05,206c1.06.9,2.26,1.63,3.4,2.42s2.29,1.59,3.47,2.33l3.61,2.11,1.8,1.06,1.88.92L80,216.73c1.27.58,2.57,1.07,3.85,1.61,2.54,1.16,5.22,1.93,7.85,2.85L82.24,251.5c-3.5-1.19-7-2.26-10.42-3.76-1.7-.72-3.43-1.4-5.11-2.16l-5-2.46-2.47-1.24-2.4-1.39-4.78-2.8c-1.57-1-3.07-2.05-4.61-3.08s-3.08-2-4.51-3.21Z"/><path class="cls-99" d="M61.45,205.56a96.14,96.14,0,0,0,29.49,15.38l-9.65,30.24a128,128,0,0,1-39.11-20.4Z"/><path class="cls-99" d="M60.86,205.09c2.13,1.8,4.51,3.27,6.8,4.86l.86.59c.29.19.6.36.9.53l1.81,1.05c1.21.69,2.38,1.45,3.62,2.08l3.75,1.86c.62.3,1.24.64,1.87.92l1.94.79,3.85,1.6,4,1.33-9.88,30.17c-1.75-.6-3.51-1.17-5.25-1.79L70,247l-2.56-1.07c-.85-.37-1.66-.8-2.5-1.21l-5-2.46c-1.64-.84-3.21-1.83-4.81-2.75l-2.39-1.4c-.4-.23-.8-.46-1.19-.71l-1.15-.77c-3-2.08-6.16-4.08-9-6.43Z"/><path class="cls-99" d="M60.26,204.63c1.11.84,2.17,1.75,3.31,2.55L67,209.53c.58.38,1.15.8,1.74,1.16l1.8,1.05,3.61,2.12a100.77,100.77,0,0,0,15.33,6.6L79.39,250.55a133,133,0,0,1-20.33-8.78L54.27,239l-2.38-1.41c-.79-.48-1.54-1-2.31-1.53L45,232.92c-1.51-1.06-2.93-2.25-4.39-3.37Z"/><path class="cls-100" d="M59.67,204.16,63,206.75c1.14.8,2.31,1.56,3.46,2.35,2.25,1.65,4.74,2.93,7.12,4.37a16.29,16.29,0,0,0,1.84,1l1.88.92,1.87.93a17,17,0,0,0,1.89.88l3.86,1.6c.65.25,1.27.57,1.94.77l2,.66-10.35,30-2.63-.89c-.88-.28-1.71-.68-2.57-1l-5.12-2.12c-.86-.34-1.69-.75-2.52-1.17l-2.48-1.22-2.48-1.24c-.83-.41-1.65-.82-2.44-1.31-3.18-1.88-6.44-3.63-9.45-5.78-1.52-1-3.06-2.07-4.57-3.14l-4.36-3.41Z"/><path class="cls-100" d="M59.07,203.7l3.29,2.58c.28.21.54.43.83.64l.86.58,1.73,1.18,1.73,1.17A18.13,18.13,0,0,0,69.27,211l3.61,2.11c.61.34,1.18.74,1.81,1l1.88.93,3.74,1.86,3.86,1.59,1.93.8c.64.27,1.32.45,2,.68L77.49,249.91c-.87-.31-1.76-.57-2.62-.92l-2.56-1.05-5.12-2.13-5-2.45-2.48-1.24c-.83-.4-1.6-.91-2.41-1.36L52.55,238c-.81-.45-1.57-1-2.33-1.49l-2.3-1.56-2.29-1.56-1.14-.78-1.1-.84L39,228.31Z"/><path class="cls-100" d="M58.48,203.23l3.29,2.58c.55.42,1.08.89,1.66,1.27l1.73,1.17,3.45,2.36,3.62,2.1,1.8,1.06c.6.35,1.24.62,1.86.94l3.74,1.86c1.25.63,2.57,1.08,3.85,1.64l1.92.8,1,.41,1,.33L76.54,249.59l-1.31-.45L74,248.61l-2.56-1.05c-1.7-.73-3.44-1.37-5.1-2.19l-5-2.46c-.83-.42-1.67-.8-2.47-1.26l-2.4-1.39-4.78-2.81-4.58-3.1-2.29-1.56c-.77-.52-1.47-1.12-2.21-1.68l-4.36-3.42Z"/><path class="cls-100" d="M57.88,202.77a101.53,101.53,0,0,0,28.76,16.74l-11,29.75a133.13,133.13,0,0,1-38.13-22.19Z"/><path class="cls-101" d="M57.32,202.26a18.63,18.63,0,0,0,1.61,1.33l1.65,1.29,1.64,1.29.82.65c.28.2.58.39.87.59,2.32,1.53,4.55,3.22,7,4.54,1.21.69,2.4,1.42,3.62,2.1l3.74,1.85,1.87.93,1.93.8,3.86,1.61L74.66,248.9l-5.13-2.11c-.85-.36-1.71-.7-2.55-1.08l-2.49-1.22-5-2.47c-1.61-.89-3.2-1.85-4.79-2.77-3.25-1.78-6.23-4-9.3-6-.38-.26-.77-.51-1.14-.79l-1.09-.85L41,229.88l-2.18-1.71c-.73-.57-1.46-1.14-2.14-1.77Z"/><path class="cls-101" d="M56.76,201.75A40.94,40.94,0,0,0,60,204.41c1.11.85,2.19,1.73,3.3,2.57l3.46,2.35,1.73,1.18c.59.37,1.2.7,1.8,1.06l3.61,2.11c1.21.68,2.49,1.25,3.73,1.88,2.45,1.33,5.07,2.3,7.63,3.38L73.73,248.52c-3.41-1.41-6.86-2.75-10.13-4.48-1.65-.83-3.33-1.61-4.94-2.51l-4.79-2.79c-.79-.47-1.6-.92-2.38-1.41l-2.3-1.55-4.58-3.12c-1.47-1.11-2.91-2.27-4.37-3.4S37.31,227,36,225.73Z"/><path class="cls-101" d="M56.2,201.25a96.34,96.34,0,0,0,28.34,17.4L72.8,248.14a128,128,0,0,1-37.58-23.07Z"/><path class="cls-101" d="M55.64,200.74l1.55,1.4.78.7.82.64,3.29,2.58c1.07.9,2.27,1.62,3.41,2.42s2.29,1.59,3.47,2.33l3.61,2.1L74.38,214l1.87.92L80,216.75c1.27.57,2.58,1.07,3.86,1.61l-12,29.4c-1.71-.71-3.43-1.39-5.11-2.15l-5-2.46-2.48-1.24-2.39-1.38-4.79-2.8c-1.56-1-3.07-2-4.6-3.08s-3.09-2-4.51-3.21L38.66,228l-1.08-.86-1-.91-2.06-1.85Z"/><path class="cls-101" d="M55.08,200.24c1,.92,2.05,1.88,3.12,2.78l3.29,2.57,1.64,1.29,1.74,1.17,3.45,2.36a99.07,99.07,0,0,0,14.83,7.66L71,247.38A130.64,130.64,0,0,1,51.3,237.19l-4.59-3.1-2.29-1.57-2.18-1.7-4.36-3.42c-1.42-1.18-2.77-2.45-4.15-3.67Z"/><path class="cls-101" d="M54.51,199.73a96.34,96.34,0,0,0,27.94,18.06L70,247a127.76,127.76,0,0,1-37-23.93Z"/><path class="cls-101" d="M54,199.23,57.06,202l.77.71.82.64,1.65,1.29c1.11.84,2.17,1.76,3.31,2.55l3.46,2.34c.58.39,1.14.81,1.74,1.17l1.81,1.05,3.6,2.11L78,215.74a38.09,38.09,0,0,0,3.78,1.76L69.1,246.61c-1.72-.67-3.37-1.51-5-2.33l-5-2.48L54.33,239l-2.39-1.4c-.78-.49-1.53-1-2.3-1.54L45.05,233c-1.51-1.06-2.93-2.25-4.39-3.37l-2.18-1.71c-.36-.29-.73-.57-1.08-.87l-1-.92-4.12-3.71Z"/><path class="cls-101" d="M53.39,198.72l3.11,2.8c.52.46,1,.94,1.56,1.39l1.65,1.28L63,206.78l3.46,2.35c2.25,1.65,4.74,2.92,7.12,4.37a18.15,18.15,0,0,0,1.85,1l1.87.92,1.87.94a19,19,0,0,0,1.89.87l-12.87,29a27.22,27.22,0,0,1-2.52-1.16l-2.48-1.23L60.7,242.6c-.83-.41-1.66-.82-2.45-1.3-3.17-1.89-6.44-3.63-9.44-5.79-1.53-1-3.07-2.06-4.57-3.13L39.87,229l-2.18-1.71c-.7-.6-1.38-1.23-2.07-1.84l-4.12-3.71Z"/><path class="cls-102" d="M52.83,198.21a101.75,101.75,0,0,0,27.53,18.72L67.25,245.84A133.52,133.52,0,0,1,30.77,221Z"/><path class="cls-102" d="M52.31,197.67l.73.74.78.7,1.56,1.39,1.55,1.4a20.25,20.25,0,0,0,1.58,1.36l3.3,2.58c.55.42,1.07.89,1.66,1.27l1.73,1.17,3.46,2.35,3.61,2.1,1.8,1.06c.61.35,1.25.63,1.87.94l3.74,1.87L66.35,245.4l-5-2.46c-.82-.42-1.66-.8-2.46-1.26l-2.4-1.39-4.78-2.8-4.59-3.1-2.29-1.57c-.77-.51-1.47-1.11-2.2-1.67l-4.36-3.42c-.74-.55-1.42-1.18-2.11-1.8l-2.06-1.85-2.06-1.85-1-.93-1-1Z"/><path class="cls-103" d="M51.79,197.12c.49.49.94,1,1.46,1.49L54.81,200l3.11,2.8,3.29,2.57,1.64,1.3c.55.43,1.15.79,1.72,1.19L68,210.21c1.15.78,2.4,1.42,3.59,2.14l1.8,1.06.9.53.94.46L79,216.26,65.45,245l-5-2.47-1.24-.62-1.2-.69-2.39-1.39c-1.59-1-3.22-1.83-4.75-2.86l-4.59-3.11c-.75-.53-1.54-1-2.27-1.58l-2.18-1.71-4.36-3.42-4.13-3.7-2.05-1.85c-.69-.62-1.3-1.31-2-2Z"/><path class="cls-104" d="M51.26,196.58a95.89,95.89,0,0,0,27.07,19.34l-13.78,28.6a128,128,0,0,1-35.88-25.64Z"/><path class="cls-104" d="M50.74,196a100.3,100.3,0,0,0,12.58,11l3.46,2.34,1.73,1.19,1.8,1.05,3.61,2.11c1.22.68,2.49,1.25,3.73,1.88l-14,28.49c-1.65-.83-3.33-1.61-4.95-2.51l-4.78-2.79-2.39-1.41-2.29-1.55-4.58-3.12A132.67,132.67,0,0,1,28,218.16Z"/><path class="cls-104" d="M50.21,195.49l2.91,3,3.12,2.79,1.55,1.4c.53.45,1.09.86,1.64,1.3l3.29,2.58c1.11.84,2.3,1.57,3.44,2.37s2.26,1.63,3.5,2.28c2.41,1.39,4.77,2.88,7.31,4L62.76,243.63c-3.36-1.57-6.51-3.5-9.7-5.36-1.62-.9-3.1-2-4.64-3s-3.08-2.05-4.55-3.16l-4.37-3.41c-.72-.57-1.46-1.13-2.17-1.72l-2.06-1.85-4.12-3.71c-1.31-1.3-2.58-2.64-3.87-4Z"/><path class="cls-104" d="M49.68,195a96.37,96.37,0,0,0,26.62,20L61.86,243.18a128.22,128.22,0,0,1-35.28-26.46Z"/><path class="cls-104" d="M49.15,194.41c2,2,3.82,4.07,6,5.86,1,.92,2,1.89,3.12,2.78l3.3,2.57,1.64,1.29,1.74,1.17,3.45,2.36c1.19.73,2.41,1.4,3.6,2.11s2.39,1.45,3.66,2L61,242.73c-1.67-.78-3.24-1.75-4.84-2.68s-3.2-1.84-4.77-2.82l-4.59-3.11-2.28-1.56-2.19-1.7-4.36-3.42c-1.42-1.18-2.77-2.45-4.15-3.67-2.81-2.4-5.32-5.13-7.9-7.77Z"/><path class="cls-104" d="M48.63,193.87a100.05,100.05,0,0,0,26.31,20.37l-14.87,28a132,132,0,0,1-34.88-27Z"/><path class="cls-104" d="M48.12,193.31a101.37,101.37,0,0,0,26.14,20.6L59.18,241.83a133,133,0,0,1-34.66-27.3Z"/><path class="cls-104" d="M47.63,192.73l.68.8c.23.26.48.5.72.76l1.46,1.49c1,1,1.91,2,2.93,3l3.11,2.79c.53.46,1,.95,1.57,1.39l1.65,1.28L63,206.81l3.46,2.35c2.25,1.65,4.75,2.91,7.12,4.36l-15.3,27.81c-3.17-1.89-6.45-3.62-9.45-5.78l-4.57-3.13L39.92,229l-2.18-1.71c-.71-.59-1.38-1.23-2.07-1.84l-4.12-3.7c-1.36-1.26-2.6-2.63-3.9-3.94l-1.93-2c-.32-.34-.64-.66-.95-1l-.9-1.06Z"/><path class="cls-105" d="M47.15,192.16c.45.52.88,1.07,1.35,1.59L50,195.24l2.91,3L56,201a39,39,0,0,0,3.18,2.72l3.29,2.58a18.6,18.6,0,0,0,1.69,1.22l1.74,1.17,1.72,1.18A18,18,0,0,0,69.35,211L73,213.14,57.44,240.83,52.66,238c-.81-.45-1.57-1-2.33-1.49L48,235l-2.29-1.56c-.76-.52-1.53-1-2.24-1.62l-4.37-3.42c-1.48-1.11-2.83-2.36-4.21-3.59s-2.75-2.47-4.1-3.73l-3.87-4-1.92-2c-.63-.68-1.21-1.4-1.81-2.1Z"/><path class="cls-106" d="M46.66,191.58c1.72,2.19,3.78,4.09,5.68,6.12a15.89,15.89,0,0,0,1.52,1.44l1.55,1.4,1.55,1.4a20.26,20.26,0,0,0,1.59,1.35c2.23,1.68,4.32,3.53,6.69,5l3.46,2.34,3.61,2.11L56.58,240.32l-4.78-2.8c-1.55-1-3.07-2.06-4.6-3.1-3.11-2-5.93-4.39-8.85-6.65-.74-.55-1.42-1.18-2.11-1.79l-2.06-1.85-2.06-1.86c-.69-.61-1.37-1.24-2-1.91-2.56-2.67-5.23-5.23-7.55-8.12Z"/><path class="cls-106" d="M46.17,191a93.78,93.78,0,0,0,25.49,21.38L55.71,239.82a133.75,133.75,0,0,1-18.15-12.67,133,133,0,0,1-15.64-15.67Z"/><path class="cls-106" d="M45.69,190.43l2.69,3.19,2.92,3,1.45,1.51c.48.5,1,.94,1.54,1.41l3.1,2.8c1,.93,2.19,1.73,3.27,2.61l1.64,1.29.82.65.87.58c2.32,1.54,4.56,3.21,7,4.53L54.85,239.31c-3.24-1.78-6.24-3.95-9.3-6l-1.14-.78-1.1-.85L41.13,230c-1.44-1.16-2.94-2.24-4.32-3.47l-4.12-3.7c-.68-.63-1.39-1.22-2-1.88l-1.93-2-3.86-4-3.58-4.23Z"/><path class="cls-106" d="M45.2,189.85,47.89,193a20.57,20.57,0,0,0,1.42,1.53l1.46,1.5,1.45,1.5.73.76.77.7,3.11,2.79c1,1,2.14,1.79,3.23,2.65s2.18,1.74,3.3,2.57l3.46,2.34,1.73,1.18,1.8,1.05L54,238.81,51.6,237.4l-2.3-1.55-4.58-3.12c-1.48-1.1-2.92-2.26-4.38-3.39s-2.93-2.25-4.28-3.52l-4.12-3.71-1-.93-1-1-1.93-2-1.93-2c-.64-.66-1.29-1.31-1.88-2L20.63,210Z"/><path class="cls-106" d="M44.71,189.28c1.83,2.09,3.52,4.32,5.53,6.25,1,1,1.93,2,2.92,3l3.11,2.79,1.55,1.41c.54.44,1.1.85,1.65,1.29l3.28,2.58c1.12.83,2.31,1.57,3.45,2.37s2.27,1.62,3.5,2.27L53.12,238.3c-1.62-.89-3.11-2-4.65-3s-3.07-2-4.55-3.16l-4.37-3.41c-.72-.57-1.45-1.13-2.17-1.72l-2.06-1.85-4.12-3.71c-1.32-1.29-2.59-2.63-3.88-3.95-2.64-2.59-4.93-5.5-7.33-8.31Z"/><path class="cls-106" d="M44.22,188.7a100.57,100.57,0,0,0,24.83,22.16L52.26,237.79a132.35,132.35,0,0,1-32.92-29.38Z"/><path class="cls-106" d="M43.76,188.1A100.75,100.75,0,0,0,68.4,210.46l-17,26.81a132.6,132.6,0,0,1-32.67-29.65Z"/><path class="cls-106" d="M43.32,187.49A40.87,40.87,0,0,0,46,190.73c.91,1.05,1.77,2.15,2.71,3.18l2.91,3L53,198.4l1.56,1.4,3.1,2.8c1.07.89,2.19,1.72,3.28,2.58,2.14,1.8,4.53,3.26,6.81,4.86L50.57,236.71c-3-2.09-6.17-4.07-9-6.42-1.45-1.15-2.92-2.27-4.34-3.45l-4.13-3.7-2-1.86-1.94-2-3.86-4c-1.24-1.36-2.41-2.8-3.61-4.2s-2.43-2.79-3.48-4.31Z"/><path class="cls-107" d="M42.87,186.88a96.54,96.54,0,0,0,24.28,22.73L49.74,236.15A128.25,128.25,0,0,1,17.54,206Z"/><path class="cls-107" d="M42.42,186.27c1.57,2.31,3.47,4.35,5.25,6.5l.67.8.73.75,1.45,1.5c1,1,1.91,2,2.94,3l3.11,2.79c.52.46,1,.95,1.56,1.39l1.65,1.28,3.29,2.59,3.46,2.34L48.91,235.59l-4.57-3.13L40,229.05l-2.17-1.71c-.72-.58-1.39-1.22-2.08-1.83L31.6,221.8c-1.36-1.25-2.6-2.62-3.91-3.93l-1.92-2-1-1-.9-1.06c-2.38-2.83-4.85-5.58-7-8.62Z"/><path class="cls-107" d="M42,185.66c.84,1.11,1.6,2.28,2.5,3.35l2.7,3.18c.45.53.88,1.08,1.36,1.59l1.46,1.5,2.9,3a100.8,100.8,0,0,0,13,10.48L48.09,235a132.14,132.14,0,0,1-17.23-13.9l-3.86-4-1.93-2c-.63-.68-1.2-1.4-1.81-2.1l-3.58-4.24c-1.17-1.42-2.22-2.95-3.33-4.43Z"/><path class="cls-108" d="M41.53,185.05,44,188.43l2.69,3.19c1.72,2.19,3.78,4.08,5.69,6.12a20.54,20.54,0,0,0,1.51,1.44l1.56,1.39L57,202a18.58,18.58,0,0,0,1.59,1.35c2.22,1.68,4.32,3.53,6.69,5l-18,26.13c-3.12-2-5.94-4.39-8.86-6.65-.74-.55-1.43-1.17-2.11-1.79l-2.07-1.85-2-1.86c-.69-.61-1.38-1.23-2-1.91-2.55-2.66-5.23-5.22-7.55-8.11-1.19-1.41-2.39-2.81-3.56-4.24l-3.29-4.47Z"/><path class="cls-109" d="M41.08,184.45l2.47,3.37c.4.57.85,1.1,1.3,1.63L46.21,191l1.34,1.6a20.48,20.48,0,0,0,1.39,1.55l2.91,3a39.36,39.36,0,0,0,3,2.88l3.1,2.79,3.3,2.57,1.64,1.3c.56.42,1.15.78,1.72,1.18l-18.22,26c-.76-.53-1.54-1-2.28-1.58L42,230.61l-4.36-3.42-4.13-3.69c-1.38-1.23-2.76-2.46-4-3.81l-3.86-4c-.65-.65-1.24-1.36-1.84-2.07L22,211.53l-1.79-2.12c-.6-.7-1.19-1.41-1.73-2.17l-3.28-4.46Z"/><path class="cls-109" d="M40.63,183.84l2.48,3.37c.42.55.79,1.14,1.25,1.66l1.36,1.59,2.69,3.2,2.92,3,1.45,1.5c.49.5,1,.94,1.54,1.41l3.11,2.8c1,.93,2.18,1.73,3.27,2.61l1.64,1.29.82.64.87.59L45.6,233.33l-1.14-.78-1.1-.85L41.18,230c-1.44-1.16-2.94-2.24-4.32-3.47l-4.12-3.7c-.68-.63-1.39-1.22-2-1.88l-1.94-2-3.85-4-3.59-4.23-1.79-2.12c-.6-.69-1.11-1.47-1.67-2.2L14.58,202Z"/><path class="cls-109" d="M40.18,183.23A101.27,101.27,0,0,0,63.4,207.07l-18.62,25.7A132.8,132.8,0,0,1,14,201.16Z"/><path class="cls-109" d="M39.78,182.6a100,100,0,0,0,23,24L44,232.17a131.8,131.8,0,0,1-30.53-31.85Z"/><path class="cls-109" d="M39.38,182a38.11,38.11,0,0,0,2.39,3.42c.83,1.11,1.63,2.26,2.48,3.36l2.7,3.18,1.35,1.6,1.45,1.5,2.91,3c1,1,2.06,1.86,3.09,2.81,2,1.94,4.27,3.57,6.45,5.31l-19,25.41c-2.91-2.28-5.87-4.49-8.56-7-1.36-1.25-2.77-2.45-4.09-3.74l-3.86-4c-.64-.66-1.29-1.32-1.92-2L23,212.7l-3.58-4.24c-1.13-1.45-2.2-3-3.3-4.45s-2.23-2.95-3.18-4.54Z"/><path class="cls-109" d="M39,181.32a96,96,0,0,0,22.64,24.36L42.39,230.94a127.62,127.62,0,0,1-30-32.32Z"/><path class="cls-110" d="M38.57,180.68c1.41,2.41,3.15,4.59,4.77,6.85.78,1.16,1.76,2.16,2.64,3.24s1.77,2.15,2.71,3.17l2.92,3,1.45,1.5,1.56,1.39,3.11,2.8c1.07.88,2.19,1.72,3.28,2.58L41.6,230.33c-1.45-1.15-2.92-2.27-4.34-3.44l-4.13-3.7-2.05-1.86-1.94-2-3.86-4c-1.25-1.35-2.41-2.8-3.62-4.2s-2.43-2.78-3.49-4.3c-2.18-3-4.44-5.91-6.34-9.09Z"/><path class="cls-110" d="M38.17,180c.76,1.17,1.45,2.38,2.25,3.52l2.48,3.36,1.23,1.68,1.36,1.59,2.69,3.2a101.25,101.25,0,0,0,12.24,11.36l-19.61,25A131.39,131.39,0,0,1,24.6,214.63L21,210.41l-1.79-2.13-1.65-2.22-3.28-4.47c-1.06-1.51-2-3.11-3-4.66Z"/><path class="cls-110" d="M37.76,179.41a95.8,95.8,0,0,0,22.06,24.87L40,229.09a127.28,127.28,0,0,1-29.26-33Z"/><path class="cls-110" d="M37.36,178.77l2.23,3.53.56.88.62.84L42,185.7c.84,1.11,1.6,2.28,2.5,3.34l2.7,3.19c.46.53.88,1.08,1.36,1.59L50,195.31l2.91,3,3.11,2.79,1.55,1.4c.5.48,1.09.87,1.63,1.31l-20,24.65c-.72-.58-1.48-1.12-2.16-1.74L35,224.88l-4.11-3.71-3.87-4-1.92-2c-.64-.67-1.21-1.4-1.82-2.09l-3.57-4.24c-1.19-1.41-2.23-3-3.34-4.43l-1.64-2.23-.81-1.12-.75-1.17-3-4.68Z"/><path class="cls-110" d="M37,178.13l2.24,3.53c.38.58.72,1.19,1.13,1.76l1.24,1.67L44,188.47l2.71,3.18c1.72,2.2,3.78,4.09,5.68,6.12a18.76,18.76,0,0,0,1.52,1.44l1.56,1.39L57,202a16.93,16.93,0,0,0,1.59,1.35l-20.18,24.5a25.59,25.59,0,0,1-2.11-1.79l-2.07-1.85-2.06-1.85c-.68-.62-1.37-1.23-2-1.91-2.55-2.67-5.24-5.22-7.55-8.11l-3.57-4.24-3.29-4.46-1.64-2.24c-.54-.75-1-1.55-1.51-2.33l-3-4.68Z"/><path class="cls-110" d="M36.54,177.5A101.79,101.79,0,0,0,58,202.89L37.66,227.23a132.76,132.76,0,0,1-28.5-33.69Z"/><path class="cls-111" d="M36.19,176.83a99.19,99.19,0,0,0,21.28,25.56L36.91,226.57A131.2,131.2,0,0,1,8.67,192.66Z"/><path class="cls-111" d="M35.83,176.17c.62,1.25,1.41,2.4,2.15,3.58l2.23,3.52,2.48,3.37,1.23,1.68c.42.56.9,1.07,1.34,1.6l2.7,3.2c.9,1.06,1.93,2,2.88,3l1.45,1.5.73.75.78.7,3.11,2.79-20.75,24L32,222.2l-1-.93-1-1-1.93-2c-1.27-1.34-2.61-2.62-3.81-4l-3.59-4.23c-.58-.72-1.2-1.4-1.76-2.14l-1.65-2.23L14,201.21c-1-1.55-2-3.12-3-4.68s-2-3.1-2.84-4.75Z"/><path class="cls-111" d="M35.48,175.5a95.36,95.36,0,0,0,20.87,25.88L35.41,225.24A127.66,127.66,0,0,1,7.72,190.9Z"/><path class="cls-112" d="M35.12,174.84c1.23,2.5,2.81,4.8,4.28,7.16.7,1.21,1.59,2.29,2.4,3.42s1.62,2.26,2.48,3.36L47,192l1.35,1.6,1.45,1.5,2.91,3c1,1,2.07,1.87,3.09,2.81l-21.11,23.7c-1.36-1.25-2.77-2.45-4.09-3.74l-3.86-4-1.92-2L23,212.75l-3.58-4.24c-1.14-1.45-2.2-3-3.31-4.44s-2.22-3-3.17-4.54c-2-3.13-4-6.21-5.7-9.52Z"/><path class="cls-112" d="M34.76,174.17c.67,1.22,1.29,2.47,2,3.67L39,181.36l1.11,1.77,1.24,1.68,2.47,3.37c.85,1.1,1.79,2.13,2.68,3.2s1.75,2.18,2.76,3.14c2,2,3.82,4,6,5.85L33.92,223.9c-2.81-2.4-5.33-5.11-7.9-7.76-1.32-1.3-2.46-2.76-3.67-4.15s-2.41-2.81-3.54-4.27l-3.29-4.46L13.89,201l-1.49-2.34-3-4.69c-.95-1.59-1.78-3.24-2.67-4.86Z"/><path class="cls-112" d="M34.4,173.51a95.49,95.49,0,0,0,20.26,26.35L33.18,223.23a127.39,127.39,0,0,1-26.89-35Z"/><path class="cls-112" d="M34,172.85l2,3.67.49.92.56.88,1.12,1.77c.76,1.16,1.45,2.37,2.26,3.51L42.93,187c.41.56.81,1.13,1.24,1.68l1.35,1.59,2.69,3.2c.95,1,1.95,2,2.91,3a39.25,39.25,0,0,0,3,2.93l-21.66,23.2c-1.41-1.21-2.67-2.56-4-3.88s-2.58-2.64-3.84-4l-3.58-4.23-1.79-2.12c-.56-.72-1.1-1.48-1.65-2.22l-3.28-4.47c-1.07-1.51-2-3.1-3-4.65l-1.48-2.35-.74-1.18-.66-1.21-2.63-4.88Z"/><path class="cls-113" d="M33.68,172.18a99.31,99.31,0,0,0,19.85,26.68l-21.84,23A131.18,131.18,0,0,1,5.34,186.48Z"/><path class="cls-113" d="M33.32,171.52A101.46,101.46,0,0,0,53,198.35L31,221.21A133.29,133.29,0,0,1,4.87,185.6Z"/><path class="cls-113" d="M33,170.83a16.27,16.27,0,0,0,1,1.86l1,1.84,1,1.84a17.24,17.24,0,0,0,1,1.81l2.23,3.52c.38.58.72,1.2,1.14,1.75l1.24,1.68,2.46,3.38,2.71,3.18,1.34,1.6c.44.54,1,1,1.44,1.52l2.91,3L30.25,220.5l-3.86-4c-.63-.67-1.31-1.3-1.9-2l-1.79-2.11-3.57-4.24-3.29-4.46-1.64-2.24c-.55-.74-1-1.55-1.51-2.32l-3-4.69c-.51-.77-.94-1.59-1.38-2.4L7,189.6l-1.31-2.44c-.44-.82-.89-1.62-1.25-2.47Z"/><path class="cls-113" d="M32.7,170.14a39.35,39.35,0,0,0,1.89,3.72l2,3.68,2.24,3.52,1.11,1.77c.37.59.82,1.13,1.22,1.7l2.47,3.36a18.68,18.68,0,0,0,1.31,1.63l1.35,1.59,1.35,1.6A17.07,17.07,0,0,0,49,194.26l2.91,3L29.55,219.78l-3.86-4c-.65-.65-1.26-1.35-1.85-2.06l-1.79-2.11-1.79-2.12c-.59-.71-1.2-1.41-1.73-2.16l-3.28-4.47c-.54-.75-1.12-1.48-1.61-2.26l-1.49-2.34-3-4.69-2.65-4.87c-.87-1.63-1.78-3.24-2.5-4.95Z"/><path class="cls-113" d="M32.39,169.45a95.11,95.11,0,0,0,19,27.27L28.85,219.06a127,127,0,0,1-25.22-36.2Z"/><path class="cls-114" d="M32.08,168.76l.86,1.91c.14.32.28.64.43,1l.5.92,2,3.67c.61,1.25,1.41,2.4,2.14,3.58s1.48,2.36,2.24,3.52l2.48,3.36L44,188.36c.43.55.9,1.07,1.34,1.6l2.7,3.19c.9,1.06,1.93,2,2.88,3L28.16,218.34c-1.28-1.34-2.61-2.62-3.82-4l-3.58-4.23c-.59-.71-1.21-1.41-1.77-2.14l-1.65-2.23-3.28-4.47c-1-1.54-2-3.11-3-4.67s-2-3.11-2.85-4.76L5.6,187l-.66-1.22c-.2-.41-.39-.84-.58-1.26L3.21,182Z"/><path class="cls-115" d="M31.77,168.08c.59,1.26,1.12,2.55,1.74,3.79l2,3.67,1,1.85,1.12,1.76,2.23,3.53c.76,1.17,1.64,2.25,2.44,3.39l1.24,1.68c.2.28.4.57.61.84l.68.8c1.83,2.1,3.53,4.31,5.55,6.24l-22.89,22c-2.65-2.58-4.95-5.48-7.35-8.29l-.89-1.06-.83-1.11-1.64-2.23c-1.08-1.5-2.23-3-3.24-4.5l-3-4.69c-.49-.78-1-1.56-1.47-2.35L7.75,191l-2.63-4.88c-.82-1.65-1.55-3.36-2.32-5Z"/><path class="cls-115" d="M31.46,167.39a95.53,95.53,0,0,0,18.36,27.7L26.76,216.91A127.2,127.2,0,0,1,2.39,180.12Z"/><path class="cls-115" d="M31.15,166.7l1.72,3.81.42,1c.16.31.33.61.5.92l1,1.84c.68,1.21,1.29,2.47,2,3.66L39,181.4l1.11,1.77,1.24,1.68,2.47,3.37c.85,1.1,1.79,2.13,2.68,3.2s1.75,2.17,2.76,3.13L26.07,216.18c-1.33-1.29-2.47-2.75-3.68-4.14s-2.4-2.81-3.54-4.26l-3.29-4.47-1.63-2.24-1.5-2.34-3-4.68c-1-1.59-1.78-3.24-2.67-4.86l-1.32-2.44c-.21-.41-.44-.82-.64-1.23l-.58-1.26-2.28-5Z"/><path class="cls-115" d="M30.83,166a99.4,99.4,0,0,0,17.93,28L25.37,215.46a131,131,0,0,1-23.8-37.17Z"/><path class="cls-115" d="M30.52,165.33a100.94,100.94,0,0,0,17.73,28.13L24.69,214.73A132.68,132.68,0,0,1,1.16,177.38Z"/></g><circle class="cls-4" cx="129.05" cy="16.38" r="7.5"/><circle class="cls-115" cx="16.06" cy="171.46" r="7.5"/></g></g></svg>