<svg id="Layer_1" data-name="Layer 1" xmlns="http://www.w3.org/2000/svg" viewBox="0 0 100 100"><defs><style>.cls-1{fill:#e5e5e5;}.cls-2{fill:#d8d8d8;}.cls-3{fill:#f5d376;}.cls-4{fill:#eac468;}.cls-5{fill:#eeb211;}.cls-6{fill:#e5a413;}</style></defs><title>u-lock</title><path class="cls-1" d="M24.26,90.21a1,1,0,0,1-.76-1C23.49,26.67,22.18,6,49.2,6S75.84,26,75.83,89.21a1,1,0,0,1-.79,1c-1.46.31-4.66.82-7,0a1,1,0,0,1-.7-1C67.38,41.73,68.08,14,49.2,14,30.94,14,31.49,41.12,31.5,89.32a1,1,0,0,1-.71,1A13.34,13.34,0,0,1,24.26,90.21Z"/><path class="cls-2" d="M23.49,75.46c0,4.35,0,8.93,0,13.77a1,1,0,0,0,.76,1,13.34,13.34,0,0,0,6.53.07,1,1,0,0,0,.71-1c0-4.84,0-9.45,0-13.86Z"/><path class="cls-2" d="M67.33,89.25a1,1,0,0,0,.7,1c2.35.79,5.55.28,7,0a1,1,0,0,0,.79-1c0-4.84,0-9.41,0-13.75H67.35Q67.35,82,67.33,89.25Z"/><path class="cls-3" d="M81.77,70.6c-.1-.13-.19-.26-64.73-.1a.25.25,0,0,0-.2.1c-2.37,3.12-2.36,7.22,0,9.54h0a.21.21,0,0,0,.1.06c.46.2,15.84.29,31.49.29,16.25,0,32.78-.1,33.22-.3a.27.27,0,0,0,.1-.08A7.94,7.94,0,0,0,81.77,70.6Z"/><path class="cls-4" d="M16.86,80.14h0a.21.21,0,0,0,.1.06c.46.2,15.84.29,31.49.29,16.25,0,32.78-.1,33.22-.3a.27.27,0,0,0,.1-.08,7.69,7.69,0,0,0,1.57-4.65H15.09A6.19,6.19,0,0,0,16.86,80.14Z"/><rect class="cls-5" x="51.17" y="68.63" width="20.24" height="13.13" rx="0.5" ry="0.5"/><path class="cls-6" d="M51.17,75.19v6.06a.5.5,0,0,0,.5.5H70.91a.5.5,0,0,0,.5-.5V75.19Z"/></svg>