<svg id="Layer_1" data-name="Layer 1" xmlns="http://www.w3.org/2000/svg" viewBox="0 0 100 100"><defs><style>.cls-1{fill:#e5e5e5;}.cls-2,.cls-3{fill:none;stroke-miterlimit:10;}.cls-2{stroke:#000;stroke-width:4px;}.cls-3{stroke:#6d6d6d;stroke-linecap:round;stroke-width:2px;}</style></defs><title>wheel</title><path d="M50,98.72A48.72,48.72,0,1,1,98.72,50,48.78,48.78,0,0,1,50,98.72ZM50,5.78A44.22,44.22,0,1,0,94.22,50,44.27,44.27,0,0,0,50,5.78Z"/><path class="cls-1" d="M50,94.82A44.82,44.82,0,1,1,94.82,50,44.88,44.88,0,0,1,50,94.82Zm0-85.5A40.68,40.68,0,1,0,90.68,50,40.73,40.73,0,0,0,50,9.32Z"/><circle class="cls-2" cx="50" cy="50" r="4.59"/><line class="cls-3" x1="50" y1="40.18" x2="50" y2="10.84"/><line class="cls-3" x1="43.06" y1="43.06" x2="22.31" y2="22.31"/><line class="cls-3" x1="40.18" y1="50" x2="10.84" y2="50"/><line class="cls-3" x1="43.06" y1="56.94" x2="22.31" y2="77.69"/><line class="cls-3" x1="50" y1="59.82" x2="50" y2="89.16"/><line class="cls-3" x1="56.94" y1="56.94" x2="77.69" y2="77.69"/><line class="cls-3" x1="59.82" y1="50" x2="89.16" y2="50"/><line class="cls-3" x1="56.94" y1="43.06" x2="77.69" y2="22.31"/></svg>