<?xml version="1.0" encoding="UTF-8"?>
<svg width="314px" height="152px" viewBox="0 0 314 152" version="1.1" xmlns="http://www.w3.org/2000/svg" xmlns:xlink="http://www.w3.org/1999/xlink">
    <!-- Generator: Sketch 49 (51002) - http://www.bohemiancoding.com/sketch -->
    <title>404</title>
    <desc>Created with Sketch.</desc>
    <defs>
        <path d="M1.66208827e-15,31.4817813 C1.66208827e-15,26.2348178 5.29649958,23.0916883 8.56536001,22.2155917 C8.56536001,20.2311082 8.56536001,12.8259109 8.56536001,0 L14.5493653,0 C14.5493653,12.8259109 14.5493653,20.2975995 14.5493653,22.4150656 C17.5716424,23.4370519 22.4561404,26.2348178 22.4561404,31.4817813 C22.4561404,44.3076923 22.4561404,62.3805669 22.4561404,85.7004049 L0,85.7004049 C1.10805885e-15,62.3805669 1.66208827e-15,44.3076923 1.66208827e-15,31.4817813 Z" id="path-1"></path>
        <path d="M1.66208827e-15,31.4817813 C1.66208827e-15,26.2348178 5.29649958,23.0916883 8.56536001,22.2155917 C8.56536001,20.2311082 8.56536001,12.8259109 8.56536001,0 L14.5493653,0 C14.5493653,12.8259109 14.5493653,20.2975995 14.5493653,22.4150656 C17.5716424,23.4370519 22.4561404,26.2348178 22.4561404,31.4817813 C22.4561404,44.3076923 22.4561404,62.3805669 22.4561404,85.7004049 L0,85.7004049 C1.10805885e-15,62.3805669 1.66208827e-15,44.3076923 1.66208827e-15,31.4817813 Z" id="path-3"></path>
        <path d="M0.690789474,0.65179955 C12.6644737,0.65179955 18.6513158,0.65179955 18.6513158,0.65179955 C18.6513158,0.65179955 18.6513158,31.4736842 18.6513158,38.3157895 C16.5789474,43.7894737 2.07236842,43.7894737 0.690789474,38.3157895 C0.690789474,33.754386 0.690789474,21.1997226 0.690789474,0.65179955 Z" id="path-5"></path>
    </defs>
    <g id="Page-1" stroke="none" stroke-width="1" fill="none" fill-rule="evenodd">
        <g id="Artboard-2" transform="translate(-890.000000, -207.000000)">
            <g id="404" transform="translate(891.000000, 208.000000)">
                <g id="Rectangle" transform="translate(258.947368, 50.526316) rotate(90.000000) translate(-258.947368, -50.526316) translate(246.315789, 6.315789)">
                    <path d="M8.56536001,22.5799082 C8.56536001,21.25347 8.56536001,20.5364011 8.56536001,16.533655 C8.56536001,10.3021679 8.56536001,10.3021679 8.56536001,1.36032389 L8.56536001,0 L17.3563829,0 L17.3563829,1.36032389 C17.3563829,10.3104793 17.3563829,10.3104793 17.3563829,16.5835235 C17.3563829,20.72983 17.3563829,21.3921164 17.3563829,22.8371537 C21.8839754,24.641755 25.2631579,28.0799941 25.2631579,32.8421052 C25.2631579,54.7044534 25.2631579,54.7044534 25.2631579,87.0607287 L25.2631579,88.4210526 L0,88.4210526 L0,87.0607287 C0,54.7044534 0,54.7044534 0,32.8421052 C0,28.0179765 3.91728407,24.1826529 8.56536001,22.5799082 Z" id="Shape" stroke="#000000" stroke-width="2"></path>
                    <g id="Clipped" transform="translate(1.403509, 1.360324)">
                        <mask id="mask-2" fill="white">
                            <use xlink:href="#path-1"></use>
                        </mask>
                        <g id="path-1"></g>
                        <rect id="Rectangle-path" stroke="#000000" stroke-width="2" stroke-linejoin="round" mask="url(#mask-2)" x="5.61403509" y="46.2510121" width="25.2631579" height="19.0445344"></rect>
                    </g>
                    <g id="Path-5-Clipped" transform="translate(1.403509, 1.360324)">
                        <mask id="mask-4" fill="white">
                            <use xlink:href="#path-3"></use>
                        </mask>
                        <g id="path-1"></g>
                        <path d="M7.01754386,6.80161943 L16.8421053,6.80161943" id="Path-5" stroke="#000000" stroke-width="2" mask="url(#mask-4)"></path>
                    </g>
                </g>
                <g id="Group" transform="translate(39.473684, 0.000000)">
                    <g id="Path-4">
                        <path d="M2.07236842,0.65179955 C10.3042763,0.65179955 10.3042763,0.65179955 15.5427632,0.65179955 C19.2845394,0.65179955 19.2845394,0.65179955 20.0328947,0.65179955 L21.4144737,0.65179955 L21.4144737,2.0202206 C21.4144737,2.9834045 21.4144737,2.9834045 21.4144737,6.94304798 C21.4144737,11.9727832 21.4144737,11.9727832 21.4144737,18.2864261 C21.4144737,19.8963311 21.4144737,19.8963311 21.4144737,21.5195679 C21.4144737,32.8976047 21.4144737,32.8976047 21.4144737,39.6842105 L21.4144737,39.9323526 L21.3265074,40.1646952 C18.7965255,46.8470603 2.45620025,46.8470603 0.732039967,40.0161013 L0.690789474,39.8526708 L0.690789474,39.6842105 C0.690789474,28.8454753 0.690789474,28.8454753 0.690789474,2.0202206 L0.690789474,0.65179955 L2.07236842,0.65179955 Z" id="Shape" stroke="#000000" stroke-width="2"></path>
                        <g id="Clipped" transform="translate(1.381579, 1.368421)">
                            <mask id="mask-6" fill="white">
                                <use xlink:href="#path-5"></use>
                            </mask>
                            <g id="path-3"></g>
                            <path d="M-2.77788695,39.1485101 C2.41369857,36.7688017 6.04559871,35.5789474 8.11781347,35.5789474 C11.2261356,35.5789474 12.7802967,38.3157895 15.8886188,38.3157895 C17.9608336,38.3157895 20.0330484,37.4035087 22.1052632,35.5789474 L22.1052632,64.3483524 L-2.77791838,65.1810732 L-2.77788695,39.1485101 Z" id="Shape" stroke="#000000" stroke-width="2" mask="url(#mask-6)"></path>
                        </g>
                    </g>
                    <path d="M11.0526316,43.7894737 L11.0526316,60.2105263" id="Path-2" stroke="#000000" stroke-width="2"></path>
                    <path d="M5.52631579,60.2105263 L16.5789474,60.2105263" id="Path-3" stroke="#000000" stroke-width="2" stroke-linecap="round"></path>
                </g>
                <g id="Group" transform="translate(78.947368, 0.000000)" stroke="#000000" stroke-width="2">
                    <g id="Path-4">
                        <path d="M2.07236842,0.65179955 C10.3042763,0.65179955 10.3042763,0.65179955 15.5427632,0.65179955 C19.2845394,0.65179955 19.2845394,0.65179955 20.0328947,0.65179955 L21.4144737,0.65179955 L21.4144737,2.0202206 C21.4144737,2.9834045 21.4144737,2.9834045 21.4144737,6.94304798 C21.4144737,11.9727832 21.4144737,11.9727832 21.4144737,18.2864261 C21.4144737,19.8963311 21.4144737,19.8963311 21.4144737,21.5195679 C21.4144737,32.8976047 21.4144737,32.8976047 21.4144737,39.6842105 L21.4144737,39.9323526 L21.3265074,40.1646952 C18.7965255,46.8470603 2.45620025,46.8470603 0.732039967,40.0161013 L0.690789474,39.8526708 L0.690789474,39.6842105 C0.690789474,28.8454753 0.690789474,28.8454753 0.690789474,2.0202206 L0.690789474,0.65179955 L2.07236842,0.65179955 Z" id="Shape"></path>
                    </g>
                    <path d="M11.0526316,43.7894737 L11.0526316,60.2105263" id="Path-2"></path>
                    <path d="M5.52631579,60.2105263 L16.5789474,60.2105263" id="Path-3" stroke-linecap="round"></path>
                </g>
                <path d="M308.684211,64.7368421 C305.526316,73.1578947 305.526316,77.3684211 308.684211,77.3684211 C311.842105,77.3684211 311.842105,73.1578947 308.684211,64.7368421 Z" id="Path-16" stroke="#000000" stroke-width="2" stroke-linejoin="round"></path>
                <path d="M302.368421,129.473684 C299.210526,135.789474 299.210526,138.947368 302.368421,138.947368 C305.526316,138.947368 305.526316,135.789474 302.368421,129.473684 Z" id="Path-16" stroke="#000000" stroke-width="2" stroke-linejoin="round"></path>
                <g id="Group-2" stroke-linejoin="round" transform="translate(0.000000, 63.157895)" stroke="#000000" stroke-width="2">
                    <rect id="Rectangle" x="0" y="0" width="282.631579" height="10.8552632"></rect>
                    <rect id="Rectangle-3" x="6.85998978" y="10.8552632" width="5.48799182" height="75.9868421"></rect>
                    <rect id="Rectangle-3" x="268.911599" y="10.8552632" width="5.48799182" height="75.9868421"></rect>
                </g>
            </g>
        </g>
    </g>
</svg>