<?xml version="1.0" encoding="UTF-8"?>
<svg width="45px" height="53px" viewBox="0 0 45 53" version="1.1" xmlns="http://www.w3.org/2000/svg" xmlns:xlink="http://www.w3.org/1999/xlink">
    <!-- Generator: Sketch 49 (51002) - http://www.bohemiancoding.com/sketch -->
    <title>alcohol</title>
    <desc>Created with Sketch.</desc>
    <defs>
        <path d="M8.8817842e-16,18 C8.8817842e-16,15 2.83031696,13.2028866 4.57711426,12.7019703 C4.57711426,11.5673234 4.57711426,7.33333333 4.57711426,0 L7.77481708,0 C7.77481708,7.33333333 7.77481708,11.6053404 7.77481708,12.8160213 C9.38984637,13.4003515 12,15 12,18 C12,25.3333333 12,35.6666667 12,49 L0,49 C5.92118946e-16,35.6666667 8.8817842e-16,25.3333333 8.8817842e-16,18 Z" id="path-1"></path>
        <polygon id="path-3" points="0 0 20 0 10 11"></polygon>
    </defs>
    <g id="Page-1" stroke="none" stroke-width="1" fill="none" fill-rule="evenodd">
        <g id="Artboard-2" transform="translate(-621.000000, -555.000000)">
            <g id="alcohol" transform="translate(622.000000, 556.000000)">
                <g id="Rectangle">
                    <path d="M4.57711426,12.9861367 C4.57711426,12.3117362 4.57711426,11.8129396 4.57711426,9.67549257 C4.57711426,6.11258209 4.57711426,6.11258209 4.57711426,1 L4.57711426,0 L9.77481708,0 L9.77481708,1 C9.77481708,6.11733422 9.77481708,6.11733422 9.77481708,9.70400532 C9.77481708,11.9387035 9.77481708,12.4033645 9.77481708,13.1413504 C12.2011372,14.2224688 14,16.2331876 14,19 C14,31.5 14,31.5 14,50 L14,51 L0,51 L0,50 C0,31.5 0,31.5 0,19 C0,16.1990031 2.07638568,13.9666711 4.57711426,12.9861367 Z" id="Shape" stroke="#000000" stroke-width="2"></path>
                    <g id="Clipped" transform="translate(1.000000, 1.000000)">
                        <mask id="mask-2" fill="white">
                            <use xlink:href="#path-1"></use>
                        </mask>
                        <g id="path-1"></g>
                        <rect id="Rectangle-path" stroke="#000000" stroke-width="2" stroke-linejoin="round" mask="url(#mask-2)" x="4" y="25" width="12" height="14"></rect>
                    </g>
                </g>
                <path d="M29,33 L29,50" id="Path-18" stroke="#000000" stroke-width="2"></path>
                <path d="M24,50 L34,50" id="Path-19" stroke="#000000" stroke-width="2" stroke-linecap="round"></path>
                <g id="Path-21" transform="translate(16.000000, 21.000000)">
                    <polygon id="Shape" stroke="#000000" stroke-width="2" points="0.7394483 0 25.2605517 0 13 13.4866069"></polygon>
                    <g id="Clipped" transform="translate(3.000000, 1.000000)">
                        <mask id="mask-4" fill="white">
                            <use xlink:href="#path-3"></use>
                        </mask>
                        <g id="path-3"></g>
                        <path d="M5,7 C6.33333333,6.33333333 7.33333333,6 8,6 C9,6 9,7 12,7 C14,7 16.3333333,6 19,4" id="Shape" stroke="#000000" stroke-width="2" mask="url(#mask-4)"></path>
                    </g>
                </g>
                <path d="M34,21 L38,17" id="Path-20" stroke="#000000" stroke-width="2" stroke-linecap="round"></path>
            </g>
        </g>
    </g>
</svg>