<?xml version="1.0" encoding="UTF-8"?>
<svg width="49px" height="56px" viewBox="0 0 49 56" version="1.1" xmlns="http://www.w3.org/2000/svg" xmlns:xlink="http://www.w3.org/1999/xlink">
    <!-- Generator: Sketch 49 (51002) - http://www.bohemiancoding.com/sketch -->
    <title>drinks</title>
    <desc>Created with Sketch.</desc>
    <defs>
        <path d="M0.5,0.476315056 C9.16666667,0.476315056 13.5,0.476315056 13.5,0.476315056 C13.5,0.476315056 13.5,23 13.5,28 C12,32 1.5,32 0.5,28 C0.5,24.6666667 0.5,15.492105 0.5,0.476315056 Z" id="path-1"></path>
        <path d="M0.5,0.476315056 C9.16666667,0.476315056 13.5,0.476315056 13.5,0.476315056 C13.5,0.476315056 13.5,23 13.5,28 C12,32 1.5,32 0.5,28 C0.5,24.6666667 0.5,15.492105 0.5,0.476315056 Z" id="path-3"></path>
    </defs>
    <g id="Page-1" stroke="none" stroke-width="1" fill="none" fill-rule="evenodd">
        <g id="Artboard-2" transform="translate(-99.000000, -552.000000)">
            <g id="drinks" transform="translate(96.000000, 553.000000)">
                <g id="Group" transform="translate(13.584910, 31.579138) rotate(15.000000) translate(-13.584910, -31.579138) translate(5.584910, 9.079138)">
                    <g id="Path-4">
                        <path d="M1.5,0.476315056 C7.45833333,0.476315056 7.45833333,0.476315056 11.25,0.476315056 C13.9583333,0.476315056 13.9583333,0.476315056 14.5,0.476315056 L15.5,0.476315056 L15.5,1.47631506 C15.5,2.18018021 15.5,2.18018021 15.5,5.07376583 C15.5,8.7493416 15.5,8.7493416 15.5,13.3631575 C15.5,14.5396266 15.5,14.5396266 15.5,15.7258381 C15.5,24.0405573 15.5,24.0405573 15.5,29 L15.5,29.1813346 L15.4363292,29.3511234 C13.6051042,34.2343902 1.77782113,34.2343902 0.5298575,29.2425356 L0.5,29.1231056 L0.5,29 C0.5,21.0793858 0.5,21.0793858 0.5,1.47631506 L0.5,0.476315056 L1.5,0.476315056 Z" id="Shape" stroke="#000000" stroke-width="2"></path>
                        <g id="Clipped" transform="translate(1.000000, 1.000000)">
                            <mask id="mask-2" fill="white">
                                <use xlink:href="#path-1"></use>
                            </mask>
                            <g id="path-1"></g>
                            <path d="M-2.01066103,13.6085266 C1.74705801,11.8695089 4.37586192,11 5.8757507,11 C8.12558388,11 9.25050047,13 11.5003336,13 C13.0002224,13 14.5001112,12.3333333 16,11 L16,32.023796 L-2.01068378,32.6323227 L-2.01066103,13.6085266 Z" id="Shape" stroke="#000000" stroke-width="2" mask="url(#mask-2)"></path>
                        </g>
                    </g>
                    <path d="M8,32 L8,44" id="Path-2" stroke="#000000" stroke-width="2"></path>
                    <path d="M4,44 L12,44" id="Path-3" stroke="#000000" stroke-width="2" stroke-linecap="round"></path>
                </g>
                <g id="Group" transform="translate(41.326090, 27.579138) scale(-1, 1) rotate(15.000000) translate(-41.326090, -27.579138) translate(33.326090, 5.079138)">
                    <g id="Path-4">
                        <path d="M1.5,0.476315056 C7.45833333,0.476315056 7.45833333,0.476315056 11.25,0.476315056 C13.9583333,0.476315056 13.9583333,0.476315056 14.5,0.476315056 L15.5,0.476315056 L15.5,1.47631506 C15.5,2.18018021 15.5,2.18018021 15.5,5.07376583 C15.5,8.7493416 15.5,8.7493416 15.5,13.3631575 C15.5,14.5396266 15.5,14.5396266 15.5,15.7258381 C15.5,24.0405573 15.5,24.0405573 15.5,29 L15.5,29.1813346 L15.4363292,29.3511234 C13.6051042,34.2343902 1.77782113,34.2343902 0.5298575,29.2425356 L0.5,29.1231056 L0.5,29 C0.5,21.0793858 0.5,21.0793858 0.5,1.47631506 L0.5,0.476315056 L1.5,0.476315056 Z" id="Shape" stroke="#000000" stroke-width="2"></path>
                        <g id="Clipped" transform="translate(1.000000, 1.000000)">
                            <mask id="mask-4" fill="white">
                                <use xlink:href="#path-3"></use>
                            </mask>
                            <g id="path-3"></g>
                            <path d="M-2.01066103,13.6085266 C1.74705801,11.8695089 4.37586192,11 5.8757507,11 C8.12558388,11 9.25050047,13 11.5003336,13 C13.0002224,13 14.5001112,12.3333333 16,11 L16,32.023796 L-2.01068378,32.6323227 L-2.01066103,13.6085266 Z" id="Shape" stroke="#000000" stroke-width="2" mask="url(#mask-4)"></path>
                        </g>
                    </g>
                    <path d="M8,32 L8,44" id="Path-2" stroke="#000000" stroke-width="2"></path>
                    <path d="M4,44 L12,44" id="Path-3" stroke="#000000" stroke-width="2" stroke-linecap="round"></path>
                </g>
                <path d="M22,5 L20.5,3.5" id="Path-5" stroke="#000000" stroke-width="2" stroke-linecap="round"></path>
                <path d="M25,4 L24.5,0.5" id="Path-6" stroke="#000000" stroke-width="2" stroke-linecap="round"></path>
                <path d="M28,4 L29.5,2.5" id="Path-7" stroke="#000000" stroke-width="2" stroke-linecap="round"></path>
            </g>
        </g>
    </g>
</svg>