<?xml version="1.0" encoding="UTF-8"?>
<svg width="173px" height="152px" viewBox="0 0 173 152" version="1.1" xmlns="http://www.w3.org/2000/svg" xmlns:xlink="http://www.w3.org/1999/xlink">
    <!-- Generator: Sketch 49 (51002) - http://www.bohemiancoding.com/sketch -->
    <title>food</title>
    <desc>Created with Sketch.</desc>
    <defs></defs>
    <g id="Page-1" stroke="none" stroke-width="1" fill="none" fill-rule="evenodd">
        <g id="Artboard-2" transform="translate(-647.000000, -168.000000)">
            <g id="food" transform="translate(648.000000, 169.000000)">
                <path d="M164.423077,146.634615 C164.423077,110.893161 131.059681,72.1153846 89.9038462,72.1153846 C48.7480114,72.1153846 15.3846154,105.478781 15.3846154,146.634615 C15.3846154,150 164.423077,149.038462 164.423077,146.634615 Z" id="Oval-6" stroke="#000000" stroke-width="2"></path>
                <path d="M56.8910257,45.1923077 C56.8910257,46.8406593 54.3956044,50.9615385 51.9230769,50.9615385 C54.3956044,50.9615385 56.8910257,55.0824176 56.8910257,56.7307692 C56.8910257,55.0824176 59.3406593,50.9615385 61.8131868,50.9615385 C59.3406593,50.9615385 56.8681318,46.8406593 56.8910257,45.1923077 Z" id="Path-12" stroke="#000000" stroke-width="2" stroke-linejoin="round"></path>
                <path d="M107.852564,2.88461538 C107.852564,4.53296703 105.357143,8.65384615 102.884615,8.65384615 C105.357143,8.65384615 107.852564,12.7747253 107.852564,14.4230769 C107.852564,12.7747253 110.302198,8.65384615 112.774725,8.65384615 C110.302198,8.65384615 107.82967,4.53296703 107.852564,2.88461538 Z" id="Path-12" stroke="#000000" stroke-width="2" stroke-linejoin="round"></path>
                <path d="M154.967949,81.7307692 C154.967949,83.3791209 152.472528,87.5 150,87.5 C152.472528,87.5 154.967949,91.6208791 154.967949,93.2692308 C154.967949,91.6208791 157.417583,87.5 159.89011,87.5 C157.417583,87.5 154.945055,83.3791209 154.967949,81.7307692 Z" id="Path-12" stroke="#000000" stroke-width="2" stroke-linejoin="round"></path>
                <path d="M4.96794872,48.0769231 C4.96794872,49.7252747 2.47252747,53.8461538 0,53.8461538 C2.47252747,53.8461538 4.96794872,57.967033 4.96794872,59.6153846 C4.96794872,57.967033 7.41758241,53.8461538 9.8901099,53.8461538 C7.41758241,53.8461538 4.94505494,49.7252747 4.96794872,48.0769231 Z" id="Path-12" stroke="#000000" stroke-width="2" stroke-linejoin="round"></path>
                <path d="M9.77564106,92.3076923 C9.77564106,93.9560439 7.28021978,98.0769231 4.80769231,98.0769231 C7.28021978,98.0769231 9.77564106,102.197802 9.77564106,103.846154 C9.77564106,102.197802 12.2252747,98.0769231 14.6978022,98.0769231 C12.2252747,98.0769231 9.75274721,93.9560439 9.77564106,92.3076923 Z" id="Path-12" stroke="#000000" stroke-width="2" stroke-linejoin="round"></path>
                <circle id="Oval-2" stroke="#000000" stroke-width="2" cx="116.826923" cy="58.1730769" r="4.32692308"></circle>
                <circle id="Oval-2" stroke="#000000" stroke-width="2" cx="32.2115385" cy="27.4038462" r="4.32692308"></circle>
                <circle id="Oval-2" stroke="#000000" stroke-width="2" cx="163.942308" cy="47.5961538" r="4.32692308"></circle>
                <path d="M58.7921077,87.6364065 C51.6013263,91.7399322 45.1600476,97.0064587 39.7244269,103.179831 C38.0116772,105.125044 36.3987756,107.160295 34.8937359,109.277569" id="Oval-6" stroke="#000000" stroke-width="2" stroke-linecap="round"></path>
                <circle id="Oval" stroke="#000000" stroke-width="2" cx="90.3846154" cy="64.4230769" r="7.69230769"></circle>
                <rect id="Rectangle-5" stroke="#000000" stroke-width="2" fill="#FFFFFF" fill-rule="nonzero" stroke-linejoin="round" x="9.61538462" y="144.230769" width="160.576923" height="5.76923077"></rect>
                <path d="M28.6067414,30.1870018 C31.8118695,32.7511043 33.4144337,35.3152069 33.4144337,37.8793095 C33.4144337,41.7254633 25.722126,43.6485402 25.722126,48.4562326 C25.722126,53.2639249 33.4144337,53.2639249 33.4144337,58.0716172 C33.4144337,61.2767453 31.8118695,63.8408479 28.6067414,65.7639249" id="Path-13" stroke="#000000" stroke-width="2" stroke-linecap="round" transform="translate(29.568280, 47.975463) rotate(-39.000000) translate(-29.568280, -47.975463) "></path>
                <path d="M139.849682,36.497276 C143.05481,39.0613786 144.657374,41.6254811 144.657374,44.1895837 C144.657374,48.0357376 136.965066,49.9588145 136.965066,54.7665068 C136.965066,59.5741991 144.657374,59.5741991 144.657374,64.3818914 C144.657374,67.5870196 143.05481,70.1511222 139.849682,72.0741991" id="Path-13" stroke="#000000" stroke-width="2" stroke-linecap="round" transform="translate(140.811220, 54.285738) scale(-1, 1) rotate(-25.000000) translate(-140.811220, -54.285738) "></path>
                <path d="M75.2250858,0.405534663 C78.4302141,2.13506807 80.0327781,3.86460148 80.0327781,5.5941349 C80.0327781,8.18843501 72.3404705,9.48558506 72.3404705,12.7284603 C72.3404705,15.9713353 80.0327781,15.9713353 80.0327781,19.2142105 C80.0327781,22.4570856 72.8092526,22.4643901 72.4396447,25.3429933 C72.0700368,28.2215966 79.9067385,26.4350169 79.8228328,31.2419769 C79.7389269,36.048937 72.3053955,33.0341294 72.2550519,35.9183054" id="Path-13" stroke="#000000" stroke-width="2" stroke-linecap="round" transform="translate(76.143915, 18.161920) scale(-1, 1) rotate(10.000000) translate(-76.143915, -18.161920) "></path>
                <path d="M144.036889,76.5837766 C145.666489,72.2920972 148.120383,69.3030819 151.39857,67.6167309 C154.676758,65.9303798 157.351069,65.2803004 159.421504,65.6664926" id="Path-14" stroke="#000000" stroke-width="2" stroke-linecap="round" transform="translate(151.729196, 71.071163) rotate(9.000000) translate(-151.729196, -71.071163) "></path>
                <path d="M16.9270649,78.0157021 C18.5566648,73.7240226 21.0105588,70.7350074 24.2887466,69.0486563 C27.5669345,67.3623052 30.2412458,66.7122258 32.3116803,67.098418" id="Path-14" stroke="#000000" stroke-width="2" stroke-linecap="round" transform="translate(24.619373, 72.503089) scale(-1, 1) rotate(2.000000) translate(-24.619373, -72.503089) "></path>
                <path d="M107.692308,42.3076923 C107.692308,33.6538462 116.346154,8.65384615 134.615385,8.65384615" id="Path-15" stroke="#000000" stroke-width="2" stroke-linecap="round"></path>
                <circle id="Oval-7" fill="#000000" fill-rule="nonzero" cx="118.269231" cy="36.5384615" r="1"></circle>
                <circle id="Oval-7" fill="#000000" fill-rule="nonzero" cx="133.653846" cy="44.2307692" r="1"></circle>
                <circle id="Oval-7" fill="#000000" fill-rule="nonzero" cx="156.730769" cy="59.6153846" r="1"></circle>
                <circle id="Oval-7" fill="#000000" fill-rule="nonzero" cx="164.423077" cy="82.6923077" r="1"></circle>
                <circle id="Oval-7" fill="#000000" fill-rule="nonzero" cx="72.1153846" cy="44.2307692" r="1"></circle>
                <circle id="Oval-7" fill="#000000" fill-rule="nonzero" cx="49.0384615" cy="21.1538462" r="1"></circle>
                <circle id="Oval-7" fill="#000000" fill-rule="nonzero" cx="18.2692308" cy="21.1538462" r="1"></circle>
                <circle id="Oval-7" fill="#000000" fill-rule="nonzero" cx="18.2692308" cy="51.9230769" r="1"></circle>
                <circle id="Oval-7" fill="#000000" fill-rule="nonzero" cx="18.2692308" cy="82.6923077" r="1"></circle>
            </g>
        </g>
    </g>
</svg>