<?xml version="1.0" encoding="UTF-8"?>
<svg width="139px" height="152px" viewBox="0 0 139 152" version="1.1" xmlns="http://www.w3.org/2000/svg" xmlns:xlink="http://www.w3.org/1999/xlink">
    <!-- Generator: Sketch 49 (51002) - http://www.bohemiancoding.com/sketch -->
    <title>fruits</title>
    <desc>Created with Sketch.</desc>
    <defs></defs>
    <g id="Page-1" stroke="none" stroke-width="1" fill="none" fill-rule="evenodd">
        <g id="Artboard-2" transform="translate(-69.000000, -162.000000)">
            <g id="fruits" transform="translate(70.000000, 163.000000)">
                <g id="Group-5" transform="translate(31.320816, 65.308528) rotate(-21.000000) translate(-31.320816, -65.308528) translate(12.820816, 44.475194)" stroke="#000000" stroke-width="2">
                    <path d="M18.5,41.6666667 C28.7172678,41.6666667 37,34.6746734 37,26.0496126 C37,20.6311991 35.8064516,12.0489666 28.7673938,12.0489666 C25.0645161,12.0489666 22.2986023,13.038038 18.5,13.038038 C14.0588994,13.038038 14.3213292,11.8393021 7.98808544,11.9404507 C1.19354839,12.0489666 0,21.1735737 0,26.0496126 C0,34.6746734 8.28273213,41.6666667 18.5,41.6666667 Z" id="Oval-2"></path>
                    <path d="M8.08162404,16.2729711 C6.19822123,18.3646763 5.33658703,21.6660012 4.98521715,24.6375194 C4.82977206,25.9521112 4.77419355,27.2021546 4.77419355,28.2543602" id="Oval-2" stroke-linecap="round"></path>
                    <path d="M19.0967742,13.038038 C19.0967742,10.1017684 21.483871,6.43143143 26.2580645,2.02702703" id="Path-5" stroke-linecap="round"></path>
                    <path d="M8.16018297,8.09678962 C9.74854446,5.53177507 11.8663598,4.2492678 14.513629,4.2492678 C17.1608982,4.2492678 19.2787135,5.53177507 20.867075,8.09678962 C18.7492597,10.1488013 16.6314443,11.1748071 14.513629,11.1748071 C12.3958136,11.1748071 10.2779983,10.1488013 8.16018297,8.09678962 Z" id="Path-6" stroke-linecap="round" stroke-linejoin="round" transform="translate(14.513629, 7.712037) rotate(-116.000000) translate(-14.513629, -7.712037) "></path>
                </g>
                <g id="Group-6" transform="translate(89.500000, 54.166667) rotate(21.000000) translate(-89.500000, -54.166667) translate(74.000000, 35.185185)">
                    <polygon id="Path-8" stroke="#000000" stroke-width="2" stroke-linejoin="round" points="10.7307692 8.67724868 8.34615385 3.25396825 13.1153846 4.33862434 15.5 0 17.8846154 4.33862434 22.6538462 3.25396825 20.2692308 8.67724868"></polygon>
                    <path d="M0,16.2698413 C2.76102188e-16,20.6084656 5.96153846,37.962963 15.5,37.962963 C25.0384615,37.962963 31,19.5238095 31,16.2698413 C31,5.42328042 0,5.42328042 0,16.2698413 Z" id="Path-7" stroke="#000000" stroke-width="2" fill="#FFFFFF" fill-rule="nonzero"></path>
                    <ellipse id="Oval-3" fill="#000000" fill-rule="nonzero" cx="7.15384615" cy="15.1851852" rx="1.19230769" ry="1.08465608"></ellipse>
                    <ellipse id="Oval-3" fill="#000000" fill-rule="nonzero" cx="16.6923077" cy="19.5238095" rx="1.19230769" ry="1.08465608"></ellipse>
                    <ellipse id="Oval-3" fill="#000000" fill-rule="nonzero" cx="21.4615385" cy="13.015873" rx="1.19230769" ry="1.08465608"></ellipse>
                    <ellipse id="Oval-3" fill="#000000" fill-rule="nonzero" cx="19.0769231" cy="31.4550265" rx="1.19230769" ry="1.08465608"></ellipse>
                    <ellipse id="Oval-3" fill="#000000" fill-rule="nonzero" cx="9.53846154" cy="24.9470899" rx="1.19230769" ry="1.08465608"></ellipse>
                    <ellipse id="Oval-3" fill="#000000" fill-rule="nonzero" cx="23.8461538" cy="22.7777778" rx="1.19230769" ry="1.08465608"></ellipse>
                </g>
                <g id="Group-8" stroke-linejoin="round" transform="translate(51.437310, 31.705930) rotate(29.000000) translate(-51.437310, -31.705930) translate(31.937310, 21.520745)" stroke="#000000" stroke-width="2">
                    <path d="M0.176470588,11.2573099 C0.118093752,10.3663108 2.97698294,9.99858072 3.23390113,9.4105526 C5.97497433,3.13685086 11.2303406,5.68110328e-16 19,0 C27.0374302,0 33.2891762,2.93554022 36.6470588,9.64912281 C36.8394351,10.0337503 39,10.1851852 39,11.2573099 C39,12.3294347 36.8849175,12.4885522 36.6470588,12.8791782 C33.4410287,18.1443186 27.3038591,20.3703704 19.5882353,20.3703704 C12.0738078,20.3703704 6.69811596,17.8733064 3.46115992,12.8791782 C3.12790845,12.3650223 0.234847424,12.1483091 0.176470588,11.2573099 Z" id="Path-9" stroke-linecap="square"></path>
                    <path d="M10.7647059,5.36062378 C13.1176471,3.93112411 15.8627451,3.21637427 19,3.21637427 C22.1372549,3.21637427 24.8823529,3.93112411 27.2352941,5.36062378" id="Path-9" stroke-linecap="round"></path>
                </g>
                <g id="Group-7" transform="translate(103.500000, 89.351852) rotate(-35.000000) translate(-103.500000, -89.351852) translate(83.000000, 79.629630)" stroke="#000000" stroke-width="2">
                    <path d="M20.5,19.4444444 C31.8218373,19.4444444 41,10.9806916 41,0.540123457 C41,-5.37236922e-13 0,-3.2834846e-14 0,0.540123457 C1.35743725e-15,10.9806916 9.17816263,19.4444444 20.5,19.4444444 Z" id="Oval-4"></path>
                    <path d="M20.5,15.1234568 C29.2339888,15.1234568 36.3142857,8.59427606 36.3142857,0.540123457 C36.3142857,0.540123457 4.68571429,-9.20929999e-14 4.68571429,0.540123457 C4.68571429,8.59427606 11.7660112,15.1234568 20.5,15.1234568 Z" id="Oval-5"></path>
                    <path d="M21.0857143,0 L9.37142857,10.8024691" id="Path-10"></path>
                    <path d="M32.8,0 L21.0857143,9.72222222" id="Path-10" transform="translate(26.942857, 4.861111) scale(-1, 1) translate(-26.942857, -4.861111) "></path>
                    <path d="M21.0857143,1.08024691 L21.0857143,15.1234568" id="Path-11"></path>
                </g>
                <g id="Group-9" transform="translate(0.000000, 90.740741)" stroke="#000000" stroke-width="2">
                    <path d="M67.3189655,59.2592593 C114.954727,59.2592593 137,26.3374486 137,0.529634548 C137,0.529634548 0,0.529634548 0,0.529634548 C0,29.8944469 20.8943878,59.2592593 67.3189655,59.2592593 Z" id="Oval" fill="#FFFFFF" fill-rule="nonzero" stroke-linejoin="round"></path>
                    <path d="M1.18103448,13.1687243 L134.643157,13.1687243" id="Path-4"></path>
                </g>
                <path d="M119.018518,54.6296296 C119.018518,55.8201058 117,58.7962963 115,58.7962963 C117,58.7962963 119.018518,61.7724868 119.018518,62.962963 C119.018518,61.7724868 121,58.7962963 123,58.7962963 C121,58.7962963 118.999999,55.8201058 119.018518,54.6296296 Z" id="Path-12" stroke="#000000" stroke-width="2" stroke-linejoin="round"></path>
                <path d="M51.0185184,0 C51.0185184,1.19047619 49,4.16666667 47,4.16666667 C49,4.16666667 51.0185184,7.14285715 51.0185184,8.33333333 C51.0185184,7.14285715 52.9999999,4.16666667 55,4.16666667 C52.9999999,4.16666667 50.9999999,1.19047619 51.0185184,0 Z" id="Path-12" stroke="#000000" stroke-width="2" stroke-linejoin="round"></path>
                <path d="M81.0185184,18.5185185 C81.0185184,19.7089947 79,22.6851852 77,22.6851852 C79,22.6851852 81.0185184,25.6613757 81.0185184,26.8518519 C81.0185184,25.6613757 82.9999999,22.6851852 85,22.6851852 C82.9999999,22.6851852 80.9999999,19.7089947 81.0185184,18.5185185 Z" id="Path-12" stroke="#000000" stroke-width="2" stroke-linejoin="round"></path>
                <path d="M24.0185184,31.4814815 C24.0185184,32.6719576 22,35.6481481 20,35.6481481 C22,35.6481481 24.0185184,38.6243387 24.0185184,39.8148148 C24.0185184,38.6243387 25.9999999,35.6481481 28,35.6481481 C25.9999999,35.6481481 23.9999999,32.6719576 24.0185184,31.4814815 Z" id="Path-12" stroke="#000000" stroke-width="2" stroke-linejoin="round"></path>
                <path d="M63.0185184,65.7407407 C63.0185184,66.9312169 61,69.9074074 59,69.9074074 C61,69.9074074 63.0185184,72.8835979 63.0185184,74.0740741 C63.0185184,72.8835979 64.9999999,69.9074074 67,69.9074074 C64.9999999,69.9074074 62.9999999,66.9312169 63.0185184,65.7407407 Z" id="Path-12" stroke="#000000" stroke-width="2" stroke-linejoin="round"></path>
            </g>
        </g>
    </g>
</svg>