<?xml version="1.0" encoding="UTF-8"?>
<svg width="60px" height="60px" viewBox="0 0 60 60" version="1.1" xmlns="http://www.w3.org/2000/svg" xmlns:xlink="http://www.w3.org/1999/xlink">
    <!-- Generator: Sketch 49 (51002) - http://www.bohemiancoding.com/sketch -->
    <title>glasses</title>
    <desc>Created with Sketch.</desc>
    <defs>
        <ellipse id="path-1" cx="30" cy="30.1234568" rx="30" ry="30.1234568"></ellipse>
        <path d="M19,23.2469136 C25.7444778,23.2566973 32.2931684,20.9710187 37.5775,16.7628395 C36.8275,13.3890123 35.785,9.32234568 34.9375,8.47888889 C33.0625,6.59617284 28.1875,6.97271605 25.1875,6.21962963 C22.1875,5.46654321 22.465,2.45419753 22.465,0.948024691 L22.465,0.91037037 C21.4583407,1.43634204 20.3445391,1.72238065 19.21,1.7462963 C18.0786354,1.71397526 16.9668449,1.4419413 15.9475,0.948024691 C15.9475,2.45419753 16.2175,5.50419753 13.2175,6.25728395 C10.2175,7.01037037 5.3425,6.63382716 3.4675,8.51654321 C2.4175,9.5708642 1.2175,13.4793827 0.3175,16.7101235 C5.62507196,20.9560676 12.2139345,23.2614342 19,23.2469136 Z" id="path-3"></path>
    </defs>
    <g id="glasses" stroke="none" stroke-width="1" fill="none" fill-rule="evenodd">
        <g id="Shape-+-Shape-+-Shape-+-Shape-+-Shape-+-Shape-+-Shape-+-Shape-+-Shape-+-Shape-Mask">
            <mask id="mask-2" fill="white">
                <use xlink:href="#path-1"></use>
            </mask>
            <use id="Mask" fill="#F2F2F2" xlink:href="#path-1"></use>
            <g id="Shape" mask="url(#mask-2)">
                <g transform="translate(11.000000, 37.000000)">
                    <mask id="mask-4" fill="white">
                        <use xlink:href="#path-3"></use>
                    </mask>
                    <g id="Mask" stroke="none" fill="none">
                        <use fill="#CCA37A" fill-rule="evenodd" xlink:href="#path-3"></use>
                        <path stroke="#000000" stroke-width="2" d="M19.0003446,24.2469151 C11.9870124,24.261513 5.17772624,21.8788121 -0.307184874,17.4910004 L-0.823128945,17.0782562 L-0.645819877,16.4417677 C0.676230806,11.6959866 1.6851384,8.88911318 2.75894275,7.81088988 C3.96643823,6.59842528 5.63739329,6.18153729 9.09819417,5.82305046 C9.25167036,5.80715263 9.38634365,5.7934326 9.67203525,5.7644572 C11.4193993,5.5870303 12.1994607,5.48181472 12.9740253,5.28737669 C14.1282278,4.99763862 14.6618868,4.29835019 14.8621057,3.09856866 C14.9447407,2.60339115 14.9606886,2.16272929 14.9507131,1.32987266 C14.9481318,1.11436426 14.9475,1.04816196 14.9475,0.948024691 L14.9475,-0.647725999 L16.383551,0.0481027584 C17.2756648,0.48037041 18.248571,0.718422028 19.1889251,0.746518397 C20.1693144,0.72585217 21.1318428,0.478662466 22.0019094,0.024059422 L23.465,-0.740394072 L23.465,0.948024691 C23.465,1.05068055 23.4643175,1.11865208 23.4615388,1.33908219 C23.4512071,2.15868461 23.4663281,2.59030596 23.5460638,3.07512156 C23.7419201,4.26598344 24.2716948,4.95870974 25.4309747,5.24972237 C26.2055393,5.4441604 26.9856007,5.54937598 28.7329647,5.72680288 C29.0186563,5.75577828 29.1533296,5.76949831 29.3068058,5.78539613 C32.7676067,6.14388297 34.4385618,6.56077096 35.642914,7.77009339 C36.580427,8.7031337 37.4836575,11.7324491 38.5536711,16.5458372 L38.6892717,17.1558279 L38.2004526,17.5450991 C32.7392467,21.8941322 25.9710916,24.2566198 19.0003446,24.2469151 Z"></path>
                    </g>
                    <path d="M15.2875,4.72098765 C16.93,6.22716049 21.2875,6.53592593 23.0875,4.72098765 L45,-7 L63,28 L5,45 L-25,-7 L-3.55271368e-15,-4 L15.2875,4.72098765 Z" id="Shape" stroke="#000000" stroke-width="2" fill="#C8CCC9" fill-rule="evenodd" mask="url(#mask-4)"></path>
                </g>
            </g>
            <path d="M19.68,24.507037 C19.68,24.507037 16.68,23.3774074 16.68,27.1428395 C16.68,30.9082716 20.61,30.5166667 20.61,30.5166667" id="Shape" stroke="#000000" stroke-width="2" fill="#CCA37A" mask="url(#mask-2)"></path>
            <path d="M39.93,24.8835802 C39.93,24.8835802 43.11,23.3774074 43.11,27.1428395 C43.11,30.9082716 39.18,30.5166667 39.18,30.5166667" id="Shape" stroke="#000000" stroke-width="2" fill="#CCA37A" mask="url(#mask-2)"></path>
            <path d="M39.8925,25.1998765 L39.93,24.8835802 C40.475237,24.6289262 41.0805204,24.5324127 41.6775,24.6049383 C41.7394253,24.5218053 41.7759097,24.4223689 41.7825,24.3187654 C41.7825,21.517284 42.18,9.03864198 29.43,9.03864198 C16.68,9.03864198 17.55,21.8712346 17.55,24.7103704 C18.1910129,24.3254354 18.9705616,24.2507554 19.6725,24.507037 C19.6452803,22.6279106 19.8979438,20.7099139 20.4225,18.8588889 C23.58,19.7851852 36.9225,19.6119753 39.1725,18.8588889 C39.5575,21.3390535 39.7975,23.452716 39.8925,25.1998765 Z" id="Shape" stroke="#000000" stroke-width="2" fill="#804F40" stroke-linejoin="round" mask="url(#mask-2)"></path>
            <path d="M39.18,18.8588889 C36.93,19.6119753 23.5875,19.7851852 20.43,18.8588889 C19.68,21.8712346 19.68,22.677037 19.68,26.3897531 C19.68,32.4144444 25.68,37.6860494 30.18,37.6860494 C34.68,37.6860494 39.93,32.4144444 39.93,26.3897531 C39.8096297,23.8681485 39.5592945,21.3544945 39.18,18.8588889 Z" id="Shape" stroke="#000000" stroke-width="2" fill="#CCA37A" stroke-linejoin="round" mask="url(#mask-2)"></path>
            <path d="M34.59,54.2749383 L31.68,45.4638272 L29.1525,45.4638272 L26.1525,54.1996296 C28.555,60.7332099 29.96125,64 30.37125,64 C30.9379167,63.9832647 32.3441667,60.7415775 34.59,54.2749383 Z" id="Shape" stroke="#000000" stroke-width="2" fill="#E6E6E6" mask="url(#mask-2)"></path>
            <polygon id="Shape" stroke="#000000" stroke-width="2" stroke-linejoin="round" mask="url(#mask-2)" points="21.93 23.3774074 28.68 23.3774074 27.93 28.6490123 22.68 28.6490123"></polygon>
            <polygon id="Shape" stroke="#000000" stroke-width="2" stroke-linejoin="round" mask="url(#mask-2)" points="30.93 23.3774074 37.68 23.3774074 36.93 28.6490123 31.68 28.6490123"></polygon>
            <path d="M28.305,26.0132099 C28.68,26.3897531 30.93,26.3897531 31.305,26.0132099" id="Shape" stroke="#000000" stroke-width="2" stroke-linejoin="round" mask="url(#mask-2)"></path>
            <polyline id="Shape" stroke="#000000" stroke-width="2" fill="#E6E6E6" mask="url(#mask-2)" points="28.4025 42.7301235 29.1525 45.4638272 31.68 45.4638272 32.31 42.7"></polyline>
        </g>
    </g>
</svg>