<?xml version="1.0" encoding="UTF-8"?>
<svg width="60px" height="60px" viewBox="0 0 60 60" version="1.1" xmlns="http://www.w3.org/2000/svg" xmlns:xlink="http://www.w3.org/1999/xlink">
    <!-- Generator: Sketch 49 (51002) - http://www.bohemiancoding.com/sketch -->
    <title>male</title>
    <desc>Created with Sketch.</desc>
    <defs>
        <circle id="path-1" cx="30" cy="30" r="30"></circle>
        <path d="M19,23 C25.7444778,23.0097436 32.2931684,20.7334325 37.5775,16.5425 C36.8275,13.1825 35.785,9.1325 34.9375,8.2925 C33.0625,6.4175 28.1875,6.7925 25.1875,6.0425 C22.1875,5.2925 22.465,2.2925 22.465,0.7925 C21.4583407,1.27881605 20.3445391,1.56368237 19.21,1.5875 C18.0786354,1.55531143 16.9668449,1.28439236 15.9475,0.7925 C15.9475,2.2925 16.2175,5.33 13.2175,6.08 C10.2175,6.83 5.3425,6.455 3.4675,8.33 C2.4175,9.38 1.2175,13.2725 0.3175,16.49 C5.62507196,20.7185428 12.2139345,23.0144611 19,23 Z" id="path-3"></path>
    </defs>
    <g id="male" stroke="none" stroke-width="1" fill="none" fill-rule="evenodd">
        <g id="Shape-+-Shape-+-Shape-+-Shape-+-Shape-Mask">
            <mask id="mask-2" fill="white">
                <use xlink:href="#path-1"></use>
            </mask>
            <use id="Mask" fill="#DAF2DE" xlink:href="#path-1"></use>
            <g id="Shape" mask="url(#mask-2)">
                <g transform="translate(11.000000, 37.000000)">
                    <mask id="mask-4" fill="white">
                        <use xlink:href="#path-3"></use>
                    </mask>
                    <g id="Mask" stroke="none" fill="none">
                        <use fill="#F2E8CE" fill-rule="evenodd" xlink:href="#path-3"></use>
                        <path stroke="#000000" stroke-width="2" d="M19.0003432,24.0000015 C11.9877976,24.0145396 5.17911543,21.6418151 -0.305620004,17.2721262 L-0.824113641,16.8590423 L-0.64553393,16.2206199 C0.676819389,11.4932068 1.68588369,8.69740275 2.76039322,7.62289322 C3.96786743,6.415419 5.63813338,6.00041079 9.09861198,5.64342641 C9.25208426,5.62759415 9.38675389,5.61393072 9.67244507,5.58507411 C11.4199969,5.40835539 12.2001707,5.30355591 12.9749644,5.1098575 C14.1295092,4.82122129 14.6623045,4.12592588 14.8622159,2.93289675 C14.9447488,2.44035756 14.9606836,2.00186268 14.9507137,1.17288138 C14.948132,0.958218944 14.9475,0.892273017 14.9475,0.7925 L14.9475,-0.800400371 L16.3821021,-0.10812259 C17.2745443,0.322532002 18.2479234,0.559723208 19.1890114,0.587720285 C20.1564903,0.567409787 21.1303298,0.326699262 22.0300024,-0.107931623 L23.465,-0.801177455 L23.465,0.7925 C23.465,0.894783693 23.4643174,0.962492434 23.4615382,1.18205833 C23.4512122,1.99784382 23.4663207,2.42733926 23.5459566,2.90956401 C23.741507,4.09369258 24.2704161,4.78245262 25.4300356,5.0723575 C26.2048293,5.26605591 26.9850031,5.37085539 28.7325549,5.54757411 C29.0182461,5.57643072 29.1529157,5.59009415 29.306388,5.60592641 C32.7668666,5.96291079 34.4371326,6.377919 35.6414571,7.58225754 C36.5798129,8.51230931 37.4831535,11.5295772 38.5534816,16.324647 L38.6900492,16.9364697 L38.1988866,17.3260041 C32.7378588,21.657072 25.9703065,24.0096669 19.0003432,24.0000015 Z"></path>
                    </g>
                    <path d="M13.18,6.0275 C13.18,6.0275 16.8325,10.8875 19.525,10.8875 C22.2175,10.8875 25.1875,6.02 25.1875,6.02 L45,3 L48,26 L-10,28 L-8,3 L13.18,6.0275 Z" id="Shape" stroke="#000000" stroke-width="2" fill="#9DCCA5" fill-rule="evenodd" mask="url(#mask-4)"></path>
                </g>
            </g>
            <path d="M19.68,25.4025 C19.68,25.4025 16.68,24.2775 16.68,28.0275 C16.68,31.7775 20.61,31.3875 20.61,31.3875" id="Shape" stroke="#000000" stroke-width="2" fill="#F2E8CE" mask="url(#mask-2)"></path>
            <path d="M39.93,25.7775 C39.93,25.7775 43.11,24.2775 43.11,28.0275 C43.11,31.7775 39.18,31.3875 39.18,31.3875" id="Shape" stroke="#000000" stroke-width="2" fill="#F2E8CE" mask="url(#mask-2)"></path>
            <path d="M39.8925,26.0925 L39.93,25.7775 C40.475237,25.5238897 41.0805204,25.4277717 41.6775,25.5 C41.7394253,25.4172077 42.7759097,26.3181788 42.7825,26.215 C42.7825,23.425 44.4185689,9 29.8485689,9 C15.2785689,9 17,22.95 17,25.7775 C17.6410129,25.3941426 18.9705616,25.1472687 19.6725,25.4025 C19.6452803,23.5310749 19.8979438,21.6209389 20.4225,19.7775 C23.58,20.7 36.9225,20.5275 39.1725,19.7775 C39.5575,22.2475 39.7975,24.3525 39.8925,26.0925 Z" id="Shape" stroke="#000000" stroke-width="2" fill="#EFE7A7" stroke-linejoin="round" mask="url(#mask-2)"></path>
            <path d="M20.43,19.7775 C19.68,22.7775 19.68,23.58 19.68,27.2775 C19.68,33.2775 25.68,38.5275 30.18,38.5275 C34.68,38.5275 39.93,33.2775 39.93,27.2775 C39.8096297,24.7662298 39.5592945,22.2628778 39.18,19.7775 C36.93,20.5275 23.5875,20.7 20.43,19.7775 Z" id="Shape" stroke="#000000" stroke-width="2" fill="#F2E8CE" stroke-linejoin="round" mask="url(#mask-2)"></path>
        </g>
    </g>
</svg>