<?xml version="1.0" encoding="UTF-8"?>
<svg width="270px" height="152px" viewBox="0 0 270 152" version="1.1" xmlns="http://www.w3.org/2000/svg" xmlns:xlink="http://www.w3.org/1999/xlink">
    <!-- Generator: Sketch 49 (51002) - http://www.bohemiancoding.com/sketch -->
    <title>money</title>
    <desc>Created with Sketch.</desc>
    <defs>
        <path d="M16.8555403,19.6329814 L14.1941392,19.6329814 L14.1941392,10.7088989 L21.2912088,10.7088989 C22.3557692,10.7088989 23.0654762,9.99497235 23.0654762,8.92408245 C23.0654762,7.85319256 22.3557692,7.13926596 21.2912088,7.13926596 L14.1941392,7.13926596 L14.1941392,1.78481649 C14.1941392,0.713926596 13.4844322,0 12.4198718,0 C11.3553114,0 10.6456044,0.713926596 10.6456044,1.78481649 L10.6456044,7.13926596 L7.9842033,7.13926596 C3.5485348,7.13926596 0,10.7088989 0,15.1709402 C0,19.6329814 3.5485348,23.2026144 7.9842033,23.2026144 L10.6456044,23.2026144 L10.6456044,32.1266968 L1.7742674,32.1266968 C0.70970696,32.1266968 0,32.8406234 0,33.9115133 C0,34.9824032 0.70970696,35.6963298 1.7742674,35.6963298 L10.6456044,35.6963298 L10.6456044,41.0507793 C10.6456044,42.1216692 11.3553114,42.8355958 12.4198718,42.8355958 C13.4844322,42.8355958 14.1941392,42.1216692 14.1941392,41.0507793 L14.1941392,35.6963298 L16.8555403,35.6963298 C21.2912088,35.6963298 24.8397436,32.1266968 24.8397436,27.6646556 C24.8397436,23.2026144 21.2912088,19.6329814 16.8555403,19.6329814 Z M7.9842033,19.6329814 C5.50022894,19.6329814 3.5485348,17.6696833 3.5485348,15.1709402 C3.5485348,12.6721971 5.50022894,10.7088989 7.9842033,10.7088989 L10.6456044,10.7088989 L10.6456044,19.6329814 L7.9842033,19.6329814 Z M16.8555403,32.1266968 L14.1941392,32.1266968 L14.1941392,23.2026144 L16.8555403,23.2026144 C19.3395147,23.2026144 21.2912088,25.1659125 21.2912088,27.6646556 C21.2912088,30.1633987 19.3395147,32.1266968 16.8555403,32.1266968 Z" id="path-1"></path>
    </defs>
    <g id="Page-1" stroke="none" stroke-width="1" fill="none" fill-rule="evenodd">
        <g id="Artboard-2" transform="translate(-304.000000, -207.000000)">
            <g id="money" transform="translate(305.000000, 208.000000)">
                <path d="M6.43993351,0 C6.43993351,2.01465201 3.2051282,7.05128205 0,7.05128205 C3.2051282,7.05128205 6.43993351,12.0879121 6.43993351,14.1025641 C6.43993351,12.0879121 9.61538461,7.05128205 12.8205128,7.05128205 C9.61538461,7.05128205 6.41025641,2.01465201 6.43993351,0 Z" id="Path-12" stroke="#000000" stroke-width="2" stroke-linejoin="round"></path>
                <path d="M261.568138,42.3076923 C261.568138,44.3223442 258.333334,49.3589744 255.128205,49.3589744 C258.333334,49.3589744 261.568138,54.3956045 261.568138,56.4102564 C261.568138,54.3956045 264.743589,49.3589744 267.948718,49.3589744 C264.743589,49.3589744 261.538461,44.3223442 261.568138,42.3076923 Z" id="Path-12" stroke="#000000" stroke-width="2" stroke-linejoin="round"></path>
                <path d="M62.8501898,135.897436 C62.8501898,137.912088 59.6153846,142.948718 56.4102564,142.948718 C59.6153846,142.948718 62.8501898,147.985348 62.8501898,150 C62.8501898,147.985348 66.0256409,142.948718 69.2307692,142.948718 C66.0256409,142.948718 62.8205127,137.912088 62.8501898,135.897436 Z" id="Path-12" stroke="#000000" stroke-width="2" stroke-linejoin="round"></path>
                <g id="Group-3" transform="translate(28.205128, 23.076923)">
                    <rect id="Rectangle-4" stroke="#000000" stroke-width="2" fill="#FFFFFF" fill-rule="nonzero" stroke-linejoin="round" x="14.1941392" y="0" width="184.52381" height="80.3167421"></rect>
                    <rect id="Rectangle-4" stroke="#000000" stroke-width="2" fill="#FFFFFF" fill-rule="nonzero" stroke-linejoin="round" x="0" y="10.7088989" width="184.52381" height="80.3167421"></rect>
                    <ellipse id="Oval" stroke="#000000" stroke-width="2" cx="92.2619048" cy="51.7596782" rx="28.3882784" ry="28.5570639"></ellipse>
                    <g id="icon-/-dollar-sign" transform="translate(79.842033, 30.341880)">
                        <g id="Shape" fill="#000000" fill-rule="nonzero">
                            <path d="M16.8555403,19.6329814 L14.1941392,19.6329814 L14.1941392,10.7088989 L21.2912088,10.7088989 C22.3557692,10.7088989 23.0654762,9.99497235 23.0654762,8.92408245 C23.0654762,7.85319256 22.3557692,7.13926596 21.2912088,7.13926596 L14.1941392,7.13926596 L14.1941392,1.78481649 C14.1941392,0.713926596 13.4844322,0 12.4198718,0 C11.3553114,0 10.6456044,0.713926596 10.6456044,1.78481649 L10.6456044,7.13926596 L7.9842033,7.13926596 C3.5485348,7.13926596 0,10.7088989 0,15.1709402 C0,19.6329814 3.5485348,23.2026144 7.9842033,23.2026144 L10.6456044,23.2026144 L10.6456044,32.1266968 L1.7742674,32.1266968 C0.70970696,32.1266968 0,32.8406234 0,33.9115133 C0,34.9824032 0.70970696,35.6963298 1.7742674,35.6963298 L10.6456044,35.6963298 L10.6456044,41.0507793 C10.6456044,42.1216692 11.3553114,42.8355958 12.4198718,42.8355958 C13.4844322,42.8355958 14.1941392,42.1216692 14.1941392,41.0507793 L14.1941392,35.6963298 L16.8555403,35.6963298 C21.2912088,35.6963298 24.8397436,32.1266968 24.8397436,27.6646556 C24.8397436,23.2026144 21.2912088,19.6329814 16.8555403,19.6329814 Z M7.9842033,19.6329814 C5.50022894,19.6329814 3.5485348,17.6696833 3.5485348,15.1709402 C3.5485348,12.6721971 5.50022894,10.7088989 7.9842033,10.7088989 L10.6456044,10.7088989 L10.6456044,19.6329814 L7.9842033,19.6329814 Z M16.8555403,32.1266968 L14.1941392,32.1266968 L14.1941392,23.2026144 L16.8555403,23.2026144 C19.3395147,23.2026144 21.2912088,25.1659125 21.2912088,27.6646556 C21.2912088,30.1633987 19.3395147,32.1266968 16.8555403,32.1266968 Z" id="path-1"></path>
                        </g>
                        <g id="color-/-black-Clipped">
                            <mask id="mask-2" fill="white">
                                <use xlink:href="#path-1"></use>
                            </mask>
                            <g id="path-1"></g>
                            <g id="color-/-black" mask="url(#mask-2)" fill="#000000">
                                <g transform="translate(-8.871337, 0.000000)" id="Shape">
                                    <rect x="0" y="0" width="42.5824176" height="42.8355958"></rect>
                                </g>
                            </g>
                        </g>
                    </g>
                    <polyline id="Path-3" stroke="#000000" stroke-width="2" stroke-linecap="round" stroke-linejoin="round" points="8.871337 32.1266968 8.871337 19.6329814 21.2912088 19.6329814"></polyline>
                    <polyline id="Path-3" stroke="#000000" stroke-width="2" stroke-linecap="round" stroke-linejoin="round" transform="translate(169.442537, 25.879839) rotate(90.000000) translate(-169.442537, -25.879839) " points="163.232601 32.1266968 163.232601 19.6329814 175.652473 19.6329814"></polyline>
                    <polyline id="Path-3" stroke="#000000" stroke-width="2" stroke-linecap="round" stroke-linejoin="round" transform="translate(15.081273, 75.854701) scale(-1, 1) rotate(-180.000000) translate(-15.081273, -75.854701) " points="8.871337 82.1015586 8.871337 69.6078431 21.2912088 69.6078431"></polyline>
                    <polyline id="Path-3" stroke="#000000" stroke-width="2" stroke-linecap="round" stroke-linejoin="round" transform="translate(169.442537, 75.854701) scale(-1, 1) rotate(-90.000000) translate(-169.442537, -75.854701) " points="163.232601 82.1015586 163.232601 69.6078431 175.652473 69.6078431"></polyline>
                </g>
            </g>
        </g>
    </g>
</svg>