<?xml version="1.0" encoding="UTF-8"?>
<svg width="60px" height="60px" viewBox="0 0 60 60" version="1.1" xmlns="http://www.w3.org/2000/svg" xmlns:xlink="http://www.w3.org/1999/xlink">
    <!-- Generator: Sketch 49 (51002) - http://www.bohemiancoding.com/sketch -->
    <title>woman-short-hair</title>
    <desc>Created with Sketch.</desc>
    <defs>
        <ellipse id="path-1" cx="30" cy="30.1234568" rx="30" ry="30.1234568"></ellipse>
        <path d="M33,7.5617284 C31.5,6.05555556 24,6.05555556 22.5,4.54938272 C21,3.04320988 20.82,2.29012346 20.82,0.482716049 L20.4675,0.407407407 C19.6660507,0.645777759 18.8357907,0.772476344 18,0.783950617 C17.2102497,0.780175353 16.4258842,0.653144159 15.675,0.407407407 L15.1875,0.482716049 C15.1875,2.29012346 15.0075,3.04320988 13.5075,4.54938272 C12.0075,6.05555556 4.5075,6.05555556 3.0075,7.5617284 C0.87,9.70802469 0.24,13.6541975 0.06,16.2674074 C10.7021472,24.2402389 25.2978528,24.2402389 35.94,16.2674074 C35.76,13.6541975 35.13,9.70802469 33,7.5617284 Z" id="path-3"></path>
    </defs>
    <g id="woman-short-hair" stroke="none" stroke-width="1" fill="none" fill-rule="evenodd">
        <g id="Shape-+-Shape-+-Shape-Mask">
            <mask id="mask-2" fill="white">
                <use xlink:href="#path-1"></use>
            </mask>
            <use id="Mask" fill="#CEE2F2" xlink:href="#path-1"></use>
            <path d="M24,37 C26.3625,35.9080247 33.5,35.4938272 35,37 C36.11,38.1145679 43,41.3765432 43,41 C43,36.4814815 44.25,31.2530864 44.25,22.9691358 C44.25,10.9197531 34.125,7.90740741 31.5,8.66049383 C30,6.40123457 14.25,7.15432099 14.25,24.4753086 C14.25,32.0061728 16,35.7283951 16,41 C16,41.5346914 22,38 24,37 Z" id="Shape" stroke="#000000" stroke-width="2" fill="#4D1D0F" stroke-linecap="round" stroke-linejoin="round" mask="url(#mask-2)"></path>
            <path d="M40.935,21.3123457 C36.75,21.3123457 33,18 30.75,15.4382716 C30.0000039,17 29.25,19.9567901 25.5,22.2160494 C23.4030008,23.3691865 21.1166461,24.1344411 18.75,24.4753086 C18.75,31.2530864 24,38.7839506 30,38.7839506 C36,38.7839506 41.25,32.7592593 41.25,24.4753086 C41.251058,23.4130407 41.145525,22.3533683 40.935,21.3123457 Z" id="Shape" stroke="#000000" stroke-width="2" fill="#A26121" stroke-linecap="round" stroke-linejoin="round" mask="url(#mask-2)"></path>
            <g id="Shape" mask="url(#mask-2)">
                <g transform="translate(12.000000, 39.000000)">
                    <mask id="mask-4" fill="white">
                        <use xlink:href="#path-3"></use>
                    </mask>
                    <g id="Mask" stroke="none" fill="none" stroke-linecap="round" stroke-linejoin="round">
                        <use fill="#A26121" fill-rule="evenodd" xlink:href="#path-3"></use>
                        <path stroke="#000000" stroke-width="2" d="M33.7085573,6.85607507 L33.7097963,6.8573214 C35.7198472,8.88275085 36.6642444,12.2296344 36.9376361,16.1986894 L36.9750252,16.7414976 L36.5395774,17.0677242 C25.5420469,25.3068 10.4579531,25.3068 -0.53957739,17.0677242 L-0.975025186,16.7414976 L-0.937636126,16.1986894 C-0.664047516,12.2267758 0.28190311,8.88141528 2.29894275,6.85607507 C3.15318645,5.99831596 4.37751581,5.69097402 8.09244287,5.06927155 C11.1275158,4.56134439 12.4031865,4.24111431 12.7989427,3.84372939 C14.0157376,2.62192713 14.1875,2.17684527 14.1875,0.482716049 L14.1875,-0.374666258 L15.7587111,-0.617385795 L15.9860309,-0.5429924 C16.6380427,-0.329612916 17.3190821,-0.219315819 17.9862726,-0.215955158 C18.7301309,-0.226167324 19.4690797,-0.338931714 20.1824181,-0.551095741 L20.4269442,-0.623823717 L21.82,-0.326209138 L21.82,0.482716049 C21.82,2.17684527 21.9917624,2.62192713 23.2085573,3.84372939 C23.6043135,4.24111431 24.8799842,4.56134439 27.9150571,5.06927155 C31.6299842,5.69097402 32.8543135,5.99831596 33.7085573,6.85607507 Z"></path>
                    </g>
                    <path d="M11,6.05555556 C11,8.1054321 17.75625,12 18,12 C18.625,12 25,9.06790123 25,6.05555556 L44,-3 L50,18 L-8,35 L-20,14 L-3,-4 L11,6.05555556 Z" id="Shape" stroke="#000000" stroke-width="2" fill="#9DCEF3" fill-rule="evenodd" stroke-linecap="round" stroke-linejoin="round" mask="url(#mask-4)"></path>
                </g>
            </g>
        </g>
    </g>
</svg>