<?xml version="1.0" encoding="UTF-8"?>
<svg width="60px" height="60px" viewBox="0 0 60 60" version="1.1" xmlns="http://www.w3.org/2000/svg" xmlns:xlink="http://www.w3.org/1999/xlink">
    <!-- Generator: Sketch 49 (51002) - http://www.bohemiancoding.com/sketch -->
    <title>woman</title>
    <desc>Created with Sketch.</desc>
    <defs>
        <ellipse id="path-1" cx="30" cy="30.1234568" rx="30" ry="30.1234568"></ellipse>
        <path d="M33,8.46355821 C31.5,6.76752646 24,6.76752646 22.5,5.07149471 C21,3.37546297 20.82,2.52744709 20.82,0.492208995 L20.4675,0.407407407 C19.6660507,0.675825263 18.8357907,0.818494695 18,0.831415344 C17.2102497,0.827164193 16.4258842,0.684120226 15.675,0.407407407 L15.1875,0.492208995 C15.1875,2.52744709 15.0075,3.37546297 13.5075,5.07149471 C12.0075,6.76752646 4.5075,6.76752646 3.0075,8.46355821 C0.87,10.8804034 0.24,15.3240066 0.06,18.2666217 C10.7021472,27.2444594 25.2978528,27.2444594 35.94,18.2666217 C35.76,15.3240066 35.13,10.8804034 33,8.46355821 Z" id="path-3"></path>
        <path d="M8.8875,5.95012346 C8.8875,9.82098765 15.375,11.3271605 18.375,11.3271605 C22.125,11.3271605 27.375,9.06790123 27.375,6.05555556 L42,5 L41,25 L-5,25 L-4,2 L8.8875,5.95012346 Z" id="path-5"></path>
    </defs>
    <g id="woman" stroke="none" stroke-width="1" fill="none" fill-rule="evenodd">
        <g>
            <mask id="mask-2" fill="white">
                <use xlink:href="#path-1"></use>
            </mask>
            <use id="Mask" fill="#F2CECE" xlink:href="#path-1"></use>
            <path d="M15.6825,43.1324691 C18.045,42.0404938 24.165,41.8974074 25.5075,40.5493827 C27.0075,39.0432099 27.1875,38.2901235 27.1875,36.482716 L27.675,36.4074074 C28.4258842,36.6531442 29.2102497,36.7801754 30,36.7839506 C30.8357907,36.7724763 31.6660507,36.6457778 32.4675,36.4074074 L32.8125,36.4601235 C32.8125,38.2675309 32.9925,39.0206173 34.4925,40.5267901 C35.6025,41.641358 39.975,41.9275309 42.795,42.6128395 C42.75,42.1308642 42.75,41.6790123 42.75,41.3024691 C42.75,36.7839506 44.25,29.2530864 44.25,20.9691358 C44.25,8.91975309 34.125,5.90740741 31.5,6.66049383 C30,4.40123457 14.25,5.15432099 14.25,22.4753086 C14.25,30.0061728 15.75,36.0308642 15.75,41.3024691 C15.75,41.8371605 15.75,42.4320988 15.6825,43.1324691 Z" id="Shape" stroke="#000000" stroke-width="2" fill="#4D1D0F" stroke-linecap="round" stroke-linejoin="round" mask="url(#mask-2)"></path>
            <g id="Shape" mask="url(#mask-2)">
                <g transform="translate(12.000000, 36.000000)">
                    <mask id="mask-4" fill="white">
                        <use xlink:href="#path-3"></use>
                    </mask>
                    <g id="Mask" stroke="none" fill="none" stroke-linecap="round" stroke-linejoin="round">
                        <use fill="#E6D9B8" fill-rule="evenodd" xlink:href="#path-3"></use>
                        <path stroke="#000000" stroke-width="2" d="M33.7490702,7.80106752 L33.7502243,7.80237485 C35.7339893,10.0532918 36.6672852,13.7777608 36.9381343,18.2055658 L36.9688083,18.7070192 L36.5848091,19.0309654 C25.5702055,28.3230115 10.4297945,28.3230115 -0.584809096,19.0309654 L-0.968808294,18.7070192 L-0.938134345,18.2055658 C-0.667091703,13.7745982 0.267706542,10.0519541 2.25842985,7.80106752 C3.11117694,6.83687676 4.35435901,6.48546405 8.07231161,5.78482342 C11.104359,5.21344024 12.3611769,4.85817305 12.7584298,4.40900403 C13.9983356,3.00705765 14.1875,2.45509416 14.1875,0.492208995 L14.1875,-0.348855922 L15.7685063,-0.623875092 L16.0207838,-0.530906811 C16.6630107,-0.294235919 17.3322152,-0.172193766 17.9845427,-0.168465184 C18.7172795,-0.179792704 19.4456541,-0.304954448 20.1499223,-0.540824832 L20.4222105,-0.632018398 L21.82,-0.295749548 L21.82,0.492208995 C21.82,2.45509416 22.0091644,3.00705765 23.2490702,4.40900403 C23.6463231,4.85817305 24.903141,5.21344024 27.9351884,5.78482342 C31.653141,6.48546405 32.8963231,6.83687676 33.7490702,7.80106752 Z"></path>
                    </g>
                    <g id="Shape" stroke="none" fill="none" stroke-linecap="round" stroke-linejoin="round" mask="url(#mask-4)">
                        <use fill="#F39D9D" fill-rule="evenodd" xlink:href="#path-5"></use>
                        <path stroke="#000000" stroke-width="2" d="M9.8875,5.95012346 C9.8875,8.39394435 14.3742334,10.3271605 18.375,10.3271605 C22.1331441,10.3271605 26.375,8.08541731 26.375,6.05555556 L26.375,5.12512908 L43.0551872,3.92124093 L41.9512492,26 L-6.04442299,26 L-4.94290442,0.665072811 L9.8875,5.21071226 L9.8875,5.95012346 Z"></path>
                    </g>
                </g>
            </g>
            <path d="M40.935,19.3123457 C36.75,19.3123457 33,16 30.75,13.4382716 C30.0000039,15 29.25,17.9567901 25.5,20.2160494 C23.4030008,21.3691865 21.1166461,22.1344411 18.75,22.4753086 C18.75,29.2530864 24,36.7839506 30,36.7839506 C36,36.7839506 41.25,30.7592593 41.25,22.4753086 C41.251058,21.4130407 41.145525,20.3533683 40.935,19.3123457 Z" id="Shape" stroke="#000000" stroke-width="2" fill="#E6D9B8" stroke-linecap="round" stroke-linejoin="round" mask="url(#mask-2)"></path>
        </g>
    </g>
</svg>